<svg xmlns="http://www.w3.org/2000/svg" xmlns:xlink="http://www.w3.org/1999/xlink" width="504.997" height="118.656" viewBox="0 0 504.997 118.656">
  <defs>
    <filter id="Trazado_831296" x="5.13" y="0" width="147.764" height="111.646" filterUnits="userSpaceOnUse">
      <feOffset dy="3" input="SourceAlpha"/>
      <feGaussianBlur stdDeviation="3" result="blur"/>
      <feFlood flood-opacity="0.161"/>
      <feComposite operator="in" in2="blur"/>
      <feComposite in="SourceGraphic"/>
    </filter>
    <filter id="Rectángulo_375635" x="145.149" y="15.02" width="132.558" height="103.636" filterUnits="userSpaceOnUse">
      <feOffset dy="3" input="SourceAlpha"/>
      <feGaussianBlur stdDeviation="3" result="blur-2"/>
      <feFlood flood-opacity="0.161"/>
      <feComposite operator="in" in2="blur-2"/>
      <feComposite in="SourceGraphic"/>
    </filter>
    <clipPath id="clip-path">
      <rect id="Rectángulo_375638" data-name="Rectángulo 375638" width="41.197" height="34.486" fill="none"/>
    </clipPath>
    <clipPath id="clip-path-2">
      <rect id="Rectángulo_375639" data-name="Rectángulo 375639" width="26.404" height="20.827" fill="none"/>
    </clipPath>
    <filter id="Rectángulo_375643" x="315.268" y="5.059" width="113.506" height="113.506" filterUnits="userSpaceOnUse">
      <feOffset dy="3" input="SourceAlpha"/>
      <feGaussianBlur stdDeviation="3" result="blur-3"/>
      <feFlood flood-opacity="0.161"/>
      <feComposite operator="in" in2="blur-3"/>
      <feComposite in="SourceGraphic"/>
    </filter>
  </defs>
  <g id="Grupo_1084879" data-name="Grupo 1084879" transform="translate(-180 -3251.129)">
    <path id="Trazado_829292" data-name="Trazado 829292" d="M0,0H487V84H0Z" transform="translate(180 3277)" fill="#f2f9fc"/>
    <g id="Grupo_1071688" data-name="Grupo 1071688" transform="translate(194 3257)">
      <g transform="matrix(1, 0, 0, 1, -14, -5.87)" filter="url(#Trazado_831296)">
        <path id="Trazado_831296-2" data-name="Trazado 831296" d="M0,0H129.764V93.645H0Z" transform="translate(14.13 6)" fill="#fff"/>
      </g>
      <g id="Grupo_1071687" data-name="Grupo 1071687">
        <g id="Grupo_1071707" data-name="Grupo 1071707">
          <path id="Trazado_818363" data-name="Trazado 818363" d="M173.478,64.453H142.73a9.259,9.259,0,0,1-9.259-9.259V52.122a9.259,9.259,0,0,1,9.259-9.259h30.748a9.259,9.259,0,0,1,9.259,9.259v3.073a9.259,9.259,0,0,1-9.259,9.259" transform="translate(-66.961 -21.504)" fill="#ebebeb"/>
          <path id="Trazado_818364" data-name="Trazado 818364" d="M18.917,70.607a20.076,20.076,0,1,1,20.4,19.841,20.149,20.149,0,0,1-20.4-19.841m29.67-.479a9.6,9.6,0,1,0-9.443,9.8,9.63,9.63,0,0,0,9.443-9.8" transform="translate(-9.489 -25.142)" fill="#f5f5f5"/>
          <path id="Trazado_818365" data-name="Trazado 818365" d="M18.918,70.609A20.148,20.148,0,0,1,38.668,50.12l.168,10.524a9.643,9.643,0,0,0,.308,19.284l.168,10.523A20.141,20.141,0,0,1,18.918,70.609" transform="translate(-9.49 -25.145)" fill="#949af8"/>
          <path id="Trazado_818366" data-name="Trazado 818366" d="M59.006,80.624a.705.705,0,0,1,.008.156c0,.118,0,.269,0,.459a4.484,4.484,0,0,1-.051.744,6.767,6.767,0,0,1-.167,1.006,9.14,9.14,0,0,1-1,2.606A9.617,9.617,0,0,1,46.24,90a10.108,10.108,0,0,1-1.279-.539,10.257,10.257,0,0,1-1.205-.75,10.787,10.787,0,0,1-1.118-.924,10.917,10.917,0,0,1-.972-1.115A9.487,9.487,0,0,1,40.233,84a9.683,9.683,0,0,1-.1-6.152,9.5,9.5,0,0,1,1.347-2.709A8.976,8.976,0,0,1,43.5,73.038a8.894,8.894,0,0,1,2.442-1.369A9.647,9.647,0,0,1,57.635,75.7a9.149,9.149,0,0,1,1.082,2.572,6.854,6.854,0,0,1,.2,1,4.474,4.474,0,0,1,.075.742c.007.19.013.341.017.458a.687.687,0,0,1,0,.156.7.7,0,0,1-.023-.155c-.011-.117-.025-.267-.043-.455a4.81,4.81,0,0,0-.1-.734,7.064,7.064,0,0,0-.221-.985,9.245,9.245,0,0,0-1.108-2.523A9.571,9.571,0,0,0,55.044,73.1a9.412,9.412,0,0,0-9.012-1.212,8.644,8.644,0,0,0-2.376,1.342,10.569,10.569,0,0,0-1.058.937,10.71,10.71,0,0,0-.909,1.119,9.265,9.265,0,0,0-1.309,2.64,10.212,10.212,0,0,0-.44,3,9.582,9.582,0,0,0,1.928,5.583,10.691,10.691,0,0,0,.944,1.088,10.535,10.535,0,0,0,1.087.9,8.665,8.665,0,0,0,2.418,1.264,9.414,9.414,0,0,0,8.968-1.5,9.568,9.568,0,0,0,2.38-2.745,9.25,9.25,0,0,0,1.028-2.557,7,7,0,0,0,.189-.992,4.763,4.763,0,0,0,.075-.737l.029-.456a.725.725,0,0,1,.018-.156" transform="translate(-19.908 -35.638)" fill="#263238"/>
          <path id="Trazado_818367" data-name="Trazado 818367" d="M18.917,70.5s.016.11.035.325.043.541.076.954q.024.315.053.7c.031.257.091.535.141.838l.171.976a10.69,10.69,0,0,0,.279,1.093,19.3,19.3,0,0,0,2.3,5.3,20.049,20.049,0,0,0,5.168,5.615l.875.633c.3.2.629.374.948.566s.636.4.983.553L31,88.545l.531.245.558.194,1.132.395c.383.124.785.2,1.183.3a10.239,10.239,0,0,0,1.214.258,18.6,18.6,0,0,0,2.533.255c.432.007.867.043,1.3.029l1.323-.09c.222-.019.446-.02.667-.055l.665-.114c.443-.082.9-.14,1.341-.243a20.812,20.812,0,0,0,2.651-.832,21.042,21.042,0,0,0,2.586-1.2c.415-.241.817-.512,1.229-.769a10.372,10.372,0,0,0,1.189-.856,22.227,22.227,0,0,0,2.228-1.972l1-1.138.251-.286.222-.309.447-.62.448-.623.389-.666.39-.669.2-.335.163-.353.654-1.421q.257-.742.516-1.49a19.875,19.875,0,0,0-.2-12.615l-.564-1.472-.7-1.4-.174-.348-.207-.329-.411-.656-.411-.653L54.87,58.1l-.466-.606-.232-.3-.26-.278L52.88,55.806a22.291,22.291,0,0,0-2.291-1.9,10.48,10.48,0,0,0-1.216-.817c-.421-.243-.831-.5-1.254-.729a21.786,21.786,0,0,0-5.3-1.858c-.448-.088-.9-.132-1.349-.2L40.8,50.21c-.222-.027-.446-.021-.669-.033l-1.325-.048c-.438,0-.872.05-1.3.072a18.563,18.563,0,0,0-2.524.336,10.364,10.364,0,0,0-1.206.3c-.394.116-.793.2-1.173.338l-1.118.431-.552.212-.523.262-1.03.518c-.341.167-.645.394-.965.585s-.631.387-.929.6l-.854.661a20.061,20.061,0,0,0-4.985,5.779,19.292,19.292,0,0,0-2.133,5.375,10.646,10.646,0,0,0-.244,1.1l-.14.981c-.04.3-.091.585-.114.842s-.021.493-.03.7c-.02.414-.035.732-.046.956s-.024.326-.024.326,0-.11,0-.326.011-.543.02-.958q.008-.317.018-.706c.018-.259.065-.541.1-.847s.083-.635.128-.987a10.669,10.669,0,0,1,.234-1.108,19.2,19.2,0,0,1,2.105-5.424,20.119,20.119,0,0,1,5-5.851l.859-.67c.3-.212.62-.4.935-.606s.628-.423.972-.594l1.038-.526.527-.267.556-.216,1.129-.439c.383-.14.786-.228,1.184-.346a10.455,10.455,0,0,1,1.218-.3,18.782,18.782,0,0,1,2.551-.347c.436-.023.874-.074,1.317-.076l1.34.045c.225.012.451.006.677.033l.676.092c.451.067.911.111,1.365.2a22.012,22.012,0,0,1,5.367,1.871c.429.229.845.49,1.271.736a10.588,10.588,0,0,1,1.233.825,22.49,22.49,0,0,1,2.322,1.921L54.1,56.745l.263.281.236.305.473.613.474.616.417.661.417.664.209.333.177.352.709,1.418.572,1.492a20.107,20.107,0,0,1,.2,12.777l-.524,1.509-.663,1.439-.166.358-.2.34-.4.677-.395.674-.455.631L55,82.513l-.226.313-.254.29-1.01,1.151a22.41,22.41,0,0,1-2.258,1.995,10.673,10.673,0,0,1-1.205.865c-.418.259-.825.533-1.246.776a21.245,21.245,0,0,1-2.619,1.206,21.015,21.015,0,0,1-2.685.837c-.45.1-.908.162-1.357.244l-.673.114c-.224.034-.451.035-.675.054l-1.337.088c-.442.013-.883-.023-1.319-.032a18.824,18.824,0,0,1-2.561-.264,10.368,10.368,0,0,1-1.227-.264c-.4-.1-.807-.18-1.194-.307l-1.142-.4-.563-.2-.536-.25-1.054-.492c-.35-.159-.663-.379-.991-.562s-.648-.373-.954-.575l-.881-.642a20.109,20.109,0,0,1-5.182-5.687,19.171,19.171,0,0,1-2.278-5.354,10.562,10.562,0,0,1-.269-1.1q-.086-.525-.16-.983c-.046-.3-.1-.585-.129-.843s-.028-.494-.041-.706c-.021-.415-.038-.733-.05-.957s-.008-.326-.008-.326" transform="translate(-9.489 -25.036)" fill="#263238"/>
          <path id="Trazado_818368" data-name="Trazado 818368" d="M54.938,46.87A22.937,22.937,0,0,1,78.424,69.719l-12.255.2c-.1-6.219-4.832-10.136-11.024-10.035Z" transform="translate(-27.562 -23.513)" fill="#fdbf2d"/>
          <path id="Trazado_818369" data-name="Trazado 818369" d="M54.931,46.869s.008.085.014.241.012.4.021.686c.015.612.038,1.488.066,2.609.049,2.259.118,5.5.2,9.474l-.1-.1a13.665,13.665,0,0,1,3.685.451,10.532,10.532,0,0,1,3.651,1.779,9.491,9.491,0,0,1,2.769,3.378,10.667,10.667,0,0,1,1.046,4.522l-.128-.124,9.49-.157,2.765-.044-.127.132a25.724,25.724,0,0,0-1.249-7.25l-.62-1.654c-.232-.535-.5-1.044-.751-1.56a12.047,12.047,0,0,0-.836-1.47,13.654,13.654,0,0,0-.908-1.38l-.977-1.281c-.342-.4-.711-.775-1.057-1.156l-.522-.561-.565-.5-1.1-.974a23.6,23.6,0,0,0-4.548-2.8l-1.086-.5c-.362-.141-.723-.255-1.069-.379L61.987,47.9c-.33-.1-.661-.166-.974-.247l-.911-.22-.431-.1c-.142-.026-.283-.041-.42-.062l-1.5-.211a9.315,9.315,0,0,0-1.2-.095l-.881-.044-.549-.03a1.878,1.878,0,0,1-.194-.015,1.288,1.288,0,0,1,.177,0l.54.006.892.015a8.679,8.679,0,0,1,1.219.07l1.511.19c.138.019.28.032.424.057l.434.1.919.211c.316.079.65.137.983.239l1.022.346c.349.122.714.235,1.08.373l1.1.5a23.561,23.561,0,0,1,4.6,2.8l1.118.978.572.5.53.564c.351.383.725.757,1.072,1.163l.991,1.291a13.781,13.781,0,0,1,.922,1.391,12.2,12.2,0,0,1,.848,1.484c.25.52.528,1.034.762,1.574l.63,1.671a25.837,25.837,0,0,1,1.271,7.327l0,.129-.131,0-2.765.045-9.49.149-.126,0,0-.126a10.436,10.436,0,0,0-1.013-4.42,9.274,9.274,0,0,0-2.689-3.3,10.342,10.342,0,0,0-3.568-1.756,13.539,13.539,0,0,0-3.625-.463h-.1v-.095c-.042-4-.077-7.261-.1-9.535-.007-1.111-.013-1.981-.017-2.587v-.669a1.718,1.718,0,0,1,.006-.221" transform="translate(-27.555 -23.512)" fill="#263238"/>
          <rect id="Rectángulo_375630" data-name="Rectángulo 375630" width="129.764" height="12.508" transform="translate(0.13 0.13)" fill="#e0e0e0"/>
          <path id="Trazado_818370" data-name="Trazado 818370" d="M183.214,55.829h-36.47a.778.778,0,0,1,0-1.556h36.47a.778.778,0,1,1,0,1.556" transform="translate(-73.23 -27.228)" fill="#263238"/>
          <path id="Trazado_818371" data-name="Trazado 818371" d="M183.214,64.13h-36.47a.778.778,0,0,1,0-1.556h36.47a.778.778,0,1,1,0,1.556" transform="translate(-73.23 -31.393)" fill="#263238"/>
          <path id="Trazado_818372" data-name="Trazado 818372" d="M163.318,72.431H146.744a.778.778,0,0,1,0-1.556h16.574a.778.778,0,1,1,0,1.556" transform="translate(-73.23 -35.557)" fill="#263238"/>
          <path id="Trazado_818373" data-name="Trazado 818373" d="M173.478,117.457H142.73a9.259,9.259,0,0,1-9.259-9.259v-3.073a9.259,9.259,0,0,1,9.259-9.259h30.748a9.259,9.259,0,0,1,9.259,9.259V108.2a9.259,9.259,0,0,1-9.259,9.259" transform="translate(-66.961 -48.095)" fill="#ebebeb"/>
          <path id="Trazado_818374" data-name="Trazado 818374" d="M177.431,157.625H136.7a4.268,4.268,0,1,1,0-8.536h40.73a4.268,4.268,0,1,1,0,8.536" transform="translate(-66.441 -74.797)" fill="#ebebeb"/>
          <path id="Trazado_818375" data-name="Trazado 818375" d="M182.73,109.223h-36.47a.778.778,0,0,1,0-1.556h36.47a.778.778,0,1,1,0,1.556" transform="translate(-72.988 -54.016)" fill="#263238"/>
          <path id="Trazado_818376" data-name="Trazado 818376" d="M179.613,157.836h-36.47a.778.778,0,0,1,0-1.556h36.47a.778.778,0,1,1,0,1.556" transform="translate(-71.424 -78.404)" fill="#263238"/>
          <path id="Trazado_818377" data-name="Trazado 818377" d="M182.73,117.524h-36.47a.778.778,0,0,1,0-1.556h36.47a.778.778,0,1,1,0,1.556" transform="translate(-72.988 -58.18)" fill="#263238"/>
          <path id="Trazado_818378" data-name="Trazado 818378" d="M162.835,125.825H146.261a.778.778,0,0,1,0-1.556h16.574a.778.778,0,1,1,0,1.556" transform="translate(-72.988 -62.345)" fill="#263238"/>
          <path id="Trazado_818379" data-name="Trazado 818379" d="M112.626,51.985a3.453,3.453,0,0,1-.682.05l-1.859.041c-1.57.023-3.739.038-6.134.038l-2.793-.007.087-.036c-1.218,1.206-2.27,2.235-3.022,2.956l-.886.837a1.8,1.8,0,0,1-.338.28,1.8,1.8,0,0,1,.28-.338l.837-.886c.722-.752,1.75-1.8,2.956-3.022l.035-.036h.051l2.793-.007c2.4,0,4.564.014,6.134.038l1.859.041a3.453,3.453,0,0,1,.682.05" transform="translate(-48.663 -26.015)" fill="#263238"/>
          <path id="Trazado_818380" data-name="Trazado 818380" d="M127.277,51.151a1.036,1.036,0,1,1-1.036-1.036,1.036,1.036,0,0,1,1.036,1.036" transform="translate(-62.814 -25.142)" fill="#263238"/>
          <path id="Trazado_818381" data-name="Trazado 818381" d="M127.277,113.668a1.036,1.036,0,1,1-1.036-1.036,1.036,1.036,0,0,1,1.036,1.036" transform="translate(-62.814 -56.507)" fill="#263238"/>
          <path id="Trazado_818382" data-name="Trazado 818382" d="M113.945,114.9a11.6,11.6,0,0,1-1.74.078c-1.075.016-2.559.02-4.2.013l-4.2-.041-1.272-.026a3.5,3.5,0,0,1-.467-.023,7.307,7.307,0,0,1,1.738-.134c1.075-.029,2.56-.041,4.2-.034s3.124.031,4.2.063a11.491,11.491,0,0,1,1.739.105" transform="translate(-51.208 -57.561)" fill="#263238"/>
          <rect id="Rectángulo_375631" data-name="Rectángulo 375631" width="3.396" height="3.396" transform="translate(15.921 80.116)" fill="#455a64"/>
          <rect id="Rectángulo_375632" data-name="Rectángulo 375632" width="3.396" height="3.396" transform="translate(27.317 80.116)" fill="#e0e0e0"/>
          <rect id="Rectángulo_375633" data-name="Rectángulo 375633" width="3.396" height="3.396" transform="translate(39.684 80.116)" fill="#6e40fc"/>
          <path id="Trazado_818383" data-name="Trazado 818383" d="M14.5,11a1.73,1.73,0,1,1-1.728-1.8A1.767,1.767,0,0,1,14.5,11" transform="translate(-5.543 -4.612)" fill="#fff"/>
          <path id="Trazado_818384" data-name="Trazado 818384" d="M26.2,11a1.73,1.73,0,1,1-1.728-1.8A1.767,1.767,0,0,1,26.2,11" transform="translate(-11.408 -4.612)" fill="#fff"/>
          <path id="Trazado_818385" data-name="Trazado 818385" d="M37.887,11a1.73,1.73,0,1,1-1.728-1.8A1.767,1.767,0,0,1,37.887,11" transform="translate(-17.274 -4.612)" fill="#fff"/>
        </g>
      </g>
    </g>
    <g id="Grupo_1071698" data-name="Grupo 1071698" transform="translate(334 3272)">
      <g id="Grupo_1071708" data-name="Grupo 1071708">
        <g transform="matrix(1, 0, 0, 1, -154, -20.87)" filter="url(#Rectángulo_375635)">
          <rect id="Rectángulo_375635-2" data-name="Rectángulo 375635" width="114.558" height="85.636" transform="translate(154.15 21.02)" fill="#fff"/>
        </g>
        <rect id="Rectángulo_375636" data-name="Rectángulo 375636" width="114.558" height="10.585" transform="translate(0.149 0.15)" fill="#e0e0e0"/>
        <g id="Grupo_1071696" data-name="Grupo 1071696">
          <g id="Grupo_1071709" data-name="Grupo 1071709">
            <path id="Trazado_818387" data-name="Trazado 818387" d="M11.565,8.338A1.526,1.526,0,1,1,10.04,6.813a1.526,1.526,0,0,1,1.525,1.525" transform="translate(-3.619 -2.896)" fill="#fff"/>
            <path id="Trazado_818388" data-name="Trazado 818388" d="M20.511,8.338a1.526,1.526,0,1,1-1.525-1.525,1.526,1.526,0,0,1,1.525,1.525" transform="translate(-7.421 -2.896)" fill="#fff"/>
            <path id="Trazado_818389" data-name="Trazado 818389" d="M29.456,8.338a1.526,1.526,0,1,1-1.525-1.525,1.526,1.526,0,0,1,1.525,1.525" transform="translate(-11.223 -2.896)" fill="#fff"/>
            <path id="Trazado_818391" data-name="Trazado 818391" d="M113.251,89.912c0,.083-22.8.149-50.915.149S11.417,90,11.417,89.912s22.794-.149,50.919-.149,50.915.067,50.915.149" transform="translate(-4.853 -38.153)" fill="#e0e0e0"/>
            <path id="Trazado_818392" data-name="Trazado 818392" d="M113.251,74.622c0,.083-22.8.149-50.915.149s-50.919-.067-50.919-.149,22.794-.15,50.919-.15,50.915.067,50.915.15" transform="translate(-4.853 -31.654)" fill="#e0e0e0"/>
            <path id="Trazado_818393" data-name="Trazado 818393" d="M113.251,59.331c0,.083-22.8.149-50.915.149s-50.919-.067-50.919-.149,22.794-.149,50.919-.149,50.915.067,50.915.149" transform="translate(-4.853 -25.155)" fill="#e0e0e0"/>
            <path id="Trazado_818394" data-name="Trazado 818394" d="M113.251,44.041c0,.083-22.8.149-50.915.149s-50.919-.067-50.919-.149,22.794-.149,50.919-.149,50.915.067,50.915.149" transform="translate(-4.853 -18.656)" fill="#e0e0e0"/>
            <path id="Trazado_818395" data-name="Trazado 818395" d="M105.988,66.889C104,62.1,102.643,56.866,101.12,51.906c-1.325-4.318-1.448-6.337-2.584-9.984-1.79-5.746-6.531-6.382-9.977-4.824-3.071,1.387-4.4,5-5.415,8.246L79.488,57a20.645,20.645,0,0,1-2.23,5.313,6.82,6.82,0,0,1-4.567,3.184c-3.114.411-5.9-2.2-7.234-5.08s-1.7-6.134-2.89-9.08-3.639-5.773-6.779-5.829c-3.866-.07-6.493,3.875-8.1,7.44a85.043,85.043,0,0,0-4.874,13.936,18.946,18.946,0,0,1-1.619,4.751,5.461,5.461,0,0,1-3.846,2.905c-2.123.26-4.093-1.253-5.328-3.023s-1.994-3.848-3.258-5.6-3.3-3.2-5.407-2.832c-1.893.331-3.247,1.988-4.366,3.57A83.657,83.657,0,0,0,11.167,80.27H116.5c-4.851-1.671-8.527-8.592-10.511-13.381" transform="translate(-4.746 -15.458)" fill="#2b5cf9"/>
            <rect id="Rectángulo_375637" data-name="Rectángulo 375637" width="4.974" height="4.974" transform="translate(31.041 71.71)" fill="#ff725e"/>
            <path id="Trazado_818396" data-name="Trazado 818396" d="M97.148,128.2H71.208a.572.572,0,0,1,0-1.143h25.94a.572.572,0,0,1,0,1.143" transform="translate(-30.023 -54.006)" fill="#263238"/>
            <path id="Trazado_818397" data-name="Trazado 818397" d="M111.827,78.7s-.128.01-.379.016l-1.113.015-4.277.028-15.729.048-51.893.044-27.373-.01h-.139V78.7c.022-13.5.041-25,.054-33.139.017-4.057.03-7.277.04-9.493.009-1.1.017-1.94.022-2.524.005-.279.009-.493.011-.649s.011-.221.011-.221.008.075.012.221.006.37.011.649c0,.584.012,1.429.022,2.524.009,2.216.022,5.435.04,9.493.013,8.14.032,19.643.054,33.139l-.139-.139,27.373-.01L90.33,78.6l15.729.048,4.277.028,1.113.014c.251.005.379.016.379.016" transform="translate(-4.644 -13.889)" fill="#263238"/>
            <g id="Grupo_1071691" data-name="Grupo 1071691" transform="translate(57.429 30.326)" opacity="0.3">
              <g id="Grupo_1071690" data-name="Grupo 1071690">
                <g id="Grupo_1071689" data-name="Grupo 1071689" clip-path="url(#clip-path)">
                  <path id="Trazado_818398" data-name="Trazado 818398" d="M137.268,52.746,99.884,87.231h18.692L141.081,66.4Z" transform="translate(-99.884 -52.746)" fill="#fff"/>
                </g>
              </g>
            </g>
            <g id="Grupo_1071694" data-name="Grupo 1071694" transform="translate(36.015 43.985)" opacity="0.3">
              <g id="Grupo_1071693" data-name="Grupo 1071693">
                <g id="Grupo_1071692" data-name="Grupo 1071692" clip-path="url(#clip-path-2)">
                  <path id="Trazado_818399" data-name="Trazado 818399" d="M88.5,79.426l-20.567,17.9h-5.3L86.928,76.5l2.116,3.584" transform="translate(-62.639 -76.502)" fill="#fff"/>
                </g>
              </g>
            </g>
            <path id="Trazado_818400" data-name="Trazado 818400" d="M11.167,80.175A66.378,66.378,0,0,1,14.626,73.3a78.177,78.177,0,0,1,4.892-7.6,9.664,9.664,0,0,1,1.921-1.962,4.36,4.36,0,0,1,2.772-.892,5.276,5.276,0,0,1,2.88,1.122,8.925,8.925,0,0,1,2.183,2.424c1.214,1.866,1.989,4.122,3.6,5.909a6.363,6.363,0,0,0,3.018,1.927,3.97,3.97,0,0,0,1.829.022,4.407,4.407,0,0,0,1.684-.814,7.154,7.154,0,0,0,2.24-3.14,32.72,32.72,0,0,0,1.14-3.92A84.886,84.886,0,0,1,45.346,58.2q.762-2.065,1.655-4.136a29.406,29.406,0,0,1,2.043-4.085,12.122,12.122,0,0,1,3.1-3.5A6.419,6.419,0,0,1,54.3,45.439a5.745,5.745,0,0,1,2.423-.07,7.229,7.229,0,0,1,4.067,2.6,12.928,12.928,0,0,1,2.326,4.343c.528,1.571.893,3.194,1.35,4.793A16.3,16.3,0,0,0,66.4,61.687a8.4,8.4,0,0,0,3.681,3.2,5.069,5.069,0,0,0,4.638-.378,8.5,8.5,0,0,0,3.116-3.591,30.662,30.662,0,0,0,1.655-4.5L82.3,47.465c.467-1.46.889-2.918,1.41-4.334a15.382,15.382,0,0,1,2.046-3.978,7.545,7.545,0,0,1,1.562-1.571,7.274,7.274,0,0,1,1.946-1,8.6,8.6,0,0,1,2.114-.425,7.744,7.744,0,0,1,2.123.177,6.5,6.5,0,0,1,3.463,2.215,10.2,10.2,0,0,1,1.792,3.571c.771,2.5,1.191,4.992,1.812,7.323.3,1.169.651,2.3.986,3.41l.963,3.263a99.89,99.89,0,0,0,3.833,11.311,38.985,38.985,0,0,0,4.36,7.866,16.091,16.091,0,0,0,4.022,3.983,9.4,9.4,0,0,0,1.307.69c.306.133.461.209.461.209s-.161-.056-.472-.181a8.6,8.6,0,0,1-1.328-.667,15.879,15.879,0,0,1-4.083-3.965,38.615,38.615,0,0,1-4.421-7.869,98.776,98.776,0,0,1-3.882-11.317q-.474-1.592-.972-3.259c-.337-1.108-.693-2.243-1-3.415-.63-2.343-1.054-4.828-1.826-7.31a9.948,9.948,0,0,0-1.751-3.48,6.24,6.24,0,0,0-3.328-2.123,7.472,7.472,0,0,0-2.043-.167,8.368,8.368,0,0,0-2.043.415,6.818,6.818,0,0,0-3.375,2.482,15.116,15.116,0,0,0-2,3.908c-.513,1.4-.935,2.862-1.4,4.323l-2.806,8.959a30.857,30.857,0,0,1-1.67,4.546,8.788,8.788,0,0,1-3.227,3.713,5.348,5.348,0,0,1-4.9.4,8.692,8.692,0,0,1-3.818-3.315,16.559,16.559,0,0,1-1.966-4.667c-.46-1.61-.823-3.229-1.345-4.781a12.622,12.622,0,0,0-2.271-4.247,6.94,6.94,0,0,0-3.9-2.5,5.46,5.46,0,0,0-2.3.065,6.127,6.127,0,0,0-2.064.991,11.86,11.86,0,0,0-3.024,3.415,29.211,29.211,0,0,0-2.028,4.045q-.89,2.062-1.654,4.121a84.683,84.683,0,0,0-2.567,8.149,33.116,33.116,0,0,1-1.156,3.949,7.415,7.415,0,0,1-2.329,3.242,4.649,4.649,0,0,1-1.779.854,4.2,4.2,0,0,1-1.94-.028,6.582,6.582,0,0,1-3.131-2c-1.648-1.846-2.412-4.109-3.608-5.951a8.7,8.7,0,0,0-2.124-2.377A5.087,5.087,0,0,0,24.2,63.037a4.18,4.18,0,0,0-2.659.847A9.538,9.538,0,0,0,19.65,65.8a80.025,80.025,0,0,0-4.923,7.553c-1.237,2.146-2.106,3.864-2.686,5.031l-.647,1.336c-.145.3-.227.452-.227.452" transform="translate(-4.746 -15.363)" fill="#263238"/>
          </g>
        </g>
      </g>
    </g>
    <g id="Grupo_1071700" data-name="Grupo 1071700" transform="translate(607.018 3274.592)">
      <g id="Grupo_1071712" data-name="Grupo 1071712">
        <path id="Trazado_818401" data-name="Trazado 818401" d="M77.974,37.425A37.65,37.65,0,1,1,39.725.214,37.786,37.786,0,0,1,77.974,37.425m-55.644.9A18,18,0,1,0,40.04,19.95,18.061,18.061,0,0,0,22.33,38.323" fill="#fff"/>
        <path id="Trazado_818402" data-name="Trazado 818402" d="M77.974,37.424A37.786,37.786,0,0,1,40.934,75.85l-.316-19.736a18.085,18.085,0,0,0-.578-36.165L39.725.213A37.772,37.772,0,0,1,77.974,37.424" fill="#2b5cf9"/>
        <path id="Trazado_818405" data-name="Trazado 818405" d="M44.314,78.886A43.017,43.017,0,0,1,.267,36.034l22.983-.37c.187,11.665,9.063,19.009,20.674,18.821Z" fill="#949af8"/>
      </g>
    </g>
    <g id="Grupo_1071703" data-name="Grupo 1071703" transform="translate(504.008 3261.929)">
      <g transform="matrix(1, 0, 0, 1, -324.01, -10.8)" filter="url(#Rectángulo_375643)">
        <rect id="Rectángulo_375643-2" data-name="Rectángulo 375643" width="95.506" height="95.506" transform="translate(324.27 11.06)" fill="#fff"/>
      </g>
      <g id="Grupo_1071702" data-name="Grupo 1071702">
        <g id="Grupo_1071711" data-name="Grupo 1071711">
          <path id="Trazado_818407" data-name="Trazado 818407" d="M50.053,55.45l26.337.363c-.2,14.035-12.028,25.474-26.337,25.474H49.9Z" fill="#2b5cf9"/>
          <path id="Trazado_818408" data-name="Trazado 818408" d="M45.887,51.7l-.37,25.834c-14.308-.2-25.969-11.8-25.969-25.834,0-14.174,11.89-25.837,26.339-25.837S72.226,37.528,72.226,51.7Z" fill="#949af8"/>
          <rect id="Rectángulo_375644" data-name="Rectángulo 375644" width="95.417" height="18.785" transform="translate(0.26 0.26)" fill="#e0e0e0"/>
          <path id="Trazado_818409" data-name="Trazado 818409" d="M14.1,9.653A2.708,2.708,0,1,1,11.39,6.946,2.707,2.707,0,0,1,14.1,9.653" fill="#fff"/>
          <path id="Trazado_818410" data-name="Trazado 818410" d="M23.225,9.653a2.708,2.708,0,1,1-2.707-2.707,2.707,2.707,0,0,1,2.707,2.707" fill="#fff"/>
          <path id="Trazado_818411" data-name="Trazado 818411" d="M32.353,9.653a2.708,2.708,0,1,1-2.707-2.707,2.707,2.707,0,0,1,2.707,2.707" fill="#fff"/>
        </g>
      </g>
    </g>
    <g id="Grupo_1071706" data-name="Grupo 1071706" transform="translate(444.14 3278.39)">
      <rect id="Rectángulo_375646" data-name="Rectángulo 375646" width="70.762" height="70.762" transform="translate(0.287 0.287)" fill="#c4e6ff"/>
      <g id="Grupo_1071705" data-name="Grupo 1071705" transform="translate(0 0)">
        <g id="Grupo_1071710" data-name="Grupo 1071710">
          <path id="Trazado_818414" data-name="Trazado 818414" d="M38.173,34.482a11.406,11.406,0,0,0,6.8-10.551c.025-6.3-4.743-11.43-10.651-11.458S23.6,17.531,23.575,23.831a11.389,11.389,0,0,0,6.816,10.651C13.93,36.962,14.677,54.853,14.677,54.853l38.925.179s.888-18.085-15.43-20.55" transform="translate(1.527 1.298)" fill="#949af8"/>
        </g>
      </g>
    </g>
  </g>
</svg>
