<svg xmlns="http://www.w3.org/2000/svg" xmlns:xlink="http://www.w3.org/1999/xlink" width="400" height="402" viewBox="0 0 400 402">
  <defs>
    <clipPath id="clip-path">
      <rect id="Rectángulo_375552" data-name="Rectángulo 375552" width="400" height="402" transform="translate(179.667 888)" fill="#12263f" opacity="0.31"/>
    </clipPath>
  </defs>
  <g id="Enmascarar_grupo_105" data-name="Enmascarar grupo 105" transform="translate(-179.667 -888)" clip-path="url(#clip-path)">
    <g id="_22917188086832_Convertido_" data-name="22917188086832 [Convertido]" transform="translate(190.667 913.001)">
      <g id="Desk" transform="translate(10.785 375.942)">
        <path id="Trazado_818347" data-name="Trazado 818347" d="M365.331,439.772c0,.12-78.969.222-176.352.222s-176.369-.1-176.369-.222,78.952-.222,176.369-.222S365.331,439.653,365.331,439.772Z" transform="translate(-12.61 -439.55)" fill="#263238"/>
      </g>
      <g id="Grupo_1072059" data-name="Grupo 1072059" transform="translate(-15.971 5.741)">
        <g id="Cube" transform="translate(242.792 22.727)">
          <g id="Grupo_1071997" data-name="Grupo 1071997">
            <path id="Trazado_818360" data-name="Trazado 818360" d="M261.02,169.085c-.124,0-.23-12.68-.23-28.308s.106-28.317.23-28.317.23,12.671.23,28.317S261.143,169.085,261.02,169.085Z" transform="translate(-256.393 -65.529)" fill="#263238"/>
            <path id="Trazado_818361" data-name="Trazado 818361" d="M256.04,155.045c-.124,0-.23-12.68-.23-28.308s.106-28.317.23-28.317.23,12.671.23,28.317S256.163,155.045,256.04,155.045Z" transform="translate(-255.81 -63.886)" fill="#263238"/>
            <path id="Trazado_818362" data-name="Trazado 818362" d="M337.835,59.31a3.558,3.558,0,0,1-.424.256q-.49.265-1.245.662c-1.148.592-2.7,1.4-4.6,2.366-3.885,2-9.254,4.75-15.161,7.858s-11.223,5.969-15.064,8.044c-1.881,1.015-3.426,1.845-4.556,2.455-.5.265-.918.477-1.245.653a3.02,3.02,0,0,1-.45.2,2.443,2.443,0,0,1,.406-.283c.318-.194.715-.433,1.21-.724,1.051-.618,2.587-1.5,4.485-2.578,3.806-2.154,9.1-5.059,15.011-8.168s11.3-5.819,15.222-7.744c1.96-.962,3.558-1.722,4.671-2.243.521-.238.945-.433,1.28-.583A2.052,2.052,0,0,1,337.835,59.31Z" transform="translate(-260.407 -59.309)" fill="#263238"/>
            <path id="Trazado_818363" data-name="Trazado 818363" d="M325.245,62.4a3.558,3.558,0,0,1-.424.256q-.49.265-1.245.662c-1.148.592-2.7,1.4-4.6,2.366-3.885,2-9.254,4.75-15.161,7.858s-11.223,5.969-15.064,8.044c-1.881,1.015-3.426,1.837-4.556,2.446-.5.265-.918.477-1.245.653a3.013,3.013,0,0,1-.45.2,2.445,2.445,0,0,1,.406-.283c.318-.194.715-.433,1.21-.724,1.051-.618,2.587-1.5,4.485-2.578,3.806-2.154,9.1-5.059,15.011-8.168s11.3-5.819,15.223-7.744c1.96-.962,3.558-1.722,4.671-2.243.521-.238.945-.433,1.28-.583a2.052,2.052,0,0,1,.459-.177Z" transform="translate(-258.933 -59.669)" fill="#263238"/>
            <path id="Trazado_818364" data-name="Trazado 818364" d="M409.99,193.523c-.124,0-.23-9.739-.23-21.757s.106-21.757.23-21.757.23,9.739.23,21.757S410.113,193.523,409.99,193.523Z" transform="translate(-273.826 -69.923)" fill="#263238"/>
            <path id="Trazado_818365" data-name="Trazado 818365" d="M414.47,200.833c-.124,0-.23-9.739-.23-21.757s.106-21.757.23-21.757.23,9.739.23,21.757S414.593,200.833,414.47,200.833Z" transform="translate(-274.35 -70.779)" fill="#263238"/>
            <path id="Trazado_818366" data-name="Trazado 818366" d="M374.142,211.45c.062.106-7.479,4.75-16.856,10.366S340.262,231.9,340.2,231.785s7.479-4.75,16.856-10.366S374.08,211.335,374.142,211.45Z" transform="translate(-265.686 -77.113)" fill="#263238"/>
            <path id="Trazado_818367" data-name="Trazado 818367" d="M371.272,218.61c.062.106-7.479,4.75-16.856,10.366s-17.024,10.084-17.086,9.969,7.479-4.75,16.856-10.366S371.21,218.495,371.272,218.61Z" transform="translate(-265.35 -77.951)" fill="#263238"/>
          </g>
        </g>
        <g id="Grupo_1072058" data-name="Grupo 1072058" transform="matrix(0.883, -0.469, 0.469, 0.883, 258.313, 75.901)">
          <g id="Grupo_1072054" data-name="Grupo 1072054" transform="translate(0 0)">
            <rect id="Rectángulo_375551" data-name="Rectángulo 375551" width="13.312" height="3.127" transform="translate(31.624 94.648)" fill="#e0e0e0"/>
            <path id="Trazado_818515" data-name="Trazado 818515" d="M.1,3.3c.013-.013.026-.313.044-.851C.159,1.871.177,1.109.2.169l-.1.1c2.954.042,7.818.07,13.311.07h0C13.075,0,13.319.245,13.244.17v.8q0,.4,0,.788,0,.783,0,1.541l.165-.166c-3.759.007-7.059.042-9.442.075l-2.817.048-.77.022A1.641,1.641,0,0,0,.1,3.3a8.2,8.2,0,0,0,.974.043l2.778.048c2.375.032,5.731.067,9.559.075h.166V3.3q0-.757,0-1.541,0-.391,0-.788V.17c-.075-.075.169.168-.169-.17h0C7.919,0,3.055.028.1.071H0l0,.1C.025,1.134.043,1.914.057,2.5A6.164,6.164,0,0,0,.1,3.3" transform="translate(31.522 94.479)" fill="#263238"/>
            <path id="Trazado_818516" data-name="Trazado 818516" d="M9.788,94.477H66.032a9.788,9.788,0,0,0,9.788-9.788V9.788A9.788,9.788,0,0,0,66.032,0H9.788A9.787,9.787,0,0,0,0,9.788v74.9a9.788,9.788,0,0,0,9.788,9.788" transform="translate(0.153 0.171)" fill="#ebebeb"/>
            <path id="Trazado_818517" data-name="Trazado 818517" d="M8.713,29.672H67.107a8.713,8.713,0,0,0,8.713-8.713V0H0V20.959a8.713,8.713,0,0,0,8.713,8.713" transform="translate(0.153 64.976)" fill="#455a64"/>
            <path id="Trazado_818518" data-name="Trazado 818518" d="M9.635,94.648s-.284-.026-.835-.06c-.276-.018-.613-.092-1.018-.15a10.035,10.035,0,0,1-1.363-.4,9.559,9.559,0,0,1-3.342-2.1A9.446,9.446,0,0,1,.464,87.273a13.439,13.439,0,0,1-.238-3.216q0-1.708.007-3.583c0-2.5.009-5.211.014-8.126.008-5.832.016-12.472.025-19.811s.013-15.38.021-24.01Q.3,22.053.3,15.15q0-1.724,0-3.473A18.376,18.376,0,0,1,.475,8.193,9.652,9.652,0,0,1,7.3.7,11.623,11.623,0,0,1,10.927.329l7.538,0,15.547,0L66.694.366a9.6,9.6,0,0,1,8.821,7.29,16,16,0,0,1,.289,4.042q0,8.182,0,16.111c0,10.563.006,20.751.01,30.457s.01,18.929.016,27.56a8.457,8.457,0,0,1-2.005,5.78,8.221,8.221,0,0,1-5.177,2.825,25.161,25.161,0,0,1-2.953.089l-2.913,0-5.634.006-34.768.054-9.452.031-2.458.017c-.554.006-.838.018-.838.018s.284.012.838.018l2.458.016,9.452.032,34.768.054,5.634.006,2.913,0a25.324,25.324,0,0,0,2.988-.086,8.493,8.493,0,0,0,5.347-2.907,8.738,8.738,0,0,0,2.08-5.957c0-8.631.01-17.854.016-27.56s.006-19.894.01-30.457q0-7.923,0-16.111a16.306,16.306,0,0,0-.3-4.122A9.935,9.935,0,0,0,66.712.028C55.5-.024,44.575.015,34.011.005l-15.547,0-7.538,0A11.933,11.933,0,0,0,7.214.4,9.961,9.961,0,0,0,.175,8.138,18.614,18.614,0,0,0,0,11.677q0,1.748,0,3.473,0,6.9.008,13.376C.02,37.157.028,45.2.034,52.537S.052,66.515.059,72.348c.005,2.915.01,5.628.014,8.126q0,1.873.007,3.583A13.534,13.534,0,0,0,.336,87.3,9.494,9.494,0,0,0,6.4,94.1a9.859,9.859,0,0,0,1.376.385c.408.053.748.121,1.025.134.555.023.838.025.838.025" transform="translate(0 0)" fill="#263238"/>
            <path id="Trazado_818519" data-name="Trazado 818519" d="M0,2.232A2.232,2.232,0,1,0,2.232,0,2.232,2.232,0,0,0,0,2.232" transform="translate(7.042 69.658)" fill="#00926e"/>
            <path id="Trazado_818520" data-name="Trazado 818520" d="M2.248,4.5A2.248,2.248,0,1,0,0,2.248,2.25,2.25,0,0,0,2.248,4.5m0-4.463A2.216,2.216,0,1,1,.032,2.248,2.218,2.218,0,0,1,2.248.032" transform="translate(7.025 69.642)" fill="#263238"/>
            <path id="Trazado_818521" data-name="Trazado 818521" d="M0,2.232A2.232,2.232,0,1,0,2.232,0,2.232,2.232,0,0,0,0,2.232" transform="translate(14.586 69.658)" fill="#fafafa"/>
            <path id="Trazado_818522" data-name="Trazado 818522" d="M2.248,4.5A2.248,2.248,0,1,0,0,2.248,2.25,2.25,0,0,0,2.248,4.5m0-4.463A2.216,2.216,0,1,1,.032,2.248,2.218,2.218,0,0,1,2.248.032" transform="translate(14.57 69.642)" fill="#263238"/>
            <path id="Trazado_818526" data-name="Trazado 818526" d="M2.364,6.436a4.363,4.363,0,0,0-.5-1C1.521,4.829,1.023,3.985.434,3.02L.3,3.269l1.349.006L3.3,3.266l.285,0-.147-.241A24.371,24.371,0,0,0,1.442,0,24.277,24.277,0,0,0,3.161,3.188L3.3,2.945,1.645,2.937.3,2.943H0l.157.249c.6.955,1.14,1.777,1.532,2.354a4.341,4.341,0,0,0,.675.89" transform="translate(36.516 76.593)" fill="#fff"/>
            <path id="Trazado_818527" data-name="Trazado 818527" d="M.019,4.788c.038,0,.02-.414.209-1.119a4.635,4.635,0,0,1,1.7-2.48A4.516,4.516,0,0,1,6.2.57,4.445,4.445,0,0,1,8.275,2.139a4.472,4.472,0,0,1,0,5.3A4.452,4.452,0,0,1,6.2,9.006a4.52,4.52,0,0,1-4.27-.62,4.638,4.638,0,0,1-1.7-2.48C.04,5.2.057,4.786.019,4.788a.976.976,0,0,0-.019.3,3.617,3.617,0,0,0,.1.852A4.627,4.627,0,0,0,1.782,8.576a4.715,4.715,0,0,0,2,.914A4.79,4.79,0,0,0,6.3,9.3a4.735,4.735,0,0,0,2.24-1.667,4.774,4.774,0,0,0,0-5.689A4.729,4.729,0,0,0,6.3.277,4.79,4.79,0,0,0,3.783.085a4.7,4.7,0,0,0-2,.914A4.624,4.624,0,0,0,.1,3.637a3.614,3.614,0,0,0-.1.852.976.976,0,0,0,.019.3" transform="translate(33.646 75.024)" fill="#fff"/>
            <g id="Grupo_1072056" data-name="Grupo 1072056" transform="translate(28.195 9.053) rotate(28)">
              <path id="Trazado_816805" data-name="Trazado 816805" d="M34.868,11.1a17.438,17.438,0,0,0-4.435-5.267l.445-.56.879-1.106.011-.015A19.527,19.527,0,0,0,25.017.658l-.6,2.057a17.438,17.438,0,0,0-6.861-.581L17.315,0a19.45,19.45,0,0,0-7.249,2.3L11.1,4.184A17.407,17.407,0,0,0,5.833,8.619L4.152,7.284A19.651,19.651,0,0,0,.658,14.035l2.057.6a17.455,17.455,0,0,0-.581,6.861L0,21.738a19.424,19.424,0,0,0,2.3,7.249l1.885-1.035a17.4,17.4,0,0,0,4.435,5.267l-.946,1.188-.382.489-.007,0a19.65,19.65,0,0,0,6.751,3.494l.6-2.057a17.484,17.484,0,0,0,6.868.577l.243,2.134a19.4,19.4,0,0,0,7.242-2.3l-1.035-1.885a17.441,17.441,0,0,0,5.274-4.439l1.3,1.039.376.3a19.613,19.613,0,0,0,3.487-6.747l-2.057-.6a17.636,17.636,0,0,0,.584-6.872l2.134-.243a19.548,19.548,0,0,0-2.3-7.238ZM24.1,27.858a9.5,9.5,0,1,1,3.749-12.9A9.5,9.5,0,0,1,24.1,27.858Z" fill="#6e40fc"/>
            </g>
          </g>
        </g>
      </g>
      <g id="Character" transform="translate(14.217 52.354)">
        <g id="Grupo_1072210" data-name="Grupo 1072210" transform="translate(159.834 -74.953)" opacity="0.84">
          <path id="Trazado_827885" data-name="Trazado 827885" d="M41.041,55.031v3.918H27.97v.384H63.309V72.141H27.97v.4H41.041V85.343H27.97v.384H63.309V98.535H27.97v.384H41.041v12.808H27.97v.384H63.309v12.808H27.97v.4H41.041v12.808H27.97v.4H63.309v12.808H27.97v.4H41.041v12.808H27.97v.384H63.309v12.808H27.97v.4H41.041v12.808H27.97v.384H63.309v12.808H27.97v.384H41.041V217.3H27.97v.4H63.309v12.808H27.97v.4H41.041V243.71H27.97v.4H63.309v12.808H27.97v.4H41.041v12.808H27.97v.384H63.309v12.808H27.97v.4H41.041V296.51H27.97v.4H63.309v12.808H27.97v.4H41.041v12.808H27.97v.384H63.309v12.808H27.97v.384H41.041V349.3H27.97v.4H63.309V362.5H27.97v.4H41.041V375.7H27.97v.384H63.309V388.9H27.97v.4H41.041V402.1H27.97v.4H63.309V415.3H27.97v.384H41.041v12.808H27.97v.384H63.309v4.555h.384v-4.555h44.152v4.555h.384v-4.555H152.38v4.555h.384v-4.555h38.686c.351-.132.7-.252,1.054-.384H175.043V415.685h39.443c.154-.132.307-.263.461-.384H197.311V402.493h29.753c.1-.132.187-.263.285-.4h-7.77V389.291h15.474c.066-.132.121-.263.187-.4H197.311V376.088H239.9c.033-.132.077-.263.11-.384H219.579V362.9h22.63c0-.132.022-.263.033-.4h-.4V349.693h.34l-.033-.4H219.579V336.491H239.86a3.926,3.926,0,0,0-.11-.384H197.3V323.3h37.666c-.066-.132-.121-.263-.187-.384H219.568V310.107h7.364l-.3-.4H197.311V296.9h16.978c-.154-.132-.318-.263-.483-.4H175.043V283.7h15.935l-1.119-.4H152.775v-6.574a4.094,4.094,0,0,1-.384-.176V283.3H108.24V270.488h34.988c-.143-.132-.274-.252-.406-.384h-12.3V257.3h4.137l-.132-.4H108.251V244.094h24.737c0-.132.022-.263.033-.4h-2.5V230.891h6.5c.077-.132.143-.263.219-.4H108.251V217.689h42.461l.79-.4H130.53V204.486H174.67V213.7l.4-.066v-9.153h17.878c.132-.132.263-.263.4-.384H152.786V191.294h44.152v8.538l.4-.56v-7.979h4.017c.044-.132.088-.263.132-.384H175.065V178.1h28.074c0-.132-.011-.263-.022-.4h-5.784V164.9h2.173a4.283,4.283,0,0,0-.209-.384H175.065V151.708H187.5l-.626-.4H152.8V145.54c-.132-.055-.263-.1-.384-.154v5.926H108.262V138.505h37.128l-.165-.4h-14.7V125.3H146.9c.1-.132.2-.263.307-.4h-38.95V112.1h44.152v8.912c.132-.055.263-.11.384-.154V112.1h22.411c.022-.132.033-.263.044-.384h-.187v-2.81a8.17,8.17,0,0,0-.4-1.273v4.083H130.529v-9.9h-.384v9.9H86V98.908h12.84c-.165-.132-.329-.252-.494-.384H63.737V85.717H93.27c.011-.132.033-.263.055-.384H86V72.525H128.5c.285-.121.549-.252.823-.4H108.284V59.322h24.474c-.088-.132-.165-.263-.252-.384h-1.954V56.9l-.384-.285v2.327H86.027V55.02h-.4v3.918H41.48V55.02h-.4Zm141.641,57.091c-.022-.132-.033-.263-.044-.384h18.13a2.163,2.163,0,0,1-.044.384h-3.413v5.97c-.132.1-.263.2-.4.285v-6.256H182.671ZM41.436,415.619H85.588v12.808H41.436V415.619Zm44.536,0h44.141v12.808H85.972V415.619Zm44.536,0h44.141v12.808H130.508V415.619ZM63.7,402.427h44.152v12.808H63.7V402.427Zm44.536,0h44.152v12.808H108.24V402.427Zm44.536,0h44.152v12.808H152.775V402.427ZM41.436,389.236H85.588v12.807H41.436V389.236Zm44.536,0h44.141v12.807H85.972V389.236Zm44.536,0h44.141v12.807H130.508V389.236Zm44.536,0h44.152v12.807H175.043V389.236ZM63.7,376.044h44.152v12.808H63.7V376.044Zm44.536,0h44.152v12.808H108.24V376.044Zm44.536,0h44.152v12.808H152.775V376.044ZM41.436,362.852H85.588V375.66H41.436V362.852Zm44.536,0h44.141V375.66H85.972V362.852Zm44.536,0h44.141V375.66H130.508V362.852Zm44.536,0h44.152V375.66H175.043V362.852ZM63.7,349.661h44.152v12.808H63.7V349.661Zm44.536,0h44.152v12.808H108.24V349.661Zm44.536,0h44.152v12.808H152.775V349.661Zm44.536,0h44.141v12.808H197.3V349.661h0Zm-155.875-13.2H85.588v12.808H41.436V336.458Zm44.536,0h44.141v12.808H85.972V336.458Zm44.536,0h44.141v12.808H130.508V336.458Zm44.536,0h44.152v12.808H175.043V336.458ZM63.7,323.266h44.152v12.808H63.7V323.266Zm44.536,0h44.152v12.808H108.24V323.266Zm44.536,0h44.152v12.808H152.776V323.266ZM41.436,310.075H85.588v12.808H41.436V310.075Zm44.536,0h44.141v12.808H85.972V310.075Zm44.536,0h44.141v12.808H130.508V310.075Zm44.536,0h44.152v12.808H175.043V310.075ZM63.7,296.883h44.152V309.69H63.7V296.883Zm44.536,0h44.152V309.69H108.24V296.883Zm44.536,0h44.152V309.69H152.776V296.883ZM41.436,283.691H85.588V296.5H41.436V283.691Zm44.536,0h44.141V296.5H85.972V283.691Zm44.536,0h44.141V296.5H130.508V283.691Zm-66.8-13.2h44.152V283.3H63.7V270.488ZM41.436,257.3H85.588V270.1H41.436V257.3Zm44.536,0h44.141V270.1H85.972V257.3ZM63.7,244.105h44.152v12.808H63.7V244.105ZM41.436,230.913H85.588v12.808H41.436V230.913Zm44.536,0h44.141v12.808H85.972V230.913ZM63.7,217.722h44.152v12.808H63.7V217.722ZM41.436,204.53H85.588v12.808H41.436V204.53Zm44.536,0h44.141v12.808H85.972V204.53ZM63.7,191.338h44.152v12.808H63.7V191.338Zm44.536,0h44.152v12.808H108.24V191.338Zm-66.8-13.192H85.588v12.808H41.436V178.146Zm44.536,0h44.141v12.808H85.972V178.146Zm44.536,0h44.141v12.808H130.508V178.146ZM63.7,164.955h44.152v12.808H63.7V164.955Zm44.536,0h44.152v12.808H108.24V164.955Zm44.536,0h44.152v12.808H152.776V164.955ZM41.436,151.763H85.588v12.808H41.436V151.763Zm44.536,0h44.141v12.808H85.972V151.763Zm44.536,0h44.141v12.808H130.508V151.763ZM63.7,138.571h44.152v12.808H63.7V138.571ZM41.436,125.38H85.588v12.808H41.436V125.38Zm44.536,0h44.141v12.808H85.972V125.38ZM63.7,112.188h44.152V125H63.7V112.188ZM41.436,99H85.588V111.8H41.436V99Zm0-26.394H85.588V85.409H41.436V72.6ZM63.7,59.41h44.152V72.218H63.7Z" transform="translate(-27.97 -55.02)" fill="#73afcc" fill-rule="evenodd"/>
        </g>
        <g id="Grupo_1072211" data-name="Grupo 1072211" transform="translate(275.793 158.343)">
          <g id="Grupo_1071963" data-name="Grupo 1071963">
            <path id="Trazado_818246" data-name="Trazado 818246" d="M359.744,331.479c-5.055-2.609-11-2.942-16.61-2.018-3.011.5-6.158,1.4-8.2,3.661s-2.438,6.244-.086,8.194a7.847,7.847,0,0,0,5.174,1.309c4.388-.051,9.263-.821,12.769,1.822,2,1.505,3.336,4.011,5.73,4.755a5.658,5.658,0,0,0,6.227-2.771,9.656,9.656,0,0,0,.7-7.133,10.888,10.888,0,0,0-5.7-7.817Z" transform="translate(-333.233 -263.305)" fill="#27455d"/>
            <path id="Trazado_818247" data-name="Trazado 818247" d="M374.279,298.016c-3.088,4.413-9.092,2.951-11.88.257s-3.96-6.594-5.029-10.323c-2.446-8.5-4.918-17.431-3.1-26.086a14.475,14.475,0,0,1,3.336-7.09,7.567,7.567,0,0,1,7.176-2.386c3.028.8,4.909,3.763,6.269,6.586a62.273,62.273,0,0,1,6.15,26.694c.017,4.3-.488,8.809-2.917,12.359" transform="translate(-336.187 -252.191)" fill="#27455d"/>
            <path id="Trazado_818248" data-name="Trazado 818248" d="M387.138,306.747c-3.353-3.977-3.994-9.785-2.5-14.779s4.867-9.229,8.75-12.693a47.161,47.161,0,0,1,15.669-9.246,16.678,16.678,0,0,1,7.048-1.2,7.426,7.426,0,0,1,5.919,3.575c1.651,3.147.068,6.962-1.642,10.075a119.531,119.531,0,0,1-10.289,15.677c-3.088,3.977-6.62,7.9-11.324,9.7s-9.588,1.582-12.077-1.676" transform="translate(-340.562 -254.592)" fill="#27455d"/>
            <path id="Trazado_818249" data-name="Trazado 818249" d="M374.109,376.734a9.366,9.366,0,0,1-.282-2c-.145-1.463-.316-3.293-.53-5.474a78.717,78.717,0,0,0-1.232-8.023,62.436,62.436,0,0,0-2.917-9.477,34.613,34.613,0,0,0-4.841-8.57,17.963,17.963,0,0,0-6.115-5.08,17.354,17.354,0,0,0-5.149-1.608,8.925,8.925,0,0,1-1.993-.291,9.133,9.133,0,0,1,2.036-.034,15.692,15.692,0,0,1,5.371,1.394,17.933,17.933,0,0,1,6.449,5.132,34.131,34.131,0,0,1,5.012,8.741,58.8,58.8,0,0,1,2.9,9.631,69.3,69.3,0,0,1,1.069,8.125c.171,2.326.239,4.208.274,5.508a9.424,9.424,0,0,1-.043,2.027Z" transform="translate(-335.812 -264.342)" fill="#00223d"/>
            <path id="Trazado_818250" data-name="Trazado 818250" d="M375.835,363.367a8.936,8.936,0,0,1-.051-.932v-2.66c0-2.309,0-5.653-.12-9.776-.205-8.254-.915-17.131-2.284-29.653-1.3-11.777-3.045-25.479-4.884-34.383-.393-2.027-.8-3.849-1.163-5.448s-.659-2.976-.958-4.1c-.257-1.052-.462-1.907-.624-2.583a3.791,3.791,0,0,1-.162-.915,4.372,4.372,0,0,1,.325.872c.205.667.462,1.514.77,2.549.342,1.1.693,2.48,1.095,4.071.419,1.591.855,3.413,1.292,5.431a302.113,302.113,0,0,1,5.132,31.9c1.377,12.547,1.993,23.974,2.053,32.244.051,4.14-.043,7.484-.145,9.793-.068,1.078-.12,1.959-.162,2.66a3.975,3.975,0,0,1-.111.924Z" transform="translate(-337.915 -255.19)" fill="#00223d"/>
            <path id="Trazado_818251" data-name="Trazado 818251" d="M377.493,342.474a16.883,16.883,0,0,1,.017-2.78c.1-1.788.351-4.37.847-7.526a98.29,98.29,0,0,1,2.446-10.973,89.978,89.978,0,0,1,4.584-12.983,69.256,69.256,0,0,1,13.471-20.98,33.158,33.158,0,0,1,3.173-2.942c.488-.411.915-.821,1.351-1.146l1.232-.847a17.114,17.114,0,0,1,2.344-1.5c.137.18-3.319,2.207-7.672,6.842a72.714,72.714,0,0,0-13.137,20.9,101.779,101.779,0,0,0-4.61,12.864c-1.206,4.028-2,7.74-2.609,10.862-.573,3.13-.907,5.688-1.1,7.458a17.046,17.046,0,0,1-.342,2.754Z" transform="translate(-339.632 -256.33)" fill="#00223d"/>
          </g>
          <path id="Trazado_818252" data-name="Trazado 818252" d="M395.088,398.36,392.872,428.6H354.017L351.81,398.36Z" transform="translate(-335.922 -273.343)" fill="#12263f"/>
          <rect id="Rectángulo_375512" data-name="Rectángulo 375512" width="51.668" height="11.923" transform="translate(11.253 113.094)" fill="#12263f"/>
          <path id="Trazado_818253" data-name="Trazado 818253" d="M398.193,432.37v3.31H347.38v-3.31Z" transform="translate(-335.28 -278.265)" fill="#16365f"/>
          <path id="Trazado_818254" data-name="Trazado 818254" d="M393.7,442.056l2.386-5.816H349.55l2.771,5.816Z" transform="translate(-335.594 -278.825)" fill="#12263f"/>
          <path id="Trazado_818255" data-name="Trazado 818255" d="M352.65,409.2a2.034,2.034,0,0,0,.18.274c.154.205.342.462.582.77q.834,1.065,2.267,2.9l.1.128.094-.137c1.42-1.967,3.327-4.593,5.559-7.689h-.316c1.651,2.343,3.5,4.952,5.474,7.757l.171.24.188-.231c2.018-2.4,4.217-5.012,6.492-7.723h-.376c.111.137.231.291.359.445,2.01,2.523,3.96,4.969,5.807,7.279l.2.239.18-.257c1.967-2.788,3.815-5.4,5.482-7.749l-.316.017c2.7,3.079,4.986,5.688,6.748,7.689l.12.137.094-.154c.889-1.5,1.6-2.686,2.113-3.549.222-.385.4-.693.539-.949.12-.214.18-.334.163-.334a1.829,1.829,0,0,0-.222.3c-.154.24-.359.539-.6.907-.539.847-1.283,2.018-2.215,3.481l.214-.017c-1.728-2.027-3.986-4.67-6.637-7.783l-.171-.2-.154.214c-1.676,2.343-3.541,4.944-5.525,7.715h.368c-1.839-2.326-3.78-4.772-5.79-7.3-.12-.154-.248-.308-.359-.445l-.188-.231-.188.231c-2.275,2.72-4.465,5.328-6.475,7.74l.359.017c-2-2.788-3.857-5.38-5.534-7.715l-.163-.222-.154.222c-2.19,3.13-4.054,5.79-5.448,7.775h.2q-1.488-1.8-2.352-2.831c-.257-.3-.462-.539-.633-.727a2,2,0,0,0-.231-.239Z" transform="translate(-336.043 -274.295)" fill="#f5f5f5"/>
          <path id="Trazado_818256" data-name="Trazado 818256" d="M351.18,398.079c0,.137,9.733.24,21.741.24s21.75-.111,21.75-.24-9.733-.239-21.75-.239S351.18,397.951,351.18,398.079Z" transform="translate(-335.83 -273.268)" fill="#f5f5f5"/>
          <path id="Trazado_818257" data-name="Trazado 818257" d="M348.88,436.579c0,.137,10.58.24,23.632.24s23.632-.111,23.632-.24-10.58-.239-23.632-.239S348.88,436.451,348.88,436.579Z" transform="translate(-335.498 -278.839)" fill="#f5f5f5"/>
        </g>
      </g>
      <g id="Grupo_1084884" data-name="Grupo 1084884" transform="translate(4)">
        <rect id="Rectángulo_375513" data-name="Rectángulo 375513" width="41.088" height="81.441" transform="translate(0 75.257)" fill="#12263f"/>
        <rect id="Rectángulo_375514" data-name="Rectángulo 375514" width="44.39" height="81.441" transform="translate(42.662 75.257)" fill="#12263f"/>
        <rect id="Rectángulo_375515" data-name="Rectángulo 375515" width="44.39" height="78.687" transform="translate(42.662 162.385)" fill="#12263f"/>
        <path id="Trazado_818258" data-name="Trazado 818258" d="M108.44,73.846h46.75V1.6h1.582V73.846h38.043V0H108.44Z" transform="translate(-15.692)" fill="#12263f"/>
        <rect id="Rectángulo_375516" data-name="Rectángulo 375516" width="38.043" height="81.441" transform="translate(141.08 75.257)" fill="#12263f"/>
        <rect id="Rectángulo_375517" data-name="Rectángulo 375517" width="38.043" height="78.687" transform="translate(141.08 162.385)" fill="#12263f"/>
        <rect id="Rectángulo_375518" data-name="Rectángulo 375518" width="41.088" height="78.687" transform="translate(0 162.385)" fill="#12263f"/>
        <rect id="Rectángulo_375519" data-name="Rectángulo 375519" width="46.75" height="78.687" transform="translate(92.748 162.385)" fill="#12263f"/>
        <rect id="Rectángulo_375520" data-name="Rectángulo 375520" width="41.088" height="70.912" transform="translate(0 242.483)" fill="#12263f"/>
        <rect id="Rectángulo_375521" data-name="Rectángulo 375521" width="38.043" height="70.912" transform="translate(141.08 242.483)" fill="#12263f"/>
        <path id="Trazado_818259" data-name="Trazado 818259" d="M41.088,73.846V1.6h1.574V73.846h44.4V0H0V73.846Z" fill="#12263f"/>
        <rect id="Rectángulo_375522" data-name="Rectángulo 375522" width="46.75" height="70.912" transform="translate(92.748 242.483)" fill="#12263f"/>
        <rect id="Rectángulo_375523" data-name="Rectángulo 375523" width="44.39" height="70.912" transform="translate(42.662 242.483)" fill="#12263f"/>
        <rect id="Rectángulo_375524" data-name="Rectángulo 375524" width="46.75" height="81.441" transform="translate(92.748 75.257)" fill="#12263f"/>
      </g>
      <g id="Grupo_1084885" data-name="Grupo 1084885" transform="translate(14.218 52.354)">
        <g id="Grupo_1071968" data-name="Grupo 1071968" transform="translate(7.174)">
          <path id="Trazado_818268" data-name="Trazado 818268" d="M197.558,181.79c3.207,3.686,4.054,8.886,3.909,13.77s-1.138,9.733-1.018,14.617c.239,10.109,5.14,19.424,8.484,28.96s4.961,20.852-.744,29.2c-4.268.419-8.613.83-12.821-.026s-8.322-3.19-10.281-7c-1.617-3.147-1.591-6.851-1.531-10.392q.449-25.89.889-51.771" transform="translate(-47.952 -78.661)" fill="#263238"/>
          <path id="Trazado_818269" data-name="Trazado 818269" d="M69.135,110.08c3.9,6.192-.436,14.377-5.833,19.312s-12.231,8.981-14.9,15.789c-4.448,11.367,4.841,24.915-.145,36.05-2.711,6.055-9.323,10.375-9.93,16.977-.316,3.438,1.12,6.774,1.428,10.212.727,8.177-4.849,15.37-9.288,22.28s-7.894,16.208-3.242,22.965l61.247-1.617a8.955,8.955,0,0,0,4.4-.881c2.771-1.668,2.874-5.576,2.643-8.8q-2.938-41.272-5.876-82.535" transform="translate(-25.011 -68.284)" fill="#263238"/>
          <path id="Trazado_818270" data-name="Trazado 818270" d="M197.922,171.549c-1.2-4.7-3.849-8.938-4.867-13.676-1.283-6,.163-12.2.992-18.295s.9-12.769-2.651-17.79c-2.113-2.985-5.337-5.089-7.244-8.211-2.472-4.037-2.369-9.066-3.327-13.693A29.991,29.991,0,0,0,161.59,78.04l-.12,123.786q11.367,3.72,22.742,7.432c4.165-5.534,8.373-11.136,11.213-17.456s4.225-13.531,2.506-20.245Z" transform="translate(-44.758 -63.647)" fill="#263238"/>
          <path id="Trazado_818271" data-name="Trazado 818271" d="M147.448,74.664c-2.951-4.447-6.586-8.6-11.281-11.144s-10.614-3.233-15.378-.821c-4.61,2.335-7.535,7.133-12.042,9.656-4.636,2.592-10.263,2.429-15.4,3.763A27.431,27.431,0,0,0,73.414,100.6c-.393,7.971,2.7,16.473-.753,23.674-3.336,6.953-12.2,11.127-12.769,18.816-.522,7.167,6.688,12.812,7.39,19.962.9,9.109-8.9,16.593-8.3,25.727.556,8.45,9.742,14.241,10.837,22.648.975,7.475-4.755,15.2-1.976,22.212,1.505,3.8,5.123,6.235,8.2,8.912s5.97,6.466,5.157,10.469l86.53-19.013c-5.328-16.824-10.683-34.862-5.756-51.8,1.779-6.115,4.841-11.8,6.663-17.91,2.1-7.082,2.489-14.574,2.241-21.964-.47-13.984-3.147-27.814-6.714-41.345-2.728-10.332-7.048-21.759-16.926-25.83" transform="translate(-29.924 -61.212)" fill="#263238"/>
          <path id="Trazado_818272" data-name="Trazado 818272" d="M186.565,205.095a12.586,12.586,0,0,0,1.18-3.284,18.457,18.457,0,0,0-1.018-9.383c-.641-1.916-1.514-3.951-2.369-6.192a24.818,24.818,0,0,1-1.813-7.415,26.223,26.223,0,0,1,.932-8.39c.727-2.84,1.762-5.688,2.737-8.621a44.562,44.562,0,0,0,2.172-8.707,18.161,18.161,0,0,0-.8-8.2,51.473,51.473,0,0,0-3.293-6.817,33.638,33.638,0,0,1-1.505-3.13,30.768,30.768,0,0,1-.932-3.062c-.992-3.943-1.565-7.176-2.044-9.391-.231-1.112-.436-1.967-.573-2.54-.068-.265-.128-.488-.171-.659a.857.857,0,0,1-.043-.231,2.087,2.087,0,0,1,.086.214c.051.145.128.359.214.65.171.573.4,1.428.659,2.532.539,2.207,1.155,5.431,2.181,9.348.274.975.556,1.993.949,3.019.4,1.009.958,2.027,1.505,3.079a50.2,50.2,0,0,1,3.353,6.859,18.4,18.4,0,0,1,.847,8.39,44.046,44.046,0,0,1-2.181,8.792c-.975,2.942-2.01,5.773-2.737,8.587a25.692,25.692,0,0,0-.949,8.245,24.887,24.887,0,0,0,1.753,7.321c.83,2.232,1.693,4.285,2.318,6.218a18.483,18.483,0,0,1,.889,9.519,10.255,10.255,0,0,1-.881,2.472c-.137.265-.265.453-.342.59a.946.946,0,0,1-.128.188Z" transform="translate(-47.299 -69.584)" fill="#455a64"/>
        </g>
        <g id="Grupo_1071979" data-name="Grupo 1071979" transform="translate(0 124.092)">
          <g id="Grupo_1084597" data-name="Grupo 1084597">
            <g id="Grupo_1071969" data-name="Grupo 1071969" transform="translate(21.893)">
              <path id="Trazado_818273" data-name="Trazado 818273" d="M90.728,209.3,83.98,216.86S58.6,225.755,55.9,227.38s17.277,110.9,17.277,110.9-25.915,30.842-27.532,41.918-3.4,25.83-3.4,25.83l153.593-.308-9.006-62.847,2.54-43.765-15.3-78.473-21.8-5.38-11.606-8.912-49.949,2.968Z" transform="translate(-42.224 -206.306)" fill="#a084f8"/>
              <path id="Trazado_818274" data-name="Trazado 818274" d="M42.22,406.036v-.026c.017-.145,1.8-14.882,3.4-25.83.368-2.532,2.053-6.3,4.986-11.23,2.352-3.934,5.508-8.613,9.391-13.89,6.509-8.869,12.915-16.516,13.154-16.8-.12-.65-5.08-27.814-9.648-54.833-6.184-36.529-8.741-55.406-7.612-56.081,2.66-1.6,27.592-10.349,28.079-10.52l6.748-7.561h.009l49.957-2.968h0l11.606,8.912L174.1,220.6v.017l15.3,78.473-2.54,43.774,9.006,62.872h-.026l-153.618.308ZM90.732,209.311l-6.748,7.561c-.257.086-25.411,8.912-28.071,10.52-1.095.659,1.548,20.039,7.638,56.039,4.6,27.207,9.6,54.567,9.648,54.841h0v.017c-.068.077-6.552,7.817-13.163,16.806-3.883,5.277-7.039,9.956-9.391,13.89-2.934,4.918-4.61,8.69-4.986,11.213-1.574,10.734-3.31,25.12-3.387,25.8l153.542-.308-9-62.829,2.54-43.774-15.293-78.447-21.793-5.38-11.606-8.9-49.932,2.968Z" transform="translate(-42.22 -206.3)" fill="#a084f8"/>
            </g>
            <path id="Trazado_818275" data-name="Trazado 818275" d="M52.192,230.94s-10.939,5.414-15.549,11.444S24.481,278.417,22.7,288s-7,20.766-5.936,25.376l1.42,4.969s-1.069,19.877,1.779,25.205,6.389,4.259,6.389,4.259.1,13.522,7.946,15.267c14.634,3.242,31.389.778,36.358-7.03s4.687-11.076,4.687-11.076L68.6,316.221l-3.8-7.757-3.661-22.058Z" transform="translate(-16.623 -209.866)" fill="#a084f8"/>
            <path id="Trazado_818276" data-name="Trazado 818276" d="M196.39,223.04s6.723,1.873,16.96,14.386,34.981,43.509,34.981,43.509h0s14.206-6.329,18.842-5.619A27.589,27.589,0,0,1,278.7,264.658c7.048-3.575,14.557-.787,14.557-.787l9.656,21.75c1.6,4.071,3.986,12.889,1.719,16.635-3,4.969-9.434,13.154-18.62,9.211,0,0-30.055,27.25-40.678,30.534-13.24,4.1-34.212-2.7-39.771-32.92-5.576-30.311-9.177-86.042-9.177-86.042Z" transform="translate(-42.638 -208.723)" fill="#a084f8"/>
          </g>
          <path id="Trazado_818277" data-name="Trazado 818277" d="M152.877,371.924s-.017-.1-.034-.308c-.017-.231-.034-.53-.06-.915-.051-.83-.12-2.018-.205-3.532-.18-3.088-.436-7.518-.761-12.975-.684-10.956-1.813-26.078-3.669-42.713-.941-8.322-1.984-16.233-3.028-23.409-1.069-7.176-2.121-13.625-3.1-19.022-.462-2.7-.949-5.14-1.351-7.279s-.77-3.986-1.078-5.482-.53-2.651-.693-3.464c-.068-.376-.128-.676-.171-.907a1.707,1.707,0,0,1-.043-.308,1.92,1.92,0,0,1,.086.3c.051.222.12.522.214.9.18.813.445,1.976.77,3.447.334,1.5.736,3.336,1.155,5.474s.932,4.567,1.42,7.27c1.026,5.4,2.1,11.837,3.2,19.013,1.069,7.184,2.121,15.1,3.062,23.418,1.856,16.652,2.934,31.783,3.541,42.747.308,5.482.513,9.921.616,12.983.051,1.514.094,2.7.12,3.532,0,.385.017.693.017.915v.316Z" transform="translate(-34.286 -212.857)" fill="#263238"/>
          <g id="Grupo_1071970" data-name="Grupo 1071970" transform="translate(34.945 93.038)" opacity="0.3">
            <path id="Trazado_818278" data-name="Trazado 818278" d="M57.677,376.7a18.475,18.475,0,0,0,22.793-.53c4.319-3.738,6.577-9.263,9.913-13.9,6.953-9.648,18.269-15.053,27.036-23.1,5.32-4.884,9.879-10.879,16.387-14,6.962-3.344,15.045-2.874,22.768-3.053s16.131-1.4,21.416-7.03q-20.527.641-41.054,1.292c-5.149.163-10.46.359-15.147,2.5-6.56,3-10.871,9.28-15.583,14.745a86.4,86.4,0,0,1-18.363,16.028c-2.677,1.736-5.6,3.481-7.022,6.346-.889,1.779-1.086,3.815-1.6,5.73-2.4,9.006-12.7,15.07-21.741,12.812" transform="translate(-57.48 -315.08)"/>
          </g>
          <path id="Trazado_818279" data-name="Trazado 818279" d="M79.852,365.79a3,3,0,0,1,.034.411,5.205,5.205,0,0,1-.154,1.18,16.508,16.508,0,0,1-1.591,4.054,24.972,24.972,0,0,1-3.772,5.234,17.186,17.186,0,0,1-6.517,4.439,34.129,34.129,0,0,1-7.68,1.83c-2.4.325-4.584.462-6.415.53s-3.31.068-4.336.06c-.47-.009-.855-.026-1.18-.034a1.6,1.6,0,0,1-.411-.043,11.315,11.315,0,0,1,1.591-.1c1.018-.043,2.5-.094,4.319-.2s3.994-.282,6.372-.624a35.709,35.709,0,0,0,7.578-1.839,16.933,16.933,0,0,0,6.38-4.311,25.956,25.956,0,0,0,3.8-5.1,17.906,17.906,0,0,0,1.693-3.943c.274-.975.239-1.548.291-1.548Z" transform="translate(-21.139 -229.38)" fill="#263238"/>
          <path id="Trazado_818280" data-name="Trazado 818280" d="M66.544,279.919a3.428,3.428,0,0,1,.06.411c.026.325.06.718.094,1.189.068,1.035.18,2.523.342,4.371.3,3.686.949,8.75,1.608,14.36.633,5.337.975,10.229,1.061,13.847l-.111-.154a8.745,8.745,0,0,1,2.506,1.189,4.106,4.106,0,0,1,1.351,1.608,3.67,3.67,0,0,1,.376,1.736,8.031,8.031,0,0,0-.539-1.659,4.106,4.106,0,0,0-1.343-1.48,9.068,9.068,0,0,0-2.455-1.095l-.111-.034v-.12c-.163-3.6-.547-8.476-1.18-13.8-.667-5.6-1.266-10.691-1.48-14.386-.128-1.847-.18-3.344-.205-4.379,0-.479,0-.872-.009-1.189a1.338,1.338,0,0,1,.026-.419Z" transform="translate(-23.842 -216.952)" fill="#263238"/>
          <path id="Trazado_818281" data-name="Trazado 818281" d="M209.931,335.982v-.239c.017-.188.034-.419.051-.71.06-.65.145-1.565.248-2.72.111-1.18.265-2.617.368-4.3s.308-3.584.376-5.7c.086-2.113.231-4.43.239-6.919.017-1.24.06-2.532.051-3.857s-.043-2.686-.06-4.088a170.871,170.871,0,0,0-1.42-18.132,165.321,165.321,0,0,0-3.524-17.85c-.368-1.351-.718-2.669-1.069-3.943s-.761-2.5-1.12-3.686c-.7-2.386-1.5-4.567-2.19-6.569-.334-1-.684-1.95-1.035-2.831s-.667-1.728-.966-2.515c-.582-1.574-1.163-2.908-1.617-4-.445-1.069-.8-1.916-1.043-2.523-.111-.274-.2-.488-.265-.659a.9.9,0,0,1-.077-.231,1.342,1.342,0,0,1,.12.214c.077.171.18.376.3.641.274.6.641,1.428,1.12,2.489.479,1.086,1.086,2.4,1.693,3.977.316.787.65,1.617,1,2.506.368.881.718,1.83,1.069,2.831.71,2,1.531,4.174,2.249,6.56.368,1.189.787,2.412,1.146,3.695s.718,2.6,1.086,3.951a159.451,159.451,0,0,1,3.567,17.893,167.191,167.191,0,0,1,1.394,18.184c.017,1.4.026,2.771.043,4.1,0,1.326-.051,2.617-.068,3.866-.026,2.5-.188,4.815-.3,6.928-.094,2.121-.316,4.028-.445,5.7s-.308,3.122-.445,4.294c-.137,1.155-.248,2.061-.334,2.711-.043.291-.068.522-.094.7a1.006,1.006,0,0,1-.051.239Z" transform="translate(-42.708 -211.828)" fill="#263238"/>
          <path id="Trazado_818282" data-name="Trazado 818282" d="M255.44,322.749s-.171-.419-.4-1.206-.522-1.933-.8-3.361a47.017,47.017,0,0,1-.7-5.089,51.975,51.975,0,0,1-.111-6.286,53.024,53.024,0,0,1,.7-6.252,48.048,48.048,0,0,1,1.172-4.995c.419-1.4.8-2.523,1.112-3.276a6.888,6.888,0,0,1,.513-1.163,7.016,7.016,0,0,1-.351,1.223c-.257.77-.6,1.9-.975,3.3s-.753,3.1-1.078,4.986a58.74,58.74,0,0,0-.659,6.2,59.554,59.554,0,0,0,.077,6.235c.145,1.916.359,3.626.607,5.063s.47,2.583.659,3.378a6.18,6.18,0,0,1,.231,1.249Z" transform="translate(-50.883 -218.574)" fill="#263238"/>
          <path id="Trazado_818283" data-name="Trazado 818283" d="M288.422,308.708s-.274-.257-.718-.77-1.043-1.291-1.745-2.284a38.829,38.829,0,0,1-6.654-17.568,27.213,27.213,0,0,1-.205-2.865,5.611,5.611,0,0,1,.026-1.052c.077,0,.137,1.488.488,3.874a43.293,43.293,0,0,0,6.6,17.431c1.317,2.018,2.258,3.173,2.2,3.224Z" transform="translate(-54.606 -217.569)" fill="#263238"/>
          <path id="Trazado_818284" data-name="Trazado 818284" d="M311.951,310.187s-.359-.342-.941-1.018a37.128,37.128,0,0,1-2.3-2.976,45.435,45.435,0,0,1-5.688-11.025,40.787,40.787,0,0,1-1.7-6.637,31.411,31.411,0,0,1-.4-5.585,17.9,17.9,0,0,1,.12-2.147,11.482,11.482,0,0,1,.205-1.608,6.969,6.969,0,0,1,.291-1.351,8.1,8.1,0,0,1-.12,1.377,12.9,12.9,0,0,0-.128,1.608,20.865,20.865,0,0,0-.051,2.13,34.226,34.226,0,0,0,.5,5.517,42.913,42.913,0,0,0,1.719,6.56,49.547,49.547,0,0,0,5.525,11c.881,1.309,1.634,2.352,2.181,3.045a8.174,8.174,0,0,1,.8,1.12Z" transform="translate(-57.761 -216.653)" fill="#263238"/>
          <path id="Trazado_818285" data-name="Trazado 818285" d="M165.181,217.61s-.051.214-.18.607c-.145.428-.342.992-.59,1.7-.5,1.48-1.249,3.609-2.061,6.286a156.6,156.6,0,0,0-4.961,21.211c-.53,3.284-.932,6.466-1.223,9.434l-.051.522-.325-.411c-4.559-5.807-8.322-10.64-10.571-13.573l.145.026q-1.681,1.014-2.643,1.591c-.282.163-.5.291-.693.4a.923.923,0,0,1-.248.12,1.79,1.79,0,0,1,.214-.171c.18-.12.393-.265.659-.445.633-.411,1.488-.966,2.583-1.685l.086-.051.06.077c2.326,2.865,6.141,7.655,10.725,13.445l-.376.111c.282-2.968.676-6.167,1.206-9.46a142.9,142.9,0,0,1,5.1-21.237c.855-2.66,1.642-4.79,2.2-6.252.274-.693.5-1.249.667-1.668a3.055,3.055,0,0,1,.265-.573Z" transform="translate(-34.735 -207.937)" fill="#263238"/>
          <path id="Trazado_818286" data-name="Trazado 818286" d="M105.818,235.959s.128.111.351.342c.248.274.556.616.932,1.043.8.915,1.941,2.241,3.31,3.926,2.754,3.353,6.423,8.082,10.212,13.514,1.651,2.361,3.182,4.653,4.55,6.774h-.351c2.634-3.746,4.892-6.954,6.534-9.288.787-1.095,1.428-1.984,1.907-2.651a7.075,7.075,0,0,1,.727-.924,7.64,7.64,0,0,1-.607,1c-.453.684-1.061,1.591-1.813,2.72-1.608,2.361-3.823,5.6-6.406,9.374l-.18.257-.171-.265c-1.377-2.1-2.917-4.388-4.567-6.748-3.78-5.414-7.407-10.169-10.092-13.573-1.317-1.659-2.4-3.011-3.2-4.011-.351-.445-.641-.8-.864-1.095a2.407,2.407,0,0,1-.282-.4Z" transform="translate(-29.529 -210.591)" fill="#263238"/>
          <path id="Trazado_818287" data-name="Trazado 818287" d="M177.817,410.411a1.34,1.34,0,0,1-.145.094c-.12.068-.265.154-.453.257q-.308.167-.744.411c-.145.086-.308.171-.479.265-.18.077-.376.154-.582.231a38.276,38.276,0,0,1-7.261,2.1,141.453,141.453,0,0,1-26.138,2.061h-.026a167.383,167.383,0,0,1-53.61-15.8,126.116,126.116,0,0,1-13.89-7.706s.086.034.257.12c.18.1.419.231.718.393.65.376,1.574.9,2.745,1.565,1.215.659,2.686,1.454,4.388,2.386,1.736.881,3.695,1.924,5.919,2.959a171.736,171.736,0,0,0,53.515,15.669h-.026a147.228,147.228,0,0,0,26.086-1.89,40.8,40.8,0,0,0,7.261-1.976c.205-.077.4-.145.582-.214.171-.086.334-.171.479-.248l.753-.376c.188-.094.342-.163.47-.222a1.059,1.059,0,0,1,.163-.068Z" transform="translate(-24.997 -233.221)" fill="#263238"/>
          <path id="Trazado_818288" data-name="Trazado 818288" d="M175.4,389.891a1.541,1.541,0,0,1-.188.06c-.154.034-.342.068-.564.12-.539.1-1.274.248-2.2.419-1.916.308-4.7.659-8.168.915-6.919.547-16.516.659-27.087.368-10.58-.325-20.142-1.009-27.044-1.753-3.447-.376-6.227-.77-8.142-1.078-.924-.171-1.659-.308-2.2-.411-.231-.051-.411-.086-.564-.12a1.055,1.055,0,0,1-.188-.051s.068,0,.2.009c.154.017.342.043.573.077.539.077,1.274.188,2.207.325,1.924.257,4.7.6,8.151.932,6.894.667,16.456,1.3,27.019,1.625,10.563.282,20.142.222,27.053-.24,3.455-.214,6.244-.522,8.159-.77.924-.145,1.659-.257,2.207-.342.231-.034.419-.06.573-.077a.5.5,0,0,1,.2-.009Z" transform="translate(-28.553 -232.646)" fill="#263238"/>
          <path id="Trazado_818289" data-name="Trazado 818289" d="M156.509,415.618c-.077-.026.393-1.274.872-3.37a44.861,44.861,0,0,0,1.061-8.3,34.127,34.127,0,0,0-.616-8.322,31.857,31.857,0,0,0-1.018-3.31,3.545,3.545,0,0,1,.47.813,14.306,14.306,0,0,1,.847,2.42,30.592,30.592,0,0,1,.761,8.407,37.978,37.978,0,0,1-1.2,8.356c-.128.522-.282.992-.419,1.4a10.557,10.557,0,0,1-.368,1.035,3.758,3.758,0,0,1-.393.855Z" transform="translate(-36.865 -233.219)" fill="#263238"/>
          <path id="Trazado_818290" data-name="Trazado 818290" d="M155.28,437.145a11.828,11.828,0,0,1-.2-2.48c-.043-1.531-.051-3.652-.026-5.987.034-2.266.068-4.311.1-5.987a16.293,16.293,0,0,1,.12-2.48,11.825,11.825,0,0,1,.2,2.48c.043,1.531.051,3.652.026,6-.034,2.266-.068,4.311-.1,5.987a16.293,16.293,0,0,1-.12,2.48Z" transform="translate(-36.654 -237.255)" fill="#263238"/>
          <path id="Trazado_818291" data-name="Trazado 818291" d="M65.322,320.769a9.541,9.541,0,0,1-1.052.06c-.676,0-1.651.026-2.857.068a59.557,59.557,0,0,0-18.372,3.678c-1.129.419-2.044.77-2.66,1.035a4.5,4.5,0,0,1-.992.351,5.06,5.06,0,0,1,.924-.513c.607-.308,1.5-.71,2.617-1.163a51.36,51.36,0,0,1,9.066-2.7,51.9,51.9,0,0,1,9.408-.992c1.215-.009,2.19.017,2.865.068a4.06,4.06,0,0,1,1.043.12Z" transform="translate(-19.918 -222.839)" fill="#263238"/>
          <path id="Trazado_818292" data-name="Trazado 818292" d="M35.75,329.57a26.23,26.23,0,0,0-3.507,3.712,25.508,25.508,0,0,0-4.465,11.35,54.656,54.656,0,0,0-.145,12.333c.128,1.522.231,2.788.316,3.746a8.309,8.309,0,0,1,.068,1.377,7.161,7.161,0,0,1-.239-1.36c-.128-.881-.291-2.155-.453-3.738a50,50,0,0,1,.026-12.427A24.719,24.719,0,0,1,32,333.094a16.859,16.859,0,0,1,2.626-2.72,9.554,9.554,0,0,1,.821-.616,1.278,1.278,0,0,1,.308-.188Z" transform="translate(-18.116 -224.138)" fill="#263238"/>
          <path id="Trazado_818293" data-name="Trazado 818293" d="M99.283,299.12c.137-.017.359,2.66,1.4,5.765,1.026,3.113,2.463,5.38,2.343,5.448a5.634,5.634,0,0,1-1.018-1.437,20.568,20.568,0,0,1-1.745-3.874,21.166,21.166,0,0,1-.932-4.14A5.9,5.9,0,0,1,99.283,299.12Z" transform="translate(-28.579 -219.732)" fill="#fff"/>
          <g id="Grupo_1071971" data-name="Grupo 1071971" transform="translate(65.273 36.641)" opacity="0.3">
            <path id="Trazado_818294" data-name="Trazado 818294" d="M92.94,296.916a13.519,13.519,0,0,0,8.732.248c.034,1.3.06,2.6.094,3.9a30.362,30.362,0,0,0,21.664-32.732c.5,1.12,2.155,1.291,3.2.633a5.963,5.963,0,0,0,2.044-3,44.043,44.043,0,0,0,3.019-13.933q-4.311,5.671-8.63,11.341A64.038,64.038,0,0,0,111.38,249.14a262.445,262.445,0,0,1-16.918,46.75" transform="translate(-92.94 -249.14)"/>
          </g>
          <g id="Grupo_1071972" data-name="Grupo 1071972" transform="translate(196.887 73.418)" opacity="0.3">
            <path id="Trazado_818295" data-name="Trazado 818295" d="M255.288,292.448a44.181,44.181,0,0,0-8.279,29.952,6.359,6.359,0,0,0,.659,2.609,2.378,2.378,0,0,0,2.215,1.274c1.129-.145,1.83-1.292,2.164-2.378.864-2.78.453-5.765.274-8.664a53.577,53.577,0,0,1,3.686-23.1" transform="translate(-246.823 -292.14)"/>
          </g>
          <g id="Grupo_1071973" data-name="Grupo 1071973" transform="translate(249.477 78.028)" opacity="0.3">
            <path id="Trazado_818296" data-name="Trazado 818296" d="M308.319,306.134l.684,1.394c.659.411.83,1.471,1.334,2.061a2,2,0,0,0,2.224.419,2.053,2.053,0,0,0,.83-.855,32.054,32.054,0,0,0,4.7-11.623,40.786,40.786,0,0,0-9.776,8.6Z" transform="translate(-308.31 -297.53)"/>
          </g>
          <g id="Grupo_1071974" data-name="Grupo 1071974" transform="translate(225.014 71.442)" opacity="0.3">
            <path id="Trazado_818297" data-name="Trazado 818297" d="M279.71,289.83a39.317,39.317,0,0,0,3.173,16.652,24.562,24.562,0,0,0,11.5,12.162C288.579,310.032,281.822,301.65,279.71,289.83Z" transform="translate(-279.708 -289.83)"/>
          </g>
          <g id="Grupo_1071977" data-name="Grupo 1071977" transform="translate(74.553 170.955)">
            <g id="Grupo_1071975" data-name="Grupo 1071975" opacity="0.3">
              <path id="Trazado_818298" data-name="Trazado 818298" d="M105.278,407.548a.754.754,0,0,1,.086.043c-.53-.462-1.061-.924-1.574-1.411Z" transform="translate(-103.79 -406.18)"/>
            </g>
            <g id="Grupo_1071976" data-name="Grupo 1071976" transform="translate(1.582 1.411)" opacity="0.3">
              <path id="Trazado_818299" data-name="Trazado 818299" d="M105.64,407.83a64.108,64.108,0,0,0,74.641,6.911A114.858,114.858,0,0,1,105.64,407.83Z" transform="translate(-105.64 -407.83)"/>
            </g>
          </g>
          <path id="Trazado_818300" data-name="Trazado 818300" d="M53.544,339.728a6.3,6.3,0,0,1-.872.248c-.564.137-1.394.291-2.42.428a35.644,35.644,0,0,1-16.045-1.565,22.639,22.639,0,0,1-2.292-.889,3.849,3.849,0,0,1-.8-.411c.026-.068,1.215.411,3.19,1a41.992,41.992,0,0,0,7.886,1.557,43,43,0,0,0,8.031,0C52.27,339.9,53.527,339.66,53.544,339.728Z" transform="translate(-18.719 -225.291)" fill="#fff"/>
          <path id="Trazado_818301" data-name="Trazado 818301" d="M53.527,348.928a10.062,10.062,0,0,1-.992.359,28.191,28.191,0,0,1-2.8.693,38.142,38.142,0,0,1-9.477.659,37.591,37.591,0,0,1-9.34-1.728c-1.155-.376-2.078-.727-2.7-1a5.317,5.317,0,0,1-.949-.462c.034-.077,1.42.5,3.738,1.172a42.025,42.025,0,0,0,18.671,1.061c2.386-.4,3.832-.813,3.849-.736Z" transform="translate(-18.164 -226.725)" fill="#fff"/>
          <path id="Trazado_818302" data-name="Trazado 818302" d="M58.133,270.5s-.428.18-1.223.419l-3.353,1.018c-2.831.864-6.731,2.087-11,3.575s-8.082,2.951-10.845,4.037c-1.317.522-2.412.958-3.259,1.291a7.918,7.918,0,0,1-1.215.428,7.177,7.177,0,0,1,1.146-.59c.753-.351,1.847-.838,3.207-1.42,2.728-1.163,6.543-2.677,10.811-4.165s8.2-2.668,11.059-3.455c1.428-.393,2.592-.693,3.4-.881a8.345,8.345,0,0,1,1.266-.257Z" transform="translate(-18.159 -215.59)" fill="#fff"/>
          <path id="Trazado_818303" data-name="Trazado 818303" d="M60.827,286.649c.026.12-7.74,1.642-17.345,3.4s-17.405,3.088-17.422,2.968,7.74-1.642,17.345-3.4S60.81,286.529,60.827,286.649Z" transform="translate(-17.989 -217.926)" fill="#fff"/>
          <path id="Trazado_818304" data-name="Trazado 818304" d="M160.625,238.282c-.111.086-1.634-1.933-4.02-3.9-2.369-1.984-4.644-3.113-4.576-3.233a4.833,4.833,0,0,1,1.531.65,20.048,20.048,0,0,1,3.327,2.241,20.261,20.261,0,0,1,2.822,2.857A4.74,4.74,0,0,1,160.625,238.282Z" transform="translate(-36.218 -209.895)" fill="#fff"/>
          <path id="Trazado_818305" data-name="Trazado 818305" d="M163.559,233.269c-.111.077-1.505-1.813-3.618-3.78-2.1-1.976-4.08-3.25-4.011-3.37a14.666,14.666,0,0,1,4.311,3.045A15.006,15.006,0,0,1,163.559,233.269Z" transform="translate(-36.782 -209.167)" fill="#fff"/>
          <path id="Trazado_818306" data-name="Trazado 818306" d="M117.071,384.4c-.12.026-1.711-8.048-3.549-18.029s-3.233-18.089-3.113-18.115,1.711,8.048,3.549,18.029S117.191,384.379,117.071,384.4Z" transform="translate(-30.194 -226.843)" fill="#fff"/>
          <path id="Trazado_818307" data-name="Trazado 818307" d="M129.257,383.852a3.812,3.812,0,0,1-.154-.453c-.094-.351-.205-.778-.342-1.309-.291-1.138-.693-2.788-1.163-4.841-.941-4.1-2.13-9.776-3.259-16.088s-1.976-12.06-2.515-16.225c-.265-2.087-.47-3.772-.59-4.944-.051-.547-.094-.992-.128-1.343a2.439,2.439,0,0,1-.017-.47,1.712,1.712,0,0,1,.1.462c.06.351.128.8.214,1.334.18,1.223.428,2.891.727,4.918.616,4.148,1.514,9.879,2.634,16.191s2.275,11.991,3.13,16.1c.419,2.01.77,3.652,1.018,4.867.1.539.2.975.265,1.326a1.515,1.515,0,0,1,.06.47Z" transform="translate(-31.74 -225.384)" fill="#fff"/>
          <path id="Trazado_818308" data-name="Trazado 818308" d="M107.476,405.318a123.074,123.074,0,0,1-.325-14.788,123.074,123.074,0,0,1,.325,14.788Z" transform="translate(-29.707 -232.96)" fill="#fff"/>
          <path id="Trazado_818309" data-name="Trazado 818309" d="M116.688,408.186a12.3,12.3,0,0,1-.59-2.532,54.2,54.2,0,0,1-.676-12.521,13.443,13.443,0,0,1,.308-2.583,17.314,17.314,0,0,1,0,2.6c-.026,1.6-.026,3.806.1,6.244s.368,4.627.564,6.218a18.15,18.15,0,0,1,.274,2.583Z" transform="translate(-30.905 -232.963)" fill="#fff"/>
          <path id="Trazado_818310" data-name="Trazado 818310" d="M123.806,437c-.12,0-.291-4.909-.385-10.965s-.06-10.965.06-10.973.291,4.909.385,10.965.06,10.965-.06,10.965Z" transform="translate(-32.071 -236.51)" fill="#fff"/>
          <path id="Trazado_818311" data-name="Trazado 818311" d="M134.38,435.814c-.12,0-.291-4.268-.368-9.528s-.051-9.536.077-9.536.291,4.268.368,9.536.051,9.536-.077,9.536Z" transform="translate(-33.604 -236.754)" fill="#fff"/>
          <path id="Trazado_818312" data-name="Trazado 818312" d="M230.682,264.14c.077.094-4.319,3.524-9.819,7.646s-10.007,7.39-10.084,7.3,4.319-3.524,9.819-7.646,10.007-7.39,10.084-7.287Z" transform="translate(-44.719 -214.67)" fill="#fff"/>
          <path id="Trazado_818313" data-name="Trazado 818313" d="M227.263,256.84c.068.1-4.379,3.455-9.938,7.492s-10.127,7.236-10.2,7.133,4.379-3.455,9.938-7.492S227.195,256.737,227.263,256.84Z" transform="translate(-44.191 -213.613)" fill="#fff"/>
          <path id="Trazado_818314" data-name="Trazado 818314" d="M272.877,339.371a5.221,5.221,0,0,1-.359-.419c-.248-.325-.564-.736-.958-1.249-.205-.274-.436-.582-.684-.907-.24-.342-.479-.727-.744-1.129-.522-.821-1.163-1.728-1.736-2.814-.3-.539-.616-1.095-.941-1.676s-.6-1.223-.915-1.873c-.659-1.283-1.2-2.728-1.8-4.234a55.37,55.37,0,0,1-3.515-20.681c.077-1.617.111-3.165.308-4.593.086-.718.137-1.411.248-2.07s.222-1.292.334-1.9c.18-1.215.488-2.284.71-3.224.12-.47.214-.915.334-1.317s.239-.753.351-1.086c.205-.616.368-1.112.5-1.5a2.471,2.471,0,0,1,.205-.513,2.364,2.364,0,0,1-.12.539q-.167.59-.411,1.514c-.094.334-.2.7-.308,1.095s-.188.847-.291,1.317c-.2.949-.479,2.018-.641,3.224-.094.6-.2,1.232-.3,1.89s-.137,1.351-.214,2.061c-.18,1.42-.2,2.951-.265,4.559a62.917,62.917,0,0,0,.8,10.426,61.482,61.482,0,0,0,2.694,10.1c.59,1.5,1.12,2.934,1.753,4.217.308.65.573,1.283.889,1.873s.616,1.146.907,1.685c.547,1.086,1.172,2,1.668,2.831.257.411.488.8.71,1.146.239.334.453.641.65.932.368.53.659.958.89,1.291a3.622,3.622,0,0,1,.291.47Z" transform="translate(-52.018 -218.15)" fill="#fff"/>
          <path id="Trazado_818315" data-name="Trazado 818315" d="M284.273,330.693a4.282,4.282,0,0,1-.342-.351c-.24-.282-.547-.633-.924-1.069-.4-.462-.881-1.043-1.394-1.745s-1.138-1.48-1.728-2.4c-.616-.907-1.283-1.907-1.924-3.028-.684-1.095-1.309-2.326-1.984-3.609a60.147,60.147,0,0,1-5.722-17.935c-.188-1.437-.393-2.805-.47-4.1-.128-1.283-.163-2.489-.188-3.584-.051-1.095,0-2.087.017-2.959s.068-1.616.128-2.232c.051-.573.094-1.035.137-1.4a1.939,1.939,0,0,1,.077-.488,2,2,0,0,1,.009.5c-.017.368-.026.838-.051,1.411-.034.607-.068,1.36-.051,2.224,0,.864-.026,1.856.043,2.942.043,1.095.094,2.284.239,3.558.094,1.283.308,2.634.513,4.063a69.084,69.084,0,0,0,2.172,9.117,68.27,68.27,0,0,0,3.515,8.69c.667,1.283,1.274,2.515,1.941,3.609.624,1.12,1.274,2.13,1.865,3.045.573.932,1.172,1.719,1.668,2.429s.949,1.309,1.334,1.788c.351.453.633.821.855,1.12a1.873,1.873,0,0,1,.274.411Z" transform="translate(-53.228 -217.803)" fill="#fff"/>
          <path id="Trazado_818316" data-name="Trazado 818316" d="M297.558,289.6c0,.077-.966,0-2.506.034a25.756,25.756,0,0,0-5.936.855,26.265,26.265,0,0,0-5.577,2.215c-1.36.727-2.147,1.274-2.19,1.215-.017-.026.163-.188.5-.453a14.751,14.751,0,0,1,1.531-1.035,21.941,21.941,0,0,1,11.658-3.1,14.4,14.4,0,0,1,1.839.137,1.865,1.865,0,0,1,.667.145Z" transform="translate(-54.932 -218.314)" fill="#fff"/>
          <path id="Trazado_818317" data-name="Trazado 818317" d="M299.364,299.7c-.017.068-.881-.068-2.292-.154a26.815,26.815,0,0,0-5.5.214,27.669,27.669,0,0,0-5.337,1.343c-1.326.479-2.13.855-2.155.8a8.33,8.33,0,0,1,2.044-1.086,21.794,21.794,0,0,1,5.388-1.488,22.111,22.111,0,0,1,5.585-.086,8.178,8.178,0,0,1,2.267.47Z" transform="translate(-55.327 -219.729)" fill="#fff"/>
          <path id="Trazado_818318" data-name="Trazado 818318" d="M127.777,242.1c.086.094-1.882,2.036-4.148,4.584s-3.977,4.721-4.08,4.644a6.567,6.567,0,0,1,.984-1.531c.659-.907,1.625-2.121,2.763-3.4s2.241-2.378,3.062-3.139a6.812,6.812,0,0,1,1.411-1.146Z" transform="translate(-31.517 -211.481)" fill="#fff"/>
          <path id="Trazado_818319" data-name="Trazado 818319" d="M124.411,236.929a34.829,34.829,0,0,1-3.832,4.046,33.7,33.7,0,0,1-4.14,3.721,34.833,34.833,0,0,1,3.832-4.046,33.705,33.705,0,0,1,4.14-3.721Z" transform="translate(-31.067 -210.732)" fill="#fff"/>
          <path id="Trazado_818320" data-name="Trazado 818320" d="M204.537,338.579s-.171.06-.5.137c-.385.077-.872.18-1.471.308-1.283.265-3.139.607-5.44.992-4.61.77-11.008,1.634-18.115,2.2s-13.565.7-18.235.667c-2.335-.017-4.225-.06-5.525-.128-.616-.034-1.112-.06-1.505-.077a2.308,2.308,0,0,1-.522-.06,2.253,2.253,0,0,1,.522-.034h1.505c1.309,0,3.19,0,5.525-.017,4.661-.043,11.11-.239,18.2-.8s13.488-1.377,18.1-2.061c2.309-.342,4.174-.633,5.457-.847.607-.094,1.095-.171,1.488-.231a2.006,2.006,0,0,1,.522-.051Z" transform="translate(-36.39 -225.441)" fill="#fff"/>
          <path id="Trazado_818321" data-name="Trazado 818321" d="M204.957,347.609s-.171.06-.5.137c-.385.077-.872.18-1.471.308-1.283.265-3.139.607-5.44.992-4.61.77-11.008,1.634-18.115,2.2s-13.565.7-18.235.667c-2.335-.017-4.225-.06-5.525-.128-.616-.034-1.112-.06-1.505-.077a2.308,2.308,0,0,1-.522-.06,2.253,2.253,0,0,1,.522-.034h1.505c1.309,0,3.19,0,5.525-.017,4.661-.043,11.11-.239,18.2-.8s13.488-1.377,18.1-2.061c2.309-.342,4.174-.633,5.457-.847.607-.094,1.095-.171,1.488-.231a2.006,2.006,0,0,1,.522-.051Z" transform="translate(-36.451 -226.748)" fill="#fff"/>
          <g id="Grupo_1071978" data-name="Grupo 1071978" transform="translate(162.237 52.917)" opacity="0.3">
            <path id="Trazado_818322" data-name="Trazado 818322" d="M215.658,336.969c4.7-10.854,4.978-23.854,2.557-35.435s-7.176-22.52-11.906-33.365c6.7,24.35,6.372,40.789,5.91,63.283l3.438,5.517Z" transform="translate(-206.31 -268.17)"/>
          </g>
        </g>
        <g id="Grupo_1071980" data-name="Grupo 1071980" transform="translate(243.104 155.037)">
          <path id="Trazado_818323" data-name="Trazado 818323" d="M301.518,273.517l29.157-25.547,8.715,17.6-31.406,34.785s-9.7-15.772-6.466-26.839Z" transform="translate(-300.859 -243.274)" fill="#ffbe9d"/>
          <path id="Trazado_818324" data-name="Trazado 818324" d="M371.8,244.4s-2.874-2.369-8.9-.385-9.827-.3-12.308-1.035a15.241,15.241,0,0,0-15.3,4.593l9.092,17.208,29.465,1.283,24.29-.907a2.971,2.971,0,0,0-1.215-3.695l5.1-1.463s-.026-4.636-5.534-4.242l1.257-2.669s-3.267-3.78-6.432.565c0,0-3.1-2.532-7.621,1.548l-4.858,1.266-11.717-4.148s9.742-2.934,4.7-7.92Z" transform="translate(-305.841 -242.48)" fill="#ffbe9d"/>
          <path id="Trazado_818325" data-name="Trazado 818325" d="M377.18,260.5s-.479-.145-1.309-.47c-.9-.368-2.078-.855-3.5-1.437-2.951-1.232-7-2.968-11.487-4.9-2.241-.958-4.345-1.95-6.346-2.574a13.484,13.484,0,0,0-5.457-.7,8.9,8.9,0,0,0-3.549,1.069c-.77.445-1.129.787-1.155.753a1.3,1.3,0,0,1,.248-.265,6.085,6.085,0,0,1,.821-.633,8.514,8.514,0,0,1,3.6-1.232,13.6,13.6,0,0,1,5.611.624,63.824,63.824,0,0,1,6.4,2.557c4.473,1.933,8.519,3.712,11.427,5.021,1.4.641,2.557,1.163,3.447,1.565a7.305,7.305,0,0,1,1.24.633Z" transform="translate(-307.156 -243.572)" fill="#eb996e"/>
          <path id="Trazado_818326" data-name="Trazado 818326" d="M388.409,263.366a11.183,11.183,0,0,1,1.642-1.292c1.035-.761,2.463-1.822,4-3.036s2.9-2.361,3.883-3.2a11.082,11.082,0,0,1,1.634-1.3,8.74,8.74,0,0,1-1.428,1.54c-.932.9-2.267,2.087-3.815,3.31s-3.019,2.249-4.105,2.942a9.384,9.384,0,0,1-1.822,1.035Z" transform="translate(-313.527 -244.225)" fill="#eb996e"/>
          <path id="Trazado_818327" data-name="Trazado 818327" d="M397.02,267.417c-.086-.1,2.147-2,4.456-4.755,2.326-2.745,3.823-5.26,3.943-5.192a7.024,7.024,0,0,1-.881,1.711,30.482,30.482,0,0,1-2.728,3.763,31.081,31.081,0,0,1-3.25,3.319A7.053,7.053,0,0,1,397.02,267.417Z" transform="translate(-314.774 -244.649)" fill="#eb996e"/>
        </g>
        <g id="Grupo_1071981" data-name="Grupo 1071981" transform="translate(32.267 197.089)">
          <path id="Trazado_818328" data-name="Trazado 818328" d="M65.614,323.909c.641,0,57.15-26.129,57.15-26.129l9.134,16.995s-46.151,41.687-56.141,43.389-21.408.163-21.408-10.46,11.264-23.794,11.264-23.794Z" transform="translate(-54.35 -292.535)" fill="#ffbe9d"/>
          <path id="Trazado_818329" data-name="Trazado 818329" d="M170.837,293.523s-2.874-2.369-8.9-.385-9.827-.3-12.308-1.035a15.421,15.421,0,0,0-15.275,4.79l9.066,17.012,29.465,1.283,24.29-.907a2.971,2.971,0,0,0-1.215-3.695l5.1-1.463s-.026-4.636-5.534-4.242l1.257-2.668s-3.267-3.78-6.432.564c0,0-3.1-2.532-7.621,1.548l-4.858,1.266-11.717-4.148s9.742-2.934,4.7-7.92Z" transform="translate(-65.927 -291.648)" fill="#ffbe9d"/>
          <path id="Trazado_818330" data-name="Trazado 818330" d="M169.04,303.053a8.826,8.826,0,0,1-2.147.239c-1.334.068-3.173.043-5.192-.026s-3.849-.111-5.175-.12a12.7,12.7,0,0,1-2.147-.086,9.156,9.156,0,0,1,2.147-.231c1.326-.068,3.173-.077,5.192,0s3.849.145,5.175.154a12.276,12.276,0,0,1,2.147.077Z" transform="translate(-68.825 -293.258)" fill="#eb996e"/>
          <path id="Trazado_818331" data-name="Trazado 818331" d="M204.921,307.808a5.414,5.414,0,0,1-.787.18c-.513.086-1.257.188-2.181.291-1.847.205-4.4.4-7.236.47s-5.4-.034-7.253-.163c-.924-.068-1.676-.137-2.19-.2a2.545,2.545,0,0,1-.8-.145,22.769,22.769,0,0,1,3,.026c1.847.051,4.4.086,7.227.034s5.371-.205,7.219-.334a25.29,25.29,0,0,1,2.994-.154Z" transform="translate(-73.181 -293.985)" fill="#eb996e"/>
        </g>
        <g id="Grupo_1071989" data-name="Grupo 1071989" transform="translate(57.367 6.041)">
          <g id="Grupo_1071988" data-name="Grupo 1071988" transform="translate(1.511 7.462)">
            <g id="Grupo_1071986" data-name="Grupo 1071986">
              <g id="Grupo_1071985" data-name="Grupo 1071985" transform="translate(7.352 4.878)">
                <g id="Grupo_1071984" data-name="Grupo 1071984">
                  <path id="Trazado_818332" data-name="Trazado 818332" d="M166.323,110.121c-1.531-13.343-11.238-29.319-24.5-27.232L100.7,95.547a7.87,7.87,0,0,0-6.62,8.322l11.794,96.058c2.207,1.976,28.267,25.77,28.267,25.77l15.472-28.327s-.676-16.96-.667-16.849c0,0,16.96-3.712,19.364-26.215C169.5,143.118,168.017,124.943,166.323,110.121Z" transform="translate(-94.058 -82.704)" fill="#ffbe9d"/>
                  <g id="Grupo_1071982" data-name="Grupo 1071982" transform="translate(57.203 36.142)">
                    <path id="Trazado_818333" data-name="Trazado 818333" d="M171.626,134.856a2.87,2.87,0,0,1-2.609,3.028,2.738,2.738,0,0,1-3.079-2.429,2.87,2.87,0,0,1,2.609-3.028,2.751,2.751,0,0,1,3.088,2.429Z" transform="translate(-161.661 -126.039)" fill="#263238"/>
                    <path id="Trazado_818334" data-name="Trazado 818334" d="M172.255,127.7c-.334.393-2.583-1.1-5.662-.941-3.079.12-5.26,1.822-5.611,1.463-.171-.163.154-.847,1.1-1.617a7.9,7.9,0,0,1,4.465-1.634,7.573,7.573,0,0,1,4.533,1.215C172.067,126.859,172.426,127.517,172.255,127.7Z" transform="translate(-160.939 -124.961)" fill="#263238"/>
                  </g>
                  <g id="Grupo_1071983" data-name="Grupo 1071983" transform="translate(26.507 37.793)">
                    <path id="Trazado_818335" data-name="Trazado 818335" d="M137.406,136.986a2.87,2.87,0,0,1-2.609,3.028,2.738,2.738,0,0,1-3.079-2.429,2.87,2.87,0,0,1,2.609-3.028,2.751,2.751,0,0,1,3.088,2.429Z" transform="translate(-126.013 -127.998)" fill="#263238"/>
                    <path id="Trazado_818336" data-name="Trazado 818336" d="M136.374,129.627c-.334.393-2.592-1.1-5.671-.941-3.079.12-5.26,1.822-5.611,1.463-.171-.163.154-.847,1.1-1.617a7.9,7.9,0,0,1,4.465-1.634,7.573,7.573,0,0,1,4.533,1.215c.984.676,1.343,1.334,1.172,1.514Z" transform="translate(-125.049 -126.891)" fill="#263238"/>
                  </g>
                  <path id="Trazado_818337" data-name="Trazado 818337" d="M153.1,150.251c-.026-.171,1.873-.6,4.961-1.155.778-.12,1.522-.316,1.625-.855a4.035,4.035,0,0,0-.641-2.309c-.838-1.865-1.711-3.823-2.634-5.867-3.669-8.365-6.363-15.25-6.021-15.4s3.584,6.517,7.244,14.882q1.321,3.092,2.532,5.91a4.553,4.553,0,0,1,.564,3.062,1.97,1.97,0,0,1-1.232,1.215,5.359,5.359,0,0,1-1.326.257c-3.113.325-5.046.436-5.072.265Z" transform="translate(-102.205 -88.776)" fill="#263238"/>
                  <path id="Trazado_818338" data-name="Trazado 818338" d="M153.1,195.979a56.813,56.813,0,0,1-30.294-6.449s8.322,14.959,30.551,11.735l-.257-5.286Z" transform="translate(-98.218 -98.163)" fill="#eb996e"/>
                </g>
                <path id="Trazado_818339" data-name="Trazado 818339" d="M137.414,115.827c-.257.855-3.353.616-6.945,1.232-3.6.547-6.466,1.753-6.979,1.026-.231-.351.239-1.163,1.368-2.036a12.242,12.242,0,0,1,10.614-1.719C136.824,114.8,137.526,115.425,137.414,115.827Z" transform="translate(-98.309 -87.203)" fill="#263238"/>
                <path id="Trazado_818340" data-name="Trazado 818340" d="M171.91,115.385c-.5.727-2.669.111-5.217.205-2.557,0-4.687.71-5.226,0-.239-.342.068-1.061.975-1.77a7.565,7.565,0,0,1,8.416-.162c.941.676,1.274,1.377,1.052,1.736Z" transform="translate(-103.801 -87.009)" fill="#263238"/>
              </g>
              <path id="Trazado_818341" data-name="Trazado 818341" d="M87.145,97.937c1.993-3.344,5.739-5.166,9.323-6.705A211.482,211.482,0,0,1,144.663,77c2.2,3.336.462,8.057-2.574,10.665s-7.013,3.738-10.7,5.277-7.441,3.84-8.844,7.586c-1.488,3.986.068,8.57-1.223,12.624-2.215,6.971-11.735,9.554-13.907,16.533-1.651,5.277,1.582,10.717,2.54,16.165A19.76,19.76,0,0,1,91.4,169.072q-2.822-29.533-5.653-59.066c-.393-4.1-.718-8.519,1.394-12.06Z" transform="translate(-85.462 -77)" fill="#263238"/>
            </g>
            <g id="Grupo_1071987" data-name="Grupo 1071987" transform="translate(48.881 71.83)">
              <path id="Trazado_818342" data-name="Trazado 818342" d="M154.04,165.129a14.782,14.782,0,0,1-1.736,3.857,5,5,0,0,1-3.447,2.232,4.493,4.493,0,0,1-3.892-1.882,7.193,7.193,0,0,1-1.266-4.259c0-1.36.539-3.011,1.882-3.242a3.411,3.411,0,0,1,1.659.282c2.412.847,4.824,1.685,7.244,2.532" transform="translate(-142.771 -161.103)" fill="#eb996e"/>
              <path id="Trazado_818343" data-name="Trazado 818343" d="M151.334,170.987c-.043-.222-1.574.488-3.806-.282a5.451,5.451,0,0,1-2.994-2.463,5.7,5.7,0,0,1-.316-4.636,5.294,5.294,0,0,1,.564-1.095c.265-.308.214-.291.522-.265.291.06.77.257,1.163.393s.8.282,1.189.419c1.548.539,2.951,1.009,4.131,1.386,2.369.753,3.866,1.138,3.926.975s-1.326-.847-3.609-1.813c-1.146-.488-2.515-1.043-4.037-1.642-.385-.154-.778-.3-1.172-.462a12.07,12.07,0,0,0-1.326-.47,1.64,1.64,0,0,0-1.052.086,1.936,1.936,0,0,0-.753.659,6.154,6.154,0,0,0-.736,1.386,6.635,6.635,0,0,0,.5,5.671,6.072,6.072,0,0,0,3.746,2.737,5.686,5.686,0,0,0,3.079-.034c.693-.222,1.018-.479.984-.547Z" transform="translate(-142.614 -160.983)" fill="#263238"/>
            </g>
          </g>
          <path id="Trazado_818344" data-name="Trazado 818344" d="M108.109,154.253c3.378,3.609,2.634,9.391,1,14.061s-3.969,9.468-3.053,14.326c1.394,7.364,9.81,12.188,10.255,19.672.462,7.578-7.552,13.608-7.373,21.194.1,4.217,2.72,7.877,4.533,11.683s2.711,8.8-.171,11.889c-3.6,3.849-10.187,1.788-14.181-1.651-8.151-7.03-11.735-18.218-11.931-28.986s2.566-21.331,5.217-31.765,5.217-21.083,4.6-31.825" transform="translate(-84.2 -80.514)" fill="#263238"/>
          <path id="Trazado_818345" data-name="Trazado 818345" d="M86.582,206.13c-3.224,4.7-3.3,10.879-2.369,16.5s2.737,11.127,2.865,16.824c.137,6.209-1.736,12.427-.8,18.568.855,5.611,3.969,10.588,5.978,15.9s2.754,11.786-.736,16.268a12.532,12.532,0,0,0,10.717-5.6c-.051,1.428-.1,2.857-.145,4.285,9.263-3.173,14.283-13.668,14.5-23.461s-3.3-19.21-6.115-28.592-4.952-19.509-2.036-28.857" transform="translate(-83.696 -88.224)" fill="#263238"/>
          <path id="Trazado_818346" data-name="Trazado 818346" d="M145.991,79.774s-.068-.205-.18-.607a9.738,9.738,0,0,0-.582-1.753,13.627,13.627,0,0,0-4.319-5.534,15.819,15.819,0,0,0-4.482-2.446,15.283,15.283,0,0,0-5.987-.872,12.334,12.334,0,0,0-6.492,2.284,18.845,18.845,0,0,0-5.2,5.807,77.163,77.163,0,0,0-3.892,7.757,46.925,46.925,0,0,1-4.584,8.271,24.929,24.929,0,0,1-3.387,3.678c-1.266,1.129-2.626,2.172-4.028,3.207a70.28,70.28,0,0,0-8.382,6.6,16.9,16.9,0,0,0-3.276,4.388,10.666,10.666,0,0,0-.564,1.274,7.054,7.054,0,0,0-.428,1.326,12.249,12.249,0,0,0-.325,1.368l-.171,1.4c-.257,3.806.855,7.629,2.164,11.375.65,1.882,1.36,3.763,1.984,5.7a36.789,36.789,0,0,1,1.522,5.97,23.54,23.54,0,0,1,.3,3.113,20.456,20.456,0,0,1-.248,3.147,25.279,25.279,0,0,1-1.924,6.047c-1.719,3.892-3.951,7.458-5.3,11.333a18.439,18.439,0,0,0-1.1,5.927,17.529,17.529,0,0,0,1.026,5.842c1.291,3.755,3.455,7.056,5.414,10.349,1,1.634,1.95,3.293,2.814,4.969a31.364,31.364,0,0,1,2.07,5.2,24.261,24.261,0,0,1,.222,10.708c-.573,3.438-1.437,6.705-1.959,9.913a36.53,36.53,0,0,0-.47,4.755,23.729,23.729,0,0,0,.359,4.576,45.372,45.372,0,0,0,2.455,8.3c.992,2.583,2.027,5.021,2.857,7.381a39.175,39.175,0,0,1,1.847,6.825,21.474,21.474,0,0,1,.18,6.15,16.273,16.273,0,0,1-1.488,4.952,12.375,12.375,0,0,1-4.687,5.3,7.04,7.04,0,0,1-.958.5,4.731,4.731,0,0,1-.727.291c-.393.137-.607.2-.607.2s.2-.086.59-.239a5.127,5.127,0,0,0,.71-.316,6.333,6.333,0,0,0,.941-.522,12.367,12.367,0,0,0,4.576-5.3,16.327,16.327,0,0,0,1.437-4.9,21.382,21.382,0,0,0-.214-6.081,40.046,40.046,0,0,0-1.873-6.774c-.838-2.343-1.882-4.773-2.882-7.364a45.351,45.351,0,0,1-2.5-8.356,25.1,25.1,0,0,1-.376-4.644,38.693,38.693,0,0,1,.462-4.807c.522-3.233,1.377-6.5,1.941-9.921A24.117,24.117,0,0,0,98.035,195a30.759,30.759,0,0,0-2.044-5.123c-.855-1.659-1.8-3.3-2.805-4.935-1.967-3.284-4.148-6.6-5.465-10.426a18.112,18.112,0,0,1-1.061-5.987,18.735,18.735,0,0,1,1.12-6.073c1.368-3.934,3.609-7.518,5.311-11.367a25.233,25.233,0,0,0,1.89-5.936,19.466,19.466,0,0,0,.239-3.07,22.642,22.642,0,0,0-.291-3.053,36.373,36.373,0,0,0-1.5-5.9c-.624-1.924-1.334-3.806-1.984-5.7-1.309-3.755-2.446-7.638-2.172-11.546l.18-1.445a13.51,13.51,0,0,1,.334-1.411,7.525,7.525,0,0,1,.445-1.368,10.506,10.506,0,0,1,.582-1.309,17.146,17.146,0,0,1,3.361-4.49,69.767,69.767,0,0,1,8.442-6.628c1.394-1.026,2.754-2.061,4-3.173a24.638,24.638,0,0,0,3.344-3.618,46.7,46.7,0,0,0,4.576-8.194,77.745,77.745,0,0,1,3.934-7.783,19.248,19.248,0,0,1,5.3-5.867,12.58,12.58,0,0,1,6.637-2.3,15.5,15.5,0,0,1,6.073.924A15.88,15.88,0,0,1,141,71.726a13.484,13.484,0,0,1,4.294,5.636,9.215,9.215,0,0,1,.547,1.779c.094.411.137.616.137.616Z" transform="translate(-84.124 -68.275)" fill="#fff"/>
        </g>
      </g>
    </g>
  </g>
</svg>
