<svg xmlns="http://www.w3.org/2000/svg" width="35.833" height="43.137" viewBox="0 0 35.833 43.137">
  <g id="ingeniero-de-software" transform="translate(0 -13.87)">
    <g id="Grupo_1072246" data-name="Grupo 1072246" transform="translate(0 13.87)">
      <g id="Grupo_1072212" data-name="Grupo 1072212" transform="translate(7.392 0.664)">
        <path id="Trazado_828032" data-name="Trazado 828032" d="M101.593,26.219c-2.971.779-4.328,3.107-3.779,6.478l.538,3.308h19.733l.48-3.308c1.447-10.006-14.191-13.269-16.972-6.478Z" transform="translate(-97.695 -22.639)" fill="#554e56" fill-rule="evenodd"/>
      </g>
      <g id="Grupo_1072213" data-name="Grupo 1072213" transform="translate(4.943 14.03)">
        <path id="Trazado_828033" data-name="Trazado 828033" d="M67.957,199.286c-3.956,0-3.282,5.584.884,5.271a5.307,5.307,0,0,0-.409-5.271Z" transform="translate(-65.325 -199.286)" fill="#f6a96c" fill-rule="evenodd"/>
      </g>
      <g id="Grupo_1072214" data-name="Grupo 1072214" transform="translate(26.446 14.03)">
        <path id="Trazado_828034" data-name="Trazado 828034" d="M350.836,199.286c-1.526,1.708-1.857,3.5-.409,5.271,4.166.312,4.84-5.271.884-5.271Z" transform="translate(-349.499 -199.286)" fill="#f6a96c" fill-rule="evenodd"/>
      </g>
      <g id="Grupo_1072215" data-name="Grupo 1072215" transform="translate(13.759 0.663)">
        <path id="Trazado_828035" data-name="Trazado 828035" d="M181.836,23.561c5.245-.38,11.818,3.107,11.24,9.53-.015.164-.035.333-.058.5L192.669,36h3.191l.48-3.308c1.195-8.263-9.257-11.926-14.5-9.132Z" transform="translate(-181.836 -22.634)" fill="#433f43" fill-rule="evenodd"/>
      </g>
      <g id="Grupo_1072216" data-name="Grupo 1072216" transform="translate(8.05 10.991)">
        <path id="Trazado_828036" data-name="Trazado 828036" d="M116.219,159.125l-5.47.01c-2.4,0-2.91.3-4.368,3.029v2.986a7.142,7.142,0,0,0,.409,2.286,11.087,11.087,0,0,0,1.574,2.953l7.733,2.074,8.034-2.074a11.088,11.088,0,0,0,1.574-2.953,7.14,7.14,0,0,0,.409-2.286v-2.986c-1.458-2.726-2.029-3.026-4.426-3.029Z" transform="translate(-106.381 -159.125)" fill="#fed2a4" fill-rule="evenodd"/>
      </g>
      <g id="Grupo_1072217" data-name="Grupo 1072217" transform="translate(21.412 10.999)">
        <path id="Trazado_828037" data-name="Trazado 828037" d="M282.965,159.225c4.765.013,5.217,4.677,3.984,8.3-.25.733-.606,1.973-1.051,2.956-.068.151-.139.295-.21.431l1.521-.393.144-.038a11.086,11.086,0,0,0,1.574-2.953,7.142,7.142,0,0,0,.409-2.285v-2.986c-1.458-2.726-2.029-3.026-4.426-3.029Z" transform="translate(-282.965 -159.225)" fill="#ffbd86" fill-rule="evenodd"/>
      </g>
      <g id="Grupo_1072218" data-name="Grupo 1072218" transform="translate(6.729 0)">
        <path id="Trazado_828038" data-name="Trazado 828038" d="M109.983,28.563a.663.663,0,0,1-.584-.35c-1.391-2.6-1.774-2.676-3.842-2.679l-5.47-.01-5.467.01c-2.088,0-2.407.1-3.785,2.679a.663.663,0,0,1-1.238-.206L89.058,24.7h0c-.586-3.6.852-6.188,3.954-7.137a6.351,6.351,0,0,1,4.2-3.308,11.8,11.8,0,0,1,6.239.079,11.517,11.517,0,0,1,5.78,3.532,8.433,8.433,0,0,1,1.893,6.824L110.639,28a.663.663,0,0,1-.541.558A.655.655,0,0,1,109.983,28.563ZM90.366,24.486l.244,1.5c1.019-1.487,1.907-1.773,4.008-1.775l5.469-.01,5.472.01c2.1,0,3.023.3,4.038,1.746l.212-1.458c.725-5.011-3.161-7.919-6.71-8.887-3.516-.959-7.734-.32-8.993,2.755a.663.663,0,0,1-.445.39c-3.349.878-3.64,3.6-3.293,5.731Z" transform="translate(-88.929 -13.87)"/>
      </g>
      <g id="Grupo_1072220" data-name="Grupo 1072220" transform="translate(26.711 13.367)">
        <path id="Trazado_828040" data-name="Trazado 828040" d="M353.994,197.137q-.187,0-.379-.014a.663.663,0,0,1,.1-1.322,2.5,2.5,0,0,0,2.448-1.064,2.015,2.015,0,0,0,.152-2.02,1.857,1.857,0,0,0-1.766-.864h-.475a.663.663,0,0,1,0-1.325h.475a3.141,3.141,0,0,1,2.93,1.555,3.354,3.354,0,0,1-.2,3.373A3.772,3.772,0,0,1,353.994,197.137Z" transform="translate(-353.002 -190.528)"/>
      </g>
      <g id="Grupo_1072221" data-name="Grupo 1072221" transform="translate(4.283 13.367)">
        <path id="Trazado_828041" data-name="Trazado 828041" d="M60.453,197.137a3.771,3.771,0,0,1-3.281-1.681,3.354,3.354,0,0,1-.2-3.374,3.14,3.14,0,0,1,2.928-1.555h.475a.663.663,0,0,1,0,1.325H59.9a1.856,1.856,0,0,0-1.764.864,2.016,2.016,0,0,0,.152,2.021,2.494,2.494,0,0,0,2.447,1.064.663.663,0,0,1,.1,1.322Q60.64,197.137,60.453,197.137Z" transform="translate(-56.607 -190.528)"/>
      </g>
      <g id="Grupo_1072222" data-name="Grupo 1072222" transform="translate(7.387 13.368)">
        <path id="Trazado_828042" data-name="Trazado 828042" d="M116.036,200.079a.663.663,0,0,1-.534-1.055,8.662,8.662,0,0,0,1.855-4.847v-2.986a.663.663,0,1,1,1.325,0v2.986a9.852,9.852,0,0,1-2.112,5.631A.662.662,0,0,1,116.036,200.079Zm-15.766,0a.661.661,0,0,1-.535-.271,9.854,9.854,0,0,1-2.112-5.631v-2.986a.663.663,0,1,1,1.325,0v2.986a8.663,8.663,0,0,0,1.855,4.847.663.663,0,0,1-.534,1.055Z" transform="translate(-97.624 -190.529)"/>
      </g>
      <g id="Grupo_1072225" data-name="Grupo 1072225" transform="translate(0.663 30.618)">
        <path id="Trazado_828045" data-name="Trazado 828045" d="M12.812,419.165c-3.393,1.192-4.055,3.848-4.055,6.612v4.059a.528.528,0,0,0,.528.524h5.507l2.63-5.181-2.728-6.675Z" transform="translate(-8.757 -418.505)" fill="#99e6fc" fill-rule="evenodd"/>
      </g>
      <g id="Grupo_1072226" data-name="Grupo 1072226" transform="translate(26.113 30.618)">
        <path id="Trazado_828046" data-name="Trazado 828046" d="M348.219,418.505l-3.12,6.851,3.024,5h5.5a.528.528,0,0,0,.528-.524v-4.059c0-2.764-.662-5.42-4.055-6.612Z" transform="translate(-345.099 -418.505)" fill="#99e6fc" fill-rule="evenodd"/>
      </g>
      <g id="Grupo_1072227" data-name="Grupo 1072227" transform="translate(6.6 22.255)">
        <path id="Trazado_828047" data-name="Trazado 828047" d="M106.417,307.979H88.556a1.343,1.343,0,0,0-1.339,1.338v15.25h22.634v-15.25a1.343,1.343,0,0,0-1.339-1.338Z" transform="translate(-87.217 -307.979)" fill="#e8e8e8" fill-rule="evenodd"/>
      </g>
      <g id="Grupo_1072228" data-name="Grupo 1072228" transform="translate(4.707 38.843)">
        <path id="Trazado_828048" data-name="Trazado 828048" d="M86.736,527.2H62.857a.649.649,0,0,0-.647.645v1a1.994,1.994,0,0,0,1.991,1.986H86.64a1.994,1.994,0,0,0,1.991-1.986v-1a.649.649,0,0,0-.649-.645Z" transform="translate(-62.21 -527.198)" fill="#b3b3b3" fill-rule="evenodd"/>
      </g>
      <g id="Grupo_1072229" data-name="Grupo 1072229" transform="translate(25.343 22.255)">
        <path id="Trazado_828049" data-name="Trazado 828049" d="M336.254,316.344v8.225h2.552v-15.25a1.343,1.343,0,0,0-1.339-1.338h-2.552a1.343,1.343,0,0,1,1.339,1.338v7.025Z" transform="translate(-334.915 -307.981)" fill="#b3b3b3" fill-rule="evenodd"/>
      </g>
      <g id="Grupo_1072230" data-name="Grupo 1072230" transform="translate(26.586 38.843)">
        <path id="Trazado_828050" data-name="Trazado 828050" d="M353.99,527.2h-1.3a.649.649,0,0,1,.647.645v1a1.994,1.994,0,0,1-1.991,1.986h2.552a1.994,1.994,0,0,0,1.991-1.986v-1a.649.649,0,0,0-.649-.645Z" transform="translate(-351.342 -527.198)" fill="#888" fill-rule="evenodd"/>
      </g>
      <g id="Grupo_1072231" data-name="Grupo 1072231" transform="translate(29.233 30.618)">
        <path id="Trazado_828051" data-name="Trazado 828051" d="M386.332,418.505v2.056c2.857,1.285,3.79,2.341,3.79,4.626v5.173h1.619a.528.528,0,0,0,.528-.524v-4.059c0-2.764-.662-5.42-4.055-6.612Z" transform="translate(-386.332 -418.505)" fill="#62dbfb" fill-rule="evenodd"/>
      </g>
      <g id="Grupo_1072232" data-name="Grupo 1072232" transform="translate(12.423 24.815)">
        <path id="Trazado_828052" data-name="Trazado 828052" d="M168.334,343.019a4.713,4.713,0,0,0-1.92,1.109l-.675-.391a.434.434,0,0,0-.591.159l-.909,1.572a.429.429,0,0,0,.159.587l.672.388a4.815,4.815,0,0,0,0,2.212l-.672.388a.429.429,0,0,0-.159.587l.909,1.572a.435.435,0,0,0,.591.156l.675-.388a4.709,4.709,0,0,0,1.92,1.106v.776a.431.431,0,0,0,.429.431h1.822a.431.431,0,0,0,.429-.431v-.776a4.709,4.709,0,0,0,1.92-1.106l.677.388a.433.433,0,0,0,.589-.156l.909-1.572a.429.429,0,0,0-.159-.587l-.672-.388a4.815,4.815,0,0,0,0-2.212l.672-.388a.429.429,0,0,0,.159-.587L174.2,343.9a.432.432,0,0,0-.589-.159l-.677.391a4.711,4.711,0,0,0-1.92-1.109v-.776a.429.429,0,0,0-.429-.428h-1.822a.429.429,0,0,0-.429.428v.776Zm1.341,2.492a2.038,2.038,0,1,1-2.046,2.038,2.042,2.042,0,0,1,2.046-2.038Z" transform="translate(-164.181 -341.815)" fill="#e5e1e5" fill-rule="evenodd"/>
      </g>
      <g id="Grupo_1072233" data-name="Grupo 1072233" transform="translate(15.209 27.849)">
        <path id="Trazado_828053" data-name="Trazado 828053" d="M203.7,387.31a2.7,2.7,0,1,1,2.706-2.7A2.708,2.708,0,0,1,203.7,387.31Zm0-4.077a1.376,1.376,0,1,0,1.381,1.376A1.381,1.381,0,0,0,203.7,383.233Z" transform="translate(-200.99 -381.908)"/>
      </g>
      <g id="Grupo_1072234" data-name="Grupo 1072234" transform="translate(11.76 24.152)">
        <path id="Trazado_828054" data-name="Trazado 828054" d="M162.482,345.852h-1.822a1.094,1.094,0,0,1-1.092-1.094v-.3a5.412,5.412,0,0,1-1.334-.769l-.267.154a1.1,1.1,0,0,1-1.494-.4l-.91-1.574a1.092,1.092,0,0,1,.4-1.494l.264-.152a5.445,5.445,0,0,1,0-1.533l-.266-.154a1.092,1.092,0,0,1-.4-1.494l.909-1.571a1.1,1.1,0,0,1,1.494-.4l.27.156a5.422,5.422,0,0,1,1.333-.77v-.3a1.093,1.093,0,0,1,1.092-1.091h1.821a1.093,1.093,0,0,1,1.092,1.091v.3a5.422,5.422,0,0,1,1.334.771l.269-.156a1.094,1.094,0,0,1,1.494.4l.909,1.571a1.092,1.092,0,0,1-.4,1.494l-.264.152a5.449,5.449,0,0,1,0,1.533l.266.154a1.092,1.092,0,0,1,.4,1.494l-.909,1.571a1.1,1.1,0,0,1-1.494.4l-.268-.154a5.415,5.415,0,0,1-1.335.769v.3A1.094,1.094,0,0,1,162.482,345.852Zm-1.588-1.325h1.355v-.544a.663.663,0,0,1,.476-.636,4.07,4.07,0,0,0,1.65-.951.662.662,0,0,1,.786-.095l.479.274.676-1.169-.472-.272a.663.663,0,0,1-.314-.725,4.153,4.153,0,0,0,0-1.91.663.663,0,0,1,.314-.725l.472-.272-.677-1.17-.476.275a.662.662,0,0,1-.788-.094,4.073,4.073,0,0,0-1.65-.953.662.662,0,0,1-.476-.636v-.542h-1.355v.542a.662.662,0,0,1-.476.636,4.071,4.071,0,0,0-1.65.953.662.662,0,0,1-.789.093l-.475-.275-.677,1.171.472.272a.663.663,0,0,1,.314.725,4.151,4.151,0,0,0,0,1.91.663.663,0,0,1-.314.725l-.471.272.677,1.17.477-.274a.662.662,0,0,1,.787.094,4.069,4.069,0,0,0,1.65.951.663.663,0,0,1,.476.636v.544Zm4.943-1.838h0Zm.681-1.165h0Zm-9.889,0h0Zm9.805-.318h0Zm-9.725,0h0Zm9.725-3.5h0Zm-9.724,0h0Zm9.806-.318h0Zm-9.892,0h0Zm9.217-1.169h0Zm-.317-.083h0Zm-7.9,0h0Z" transform="translate(-155.415 -333.057)"/>
      </g>
      <g id="Grupo_1072235" data-name="Grupo 1072235" transform="translate(5.937 21.592)">
        <path id="Trazado_828055" data-name="Trazado 828055" d="M101.755,317.135H79.122a.663.663,0,0,1-.663-.663v-15.25a2,2,0,0,1,2-2h8.1a.663.663,0,0,1,0,1.325h-8.1a.685.685,0,0,0-.676.675V315.81h21.308V301.223a.677.677,0,0,0-.676-.675H91.652a.663.663,0,0,1,0-1.325h8.764a2,2,0,0,1,2,2v15.25A.663.663,0,0,1,101.755,317.135Z" transform="translate(-78.459 -299.222)"/>
      </g>
      <g id="Grupo_1072236" data-name="Grupo 1072236" transform="translate(4.045 38.18)">
        <path id="Trazado_828056" data-name="Trazado 828056" d="M78.545,523.4a.663.663,0,0,1,0-1.325,1.327,1.327,0,0,0,1.328-1.323v-.983h-25.1v.983a1.327,1.327,0,0,0,1.328,1.323.663.663,0,0,1,0,1.325,2.654,2.654,0,0,1-2.653-2.648v-1a1.31,1.31,0,0,1,1.309-1.308H79.887a1.311,1.311,0,0,1,1.312,1.308v1A2.654,2.654,0,0,1,78.545,523.4Z" transform="translate(-53.453 -518.444)"/>
      </g>
      <g id="Grupo_1072239" data-name="Grupo 1072239" transform="translate(0 29.955)">
        <path id="Trazado_828059" data-name="Trazado 828059" d="M34.642,422.928H1.191A1.19,1.19,0,0,1,0,421.741v-4.059c0-2.429.466-5.821,4.5-7.237l1.882-.66a.663.663,0,0,1,.439,1.251l-1.882.66c-2.531.889-3.612,2.68-3.612,5.987V421.6H34.507v-3.921c0-3.307-1.08-5.1-3.612-5.987l-1.882-.66a.663.663,0,0,1,.439-1.251l1.882.66c4.032,1.416,4.5,4.809,4.5,7.237v4.059A1.19,1.19,0,0,1,34.642,422.928Z" transform="translate(0 -409.746)"/>
      </g>
    </g>
  </g>
</svg>
