<svg xmlns="http://www.w3.org/2000/svg" width="80.739" height="81.977" viewBox="0 0 80.739 81.977">
  <g id="sistemas" transform="translate(-7.45 -4.88)">
    <path id="Trazado_828004" data-name="Trazado 828004" d="M183.508,138.124l-.107,13.657a3.34,3.34,0,0,1-.981,2.363l-15.5,15.5a2.965,2.965,0,0,0-.868,2.1v1.417H151.114v-9.245h.006a11.4,11.4,0,0,1,3.33-8.448c7.1-7.091,5.423-5.417,8.16-8.154a2.777,2.777,0,0,1,3.97.045,2.814,2.814,0,0,1-.086,3.92l-3.861,3.858a3.057,3.057,0,0,0,.039,4.356,3.16,3.16,0,0,0,4.353-.107l9.512-9.515a2.608,2.608,0,0,0,.768-1.847l.107-9.9a3.048,3.048,0,1,1,6.1,0Z" transform="translate(-96.146 -87.132)" fill="#ffb69f"/>
    <path id="Trazado_828005" data-name="Trazado 828005" d="M42.339,173.158H27.4v-1.417a2.966,2.966,0,0,0-.868-2.1l-15.5-15.5a3.339,3.339,0,0,1-.981-2.363l-.107-13.657a3.048,3.048,0,1,1,6.1,0l.107,9.9a2.608,2.608,0,0,0,.768,1.847l9.512,9.515a3.161,3.161,0,0,0,4.353.107,3.057,3.057,0,0,0,.039-4.356l-3.861-3.858a2.814,2.814,0,0,1-.086-3.92,2.777,2.777,0,0,1,3.97-.045c2.737,2.737,1.062,1.063,8.16,8.154a11.4,11.4,0,0,1,3.336,8.082Z" transform="translate(-1.67 -87.13)" fill="#ffb69f"/>
    <path id="Trazado_828006" data-name="Trazado 828006" d="M186.081,174.51a.826.826,0,0,1,0-1.169l.7-.7a.827.827,0,0,1,1.169,1.169l-.7.7A.826.826,0,0,1,186.081,174.51Zm3.041-3.04a.826.826,0,0,1,0-1.169l14.067-14.068.107-13.619a.827.827,0,0,1,.827-.82h.007a.827.827,0,0,1,.82.833l-.107,13.637a1.564,1.564,0,0,1-.456,1.11l-14.1,14.1A.827.827,0,0,1,189.121,171.47Z" transform="translate(-119.386 -91.63)" fill="#fbe0e2"/>
    <path id="Trazado_828007" data-name="Trazado 828007" d="M76.57,198.79a.827.827,0,0,1-.827-.826v-.992a.827.827,0,0,1,.826-.828h0a.827.827,0,0,1,.827.826v.992a.827.827,0,0,1-.826.828Zm0-4.3a.827.827,0,0,1-.827-.826l0-3.287a8,8,0,0,0-2.324-5.619L65.258,176.6a.827.827,0,1,1,1.169-1.17l8.161,8.156a9.665,9.665,0,0,1,2.809,6.789l0,3.286a.827.827,0,0,1-.826.828Z" transform="translate(-38.525 -113.98)" fill="#fbe0e2"/>
    <path id="Trazado_828008" data-name="Trazado 828008" d="M120.015,49.1c-.389-1.676-.646-2.784-2.918-3.534a.828.828,0,0,1,0-1.57c1.319-.436,2.272-.75,2.918-3.534a.828.828,0,0,1,1.611,0c.661,2.85,1.654,3.117,2.918,3.535a.827.827,0,0,1,0,1.57c-1.319.436-2.272.751-2.918,3.534A.827.827,0,0,1,120.015,49.1Z" transform="translate(-73.003 -23.386)"/>
    <path id="Trazado_828009" data-name="Trazado 828009" d="M127.93,51.449a4.388,4.388,0,0,0-1.429,1.617,4.591,4.591,0,0,0-1.512-1.6,4.4,4.4,0,0,0,1.495-1.687,4.485,4.485,0,0,0,1.445,1.674Z" transform="translate(-78.664 -30.046)" fill="#f0c020"/>
    <path id="Trazado_828010" data-name="Trazado 828010" d="M51.425,132.05c-.389-1.676-.646-2.784-2.918-3.534a.828.828,0,0,1,0-1.57c1.319-.436,2.272-.75,2.918-3.534a.828.828,0,0,1,1.611,0c.662,2.85,1.654,3.117,2.918,3.535a.827.827,0,0,1,0,1.57c-1.319.436-2.272.751-2.918,3.534a.827.827,0,0,1-1.611,0Z" transform="translate(-27.099 -78.9)"/>
    <path id="Trazado_828011" data-name="Trazado 828011" d="M59.34,134.4a4.388,4.388,0,0,0-1.429,1.617,4.591,4.591,0,0,0-1.512-1.6,4.4,4.4,0,0,0,1.495-1.687A4.485,4.485,0,0,0,59.34,134.4Z" transform="translate(-32.76 -85.56)" fill="#f0c020"/>
    <path id="Trazado_828012" data-name="Trazado 828012" d="M188.606,132.05c-.389-1.676-.646-2.784-2.918-3.534a.828.828,0,0,1,0-1.57c1.319-.436,2.272-.75,2.918-3.534a.828.828,0,0,1,1.611,0c.662,2.85,1.654,3.117,2.918,3.535a.827.827,0,0,1,0,1.57c-1.319.436-2.272.751-2.918,3.534A.827.827,0,0,1,188.606,132.05Z" transform="translate(-118.908 -78.9)"/>
    <path id="Trazado_828013" data-name="Trazado 828013" d="M196.52,134.4a4.387,4.387,0,0,0-1.429,1.617,4.592,4.592,0,0,0-1.512-1.6,4.4,4.4,0,0,0,1.495-1.687,4.485,4.485,0,0,0,1.445,1.674Z" transform="translate(-124.567 -85.56)" fill="#f0c020"/>
    <path id="Trazado_828014" data-name="Trazado 828014" d="M198.189,132.569a3.883,3.883,0,0,0-3.876,3.87l-.109,9.9v.01a1.772,1.772,0,0,1-.526,1.263l-9.512,9.516a2.332,2.332,0,0,1-3.192.1,2.231,2.231,0,0,1-.03-3.178l3.86-3.857a3.6,3.6,0,1,0-5.054-5.134l-1.908,1.909a.826.826,0,0,0,0,1.167.845.845,0,0,0,1.171,0c.48-.476.886-.883,1.908-1.908a1.952,1.952,0,0,1,2.788.033,1.993,1.993,0,0,1-.073,2.765l-3.86,3.857a3.878,3.878,0,0,0,.046,5.533,3.982,3.982,0,0,0,5.51-.116l9.516-9.516a3.42,3.42,0,0,0,1.009-2.421l.106-9.9v-.007a2.223,2.223,0,1,1,4.445,0L200.3,150.1a2.515,2.515,0,0,1-.738,1.786l-15.5,15.5a3.755,3.755,0,0,0-1.111,2.679v1.419a.827.827,0,0,0,1.654,0v-1.419a2.154,2.154,0,0,1,.625-1.511l15.5-15.5a4.139,4.139,0,0,0,1.224-2.947l.109-13.653A3.885,3.885,0,0,0,198.189,132.569Z" transform="translate(-113.873 -85.456)"/>
    <path id="Trazado_828015" data-name="Trazado 828015" d="M170.8,182.643a.827.827,0,1,0,1.171,1.167v0a.822.822,0,0,0,0-1.164A.845.845,0,0,0,170.8,182.643Z" transform="translate(-109.161 -118.81)"/>
    <path id="Trazado_828016" data-name="Trazado 828016" d="M153.776,189.7c-.922.922-.209.2-1.588,1.584a12.232,12.232,0,0,0-3.575,8.96s0-.322,0,9.321a.829.829,0,0,0,1.657,0s0,0,0-.007c0-9.589.007-9.268.007-9.268a10.625,10.625,0,0,1,3.089-7.835l1.584-1.584a.83.83,0,0,0,0-1.171A.851.851,0,0,0,153.776,189.7Z" transform="translate(-94.471 -123.533)"/>
    <path id="Trazado_828017" data-name="Trazado 828017" d="M30.493,210.009a.828.828,0,1,0,1.171,0A.849.849,0,0,0,30.493,210.009Z" transform="translate(-15.261 -137.127)"/>
    <path id="Trazado_828018" data-name="Trazado 828018" d="M38.732,217.083a.845.845,0,0,0-1.171,0,.826.826,0,0,0,0,1.168l6.708,6.708a2.154,2.154,0,0,1,.625,1.511v1.419a.827.827,0,0,0,1.654,0v-1.419a3.755,3.755,0,0,0-1.111-2.679Z" transform="translate(-19.99 -141.859)"/>
    <path id="Trazado_828019" data-name="Trazado 828019" d="M37.919,153.206l-8.16-8.153a3.6,3.6,0,1,0-5.054,5.134l3.86,3.857a2.235,2.235,0,0,1-.03,3.178,2.333,2.333,0,0,1-3.192-.1l-9.512-9.516a1.785,1.785,0,0,1-.526-1.263L15.2,136.44v0a3.875,3.875,0,0,0-7.749.013l.106,13.663a4.191,4.191,0,0,0,1.224,2.941l4.115,4.118a.849.849,0,0,0,1.171,0,.83.83,0,0,0,0-1.171l-4.118-4.115a2.511,2.511,0,0,1-.738-1.779L9.1,136.44a2.223,2.223,0,0,1,4.445.01l.106,9.906a3.406,3.406,0,0,0,1.009,2.421l9.512,9.516a3.987,3.987,0,0,0,5.514.116,3.886,3.886,0,0,0,.05-5.533l-3.863-3.857a1.993,1.993,0,0,1-.073-2.765,1.952,1.952,0,0,1,2.788-.033l8.16,8.156a10.5,10.5,0,0,1,3.1,7.475v9.635a.827.827,0,0,0,1.654,0c-.009-24.653,0,8.283,0-9.635A12.222,12.222,0,0,0,37.919,153.206Z" transform="translate(0 -85.456)"/>
    <g id="Grupo_1072204" data-name="Grupo 1072204" transform="translate(54.35 4.88)">
      <path id="Trazado_828020" data-name="Trazado 828020" d="M182.06,27.12l-1.724-1a13.709,13.709,0,0,0,0-6.108l1.724-1a.687.687,0,0,0,.251-.939l-3.3-5.712a.687.687,0,0,0-.939-.251l-1.728,1a13.6,13.6,0,0,0-5.009-2.968V8.07a.687.687,0,0,0-.687-.687H163.5a.687.687,0,0,0-.687.687v2.079a13.592,13.592,0,0,0-5.009,2.968l-1.728-1a.687.687,0,0,0-.939.251l-3.3,5.712a.687.687,0,0,0,.251.939l1.724,1a13.709,13.709,0,0,0,0,6.108l-1.724,1a.687.687,0,0,0-.251.939l3.3,5.712a.687.687,0,0,0,.939.251l1.728-1a13.6,13.6,0,0,0,5.009,2.968v2.079a.687.687,0,0,0,.687.687h7.149a.687.687,0,0,0,.687-.687V35.992a13.592,13.592,0,0,0,5.009-2.968l1.728,1a.687.687,0,0,0,.939-.251l3.3-5.712a.687.687,0,0,0-.251-.938Z" transform="translate(-150.923 -6.555)" fill="#1e5af9"/>
      <circle id="Elipse_9642" data-name="Elipse 9642" cx="7.463" cy="7.463" r="7.463" transform="translate(6.422 20.552) rotate(-67.486)" fill="#eee"/>
      <path id="Trazado_828021" data-name="Trazado 828021" d="M181.356,15.993l-3.3-5.712a1.514,1.514,0,0,0-2.074-.549h0l-1.2.695a14.276,14.276,0,0,0-4.287-2.537V6.395a1.516,1.516,0,0,0-1.512-1.515h-7.151a1.516,1.516,0,0,0-1.512,1.515V7.89a14.277,14.277,0,0,0-4.287,2.537l-1.211-.7a1.51,1.51,0,0,0-2.07.556l-3.3,5.709a1.513,1.513,0,0,0,.556,2.067l1.207.7a14.522,14.522,0,0,0,0,5.272l-1.207.7a1.516,1.516,0,0,0-.556,2.067l3.3,5.712a1.511,1.511,0,0,0,2.061.559l1.214-.7a14.473,14.473,0,0,0,4.29,2.537v1.5a1.513,1.513,0,0,0,1.512,1.512h7.151A1.513,1.513,0,0,0,170.49,36.4V34.9a14.473,14.473,0,0,0,4.29-2.537l1.207.7a1.517,1.517,0,0,0,2.067-.552l3.3-5.715a1.515,1.515,0,0,0-.552-2.064s0,0,0,0l-1.207-.7a14.521,14.521,0,0,0,0-5.272l1.207-.7A1.515,1.515,0,0,0,181.356,15.993Zm-3.106,1.631a.84.84,0,0,0-.394.9,12.865,12.865,0,0,1,0,5.739.834.834,0,0,0,.394.9l1.6.926L176.7,31.558l-1.607-.926a.844.844,0,0,0-.976.112,12.88,12.88,0,0,1-4.707,2.788.825.825,0,0,0-.566.784v1.938h-6.87V34.317a.824.824,0,0,0-.569-.784,12.926,12.926,0,0,1-4.707-2.788.845.845,0,0,0-.976-.112l-1.607.929-3.155-5.471,1.6-.926a.834.834,0,0,0,.394-.9,12.864,12.864,0,0,1,0-5.739.84.84,0,0,0-.394-.9l-1.6-.923,3.159-5.471,1.607.926a.839.839,0,0,0,.976-.109A12.88,12.88,0,0,1,161.4,9.259a.824.824,0,0,0,.569-.784V6.534h6.87V8.475a.826.826,0,0,0,.566.784,12.875,12.875,0,0,1,4.707,2.788.839.839,0,0,0,.976.109l1.607-.926,3.159,5.471Z" transform="translate(-149.249 -4.88)"/>
      <path id="Trazado_828022" data-name="Trazado 828022" d="M181.312,29.75a8.29,8.29,0,1,0,8.289,8.289A8.288,8.288,0,0,0,181.312,29.75Zm0,14.927a6.637,6.637,0,1,1,6.638-6.638A6.661,6.661,0,0,1,181.312,44.677Z" transform="translate(-165.158 -21.524)"/>
    </g>
    <g id="Grupo_1072205" data-name="Grupo 1072205" transform="translate(31.664 32.315)">
      <path id="Trazado_828023" data-name="Trazado 828023" d="M113.47,110.07l-1.724-1a13.709,13.709,0,0,0,0-6.108l1.724-1a.687.687,0,0,0,.251-.939l-3.3-5.712a.687.687,0,0,0-.939-.251l-1.728,1a13.6,13.6,0,0,0-5.009-2.968V91.02a.687.687,0,0,0-.687-.687H94.913a.687.687,0,0,0-.687.687V93.1a13.592,13.592,0,0,0-5.009,2.968l-1.728-1a.687.687,0,0,0-.939.251l-3.3,5.712a.687.687,0,0,0,.251.939l1.724,1a13.709,13.709,0,0,0,0,6.108l-1.724,1a.687.687,0,0,0-.251.939l3.3,5.712a.687.687,0,0,0,.939.251l1.728-1a13.6,13.6,0,0,0,5.009,2.968v2.079a.687.687,0,0,0,.687.687h7.149a.687.687,0,0,0,.687-.687v-2.079a13.592,13.592,0,0,0,5.009-2.968l1.728,1a.687.687,0,0,0,.939-.251l3.3-5.712A.687.687,0,0,0,113.47,110.07Z" transform="translate(-82.333 -89.505)" fill="#01c3fd"/>
      <circle id="Elipse_9643" data-name="Elipse 9643" cx="7.463" cy="7.463" r="7.463" transform="translate(6.419 20.563) rotate(-67.486)" fill="#eee"/>
      <path id="Trazado_828024" data-name="Trazado 828024" d="M112.766,98.942l-3.3-5.712a1.514,1.514,0,0,0-2.074-.549h0l-1.2.695a14.277,14.277,0,0,0-4.287-2.537V89.344a1.516,1.516,0,0,0-1.512-1.515H93.238a1.516,1.516,0,0,0-1.512,1.515v1.495a14.277,14.277,0,0,0-4.287,2.537l-1.211-.7a1.51,1.51,0,0,0-2.07.556l-3.3,5.709a1.513,1.513,0,0,0,.556,2.067l1.207.7a14.521,14.521,0,0,0,0,5.272l-1.207.7a1.516,1.516,0,0,0-.556,2.067l3.3,5.712a1.511,1.511,0,0,0,2.061.559l1.214-.7a14.473,14.473,0,0,0,4.29,2.537v1.5a1.513,1.513,0,0,0,1.512,1.512h7.151a1.513,1.513,0,0,0,1.512-1.512v-1.5a14.473,14.473,0,0,0,4.29-2.537l1.207.7a1.517,1.517,0,0,0,2.067-.552l3.3-5.715a1.515,1.515,0,0,0-.552-2.064s0,0,0,0l-1.207-.7a14.521,14.521,0,0,0,0-5.272l1.207-.7A1.515,1.515,0,0,0,112.766,98.942Zm-3.106,1.631a.84.84,0,0,0-.394.9,12.865,12.865,0,0,1,0,5.739.834.834,0,0,0,.394.9l1.6.926-3.159,5.467-1.607-.926a.844.844,0,0,0-.976.112,12.88,12.88,0,0,1-4.707,2.788.825.825,0,0,0-.566.784V119.2H93.38v-1.938a.824.824,0,0,0-.569-.784,12.926,12.926,0,0,1-4.707-2.788.845.845,0,0,0-.976-.112l-1.607.929-3.155-5.471,1.6-.926a.834.834,0,0,0,.394-.9,12.865,12.865,0,0,1,0-5.739.84.84,0,0,0-.394-.9l-1.6-.923,3.159-5.471,1.607.926A.839.839,0,0,0,88.1,95a12.88,12.88,0,0,1,4.707-2.788.824.824,0,0,0,.569-.784V89.483h6.87v1.942a.826.826,0,0,0,.566.784A12.875,12.875,0,0,1,105.522,95a.839.839,0,0,0,.976.109l1.607-.926,3.159,5.471Z" transform="translate(-80.659 -87.829)"/>
      <path id="Trazado_828025" data-name="Trazado 828025" d="M112.722,112.7a8.29,8.29,0,1,0,8.289,8.289A8.288,8.288,0,0,0,112.722,112.7Zm0,14.927a6.637,6.637,0,1,1,6.638-6.638,6.661,6.661,0,0,1-6.638,6.638Z" transform="translate(-96.568 -104.474)"/>
    </g>
    <g id="Grupo_1072206" data-name="Grupo 1072206" transform="translate(8.978 4.88)">
      <path id="Trazado_828026" data-name="Trazado 828026" d="M44.881,27.12l-1.724-1a13.709,13.709,0,0,0,0-6.108l1.724-1a.687.687,0,0,0,.251-.939l-3.3-5.712a.687.687,0,0,0-.939-.251l-1.728,1a13.6,13.6,0,0,0-5.009-2.968V8.07a.687.687,0,0,0-.687-.687H26.324a.687.687,0,0,0-.687.687v2.079a13.592,13.592,0,0,0-5.009,2.968l-1.728-1a.687.687,0,0,0-.939.251l-3.3,5.712a.687.687,0,0,0,.251.939l1.724,1a13.709,13.709,0,0,0,0,6.108l-1.724,1a.687.687,0,0,0-.251.939l3.3,5.712a.687.687,0,0,0,.939.251l1.728-1a13.6,13.6,0,0,0,5.009,2.968v2.079a.687.687,0,0,0,.687.687h7.149a.687.687,0,0,0,.687-.687V35.992a13.592,13.592,0,0,0,5.009-2.968l1.728,1a.687.687,0,0,0,.939-.251l3.3-5.712a.687.687,0,0,0-.252-.938Z" transform="translate(-13.744 -6.555)" fill="#6e40fc"/>
      <circle id="Elipse_9644" data-name="Elipse 9644" cx="7.463" cy="7.463" r="7.463" transform="translate(6.408 20.557) rotate(-67.486)" fill="#eee"/>
      <path id="Trazado_828027" data-name="Trazado 828027" d="M44.176,15.993l-3.3-5.712A1.514,1.514,0,0,0,38.8,9.732h0l-1.2.695A14.277,14.277,0,0,0,33.31,7.889V6.395A1.516,1.516,0,0,0,31.8,4.88H24.648a1.516,1.516,0,0,0-1.512,1.515V7.89a14.277,14.277,0,0,0-4.287,2.537l-1.211-.7a1.51,1.51,0,0,0-2.07.556l-3.3,5.709a1.513,1.513,0,0,0,.556,2.067l1.207.7a14.521,14.521,0,0,0,0,5.272l-1.207.7a1.516,1.516,0,0,0-.556,2.067l3.3,5.712a1.511,1.511,0,0,0,2.061.559l1.214-.7a14.473,14.473,0,0,0,4.29,2.537v1.5a1.513,1.513,0,0,0,1.512,1.512H31.8A1.513,1.513,0,0,0,33.31,36.4V34.9a14.473,14.473,0,0,0,4.29-2.537l1.207.7a1.517,1.517,0,0,0,2.067-.552l3.3-5.715a1.515,1.515,0,0,0-.552-2.064s0,0,0,0l-1.207-.7a14.521,14.521,0,0,0,0-5.272l1.207-.7A1.515,1.515,0,0,0,44.176,15.993ZM41.07,17.624a.84.84,0,0,0-.394.9,12.864,12.864,0,0,1,0,5.739.834.834,0,0,0,.394.9l1.6.926-3.159,5.467-1.607-.926a.844.844,0,0,0-.976.112,12.88,12.88,0,0,1-4.707,2.788.825.825,0,0,0-.566.784v1.938H24.79V34.317a.824.824,0,0,0-.569-.784,12.926,12.926,0,0,1-4.707-2.788.845.845,0,0,0-.976-.112l-1.607.929-3.155-5.471,1.6-.926a.834.834,0,0,0,.394-.9,12.865,12.865,0,0,1,0-5.739.84.84,0,0,0-.394-.9l-1.6-.923,3.159-5.471,1.607.926a.839.839,0,0,0,.976-.109,12.88,12.88,0,0,1,4.707-2.788.824.824,0,0,0,.569-.784V6.534h6.87V8.475a.826.826,0,0,0,.566.784,12.875,12.875,0,0,1,4.707,2.788.839.839,0,0,0,.976.109l1.607-.926L42.674,16.7Z" transform="translate(-12.069 -4.88)"/>
      <path id="Trazado_828028" data-name="Trazado 828028" d="M44.132,29.75a8.29,8.29,0,1,0,8.289,8.289A8.288,8.288,0,0,0,44.132,29.75Zm0,14.927a6.637,6.637,0,1,1,6.638-6.638A6.661,6.661,0,0,1,44.132,44.677Z" transform="translate(-27.978 -21.524)"/>
    </g>
  </g>
</svg>
