<svg xmlns="http://www.w3.org/2000/svg" xmlns:xlink="http://www.w3.org/1999/xlink" width="400" height="207" viewBox="0 0 400 207">
  <defs>
    <clipPath id="clip-path">
      <rect id="Rectángulo_383806" data-name="Rectángulo 383806" width="400" height="207" transform="translate(180 427)" fill="#01c3fd" opacity="0.35"/>
    </clipPath>
    <clipPath id="clip-path-2">
      <rect id="Rectángulo_383598" data-name="Rectángulo 383598" width="408" height="204" transform="translate(170.667 4282)" fill="#e9eeef"/>
    </clipPath>
  </defs>
  <g id="Enmascarar_grupo_1075517" data-name="Enmascarar grupo 1075517" transform="translate(-180 -427)" clip-path="url(#clip-path)">
    <g id="Enmascarar_grupo_1059125" data-name="Enmascarar grupo 1059125" transform="translate(1.333 -3852)" clip-path="url(#clip-path-2)">
      <rect id="Rectángulo_383592" data-name="Rectángulo 383592" width="406" height="118" transform="translate(173.667 4368)" fill="#e9eeef"/>
      <g id="Grupo_1084920" data-name="Grupo 1084920" transform="translate(175.88 4246.364)">
        <g id="Grupo_1084916" data-name="Grupo 1084916" transform="translate(-2.279 -14)" opacity="0.84">
          <path id="Trazado_829366" data-name="Trazado 829366" d="M42.452,55.032v4.341H27.97V59.8H67.123v14.19H27.97v.438H42.452v14.19H27.97v.426H67.123v14.19H27.97v.426H42.452v14.19H27.97v.426H67.123v14.19H27.97v.438H42.452v14.19H27.97v.438H67.123v14.19H27.97v.438H42.452v14.19H27.97v.426H67.123v14.19H27.97v.438H42.452v14.19H27.97v.426H67.123V220.2H27.97v.426H42.452v14.19H27.97v.438H67.123v14.19H27.97v.438H42.452v14.19H27.97v.438H67.123V278.7H27.97v.438H42.452v14.19H27.97v.426H67.123v14.19H27.97v.438H42.452v14.19H27.97v.438H67.123V337.2H27.97v.438H42.452v14.19H27.97v.426H67.123v14.19H27.97v.426H42.452v14.19H27.97v.438H67.123v14.19H27.97v.438H42.452v14.19H27.97v.426H67.123v14.19H27.97v.438H42.452v14.19H27.97V440H67.123v14.19H27.97v.426H42.452V468.8H27.97v.426H67.123v5.046h.426v-5.046h48.917v5.046h.426v-5.046h48.917v5.046h.426v-5.046H209.1c.389-.146.778-.28,1.167-.426H190.917v-14.19h43.7c.17-.146.34-.292.511-.426h-19.54V440h32.964c.109-.146.207-.292.316-.438h-8.609v-14.19H257.4c.073-.146.134-.292.207-.438H215.588v-14.19h47.19c.036-.146.085-.292.122-.426H240.259v-14.19h25.072c0-.146.024-.292.036-.438h-.438V381.5h.377l-.036-.438H240.259V366.87h22.47a4.354,4.354,0,0,0-.122-.426H215.576v-14.19h41.731c-.073-.146-.134-.292-.207-.426H240.247v-14.19h8.159l-.328-.438h-32.49v-14.19H234.4c-.17-.146-.353-.292-.535-.438H190.917v-14.19h17.655l-1.24-.438H166.246v-7.283a4.532,4.532,0,0,1-.426-.195v7.466H116.9v-14.19h38.764c-.158-.146-.3-.28-.45-.426H141.587v-14.19h4.584l-.146-.438H116.915V264.5h27.407c0-.146.024-.292.036-.438h-2.772v-14.19h7.2c.085-.146.158-.292.243-.438H116.915v-14.19H163.96l.875-.438H141.6v-14.19h48.9v10.214l.438-.073V220.618h19.808c.146-.146.292-.292.438-.426H166.258V206h48.917v9.46l.438-.62V206h4.45c.049-.146.1-.292.146-.426H190.941v-14.19h31.1c0-.146-.012-.292-.024-.438h-6.408v-14.19h2.408a4.747,4.747,0,0,0-.231-.426H190.941v-14.19h13.776l-.693-.438H166.27v-6.4c-.146-.061-.292-.109-.426-.17v6.566H116.927v-14.19h41.135l-.182-.438H141.6v-14.19H159.74c.109-.146.219-.292.34-.438H116.927v-14.19h48.917v9.873c.146-.061.292-.122.426-.17v-9.7H191.1c.024-.146.036-.292.049-.426h-.207v-3.113a9.051,9.051,0,0,0-.438-1.41v4.523H141.6V106.867h-.426v10.968h-48.9v-14.19h14.226c-.182-.146-.365-.28-.547-.426H67.6V89.03h32.721c.012-.146.036-.292.061-.426h-8.11V74.414h47.081c.316-.134.608-.28.912-.438H116.952V59.786h27.115c-.1-.146-.182-.292-.28-.426h-2.164V57.1c-.146-.109-.28-.207-.426-.316v2.578h-48.9V55.02h-.438v4.341H42.938V55.02H42.5ZM199.38,118.285c-.024-.146-.036-.292-.049-.426h20.087a2.4,2.4,0,0,1-.049.426h-3.782V124.9c-.146.109-.292.219-.438.316v-6.931H199.368ZM42.889,454.538H91.806v14.19H42.889v-14.19Zm49.342,0h48.9v14.19h-48.9v-14.19Zm49.342,0h48.9v14.19h-48.9v-14.19ZM67.561,439.923h48.917v14.19H67.561v-14.19Zm49.342,0H165.82v14.19H116.9v-14.19Zm49.342,0h48.917v14.19H166.246v-14.19ZM42.889,425.307H91.806V439.5H42.889v-14.19Zm49.342,0h48.9V439.5h-48.9v-14.19Zm49.342,0h48.9V439.5h-48.9v-14.19Zm49.342,0h48.917V439.5H190.917v-14.19ZM67.561,410.692h48.917v14.19H67.561v-14.19Zm49.342,0H165.82v14.19H116.9v-14.19Zm49.342,0h48.917v14.19H166.246v-14.19ZM42.89,396.077H91.806v14.19H42.89v-14.19Zm49.342,0h48.9v14.19h-48.9v-14.19Zm49.342,0h48.9v14.19h-48.9v-14.19Zm49.342,0h48.917v14.19H190.917v-14.19ZM67.561,381.461h48.917v14.19H67.561v-14.19Zm49.342,0H165.82v14.19H116.9v-14.19Zm49.342,0h48.917v14.19H166.246v-14.19Zm49.342,0h48.9v14.19H215.576v-14.19h0ZM42.89,366.833H91.806v14.19H42.89v-14.19Zm49.342,0h48.9v14.19h-48.9v-14.19Zm49.342,0h48.9v14.19h-48.9v-14.19Zm49.342,0h48.917v14.19H190.917v-14.19ZM67.561,352.218h48.917v14.19H67.561v-14.19Zm49.343,0H165.82v14.19H116.9v-14.19Zm49.342,0h48.917v14.19H166.246v-14.19ZM42.89,337.6H91.806v14.19H42.89V337.6Zm49.342,0h48.9v14.19h-48.9V337.6Zm49.342,0h48.9v14.19h-48.9V337.6Zm49.342,0h48.917v14.19H190.917V337.6ZM67.561,322.987h48.917v14.19H67.561v-14.19Zm49.342,0H165.82v14.19H116.9v-14.19Zm49.342,0h48.917v14.19H166.246v-14.19ZM42.89,308.371H91.806v14.19H42.89v-14.19Zm49.342,0h48.9v14.19h-48.9v-14.19Zm49.342,0h48.9v14.19h-48.9v-14.19ZM67.561,293.744h48.917v14.19H67.561v-14.19ZM42.89,279.128H91.806v14.19H42.89v-14.19Zm49.342,0h48.9v14.19h-48.9v-14.19ZM67.561,264.513h48.917V278.7H67.561v-14.19ZM42.89,249.9H91.806v14.19H42.89V249.9Zm49.342,0h48.9v14.19h-48.9V249.9ZM67.561,235.282h48.917v14.19H67.561v-14.19ZM42.89,220.666H91.806v14.19H42.89v-14.19Zm49.342,0h48.9v14.19h-48.9v-14.19ZM67.561,206.051h48.917v14.19H67.561v-14.19Zm49.342,0H165.82v14.19H116.9v-14.19ZM42.89,191.435H91.807v14.19H42.89v-14.19Zm49.342,0h48.9v14.19h-48.9v-14.19Zm49.342,0h48.9v14.19h-48.9v-14.19ZM67.561,176.82h48.917v14.19H67.561V176.82Zm49.342,0H165.82v14.19H116.9V176.82Zm49.342,0h48.917v14.19H166.246V176.82ZM42.89,162.2H91.807v14.19H42.89V162.2Zm49.342,0h48.9v14.19h-48.9V162.2Zm49.342,0h48.9v14.19h-48.9V162.2ZM67.561,147.589h48.917v14.19H67.561v-14.19ZM42.89,132.973H91.807v14.19H42.89v-14.19Zm49.342,0h48.9v14.19h-48.9v-14.19ZM67.561,118.358h48.917v14.19H67.561v-14.19ZM42.89,103.742H91.807v14.19H42.89v-14.19Zm0-29.243H91.807v14.19H42.89V74.5ZM67.561,59.884h48.917v14.19H67.561Z" transform="translate(-27.97 -55.02)" fill="#a3cbde" fill-rule="evenodd"/>
        </g>
        <g id="Grupo_1084917" data-name="Grupo 1084917" transform="translate(179 77.601)">
          <path id="Trazado_829367" data-name="Trazado 829367" d="M168.22,210.871a1.16,1.16,0,1,1,1.16-1.16A1.162,1.162,0,0,1,168.22,210.871Z" transform="translate(20.04 -89.368)" fill="#fff" fill-rule="evenodd"/>
          <path id="Trazado_829368" data-name="Trazado 829368" d="M320.67,187.811a1.16,1.16,0,1,1,1.16-1.16A1.162,1.162,0,0,1,320.67,187.811Z" transform="translate(-286.132 -97.611)" fill="#fff" fill-rule="evenodd"/>
          <path id="Trazado_829369" data-name="Trazado 829369" d="M241.56,124.361a1.16,1.16,0,1,1,1.16-1.16A1.162,1.162,0,0,1,241.56,124.361Z" transform="translate(-113.354 -109.288)" fill="#fff" fill-rule="evenodd"/>
          <path id="Trazado_829370" data-name="Trazado 829370" d="M160.49,253.3a1.16,1.16,0,1,1,1.16-1.16A1.162,1.162,0,0,1,160.49,253.3Z" transform="translate(63.705 -85.56)" fill="#fff" fill-rule="evenodd"/>
          <path id="Trazado_829371" data-name="Trazado 829371" d="M304.22,259.091a1.16,1.16,0,1,1,1.16-1.16A1.162,1.162,0,0,1,304.22,259.091Z" transform="translate(-250.205 -84.494)" fill="#fff" fill-rule="evenodd"/>
          <path id="Trazado_829372" data-name="Trazado 829372" d="M322.24,151.781a1.16,1.16,0,1,1,1.16-1.16A1.162,1.162,0,0,1,322.24,151.781Z" transform="translate(-289.561 -104.242)" fill="#fff" fill-rule="evenodd"/>
          <path id="Trazado_829373" data-name="Trazado 829373" d="M146.78,133.421a1.16,1.16,0,1,1,1.16-1.16A1.162,1.162,0,0,1,146.78,133.421Z" transform="translate(93.648 -107.621)" fill="#fff" fill-rule="evenodd"/>
          <path id="Trazado_829374" data-name="Trazado 829374" d="M347.906,148.291a2.546,2.546,0,1,1,2.546-2.546A2.549,2.549,0,0,1,347.906,148.291Z" transform="translate(-345.36 -105.394)" fill="#fff" fill-rule="evenodd"/>
          <path id="Trazado_829375" data-name="Trazado 829375" d="M299.546,173.161a2.546,2.546,0,1,1,2.546-2.546A2.549,2.549,0,0,1,299.546,173.161Z" transform="translate(-239.74 -100.817)" fill="#fff" fill-rule="evenodd"/>
          <path id="Trazado_829376" data-name="Trazado 829376" d="M208.286,116.373a2.552,2.552,0,1,1,2.546-2.546A2.549,2.549,0,0,1,208.286,116.373Z" transform="translate(-40.426 -111.27)" fill="#fff" fill-rule="evenodd"/>
          <path id="Trazado_829377" data-name="Trazado 829377" d="M170.946,158.091a2.546,2.546,0,1,1,2.546-2.546A2.549,2.549,0,0,1,170.946,158.091Z" transform="translate(25.125 -105.462)" fill="#fff" fill-rule="evenodd"/>
          <path id="Trazado_829378" data-name="Trazado 829378" d="M191.056,262.273a2.552,2.552,0,1,1,2.546-2.558A2.552,2.552,0,0,1,191.056,262.273Z" transform="translate(-2.795 -84.42)" fill="#fff" fill-rule="evenodd"/>
          <path id="Trazado_829379" data-name="Trazado 829379" d="M304.448,261.873a2.552,2.552,0,1,1,2.546-2.546A2.56,2.56,0,0,1,304.448,261.873Z" transform="translate(-250.432 -84.494)" fill="#fff" fill-rule="evenodd"/>
        </g>
        <g id="Grupo_1084919" data-name="Grupo 1084919" transform="translate(143 289.602)">
          <path id="Trazado_829380" data-name="Trazado 829380" d="M168.22,210.871a1.16,1.16,0,1,1,1.16-1.16A1.162,1.162,0,0,1,168.22,210.871Z" transform="translate(20.04 -89.368)" fill="#fff" fill-rule="evenodd"/>
          <path id="Trazado_829381" data-name="Trazado 829381" d="M320.67,187.811a1.16,1.16,0,1,1,1.16-1.16A1.162,1.162,0,0,1,320.67,187.811Z" transform="translate(-286.132 -97.611)" fill="#fff" fill-rule="evenodd"/>
          <path id="Trazado_829382" data-name="Trazado 829382" d="M320.67,187.811a1.16,1.16,0,1,1,1.16-1.16A1.162,1.162,0,0,1,320.67,187.811Z" transform="translate(-106.132 -98.772)" fill="#fff" fill-rule="evenodd"/>
          <path id="Trazado_829383" data-name="Trazado 829383" d="M241.56,124.361a1.16,1.16,0,1,1,1.16-1.16A1.162,1.162,0,0,1,241.56,124.361Z" transform="translate(-113.354 -109.288)" fill="#fff" fill-rule="evenodd"/>
          <path id="Trazado_829384" data-name="Trazado 829384" d="M160.49,253.3a1.16,1.16,0,1,1,1.16-1.16A1.162,1.162,0,0,1,160.49,253.3Z" transform="translate(63.705 -85.56)" fill="#fff" fill-rule="evenodd"/>
          <path id="Trazado_829385" data-name="Trazado 829385" d="M304.22,259.091a1.16,1.16,0,1,1,1.16-1.16A1.162,1.162,0,0,1,304.22,259.091Z" transform="translate(-250.205 -84.494)" fill="#fff" fill-rule="evenodd"/>
          <path id="Trazado_829386" data-name="Trazado 829386" d="M322.24,151.781a1.16,1.16,0,1,1,1.16-1.16A1.162,1.162,0,0,1,322.24,151.781Z" transform="translate(-289.561 -104.242)" fill="#fff" fill-rule="evenodd"/>
          <path id="Trazado_829387" data-name="Trazado 829387" d="M146.78,133.421a1.16,1.16,0,1,1,1.16-1.16A1.162,1.162,0,0,1,146.78,133.421Z" transform="translate(93.648 -107.621)" fill="#fff" fill-rule="evenodd"/>
          <path id="Trazado_829388" data-name="Trazado 829388" d="M347.906,148.291a2.546,2.546,0,1,1,2.546-2.546A2.549,2.549,0,0,1,347.906,148.291Z" transform="translate(-345.36 -105.394)" fill="#fff" fill-rule="evenodd"/>
          <path id="Trazado_829389" data-name="Trazado 829389" d="M299.546,173.161a2.546,2.546,0,1,1,2.546-2.546A2.549,2.549,0,0,1,299.546,173.161Z" transform="translate(-239.74 -100.817)" fill="#fff" fill-rule="evenodd"/>
          <path id="Trazado_829390" data-name="Trazado 829390" d="M208.286,116.373a2.552,2.552,0,1,1,2.546-2.546A2.549,2.549,0,0,1,208.286,116.373Z" transform="translate(-40.426 -111.27)" fill="#fff" fill-rule="evenodd"/>
          <path id="Trazado_829391" data-name="Trazado 829391" d="M208.287,116.376a2.553,2.553,0,1,1,2.547-2.547A2.551,2.551,0,0,1,208.287,116.376Z" transform="translate(26.482 -312.72)" fill="#727997" fill-rule="evenodd" opacity="0.44"/>
          <g id="Grupo_1084918" data-name="Grupo 1084918" transform="translate(-13 29)">
            <path id="Trazado_829392" data-name="Trazado 829392" d="M208.286,116.373a2.552,2.552,0,1,1,2.546-2.546A2.549,2.549,0,0,1,208.286,116.373Z" transform="translate(5.483 -384.27)" fill="#727997" fill-rule="evenodd" opacity="0.44"/>
            <path id="Trazado_829393" data-name="Trazado 829393" d="M207.254,114.306a1.518,1.518,0,1,1,1.514-1.514A1.516,1.516,0,0,1,207.254,114.306Z" transform="translate(-1.485 -368.788)" fill="#727997" fill-rule="evenodd" opacity="0.44"/>
            <path id="Trazado_829394" data-name="Trazado 829394" d="M208.286,116.373a2.552,2.552,0,1,1,2.546-2.546A2.549,2.549,0,0,1,208.286,116.373Z" transform="translate(-86.517 -367.27)" fill="#727997" fill-rule="evenodd" opacity="0.44"/>
            <path id="Trazado_829395" data-name="Trazado 829395" d="M207.574,114.947a1.839,1.839,0,1,1,1.834-1.834A1.837,1.837,0,0,1,207.574,114.947Z" transform="translate(-55.806 -391.557)" fill="#727997" fill-rule="evenodd" opacity="0.44"/>
            <path id="Trazado_829396" data-name="Trazado 829396" d="M207.574,114.947a1.839,1.839,0,1,1,1.834-1.834A1.837,1.837,0,0,1,207.574,114.947Z" transform="translate(-204.806 -384.167)" fill="#727997" fill-rule="evenodd" opacity="0.44"/>
            <path id="Trazado_829397" data-name="Trazado 829397" d="M207.574,114.947a1.839,1.839,0,1,1,1.834-1.834A1.837,1.837,0,0,1,207.574,114.947Z" transform="translate(-142.806 -379.167)" fill="#727997" fill-rule="evenodd" opacity="0.44"/>
          </g>
          <path id="Trazado_829398" data-name="Trazado 829398" d="M208.286,116.373a2.552,2.552,0,1,1,2.546-2.546A2.549,2.549,0,0,1,208.286,116.373Z" transform="translate(-40.426 -28.494)" fill="#fff" fill-rule="evenodd"/>
          <path id="Trazado_829399" data-name="Trazado 829399" d="M208.286,116.373a2.552,2.552,0,1,1,2.546-2.546A2.549,2.549,0,0,1,208.286,116.373Z" transform="translate(12.574 -79.494)" fill="#fff" fill-rule="evenodd"/>
          <path id="Trazado_829400" data-name="Trazado 829400" d="M170.946,158.091a2.546,2.546,0,1,1,2.546-2.546A2.549,2.549,0,0,1,170.946,158.091Z" transform="translate(25.125 -105.462)" fill="#fff" fill-rule="evenodd"/>
          <path id="Trazado_829401" data-name="Trazado 829401" d="M191.056,262.273a2.552,2.552,0,1,1,2.546-2.558A2.552,2.552,0,0,1,191.056,262.273Z" transform="translate(-2.795 -84.42)" fill="#fff" fill-rule="evenodd"/>
          <path id="Trazado_829402" data-name="Trazado 829402" d="M304.448,261.873a2.552,2.552,0,1,1,2.546-2.546A2.56,2.56,0,0,1,304.448,261.873Z" transform="translate(-250.432 -84.494)" fill="#fff" fill-rule="evenodd"/>
        </g>
      </g>
      <g id="_3685785" data-name="3685785" transform="translate(180 4293.151)">
        <g id="Background_Complete" data-name="Background Complete" transform="translate(0 0)">
          <path id="Trazado_829403" data-name="Trazado 829403" d="M52.762,28.678a26.351,26.351,0,0,1,6.4-2.784l1.317-6.338,10.7-.186,1.539,6.284a26.3,26.3,0,0,1,6.494,2.556l5.412-3.548,7.7,7.438-3.355,5.532a26.12,26.12,0,0,1,2.784,6.4L98.1,45.352l.186,10.7L92,57.595a26.3,26.3,0,0,1-2.556,6.494L92.995,69.5l-7.438,7.7-5.532-3.355a26.35,26.35,0,0,1-6.4,2.784L72.3,82.97l-10.7.186-1.539-6.284a26.3,26.3,0,0,1-6.494-2.556l-5.412,3.548-7.7-7.438,3.355-5.532a26.351,26.351,0,0,1-2.784-6.4l-6.338-1.317-.186-10.7,6.284-1.539a26.3,26.3,0,0,1,2.556-6.494l-3.548-5.412,7.438-7.7,5.532,3.355h0Zm5.706,14.263a8.123,8.123,0,1,0,0-.006Z" transform="translate(-25.255 -17.922)" fill="#a6eafe"/>
          <path id="Trazado_829404" data-name="Trazado 829404" d="M164.151,5.448a15.525,15.525,0,0,1,3.746-1.63l.77-3.71L174.933,0l.9,3.68a15.433,15.433,0,0,1,3.8,1.5L182.8,3.1l4.51,4.353-1.96,3.235a15.526,15.526,0,0,1,1.63,3.746l3.71.77.108,6.266-3.68.9a15.431,15.431,0,0,1-1.5,3.8l2.075,3.169-4.353,4.51-3.235-1.96a15.525,15.525,0,0,1-3.746,1.63l-.77,3.71-6.266.108-.9-3.68a15.432,15.432,0,0,1-3.8-1.5l-3.163,2.075-4.51-4.353,1.96-3.235a15.526,15.526,0,0,1-1.63-3.746l-3.71-.77-.108-6.266,3.68-.9a15.431,15.431,0,0,1,1.5-3.8L156.563,8l4.353-4.51,3.235,1.96h0Zm3.337,8.346a6.719,6.719,0,1,0,9.5-.168,6.717,6.717,0,0,0-9.5.168Z" transform="translate(-22.184 -4)" fill="#ebebeb"/>
          <path id="Trazado_829405" data-name="Trazado 829405" d="M55.852,141.981a9.38,9.38,0,0,1,2.315-1l.475-2.291,3.866-.066.559,2.273a9.207,9.207,0,0,1,2.345.926l1.954-1.281,2.784,2.688-1.215,2a9.38,9.38,0,0,1,1,2.315l2.291.475.066,3.866-2.273.559a9.206,9.206,0,0,1-.926,2.345l1.281,1.954-2.688,2.784-2-1.215a9.38,9.38,0,0,1-2.315,1l-.475,2.291-3.866.066L58.48,159.4a9.208,9.208,0,0,1-2.345-.926l-1.954,1.281L51.4,157.062l1.215-2a9.38,9.38,0,0,1-1-2.315l-2.291-.475-.066-3.866,2.273-.559a9.207,9.207,0,0,1,.926-2.345l-1.281-1.954,2.688-2.784,2,1.215h0Zm2.062,5.153a4.15,4.15,0,1,0,5.869-.1,4.151,4.151,0,0,0-5.869.1Z" transform="translate(-19.636 -55.267)" fill="#ccbcfe"/>
          <path id="Trazado_829406" data-name="Trazado 829406" d="M610.547,227.477a12.174,12.174,0,0,1,2.988-1.3l.613-2.958,4.991-.09.722,2.934a12.314,12.314,0,0,1,3.031,1.191l2.525-1.654,3.59,3.47-1.563,2.58a12.177,12.177,0,0,1,1.3,2.988l2.952.613.09,4.991-2.934.722A12.317,12.317,0,0,1,627.66,244l1.654,2.525-3.47,3.6-2.58-1.563a12.174,12.174,0,0,1-2.988,1.3l-.613,2.958-4.991.09-.722-2.934a12.314,12.314,0,0,1-3.031-1.191l-2.526,1.654-3.6-3.47,1.563-2.58a12.174,12.174,0,0,1-1.3-2.988l-2.952-.613-.09-4.991,2.934-.722a12.316,12.316,0,0,1,1.191-3.031l-1.654-2.525,3.47-3.59,2.58,1.563h0Zm2.664,6.65a5.358,5.358,0,1,0,7.576-.132A5.358,5.358,0,0,0,613.21,234.128Z" transform="translate(-239.022 -75.961)" fill="#00223d"/>
        </g>
        <g id="Gears" transform="translate(269.561 6.111)">
          <g id="Grupo_1084929" data-name="Grupo 1084929">
            <g id="Grupo_1084924" data-name="Grupo 1084924" transform="translate(53.165 59.937)">
              <path id="Trazado_829424" data-name="Trazado 829424" d="M585.27,126.677l5.88-1.441-.174-10.015-5.924-1.231a24.509,24.509,0,0,0-2.6-5.987l3.136-5.175-7.2-6.955-5.059,3.319a24.64,24.64,0,0,0-6.076-2.391l-1.441-5.88-10.015.174-1.231,5.929a24.512,24.512,0,0,0-5.987,2.6L543.4,96.488l-6.955,7.2,3.319,5.059a24.57,24.57,0,0,0-2.391,6.076l-5.88,1.441.174,10.015,5.925,1.231a24.509,24.509,0,0,0,2.6,5.987l-3.136,5.175,7.2,6.955,5.059-3.319a24.57,24.57,0,0,0,6.076,2.391l1.441,5.88,10.015-.174,1.236-5.925a24.51,24.51,0,0,0,5.987-2.6l5.175,3.136,6.955-7.2-3.315-5.064a24.575,24.575,0,0,0,2.391-6.076Zm-15.909,1.209a10.743,10.743,0,1,1-.268-15.191A10.741,10.741,0,0,1,569.361,127.886Z" transform="translate(-531.49 -90.92)" fill="#ccbcfe"/>
              <g id="Grupo_1084923" data-name="Grupo 1084923" opacity="0.4">
                <path id="Trazado_829425" data-name="Trazado 829425" d="M585.27,126.677l5.88-1.441-.174-10.015-5.924-1.231a24.509,24.509,0,0,0-2.6-5.987l3.136-5.175-7.2-6.955-5.059,3.319a24.64,24.64,0,0,0-6.076-2.391l-1.441-5.88-10.015.174-1.231,5.929a24.512,24.512,0,0,0-5.987,2.6L543.4,96.488l-6.955,7.2,3.319,5.059a24.57,24.57,0,0,0-2.391,6.076l-5.88,1.441.174,10.015,5.925,1.231a24.509,24.509,0,0,0,2.6,5.987l-3.136,5.175,7.2,6.955,5.059-3.319a24.57,24.57,0,0,0,6.076,2.391l1.441,5.88,10.015-.174,1.236-5.925a24.51,24.51,0,0,0,5.987-2.6l5.175,3.136,6.955-7.2-3.315-5.064a24.575,24.575,0,0,0,2.391-6.076Zm-15.909,1.209a10.743,10.743,0,1,1-.268-15.191A10.741,10.741,0,0,1,569.361,127.886Z" transform="translate(-531.49 -90.92)" fill="#ccbcfe"/>
              </g>
            </g>
            <g id="Grupo_1084928" data-name="Grupo 1084928">
              <g id="Grupo_1084926" data-name="Grupo 1084926" transform="translate(-39 99.67)">
                <path id="Trazado_829426" data-name="Trazado 829426" d="M476.824,21.346a23.729,23.729,0,0,1,5.779-2.513l1.191-5.724,9.669-.168,1.389,5.676a23.611,23.611,0,0,1,5.863,2.309l4.889-3.2,6.957,6.717-3.031,5a23.669,23.669,0,0,1,2.513,5.785l5.718,1.191.168,9.669-5.676,1.389a23.611,23.611,0,0,1-2.309,5.863l3.2,4.889-6.717,6.957-5-3.031a23.727,23.727,0,0,1-5.779,2.513l-1.191,5.724-9.669.168-1.389-5.676a23.611,23.611,0,0,1-5.863-2.309l-4.889,3.2L465.7,59.054l3.031-5a23.728,23.728,0,0,1-2.513-5.779L460.5,47.088l-.168-9.669,5.676-1.389a23.609,23.609,0,0,1,2.309-5.863l-3.2-4.889,6.717-6.957,5,3.031h0Zm5.153,12.88a10.372,10.372,0,1,0,14.666-.259A10.367,10.367,0,0,0,481.977,34.226Z" transform="translate(-460.33 -12.94)" fill="#a6eafe"/>
              </g>
              <g id="Grupo_1084927" data-name="Grupo 1084927" transform="translate(74.688)">
                <path id="Trazado_829428" data-name="Trazado 829428" d="M596.86,14.9a17.552,17.552,0,0,1,4.257-1.852L602,8.836l7.113-.126,1.022,4.179a17.426,17.426,0,0,1,4.317,1.7l3.6-2.357,5.117,4.943-2.231,3.674a17.3,17.3,0,0,1,1.846,4.257l4.209.878.126,7.113-4.179,1.022a17.427,17.427,0,0,1-1.7,4.317l2.357,3.6-4.943,5.117-3.674-2.231a17.3,17.3,0,0,1-4.257,1.846l-.878,4.209-7.113.126-1.022-4.179a17.427,17.427,0,0,1-4.317-1.7l-3.6,2.357-5.117-4.943,2.231-3.674a17.554,17.554,0,0,1-1.852-4.257l-4.209-.878-.126-7.113,4.179-1.022a17.427,17.427,0,0,1,1.7-4.317l-2.357-3.6,4.943-5.117,3.68,2.231h0Zm3.794,9.477a7.633,7.633,0,1,0,10.793-.192A7.63,7.63,0,0,0,600.655,24.374Z" transform="translate(-584.612 -8.584)" fill="#fff"/>
                <path id="Trazado_829429" data-name="Trazado 829429" d="M609.7,33.134a5.625,5.625,0,0,1,1.419-1.245,7.6,7.6,0,0,1,4.979-1.179,7.686,7.686,0,0,1,3.385,1.2A7.791,7.791,0,0,1,622.224,35a7.839,7.839,0,0,1,.734,4.492,7.781,7.781,0,0,1-6.44,6.674A7.789,7.789,0,0,1,612,45.587a7.88,7.88,0,0,1-3.181-2.628,7.729,7.729,0,0,1-1.323-3.343,7.583,7.583,0,0,1,1-5.021,5.841,5.841,0,0,1,1.2-1.467,18.126,18.126,0,0,0-1.046,1.551,7.576,7.576,0,0,0-.842,4.889,7.393,7.393,0,0,0,1.311,3.175,7.473,7.473,0,0,0,3.049,2.471,7.477,7.477,0,0,0,4.281.523,7.388,7.388,0,0,0,6.091-6.308,7.071,7.071,0,0,0-.03-2.225,6.925,6.925,0,0,0-.643-2.032,7.52,7.52,0,0,0-2.574-2.958,7.437,7.437,0,0,0-3.223-1.2,7.585,7.585,0,0,0-4.853,1.016c-1.028.625-1.473,1.142-1.509,1.1Z" transform="translate(-593.662 -17.338)" fill="#6e40fc"/>
                <path id="Trazado_829430" data-name="Trazado 829430" d="M596.788,14.814s-.078-.036-.234-.126l-.7-.409-2.772-1.636.084-.012c-1.257,1.317-2.91,3.055-4.913,5.147l.012-.138c.716,1.088,1.515,2.3,2.369,3.584l.042.066-.036.066a17.4,17.4,0,0,0-1.672,4.287l-.018.084-.084.024c-1.3.325-2.712.673-4.173,1.034l.12-.156q.063,3.364.144,7.113l-.138-.168c1.3.271,2.742.565,4.215.866l.108.024.03.108A17.628,17.628,0,0,0,591,38.782l.06.1-.06.1c-.691,1.142-1.449,2.4-2.225,3.68l-.03-.241c1.612,1.551,3.349,3.223,5.123,4.937l-.253-.024c1.118-.734,2.351-1.545,3.6-2.363l.108-.066.108.06a17.506,17.506,0,0,0,4.269,1.678l.126.03.03.126c.319,1.311.673,2.736,1.028,4.179l-.21-.162c2.255-.042,4.666-.084,7.113-.126l-.21.174c.277-1.329.577-2.766.878-4.209l.024-.132.126-.036a17.422,17.422,0,0,0,4.2-1.822h0l.114-.072.114.066q1.849,1.118,3.674,2.231l-.271.036q2.508-2.6,4.943-5.117l-.024.271c-.794-1.209-1.575-2.411-2.357-3.6l-.072-.108.066-.114a17.1,17.1,0,0,0,1.678-4.263l.03-.126.126-.03c1.413-.343,2.8-.685,4.179-1.022l-.156.2c-.042-2.429-.078-4.8-.12-7.113l.162.192-4.209-.884-.114-.024-.03-.114a17.146,17.146,0,0,0-1.822-4.209l-.06-.1.06-.1c.764-1.257,1.509-2.477,2.237-3.674l.03.222c-1.8-1.744-3.494-3.385-5.111-4.955l.21.018c-1.269.824-2.453,1.6-3.6,2.351l-.078.054-.084-.048a17.48,17.48,0,0,0-4.275-1.7l-.084-.024-.018-.084c-.367-1.521-.7-2.886-1.01-4.179l.126.1c-2.754.036-5.105.066-7.113.1l.1-.078c-.361,1.678-.655,3.061-.9,4.2l-.012.042-.042.012a18.335,18.335,0,0,0-3.253,1.251c-.331.174-.583.3-.764.4a2.023,2.023,0,0,1-.253.132s.084-.06.234-.162.409-.253.752-.433a16.964,16.964,0,0,1,3.247-1.323L601,12.95c.235-1.148.511-2.531.848-4.215l.018-.078h.078c2.008-.048,4.359-.1,7.113-.156h.1l.024.1c.319,1.293.661,2.658,1.04,4.173l-.1-.108a17.429,17.429,0,0,1,4.36,1.7h-.162c1.142-.746,2.327-1.527,3.59-2.363l.114-.072.1.1c1.623,1.557,3.325,3.2,5.129,4.931l.1.1-.078.126c-.722,1.2-1.461,2.417-2.225,3.68v-.2a17.683,17.683,0,0,1,1.876,4.3l-.15-.138c1.377.283,2.784.577,4.215.872l.156.03v.162q.072,3.473.132,7.113v.168l-.156.042q-2.056.505-4.179,1.028l.156-.156a17.712,17.712,0,0,1-1.714,4.371v-.222c.77,1.185,1.557,2.387,2.351,3.6l.1.144-.12.126-4.943,5.123-.12.126-.15-.09c-1.215-.74-2.441-1.479-3.674-2.231h.229a17.746,17.746,0,0,1-4.305,1.87l.156-.168c-.3,1.443-.6,2.88-.878,4.209l-.036.168h-.174c-2.447.042-4.865.084-7.113.126h-.168l-.042-.162c-.355-1.443-.7-2.868-1.022-4.179l.156.156a17.864,17.864,0,0,1-4.365-1.72h.216c-1.245.806-2.477,1.611-3.6,2.345l-.138.09-.114-.114c-1.774-1.72-3.506-3.4-5.111-4.949l-.114-.108.078-.132c.776-1.281,1.539-2.531,2.237-3.674v.192a17.791,17.791,0,0,1-1.864-4.305l.138.126c-1.473-.307-2.9-.613-4.209-.884l-.132-.03v-.138c-.042-2.5-.078-4.877-.108-7.113v-.126l.12-.03c1.467-.355,2.88-.7,4.179-1.01l-.1.108a17.594,17.594,0,0,1,1.726-4.347v.132l-2.339-3.608-.048-.072.06-.066,4.973-5.093.042-.042.048.03c1.173.734,2.081,1.293,2.706,1.684.295.186.523.337.7.445a2.111,2.111,0,0,1,.234.162Z" transform="translate(-584.54 -8.5)" fill="#6e40fc"/>
              </g>
            </g>
          </g>
        </g>
        <g id="Floor" transform="translate(20.703 263.047)">
          <path id="Trazado_829504" data-name="Trazado 829504" d="M401.112,437.616c0,.084-82.09.156-183.332.156s-183.35-.072-183.35-.156,82.072-.156,183.35-.156S401.112,437.532,401.112,437.616Z" transform="translate(-34.43 -437.46)" fill="#263238"/>
        </g>
      </g>
    </g>
    <g id="_7090037" data-name="7090037" transform="translate(204.5 436.336)">
      <g id="Wifi_Icon" data-name="Wifi Icon" transform="translate(217.141 22.578)">
        <g id="Grupo_1084888" data-name="Grupo 1084888" transform="translate(-163 -18)">
          <path id="Trazado_829295" data-name="Trazado 829295" d="M236.594,62.3A29.487,29.487,0,0,0,213.8,72.849,2.114,2.114,0,0,0,214,75.9a2.084,2.084,0,0,0,2.975-.276,26.155,26.155,0,0,1,7.688-6.2,25.473,25.473,0,0,1,28.462,3.1,38.84,38.84,0,0,1,3.086,3.077,2.156,2.156,0,0,0,3.049.276,2.123,2.123,0,0,0,.148-3.051,29.712,29.712,0,0,0-19.018-10.347c-.6-.083-1.2-.148-1.8-.174-.659-.03-1.323-.007-1.984-.007Z" transform="translate(-213.242 -62.289)" fill="#263238"/>
          <path id="Trazado_829296" data-name="Trazado 829296" d="M259.357,101.292a20.859,20.859,0,0,0-15.5,7.564,2.063,2.063,0,0,0,.191,3.038,2.088,2.088,0,0,0,3.005-.292,16.5,16.5,0,0,1,8.236-5.37c6.722-1.815,12.534-.159,17.4,4.816.181.185.348.383.52.577a2.113,2.113,0,1,0,3.192-2.768,21.225,21.225,0,0,0-6.815-5.344,22.222,22.222,0,0,0-10.234-2.222Z" transform="translate(-236.76 -92.803)" fill="#263238"/>
          <path id="Trazado_829297" data-name="Trazado 829297" d="M273.468,146.531a2.112,2.112,0,0,0,1.351,1.978,2.087,2.087,0,0,0,2.357-.592,8.958,8.958,0,0,1,3.229-2.4,8.532,8.532,0,0,1,9.883,2.359,2.045,2.045,0,0,0,2.259.675,2.109,2.109,0,0,0,.979-3.39,12.7,12.7,0,0,0-19.549.037,5.9,5.9,0,0,0-.622,1.284l.111.052Z" transform="translate(-260.387 -123.574)" fill="#263238"/>
          <path id="Trazado_829298" data-name="Trazado 829298" d="M305.35,188.316a4.243,4.243,0,1,0-4.23-4.226,4.222,4.222,0,0,0,4.23,4.226Z" transform="translate(-281.992 -154.253)" fill="#263238"/>
        </g>
      </g>
      <g id="Cloud_Icon" data-name="Cloud Icon" transform="translate(184.925 -3)">
        <path id="Trazado_829307" data-name="Trazado 829307" d="M24.754,65.558a11.544,11.544,0,0,1,21.455,2.081c.185-.013.367-.029.556-.029A6.985,6.985,0,0,1,47.7,81.535V81.6H26.144a8.069,8.069,0,0,1-1.39-16.045Z" transform="translate(-17.89 -34.45)" fill="#fff" stroke="#263238" stroke-linecap="round" stroke-linejoin="round" stroke-width="1"/>
        <g id="Grupo_1084898" data-name="Grupo 1084898" transform="translate(17.208)">
          <line id="Línea_3874" data-name="Línea 3874" y1="1.053" transform="translate(0 23.663)" fill="none" stroke="#263238" stroke-linecap="round" stroke-linejoin="round" stroke-width="1"/>
          <line id="Línea_3875" data-name="Línea 3875" y1="19.525" transform="translate(0 2.081)" fill="none" stroke="#263238" stroke-linecap="round" stroke-linejoin="round" stroke-width="1" stroke-dasharray="0 0 4.88 4.88"/>
          <line id="Línea_3876" data-name="Línea 3876" y1="1.053" transform="translate(0)" fill="none" stroke="#263238" stroke-linecap="round" stroke-linejoin="round" stroke-width="1"/>
        </g>
      </g>
      <g id="Grupo_1084930" data-name="Grupo 1084930" transform="translate(113 -3)">
        <g id="Globe_Icon" data-name="Globe Icon" transform="translate(105.713 0.376)">
          <g id="Grupo_1084889" data-name="Grupo 1084889" transform="translate(0 99.168)">
            <circle id="Elipse_9668" data-name="Elipse 9668" cx="8.817" cy="8.817" r="8.817" transform="translate(12.468 24.937) rotate(-135)" fill="none" stroke="#263238" stroke-linecap="round" stroke-linejoin="round" stroke-width="2"/>
            <ellipse id="Elipse_9669" data-name="Elipse 9669" cx="4.361" cy="8.817" rx="4.361" ry="8.817" transform="translate(8.109 3.65)" fill="none" stroke="#263238" stroke-linecap="round" stroke-linejoin="round" stroke-width="2"/>
            <path id="Trazado_829299" data-name="Trazado 829299" d="M183.508,279.23a8.818,8.818,0,0,1-12.218-.08" transform="translate(-164.97 -273.001)" fill="none" stroke="#263238" stroke-linecap="round" stroke-linejoin="round" stroke-width="2"/>
            <path id="Trazado_829300" data-name="Trazado 829300" d="M171,308.322a8.816,8.816,0,0,1,12.271.087" transform="translate(-164.624 -289.595)" fill="none" stroke="#263238" stroke-linecap="round" stroke-linejoin="round" stroke-width="2"/>
            <line id="Línea_3860" data-name="Línea 3860" x1="17.633" transform="translate(3.654 12.466)" fill="none" stroke="#263238" stroke-linecap="round" stroke-linejoin="round" stroke-width="2"/>
            <line id="Línea_3861" data-name="Línea 3861" y2="17.633" transform="translate(12.47 3.65)" fill="none" stroke="#263238" stroke-linecap="round" stroke-linejoin="round" stroke-width="2"/>
          </g>
          <g id="Grupo_1084890" data-name="Grupo 1084890" transform="translate(12.425)">
            <line id="Línea_3862" data-name="Línea 3862" y1="0.948" transform="translate(0 99.082)" fill="none" stroke="#263238" stroke-linecap="round" stroke-linejoin="round" stroke-width="1"/>
            <line id="Línea_3863" data-name="Línea 3863" y1="95.245" transform="translate(0 1.911)" fill="none" stroke="#263238" stroke-linecap="round" stroke-linejoin="round" stroke-width="1" stroke-dasharray="0 0 5.07 5.07"/>
            <line id="Línea_3864" data-name="Línea 3864" y1="0.948" transform="translate(0)" fill="none" stroke="#263238" stroke-linecap="round" stroke-linejoin="round" stroke-width="1"/>
          </g>
        </g>
        <g id="Ubication_Icon" data-name="Ubication Icon" transform="translate(126.887 0.376)">
          <path id="Trazado_829301" data-name="Trazado 829301" d="M140.919,129.68a5.48,5.48,0,0,1,5.479,5.479c0,3.026-5.479,9.215-5.479,9.215s-5.479-6.189-5.479-9.215A5.48,5.48,0,0,1,140.919,129.68Zm0,7.967a2.491,2.491,0,1,0-2.491-2.491A2.491,2.491,0,0,0,140.919,137.647Z" transform="translate(-135.44 -81.043)" fill="#263238" stroke="#263238" stroke-linecap="round" stroke-linejoin="round" stroke-width="1"/>
          <g id="Grupo_1084891" data-name="Grupo 1084891" transform="translate(5.479)">
            <line id="Línea_3865" data-name="Línea 3865" y1="0.948" transform="translate(0 47.689)" fill="none" stroke="#263238" stroke-linecap="round" stroke-linejoin="round" stroke-width="1"/>
            <line id="Línea_3866" data-name="Línea 3866" y1="43.935" transform="translate(0 1.885)" fill="none" stroke="#263238" stroke-linecap="round" stroke-linejoin="round" stroke-width="1" stroke-dasharray="0 0 4.93 4.93"/>
            <line id="Línea_3867" data-name="Línea 3867" y1="0.948" transform="translate(0)" fill="none" stroke="#263238" stroke-linecap="round" stroke-linejoin="round" stroke-width="1"/>
          </g>
        </g>
        <g id="Chat_Icon" data-name="Chat Icon" transform="translate(137.861 0.718)">
          <g id="Grupo_1084894" data-name="Grupo 1084894" transform="translate(0 93.239)">
            <path id="Trazado_829302" data-name="Trazado 829302" d="M81.854,248.2H92.711a3.205,3.205,0,0,1,3.2,3.2v4.945a3.205,3.205,0,0,1-3.2,3.2h0l-.106,4.964L89.2,259.553H81.854a3.205,3.205,0,0,1-3.2-3.2V251.4A3.205,3.205,0,0,1,81.854,248.2Z" transform="translate(-74.395 -248.2)" fill="#fff" stroke="#263238" stroke-linecap="round" stroke-linejoin="round" stroke-width="1"/>
            <g id="Grupo_1084893" data-name="Grupo 1084893" transform="translate(0 2.67)">
              <path id="Trazado_829303" data-name="Trazado 829303" d="M109.544,255.24h-8.923a2.633,2.633,0,0,0-2.632,2.632v4.065a2.633,2.633,0,0,0,2.632,2.632h0l.087,4.08,2.8-4.08h6.033a2.633,2.633,0,0,0,2.632-2.632v-4.065a2.633,2.633,0,0,0-2.632-2.632Z" transform="translate(-97.99 -255.24)" fill="#263238" stroke="#263238" stroke-linecap="round" stroke-linejoin="round" stroke-width="1"/>
              <g id="Grupo_1084892" data-name="Grupo 1084892" transform="translate(2.81 3.678)">
                <path id="Trazado_829304" data-name="Trazado 829304" d="M106.79,265.922a.982.982,0,1,1,.982.982A.982.982,0,0,1,106.79,265.922Z" transform="translate(-100.715 -264.94)" fill="#01c3fd"/>
                <ellipse id="Elipse_9670" data-name="Elipse 9670" cx="0.982" cy="0.982" rx="0.982" ry="0.982" transform="translate(3.037)" fill="#01c3fd"/>
                <ellipse id="Elipse_9671" data-name="Elipse 9671" cx="0.982" cy="0.982" rx="0.982" ry="0.982" transform="translate(0)" fill="#01c3fd"/>
              </g>
            </g>
          </g>
          <g id="Grupo_1084895" data-name="Grupo 1084895" transform="translate(9.643)">
            <line id="Línea_3868" data-name="Línea 3868" y1="0.948" transform="translate(0 88.825)" fill="none" stroke="#263238" stroke-linecap="round" stroke-linejoin="round" stroke-width="1"/>
            <line id="Línea_3869" data-name="Línea 3869" y1="85.071" transform="translate(0 1.885)" fill="none" stroke="#263238" stroke-linecap="round" stroke-linejoin="round" stroke-width="1" stroke-dasharray="0 0 4.93 4.93"/>
            <line id="Línea_3870" data-name="Línea 3870" y1="0.948" transform="translate(0)" fill="none" stroke="#263238" stroke-linecap="round" stroke-linejoin="round" stroke-width="1"/>
          </g>
        </g>
        <g id="Email_Icon" data-name="Email Icon" transform="translate(151.55 44.206)">
          <g id="Grupo_1084896" data-name="Grupo 1084896" transform="translate(0 18.429)">
            <rect id="Rectángulo_383586" data-name="Rectángulo 383586" width="19.173" height="11.206" fill="#fff" stroke="#263238" stroke-linecap="round" stroke-linejoin="round" stroke-width="1"/>
            <path id="Trazado_829305" data-name="Trazado 829305" d="M67.913,180.884l-9.435-8.714-9.738,8.714Z" transform="translate(-48.74 -169.679)" fill="#fff" stroke="#263238" stroke-linecap="round" stroke-linejoin="round" stroke-width="1"/>
            <path id="Trazado_829306" data-name="Trazado 829306" d="M67.913,165.6l-9.586,5.6-9.586-5.6Z" transform="translate(-48.74 -165.6)" fill="#fff" stroke="#263238" stroke-linecap="round" stroke-linejoin="round" stroke-width="1"/>
          </g>
          <g id="Grupo_1084897" data-name="Grupo 1084897" transform="translate(9.757 -41.781)">
            <line id="Línea_3871" data-name="Línea 3871" y1="0.948" transform="translate(0 58.751)" fill="none" stroke="#263238" stroke-linecap="round" stroke-linejoin="round" stroke-width="1"/>
            <line id="Línea_3872" data-name="Línea 3872" y1="55.133" transform="translate(0 1.839)" fill="none" stroke="#263238" stroke-linecap="round" stroke-linejoin="round" stroke-width="1" stroke-dasharray="0 0 4.69 4.69"/>
            <line id="Línea_3873" data-name="Línea 3873" y1="0.948" transform="translate(0)" fill="none" stroke="#263238" stroke-linecap="round" stroke-linejoin="round" stroke-width="1"/>
          </g>
        </g>
        <g id="Share_Icon" data-name="Share Icon" transform="translate(175.819 0.282)">
          <path id="Trazado_829308" data-name="Trazado 829308" d="M6.131,227.934a1.979,1.979,0,0,1,1.2.406l4.774-3.58a1.992,1.992,0,1,1,.656.876l-4.774,3.58a1.961,1.961,0,0,1,0,1.418l4.774,3.58a2,2,0,1,1-.656.876l-4.774-3.58a1.99,1.99,0,1,1-1.2-3.576Z" transform="translate(-4.14 -138.297)" fill="#263238"/>
          <g id="Grupo_1084899" data-name="Grupo 1084899" transform="translate(4.93 0)">
            <line id="Línea_3877" data-name="Línea 3877" y1="0.948" transform="translate(0 23.34)" fill="none" stroke="#263238" stroke-linecap="round" stroke-linejoin="round" stroke-width="1"/>
            <line id="Línea_3878" data-name="Línea 3878" y1="19.339" transform="translate(0 1.968)" fill="none" stroke="#263238" stroke-linecap="round" stroke-linejoin="round" stroke-width="1" stroke-dasharray="0 0 5.37 5.37"/>
            <line id="Línea_3879" data-name="Línea 3879" y1="0.948" transform="translate(0)" fill="none" stroke="#263238" stroke-linecap="round" stroke-linejoin="round" stroke-width="1"/>
          </g>
          <g id="Grupo_1084900" data-name="Grupo 1084900" transform="translate(4.93 24.288)">
            <line id="Línea_3880" data-name="Línea 3880" y1="0.948" transform="translate(0 60.183)" fill="none" stroke="#263238" stroke-linecap="round" stroke-linejoin="round" stroke-width="1"/>
            <line id="Línea_3881" data-name="Línea 3881" y1="56.384" transform="translate(0 1.9)" fill="none" stroke="#263238" stroke-linecap="round" stroke-linejoin="round" stroke-width="1" stroke-dasharray="0 0 5.02 5.02"/>
            <line id="Línea_3882" data-name="Línea 3882" y1="0.948" transform="translate(0)" fill="none" stroke="#263238" stroke-linecap="round" stroke-linejoin="round" stroke-width="1"/>
          </g>
        </g>
      </g>
      <g id="Plant" transform="translate(266.389 131.789)">
        <g id="Grupo_1084904" data-name="Grupo 1084904" transform="translate(0 0)">
          <g id="Grupo_1084901" data-name="Grupo 1084901">
            <path id="Trazado_829505" data-name="Trazado 829505" d="M5.343,0c2.951,0,5.343,6.274,5.343,14.014S8.293,28.028,5.343,28.028,0,21.754,0,14.014,2.392,0,5.343,0Z" transform="translate(27.739 6.77)" fill="#b0c5fd" stroke="#263238" stroke-width="1"/>
            <path id="Trazado_829506" data-name="Trazado 829506" d="M9.986,0c5.515,0,9.986,1.947,9.986,4.348S15.5,8.7,9.986,8.7,0,6.75,0,4.348,4.471,0,9.986,0Z" transform="translate(19.509 21.668) rotate(-107.63)" fill="#b0c5fd" stroke="#263238" stroke-width="1"/>
            <path id="Trazado_829309" data-name="Trazado 829309" d="M11.094,390.9c5.44-.923,9.522-3.586,9.122-5.954S15.08,381.4,9.645,382.327.123,385.913.523,388.281,5.659,391.82,11.094,390.9Z" transform="translate(44.593 -347.057)" fill="#b0c5fd" stroke="#263238" stroke-miterlimit="10" stroke-width="1"/>
            <path id="Trazado_829310" data-name="Trazado 829310" d="M102.074,354.782c4.542,4.5,9.91,6.459,11.987,4.361s.08-7.445-4.462-11.949-9.91-6.459-11.987-4.361-.08,7.445,4.462,11.949Z" transform="translate(-90.62 -323.898)" fill="#b0c5fd" stroke="#263238" stroke-miterlimit="10" stroke-width="1"/>
            <path id="Trazado_829311" data-name="Trazado 829311" d="M23.023,331.23c-4.39,6.371-5.7,13.091-2.924,15s8.591-1.7,12.982-8.073,5.7-13.091,2.924-15-8.591,1.7-12.982,8.073Z" transform="translate(19.728 -312.704)" fill="#b0c5fd" stroke="#263238" stroke-miterlimit="10" stroke-width="1"/>
            <line id="Línea_3883" data-name="Línea 3883" x1="0.417" y2="19.268" transform="translate(32.294 34.098)" fill="none" stroke="#263238" stroke-linecap="round" stroke-miterlimit="10" stroke-width="1"/>
            <line id="Línea_3884" data-name="Línea 3884" x1="0.497" y2="18.527" transform="translate(32.711 15.572)" fill="none" stroke="#263238" stroke-linecap="round" stroke-miterlimit="10" stroke-width="1"/>
            <line id="Línea_3885" data-name="Línea 3885" x2="0.038" y2="1.416" transform="translate(33.17 12.551)" fill="none" stroke="#263238" stroke-linecap="round" stroke-miterlimit="10" stroke-width="1"/>
            <path id="Trazado_829312" data-name="Trazado 829312" d="M65.075,376.47A53.765,53.765,0,0,0,59.8,396.686" transform="translate(-25.227 -343.851)" fill="none" stroke="#263238" stroke-linecap="round" stroke-miterlimit="10" stroke-width="1"/>
            <path id="Trazado_829313" data-name="Trazado 829313" d="M47.2,343.15a63.454,63.454,0,0,0-9.177,14.039" transform="translate(1.829 -324.57)" fill="none" stroke="#263238" stroke-linecap="round" stroke-miterlimit="10" stroke-width="1"/>
            <path id="Trazado_829314" data-name="Trazado 829314" d="M32.626,335.9s-.552.506-1.466,1.475" transform="translate(19.29 -320.375)" fill="none" stroke="#263238" stroke-linecap="round" stroke-miterlimit="10" stroke-width="1"/>
            <path id="Trazado_829315" data-name="Trazado 829315" d="M78.97,381.17a63.208,63.208,0,0,1,8.663,17.191" transform="translate(-55.862 -346.57)" fill="none" stroke="#263238" stroke-linecap="round" stroke-miterlimit="10" stroke-width="1"/>
            <path id="Trazado_829316" data-name="Trazado 829316" d="M99.53,364.41a50.69,50.69,0,0,1,6.147,7.062" transform="translate(-82.569 -336.872)" fill="none" stroke="#263238" stroke-linecap="round" stroke-miterlimit="10" stroke-width="1"/>
            <path id="Trazado_829317" data-name="Trazado 829317" d="M118.58,352.53a28.177,28.177,0,0,1,4.681,3.316" transform="translate(-108.179 -329.998)" fill="none" stroke="#263238" stroke-linecap="round" stroke-miterlimit="10" stroke-width="1"/>
            <path id="Trazado_829318" data-name="Trazado 829318" d="M78.15,344.24c2.958,9.316,6.931,23.077,8.785,35.027" transform="translate(-54.818 -325.201)" fill="none" stroke="#263238" stroke-linecap="round" stroke-miterlimit="10" stroke-width="1"/>
            <path id="Trazado_829319" data-name="Trazado 829319" d="M99,331.13c.527,1.572,1.138,3.438,1.8,5.524" transform="translate(-77.472 -317.614)" fill="none" stroke="#263238" stroke-linecap="round" stroke-miterlimit="10" stroke-width="1"/>
            <path id="Trazado_829320" data-name="Trazado 829320" d="M104.46,318.44s.518,1.424,1.348,3.872" transform="translate(-84.777 -310.271)" fill="none" stroke="#263238" stroke-linecap="round" stroke-miterlimit="10" stroke-width="1"/>
            <path id="Trazado_829321" data-name="Trazado 829321" d="M55.713,393.82a14.651,14.651,0,0,0-9.063,9.232" transform="translate(-10.324 -353.89)" fill="none" stroke="#263238" stroke-linecap="round" stroke-miterlimit="10" stroke-width="1"/>
            <path id="Trazado_829322" data-name="Trazado 829322" d="M37.27,390.52a23.248,23.248,0,0,0-6.83,1.39" transform="translate(14.949 -351.981)" fill="none" stroke="#263238" stroke-linecap="round" stroke-miterlimit="10" stroke-width="1"/>
            <path id="Trazado_829323" data-name="Trazado 829323" d="M21.684,390.595s-.657-.093-1.744-.135" transform="translate(34.959 -351.946)" fill="none" stroke="#263238" stroke-linecap="round" stroke-miterlimit="10" stroke-width="1"/>
            <path id="Trazado_829324" data-name="Trazado 829324" d="M116.655,390.9c-5.44-.923-9.522-3.586-9.122-5.954s5.136-3.539,10.572-2.617,9.522,3.586,9.122,5.954S122.09,391.82,116.655,390.9Z" transform="translate(-107.506 -347.057)" fill="#b0c5fd" stroke="#263238" stroke-miterlimit="10" stroke-width="1"/>
            <path id="Trazado_829325" data-name="Trazado 829325" d="M86.71,393.71a14.671,14.671,0,0,1,9.181,9.274" transform="translate(-67.381 -353.827)" fill="none" stroke="#263238" stroke-linecap="round" stroke-miterlimit="10" stroke-width="1"/>
            <path id="Trazado_829326" data-name="Trazado 829326" d="M108.5,390.46a23.753,23.753,0,0,1,7.285,1.374" transform="translate(-96.456 -351.946)" fill="none" stroke="#263238" stroke-linecap="round" stroke-miterlimit="10" stroke-width="1"/>
            <path id="Trazado_829327" data-name="Trazado 829327" d="M132.15,390.63s.434-.063,1.176-.11" transform="translate(-123.961 -351.981)" fill="none" stroke="#263238" stroke-linecap="round" stroke-miterlimit="10" stroke-width="1"/>
          </g>
          <g id="Grupo_1084903" data-name="Grupo 1084903" transform="translate(16.877 47.758)">
            <path id="Trazado_829328" data-name="Trazado 829328" d="M44.5,430.177a25.9,25.9,0,0,1-2.528-11.031,22.671,22.671,0,0,1,1.011-6.746H71.443a22.787,22.787,0,0,1,1.011,6.746,25.9,25.9,0,0,1-2.528,11.031Z" transform="translate(-41.97 -412.4)" fill="#263238"/>
            <g id="Grupo_1084902" data-name="Grupo 1084902" transform="translate(0.093 3.152)">
              <path id="Trazado_829329" data-name="Trazado 829329" d="M72.3,419.88c.08.518.143,1.045.19,1.576H42.19c.046-.531.11-1.058.19-1.576Z" transform="translate(-42.19 -419.88)" fill="#7a7a7a"/>
              <path id="Trazado_829330" data-name="Trazado 829330" d="M42.62,436.846c-.1-.522-.177-1.049-.24-1.576H72.515c-.063.527-.143,1.053-.24,1.576Z" transform="translate(-42.296 -428.785)" fill="#7a7a7a"/>
            </g>
            <path id="Trazado_829331" data-name="Trazado 829331" d="M44.88,426.936a1.226,1.226,0,1,0,1.226-1.226A1.225,1.225,0,0,0,44.88,426.936Z" transform="translate(-18.074 -420.102)" fill="#8c8c8c"/>
            <path id="Trazado_829332" data-name="Trazado 829332" d="M59.43,426.936a1.226,1.226,0,1,0,1.226-1.226A1.225,1.225,0,0,0,59.43,426.936Z" transform="translate(-38.755 -420.102)" fill="#8c8c8c"/>
            <path id="Trazado_829333" data-name="Trazado 829333" d="M73.98,426.936a1.226,1.226,0,1,0,1.226-1.226A1.225,1.225,0,0,0,73.98,426.936Z" transform="translate(-59.435 -420.102)" fill="#8c8c8c"/>
            <ellipse id="Elipse_9674" data-name="Elipse 9674" cx="1.226" cy="1.226" rx="1.226" ry="1.226" transform="translate(8.41 5.608)" fill="#8c8c8c"/>
            <path id="Trazado_829334" data-name="Trazado 829334" d="M103.09,426.936a1.226,1.226,0,1,0,1.226-1.226A1.225,1.225,0,0,0,103.09,426.936Z" transform="translate(-100.811 -420.102)" fill="#8c8c8c"/>
          </g>
        </g>
      </g>
      <g id="Device" transform="translate(5.776 29.577)">
        <g id="Grupo_1084907" data-name="Grupo 1084907" transform="translate(0 0.001)">
          <path id="Trazado_829335" data-name="Trazado 829335" d="M404.986,226.523h0a2.841,2.841,0,0,1,3.141,2.464L422.395,339.12l-9.282,1.044-10.65-110.537a2.853,2.853,0,0,1,2.515-3.1Z" transform="translate(-382.009 -226.505)" fill="#263238" stroke="#263238" stroke-linecap="round" stroke-linejoin="round" stroke-width="1"/>
          <path id="Trazado_829336" data-name="Trazado 829336" d="M245.191,226.523h0a2.841,2.841,0,0,0-3.141,2.464L227.782,339.12l9.282,1.044,10.65-110.537a2.853,2.853,0,0,0-2.515-3.1Z" transform="translate(-78.874 -226.505)" fill="#263238" stroke="#263238" stroke-linecap="round" stroke-linejoin="round" stroke-width="1"/>
          <g id="Grupo_1084906" data-name="Grupo 1084906" transform="translate(0 110.394)">
            <rect id="Rectángulo_383587" data-name="Rectángulo 383587" width="151.843" height="57.354" rx="4.59" transform="translate(3.214)" fill="#fff" stroke="#263238" stroke-linecap="round" stroke-linejoin="round" stroke-width="1"/>
            <rect id="Rectángulo_383588" data-name="Rectángulo 383588" width="158.271" height="43.217" rx="4.17" transform="translate(0 7.075)" fill="#fff" stroke="#263238" stroke-linecap="round" stroke-linejoin="round" stroke-width="1"/>
            <rect id="Rectángulo_383589" data-name="Rectángulo 383589" width="151.843" height="57.354" rx="4.59" transform="translate(82.846)" fill="#fff" stroke="#263238" stroke-linecap="round" stroke-linejoin="round" stroke-width="1"/>
            <rect id="Rectángulo_383590" data-name="Rectángulo 383590" width="158.271" height="43.217" rx="4.17" transform="translate(79.625 7.075)" fill="#fff" stroke="#263238" stroke-linecap="round" stroke-linejoin="round" stroke-width="1"/>
            <rect id="Rectángulo_383591" data-name="Rectángulo 383591" width="133.007" height="23.227" rx="5.01" transform="translate(91.576 16.549)" fill="#263238" stroke="#263238" stroke-linecap="round" stroke-linejoin="round" stroke-width="1"/>
            <g id="Grupo_1084905" data-name="Grupo 1084905" transform="translate(208.726 19.785)">
              <path id="Trazado_829337" data-name="Trazado 829337" d="M165.243,406.75a6.177,6.177,0,1,1-4.7.044" transform="translate(-156.77 -404.36)" fill="none" stroke="#01c3fd" stroke-linecap="round" stroke-miterlimit="10" stroke-width="3"/>
              <path id="Trazado_829507" data-name="Trazado 829507" d="M0,0V4.567" transform="translate(6.112)" fill="none" stroke="#01c3fd" stroke-linecap="round" stroke-width="3"/>
            </g>
          </g>
        </g>
      </g>
      <g id="Character" transform="translate(81.481 43.996)">
        <g id="Grupo_1084915" data-name="Grupo 1084915" transform="translate(0 0)">
          <g id="Grupo_1084908" data-name="Grupo 1084908" transform="translate(60.551 130.602)">
            <path id="Trazado_829338" data-name="Trazado 829338" d="M252.614,423.68s6.009,1.883,7.274,2.133,5.193-.772,5.31.765-2.258,2.89-6.031,4.405-7.914,2.766-10.723,2.633-2.273-5.663-2.427-6.6,6.59-3.332,6.59-3.332Z" transform="translate(-246.014 -423.68)" fill="#ccbcfe" stroke="#263238" stroke-linecap="round" stroke-linejoin="round" stroke-width="1"/>
            <path id="Trazado_829339" data-name="Trazado 829339" d="M256.723,430.52c4.707-1.942,6.892-2.949,7.848-3.42a.718.718,0,0,1,.154.383c.118,1.537-2.258,2.89-6.031,4.406s-7.914,2.766-10.723,2.633c-1.044-.052-1.633-.853-1.956-1.883A27.3,27.3,0,0,0,256.723,430.52Z" transform="translate(-245.541 -424.585)" fill="#fff" stroke="#263238" stroke-linecap="round" stroke-linejoin="round" stroke-width="1"/>
          </g>
          <path id="Trazado_829340" data-name="Trazado 829340" d="M290.987,346.585l1.574.861v2.287s32.825,5.472,33.252,8.333,1.728,45.424,1.728,45.424-5.3,5.7-6.436,4.413-1.434-5.413-1.434-5.413l-5.45-37.7s-36.973,3.4-42.548,1.677-8.3-9.157-8.443-12.592-.14-5.009-.14-5.009l25.176-3.435,2.721,1.147Z" transform="translate(-260.361 -272.38)" fill="#01c3fd" stroke="#263238" stroke-linecap="round" stroke-linejoin="round" stroke-width="1"/>
          <g id="Grupo_1084909" data-name="Grupo 1084909" transform="translate(32.45 131.713)">
            <path id="Trazado_829341" data-name="Trazado 829341" d="M292.559,425.617s.081.14.235.39a36.146,36.146,0,0,0,4.053,5.332c2.435,2.574,6.436,4.722,6.3,5.582s-2.861,1.427-12.158-1.427c-4.185-1.287-7.3-1.287-7.723-2.721s3-7.583,3-7.583Z" transform="translate(-283.225 -425.19)" fill="#ccbcfe" stroke="#263238" stroke-linecap="round" stroke-linejoin="round" stroke-width="1"/>
            <path id="Trazado_829342" data-name="Trazado 829342" d="M283.252,434.765a4.1,4.1,0,0,1,.368-2.015,56.979,56.979,0,0,0,9.789,3.589,63.686,63.686,0,0,0,9.275,1.831c.309.3.485.559.456.743-.14.861-2.861,1.427-12.158-1.427-4.185-1.287-7.3-1.287-7.723-2.721Z" transform="translate(-283.216 -427.19)" fill="#ccbcfe" stroke="#263238" stroke-linecap="round" stroke-linejoin="round" stroke-width="1"/>
          </g>
          <path id="Trazado_829343" data-name="Trazado 829343" d="M296.946,354.707s3.435-3,3.722-1.287.86,2.148.86,2.148,24.029,2.861,26.75,4.575,3.574,4.009,2,7.436-12.158,41.055-12.158,41.055a17.273,17.273,0,0,1-3.435,1.147c-1.574.287-4.862-1.287-4.862-1.287s.4-7.009,1.4-9.3,5.1-28.677,5.1-28.677-17.372.066-23.234.066-12.3-4.862-13.592-8.87-.714-4.862-.714-4.862" transform="translate(-275.329 -274.354)" fill="#01c3fd" stroke="#263238" stroke-linecap="round" stroke-linejoin="round" stroke-width="1"/>
          <line id="Línea_3887" data-name="Línea 3887" y1="4.501" x2="0.824" transform="translate(40.989 91.665)" fill="none" stroke="#263238" stroke-linecap="round" stroke-linejoin="round" stroke-width="1"/>
          <path id="Trazado_829344" data-name="Trazado 829344" d="M336.951,363.96a9.536,9.536,0,0,0-1.111,2.081" transform="translate(-323.277 -277.281)" fill="none" stroke="#263238" stroke-linecap="round" stroke-linejoin="round" stroke-width="1"/>
          <path id="Trazado_829345" data-name="Trazado 829345" d="M332.569,357.21a16.675,16.675,0,0,0-5.619,3.825" transform="translate(-312.357 -275.496)" fill="none" stroke="#263238" stroke-linecap="round" stroke-linejoin="round" stroke-width="1"/>
          <path id="Trazado_829346" data-name="Trazado 829346" d="M339.577,358.31a11.575,11.575,0,0,0-5.237,4.832" transform="translate(-324.8 -275.787)" fill="none" stroke="#263238" stroke-linecap="round" stroke-linejoin="round" stroke-width="1"/>
          <g id="Grupo_1084910" data-name="Grupo 1084910" transform="translate(0 30.237)">
            <path id="Trazado_829347" data-name="Trazado 829347" d="M340.511,296.083s.015.2.037.559c.125,2.015,2.361,5.031,1.03,8.8-3.038,8.561-2.42,14.85-2.148,13.018-.427,2.861,2.148,9.01,2.148,11.018s5.3,2.3-6.723,5.884-16.166,3.42-19.167,2.273-5.148-2.148-5.435-4.575,2.287-6.722,2.434-10.444.647-15.364,4.229-22.8,13.018-12.592,13.018-12.592l10.584,8.87Z" transform="translate(-310.23 -287.22)" fill="#a6eafe" stroke="#263238" stroke-linecap="round" stroke-linejoin="round" stroke-width="1"/>
            <path id="Trazado_829348" data-name="Trazado 829348" d="M340.6,336.882c-.625-.478-1.214-.956-1.743-1.442" transform="translate(-329.151 -299.975)" fill="none" stroke="#263238" stroke-linecap="round" stroke-linejoin="round" stroke-width="1"/>
            <path id="Trazado_829349" data-name="Trazado 829349" d="M331.15,346.435a95.278,95.278,0,0,1-12.79-6.825" transform="translate(-304.621 -301.078)" fill="none" stroke="#263238" stroke-linecap="round" stroke-linejoin="round" stroke-width="1"/>
            <path id="Trazado_829350" data-name="Trazado 829350" d="M317.42,347.77a29.408,29.408,0,0,0,5.31,2.037" transform="translate(-295.509 -303.236)" fill="none" stroke="#263238" stroke-linecap="round" stroke-linejoin="round" stroke-width="1"/>
            <path id="Trazado_829351" data-name="Trazado 829351" d="M326.32,346.06s.4.25,1.081.618" transform="translate(-306.726 -302.784)" fill="none" stroke="#263238" stroke-linecap="round" stroke-linejoin="round" stroke-width="1"/>
            <line id="Línea_3888" data-name="Línea 3888" x1="3.861" y1="4.722" transform="translate(13.747 19.645)" fill="none" stroke="#263238" stroke-linecap="round" stroke-linejoin="round" stroke-width="1"/>
          </g>
          <g id="Grupo_1084911" data-name="Grupo 1084911" transform="translate(15.189 6.151)">
            <path id="Trazado_829352" data-name="Trazado 829352" d="M317.533,255.7a20.755,20.755,0,0,1,2.582,3.31c.625,1.236.713,2.126,1.8,2.913s3.266.287,3.214,1.559a4.452,4.452,0,0,1-1.383,2.486s1.074,7.767.662,9-5.958,1.464-5.958,1.464l-2.832,9.223-10-6.774-.265-2.685a42.7,42.7,0,0,0-3.523-6.98c-1.486-2.523-.824-9.194,2.758-12.062s8.341-2.574,9.8-2.677a5.63,5.63,0,0,1,3.141,1.236Z" transform="translate(-301.089 -254.472)" fill="#fff" stroke="#263238" stroke-linecap="round" stroke-linejoin="round" stroke-width="1"/>
            <path id="Trazado_829353" data-name="Trazado 829353" d="M307.6,272.17a3.543,3.543,0,0,1-3.7.839" transform="translate(-285.624 -259.154)" fill="none" stroke="#263238" stroke-linecap="round" stroke-linejoin="round" stroke-width="1"/>
            <path id="Trazado_829354" data-name="Trazado 829354" d="M308.491,265.383c.243.566.625.941.853.846s.213-.633-.029-1.2-.625-.941-.853-.846S308.248,264.817,308.491,265.383Z" transform="translate(-290.767 -257.037)" fill="#263238"/>
            <path id="Trazado_829355" data-name="Trazado 829355" d="M311.631,261.987a2.022,2.022,0,0,0-2.471,1.706" transform="translate(-293.525 -256.451)" fill="none" stroke="#263238" stroke-linecap="round" stroke-linejoin="round" stroke-width="1"/>
            <path id="Trazado_829356" data-name="Trazado 829356" d="M313.634,284.272l-3.464-.132,2.368,2.9Z" transform="translate(-296.27 -262.32)" fill="#263238" stroke="#263238" stroke-linecap="round" stroke-linejoin="round" stroke-width="1"/>
            <path id="Trazado_829357" data-name="Trazado 829357" d="M317.67,279.279l1.5-.449.89,1.4" transform="translate(-308.213 -260.915)" fill="none" stroke="#263238" stroke-linecap="round" stroke-linejoin="round" stroke-width="1"/>
          </g>
          <path id="Trazado_829358" data-name="Trazado 829358" d="M319.147,250.074s-2.162-2.486.434-3.648,11.43.963,10.473,4.84-9.194,4.369-9.981,4.435,1.574.9.927,2.081-2.229,1.765-2.287,3.038,1.478,2.986.728,3.722-1.912-.368-2.662-.655-2.8,1.78-1.184,4.384,2.707,2.361,2.707,2.361a2.449,2.449,0,0,1-.743,2.8c-1.442,1.243-4.376.875-5.112-.331s-2.008-2.295-4.656-4.9-3.906-9.186-2.074-13.717,10.106-6.406,13.415-4.413Z" transform="translate(-293.662 -246.109)" fill="#263238" stroke="#263238" stroke-linecap="round" stroke-linejoin="round" stroke-width="1"/>
          <path id="Trazado_829359" data-name="Trazado 829359" d="M311.566,284.34,325.2,294.379l-.78,4.325-15.342-11.3Z" transform="translate(-291.847 -256.221)" fill="#fff" stroke="#263238" stroke-linecap="round" stroke-linejoin="round" stroke-width="1"/>
          <g id="Grupo_1084912" data-name="Grupo 1084912" transform="translate(29.744 61.775)">
            <path id="Trazado_829360" data-name="Trazado 829360" d="M299.406,360.841,275.4,355.582l5.6-3.332,22.778,5.082Z" transform="translate(-275.4 -335.959)" fill="#fff" stroke="#263238" stroke-linecap="round" stroke-linejoin="round" stroke-width="1"/>
            <path id="Trazado_829361" data-name="Trazado 829361" d="M271.317,332.2,260.63,354.982l4.376-3.508L275.869,330.1Z" transform="translate(-236.623 -330.1)" fill="#263238" stroke="#263238" stroke-linecap="round" stroke-linejoin="round" stroke-width="1"/>
          </g>
          <g id="Grupo_1084913" data-name="Grupo 1084913" transform="translate(29.074 52.133)">
            <path id="Trazado_829362" data-name="Trazado 829362" d="M283.089,350.76l5.531,1.427,3.435,4.957a1.359,1.359,0,0,1-1.052.382,8.626,8.626,0,0,1-2.1-1.427l-4.008-1.052s2.1,1.243,2.1,1.522-.383.382-1.339.287-3.244-2.192-3.244-2.192l-1.522-1.9,2.192-2Z" transform="translate(-267.041 -325.922)" fill="#fff" stroke="#263238" stroke-linecap="round" stroke-linejoin="round" stroke-width="1"/>
            <path id="Trazado_829363" data-name="Trazado 829363" d="M294.191,316.99l2.824,12.915,12.114,11.922-2.861,2.67-10.062-4.582-.691-1.809-2.434-10.819Z" transform="translate(-293.08 -316.99)" fill="#fff" stroke="#263238" stroke-linecap="round" stroke-linejoin="round" stroke-width="1"/>
          </g>
          <g id="Grupo_1084914" data-name="Grupo 1084914" transform="translate(14.894 34.028)">
            <path id="Trazado_829364" data-name="Trazado 829364" d="M271.93,347.215s3.861.574,5.3.574a26.24,26.24,0,0,1,5.435.574c.574.287,3.288,2,3.148,3.288s-2.574.14-2.574.14a18.218,18.218,0,0,1-1.861,3.288c-1.147,1.574-1.714,1-4.009.14a31.422,31.422,0,0,1-5.722-3.435l-2-1.861,2.287-2.721Z" transform="translate(-238.348 -306.877)" fill="#fff" stroke="#263238" stroke-linecap="round" stroke-linejoin="round" stroke-width="1"/>
            <path id="Trazado_829365" data-name="Trazado 829365" d="M287.86,292.5s5.862-.861,8.009,2a27.681,27.681,0,0,1,4.722,11.584c.434,3.714,3.148,11.157,3.148,11.157l18.189,15.144L318.78,337.1s-22.05-10.275-22.624-11-7.87-19.6-7.87-19.6" transform="translate(-287.86 -292.375)" fill="#a6eafe" stroke="#263238" stroke-linecap="round" stroke-linejoin="round" stroke-width="1"/>
          </g>
        </g>
      </g>
      <g id="Floor-2" data-name="Floor" transform="translate(0 191.329)">
        <line id="Línea_3889" data-name="Línea 3889" x1="193.866" fill="none" stroke="#263238" stroke-linecap="round" stroke-linejoin="round" stroke-width="1"/>
      </g>
    </g>
  </g>
</svg>
