<svg xmlns="http://www.w3.org/2000/svg" xmlns:xlink="http://www.w3.org/1999/xlink" width="400.568" height="90.376" viewBox="0 0 400.568 90.376">
  <defs>
    <clipPath id="clip-path">
      <path id="Trazado_830762" data-name="Trazado 830762" d="M0,0H400.568V90.376H0Z" transform="translate(972.967 523.841)" fill="#12263f" opacity="0.37"/>
    </clipPath>
    <filter id="Trazado_830748" x="150.597" y="0.046" width="126.589" height="85.463" filterUnits="userSpaceOnUse">
      <feOffset dy="3" input="SourceAlpha"/>
      <feGaussianBlur stdDeviation="3" result="blur"/>
      <feFlood flood-opacity="0.161"/>
      <feComposite operator="in" in2="blur"/>
      <feComposite in="SourceGraphic"/>
    </filter>
    <filter id="Trazado_831293" x="10.033" y="-6" width="93.369" height="96.159" filterUnits="userSpaceOnUse">
      <feOffset dy="3" input="SourceAlpha"/>
      <feGaussianBlur stdDeviation="3" result="blur-2"/>
      <feFlood flood-opacity="0.161"/>
      <feComposite operator="in" in2="blur-2"/>
      <feComposite in="SourceGraphic"/>
    </filter>
    <filter id="Trazado_830747" x="76.698" y="15.284" width="126.589" height="80.634" filterUnits="userSpaceOnUse">
      <feOffset dy="3" input="SourceAlpha"/>
      <feGaussianBlur stdDeviation="3" result="blur-3"/>
      <feFlood flood-opacity="0.161"/>
      <feComposite operator="in" in2="blur-3"/>
      <feComposite in="SourceGraphic"/>
    </filter>
    <filter id="Rectángulo_383629" x="301.033" y="8.288" width="102.251" height="53.607" filterUnits="userSpaceOnUse">
      <feOffset dy="3" input="SourceAlpha"/>
      <feGaussianBlur stdDeviation="3" result="blur-4"/>
      <feFlood flood-opacity="0.161"/>
      <feComposite operator="in" in2="blur-4"/>
      <feComposite in="SourceGraphic"/>
    </filter>
    <filter id="Trazado_830749" x="229.502" y="26.459" width="125.062" height="69.636" filterUnits="userSpaceOnUse">
      <feOffset dy="3" input="SourceAlpha"/>
      <feGaussianBlur stdDeviation="3" result="blur-5"/>
      <feFlood flood-opacity="0.161"/>
      <feComposite operator="in" in2="blur-5"/>
      <feComposite in="SourceGraphic"/>
    </filter>
    <clipPath id="clip-path-2">
      <rect id="Rectángulo_383673" data-name="Rectángulo 383673" width="97.621" height="16.087" fill="none"/>
    </clipPath>
    <clipPath id="clip-path-3">
      <rect id="Rectángulo_383674" data-name="Rectángulo 383674" width="10.376" height="7.681" transform="translate(0 0)" fill="none"/>
    </clipPath>
  </defs>
  <g id="Enmascarar_grupo_1059127" data-name="Enmascarar grupo 1059127" transform="translate(-972.967 -523.841)" clip-path="url(#clip-path)">
    <path id="Trazado_830746" data-name="Trazado 830746" d="M0,0H400.568V69.092H0Z" transform="translate(972.967 545.125)" fill="#f2f9fc"/>
    <g id="Grupo_1085026" data-name="Grupo 1085026" transform="translate(1132.564 528.491)">
      <g transform="matrix(1, 0, 0, 1, -159.6, -4.65)" filter="url(#Trazado_830748)">
        <path id="Trazado_830748-2" data-name="Trazado 830748" d="M0,0H108.588V67.463H0Z" transform="translate(159.6 6.05)" fill="#c4e6ff"/>
      </g>
      <path id="Trazado_831295" data-name="Trazado 831295" d="M0,0H108.588V62.634H0Z" transform="translate(0 1.395)" fill="#fff"/>
      <rect id="Rectángulo_383640" data-name="Rectángulo 383640" width="25.384" height="62.634" transform="translate(0 1.395)" fill="#ccc"/>
      <g id="Grupo_1084983" data-name="Grupo 1084983">
        <rect id="Rectángulo_383641" data-name="Rectángulo 383641" width="108.588" height="17.571" fill="#e0e0e0"/>
        <g id="Grupo_1084982" data-name="Grupo 1084982" transform="translate(3.356 2.279)">
          <path id="Trazado_830597" data-name="Trazado 830597" d="M235.143,72.356A1.046,1.046,0,1,1,234.1,71.31,1.047,1.047,0,0,1,235.143,72.356Z" transform="translate(-233.05 -71.31)" fill="#e0e0e0"/>
          <circle id="Elipse_9697" data-name="Elipse 9697" cx="1.046" cy="1.046" r="1.046" transform="translate(4.697)" fill="#e0e0e0"/>
          <path id="Trazado_830598" data-name="Trazado 830598" d="M247.273,72.356a1.046,1.046,0,1,1-1.046-1.046A1.047,1.047,0,0,1,247.273,72.356Z" transform="translate(-235.778 -71.31)" fill="#e0e0e0"/>
        </g>
      </g>
      <path id="Trazado_830599" data-name="Trazado 830599" d="M353.318,81.616h-22.8a3.027,3.027,0,0,1-3.023-3.023h0a3.027,3.027,0,0,1,3.023-3.023h22.8a3.027,3.027,0,0,1,3.023,3.023h0A3.027,3.027,0,0,1,353.318,81.616Z" transform="translate(-250.938 -69.989)" fill="#fff" stroke="#969696" stroke-miterlimit="10" stroke-width="0.97"/>
      <rect id="Rectángulo_383642" data-name="Rectángulo 383642" width="6.511" height="4.65" transform="translate(63.998 6.046)" fill="#b0abab" stroke="#969696" stroke-miterlimit="10" stroke-width="0.97"/>
      <rect id="Rectángulo_383643" data-name="Rectángulo 383643" width="6.511" height="4.65" transform="translate(51.039 6.046)" fill="#b0abab" stroke="#969696" stroke-miterlimit="10" stroke-width="0.97"/>
      <rect id="Rectángulo_383644" data-name="Rectángulo 383644" width="6.511" height="4.65" transform="translate(2.589 6.046)" fill="#b0abab" stroke="#969696" stroke-miterlimit="10" stroke-width="0.97"/>
      <rect id="Rectángulo_383645" data-name="Rectángulo 383645" width="6.511" height="4.65" transform="translate(9.564 6.046)" fill="#b0abab" stroke="#969696" stroke-miterlimit="10" stroke-width="0.97"/>
      <g id="Grupo_1084984" data-name="Grupo 1084984" transform="translate(29.406 22.896)">
        <path id="Trazado_830600" data-name="Trazado 830600" d="M267.249,99.56h9.735a.6.6,0,0,1,.6.6V106.3H266.66v-6.146a.6.6,0,0,1,.6-.6Z" transform="translate(-266.66 -98.281)" fill="#1e5af9"/>
        <rect id="Rectángulo_383646" data-name="Rectángulo 383646" width="4.86" height="2.535" rx="0.38" transform="translate(1.573)" fill="#1e5af9"/>
      </g>
      <g id="Grupo_1084985" data-name="Grupo 1084985" transform="translate(52.783 22.896)">
        <path id="Trazado_830601" data-name="Trazado 830601" d="M297.409,99.56h9.735a.6.6,0,0,1,.6.6V106.3H296.82v-6.146a.6.6,0,0,1,.6-.6Z" transform="translate(-296.82 -98.281)" fill="#1e5af9"/>
        <path id="Trazado_830602" data-name="Trazado 830602" d="M299.145,97.91h4.278a.294.294,0,0,1,.295.295v1.945a.294.294,0,0,1-.295.295h-4.278a.294.294,0,0,1-.295-.295V98.2A.294.294,0,0,1,299.145,97.91Z" transform="translate(-297.277 -97.91)" fill="#1e5af9"/>
      </g>
      <g id="Grupo_1084986" data-name="Grupo 1084986" transform="translate(76.159 22.896)">
        <path id="Trazado_830603" data-name="Trazado 830603" d="M327.569,99.56H337.3a.6.6,0,0,1,.6.6V106.3H326.98v-6.146a.6.6,0,0,1,.6-.6Z" transform="translate(-326.98 -98.281)" fill="#6e40fc"/>
        <path id="Trazado_830604" data-name="Trazado 830604" d="M329.3,97.91h4.278a.294.294,0,0,1,.295.295v1.945a.294.294,0,0,1-.295.295H329.3a.294.294,0,0,1-.295-.295V98.2A.294.294,0,0,1,329.3,97.91Z" transform="translate(-327.437 -97.91)" fill="#6e40fc"/>
      </g>
      <g id="Grupo_1085033" data-name="Grupo 1085033" transform="translate(76.159 38.25)">
        <path id="Trazado_830603-2" data-name="Trazado 830603" d="M327.569,99.56H337.3a.6.6,0,0,1,.6.6V106.3H326.98v-6.146a.6.6,0,0,1,.6-.6Z" transform="translate(-326.98 -98.281)" fill="#6e40fc"/>
        <path id="Trazado_830604-2" data-name="Trazado 830604" d="M329.3,97.91h4.278a.294.294,0,0,1,.295.295v1.945a.294.294,0,0,1-.295.295H329.3a.294.294,0,0,1-.295-.295V98.2A.294.294,0,0,1,329.3,97.91Z" transform="translate(-327.437 -97.91)" fill="#6e40fc"/>
      </g>
      <g id="Grupo_1084987" data-name="Grupo 1084987" transform="translate(29.406 38.25)">
        <path id="Trazado_830605" data-name="Trazado 830605" d="M267.249,119.37h9.735a.6.6,0,0,1,.6.6v6.146H266.66v-6.146a.6.6,0,0,1,.6-.6Z" transform="translate(-266.66 -118.091)" fill="#1e5af9"/>
        <rect id="Rectángulo_383647" data-name="Rectángulo 383647" width="4.86" height="2.535" rx="0.38" transform="translate(1.573)" fill="#1e5af9"/>
      </g>
      <g id="Grupo_1084988" data-name="Grupo 1084988" transform="translate(52.783 38.25)">
        <path id="Trazado_830606" data-name="Trazado 830606" d="M297.409,119.37h9.735a.6.6,0,0,1,.6.6v6.146H296.82v-6.146a.6.6,0,0,1,.6-.6Z" transform="translate(-296.82 -118.091)" fill="#1e5af9"/>
        <rect id="Rectángulo_383648" data-name="Rectángulo 383648" width="4.86" height="2.535" rx="0.38" transform="translate(1.581)" fill="#1e5af9"/>
      </g>
      <g id="Grupo_1084989" data-name="Grupo 1084989" transform="translate(82.143 65.417)">
        <path id="Trazado_830607" data-name="Trazado 830607" d="M354.418,154.044H335.227a.528.528,0,0,1-.527-.527h0a.528.528,0,0,1,.527-.527h19.191a.528.528,0,0,1,.527.527h0A.528.528,0,0,1,354.418,154.044Z" transform="translate(-334.7 -152.82)" fill="#c4c4c4"/>
        <path id="Trazado_830608" data-name="Trazado 830608" d="M340.43,153.46a.69.69,0,1,1-.69-.69A.691.691,0,0,1,340.43,153.46Z" transform="translate(-335.678 -152.77)" fill="#263238"/>
      </g>
    </g>
    <g id="Grupo_1085028" data-name="Grupo 1085028" transform="translate(992 523.841)">
      <g transform="matrix(1, 0, 0, 1, -19.03, 0)" filter="url(#Trazado_831293)">
        <path id="Trazado_831293-2" data-name="Trazado 831293" d="M0,0H75.369V78.159H0Z" transform="translate(19.03)" fill="#fff"/>
      </g>
      <path id="Trazado_831294" data-name="Trazado 831294" d="M0,0H75.369V6.255H0Z" fill="#e0e0e0"/>
      <g id="Grupo_1084994" data-name="Grupo 1084994" transform="translate(4.193 10.394)">
        <path id="Trazado_830615" data-name="Trazado 830615" d="M102.924,82.2h-2.2a.543.543,0,1,1,0-1.085h2.2a.543.543,0,1,1,0,1.085Zm.543,1.969a.539.539,0,0,0-.543-.543h-2.2a.543.543,0,1,0,0,1.085h2.2A.539.539,0,0,0,103.466,84.17Zm0,2.519a.539.539,0,0,0-.543-.543h-2.2a.543.543,0,1,0,0,1.085h2.2A.539.539,0,0,0,103.466,86.689Zm0,2.519a.539.539,0,0,0-.543-.543h-2.2a.543.543,0,1,0,0,1.085h2.2A.539.539,0,0,0,103.466,89.208Zm0,2.519a.539.539,0,0,0-.543-.543h-2.2a.543.543,0,1,0,0,1.085h2.2A.539.539,0,0,0,103.466,91.727Zm0,2.519a.539.539,0,0,0-.543-.543h-2.2a.543.543,0,1,0,0,1.085h2.2A.539.539,0,0,0,103.466,94.246Zm0,2.519a.539.539,0,0,0-.543-.543h-2.2a.543.543,0,1,0,0,1.085h2.2A.539.539,0,0,0,103.466,96.765Zm0,2.519a.539.539,0,0,0-.543-.543h-2.2a.543.543,0,1,0,0,1.085h2.2A.539.539,0,0,0,103.466,99.284Zm8.231-17.61a.539.539,0,0,0-.543-.543h-5.774a.543.543,0,1,0,0,1.085h5.774A.539.539,0,0,0,111.7,81.675Zm0,2.519a.539.539,0,0,0-.543-.543h-5.774a.543.543,0,1,0,0,1.085h5.774A.539.539,0,0,0,111.7,84.194Zm0,2.519a.539.539,0,0,0-.543-.543h-5.774a.543.543,0,1,0,0,1.085h5.774A.539.539,0,0,0,111.7,86.713Zm0,2.519a.539.539,0,0,0-.543-.543h-5.774a.543.543,0,1,0,0,1.085h5.774A.539.539,0,0,0,111.7,89.232Zm0,2.519a.539.539,0,0,0-.543-.543h-5.774a.543.543,0,1,0,0,1.085h5.774A.539.539,0,0,0,111.7,91.751Zm6.914,2.519a.539.539,0,0,0-.543-.543h-5.774a.543.543,0,1,0,0,1.085h5.774A.539.539,0,0,0,118.611,94.27Zm0,2.519a.539.539,0,0,0-.543-.543h-5.774a.543.543,0,1,0,0,1.085h5.774A.539.539,0,0,0,118.611,96.789Zm0,2.519a.539.539,0,0,0-.543-.543h-5.774a.543.543,0,1,0,0,1.085h5.774A.539.539,0,0,0,118.611,99.308ZM114.24,81.7a.628.628,0,1,0-.628.628A.625.625,0,0,0,114.24,81.7Zm1.883,0a.628.628,0,1,0-.628.628A.625.625,0,0,0,116.123,81.7Zm1.883,0a.628.628,0,1,0-.628.628A.625.625,0,0,0,118.007,81.7Zm1.883,0a.628.628,0,1,0-.628.628A.625.625,0,0,0,119.89,81.7Zm1.883,0a.628.628,0,1,0-.628.628A.625.625,0,0,0,121.774,81.7Zm1.883,0a.628.628,0,1,0-.628.628A.625.625,0,0,0,123.657,81.7Zm-9.433,5.03a.628.628,0,1,0-.628.628A.625.625,0,0,0,114.224,86.728Zm1.883,0a.628.628,0,1,0-.628.628A.625.625,0,0,0,116.108,86.728Zm1.883,0a.628.628,0,1,0-.628.628A.625.625,0,0,0,117.991,86.728Zm1.883,0a.628.628,0,1,0-.628.628A.625.625,0,0,0,119.875,86.728Zm1.883,0a.628.628,0,1,0-.628.628A.625.625,0,0,0,121.758,86.728Zm1.883,0a.628.628,0,1,0-.628.628A.625.625,0,0,0,123.642,86.728Zm-2.984,7.231a.628.628,0,1,0-.628.628A.625.625,0,0,0,120.658,93.96Zm1.883,0a.628.628,0,1,0-.628.628A.625.625,0,0,0,122.541,93.96Zm1.883,0a.628.628,0,1,0-.628.628A.625.625,0,0,0,124.424,93.96Zm1.883,0a.628.628,0,1,0-.628.628A.625.625,0,0,0,126.308,93.96Zm1.883,0a.628.628,0,1,0-.628.628A.625.625,0,0,0,128.191,93.96Zm1.883,0a.628.628,0,1,0-.628.628A.625.625,0,0,0,130.075,93.96Zm-9.433,5.185a.628.628,0,1,0-.628.628A.625.625,0,0,0,120.642,99.145Zm1.883,0a.628.628,0,1,0-.628.628A.625.625,0,0,0,122.525,99.145Zm1.883,0a.628.628,0,1,0-.628.628A.625.625,0,0,0,124.409,99.145Zm1.883,0a.628.628,0,1,0-.628.628A.625.625,0,0,0,126.292,99.145Zm1.883,0a.628.628,0,1,0-.628.628A.625.625,0,0,0,128.176,99.145Zm1.883,0a.628.628,0,1,0-.628.628A.625.625,0,0,0,130.059,99.145Z" transform="translate(-100.18 -81.07)" fill="#727997"/>
        <path id="Trazado_830616" data-name="Trazado 830616" d="M102.924,108.172h-2.2a.543.543,0,1,1,0-1.085h2.2a.543.543,0,1,1,0,1.085Zm.543,1.969a.539.539,0,0,0-.543-.543h-2.2a.543.543,0,1,0,0,1.085h2.2A.539.539,0,0,0,103.466,110.14Zm0,2.519a.539.539,0,0,0-.543-.543h-2.2a.543.543,0,1,0,0,1.085h2.2A.539.539,0,0,0,103.466,112.659Zm0,2.519a.539.539,0,0,0-.543-.543h-2.2a.543.543,0,0,0,0,1.085h2.2A.539.539,0,0,0,103.466,115.178Zm0,2.519a.539.539,0,0,0-.543-.543h-2.2a.543.543,0,1,0,0,1.085h2.2A.539.539,0,0,0,103.466,117.7Zm0,2.519a.539.539,0,0,0-.543-.543h-2.2a.543.543,0,1,0,0,1.085h2.2A.539.539,0,0,0,103.466,120.216Zm0,2.519a.539.539,0,0,0-.543-.543h-2.2a.543.543,0,1,0,0,1.085h2.2A.539.539,0,0,0,103.466,122.735Zm0,2.519a.539.539,0,0,0-.543-.543h-2.2a.543.543,0,1,0,0,1.085h2.2A.539.539,0,0,0,103.466,125.254Zm8.231-17.61a.539.539,0,0,0-.543-.543h-5.774a.543.543,0,1,0,0,1.085h5.774A.539.539,0,0,0,111.7,107.645Zm0,2.519a.539.539,0,0,0-.543-.543h-5.774a.543.543,0,1,0,0,1.085h5.774A.539.539,0,0,0,111.7,110.164Zm0,2.519a.539.539,0,0,0-.543-.543h-5.774a.543.543,0,1,0,0,1.085h5.774A.539.539,0,0,0,111.7,112.683Zm0,2.519a.539.539,0,0,0-.543-.543h-5.774a.543.543,0,1,0,0,1.085h5.774A.539.539,0,0,0,111.7,115.2Zm0,2.519a.539.539,0,0,0-.543-.543h-5.774a.543.543,0,1,0,0,1.085h5.774A.539.539,0,0,0,111.7,117.721Zm6.914,2.519a.539.539,0,0,0-.543-.543h-5.774a.543.543,0,0,0,0,1.085h5.774A.539.539,0,0,0,118.611,120.24Zm0,2.519a.539.539,0,0,0-.543-.543h-5.774a.543.543,0,1,0,0,1.085h5.774A.539.539,0,0,0,118.611,122.759Zm0,2.519a.539.539,0,0,0-.543-.543h-5.774a.543.543,0,1,0,0,1.085h5.774A.539.539,0,0,0,118.611,125.278Zm-4.371-17.61a.628.628,0,1,0-.628.628A.625.625,0,0,0,114.24,107.668Zm1.883,0a.628.628,0,1,0-.628.628A.625.625,0,0,0,116.123,107.668Zm1.883,0a.628.628,0,1,0-.628.628A.625.625,0,0,0,118.007,107.668Zm1.883,0a.628.628,0,1,0-.628.628A.625.625,0,0,0,119.89,107.668Zm1.883,0a.628.628,0,1,0-.628.628A.625.625,0,0,0,121.774,107.668Zm1.883,0a.628.628,0,1,0-.628.628A.625.625,0,0,0,123.657,107.668Zm-9.433,5.03a.628.628,0,1,0-.628.628A.625.625,0,0,0,114.224,112.7Zm1.883,0a.628.628,0,1,0-.628.628A.625.625,0,0,0,116.108,112.7Zm1.883,0a.628.628,0,1,0-.628.628A.625.625,0,0,0,117.991,112.7Zm1.883,0a.628.628,0,1,0-.628.628A.625.625,0,0,0,119.875,112.7Zm1.883,0a.628.628,0,1,0-.628.628A.625.625,0,0,0,121.758,112.7Zm1.883,0a.628.628,0,1,0-.628.628A.625.625,0,0,0,123.642,112.7Zm-2.984,7.231a.628.628,0,1,0-.628.628A.625.625,0,0,0,120.658,119.93Zm1.883,0a.628.628,0,1,0-.628.628A.625.625,0,0,0,122.541,119.93Zm1.883,0a.628.628,0,1,0-.628.628A.625.625,0,0,0,124.424,119.93Zm1.883,0a.628.628,0,1,0-.628.628A.625.625,0,0,0,126.308,119.93Zm1.883,0a.628.628,0,1,0-.628.628A.625.625,0,0,0,128.191,119.93Zm1.883,0a.628.628,0,1,0-.628.628A.625.625,0,0,0,130.075,119.93Zm-9.433,5.185a.628.628,0,1,0-.628.628A.625.625,0,0,0,120.642,125.115Zm1.883,0a.628.628,0,1,0-.628.628A.625.625,0,0,0,122.525,125.115Zm1.883,0a.628.628,0,1,0-.628.628A.625.625,0,0,0,124.409,125.115Zm1.883,0a.628.628,0,1,0-.628.628A.625.625,0,0,0,126.292,125.115Zm1.883,0a.628.628,0,1,0-.628.628A.625.625,0,0,0,128.176,125.115Zm1.883,0a.628.628,0,1,0-.628.628A.625.625,0,0,0,130.059,125.115Z" transform="translate(-100.18 -86.911)" fill="#727997"/>
        <path id="Trazado_830617" data-name="Trazado 830617" d="M102.924,134.772h-2.2a.543.543,0,1,1,0-1.085h2.2a.543.543,0,1,1,0,1.085Zm.543,1.969a.539.539,0,0,0-.543-.543h-2.2a.543.543,0,1,0,0,1.085h2.2A.539.539,0,0,0,103.466,136.74Zm0,2.519a.539.539,0,0,0-.543-.543h-2.2a.543.543,0,1,0,0,1.085h2.2A.539.539,0,0,0,103.466,139.259Zm0,2.519a.539.539,0,0,0-.543-.543h-2.2a.543.543,0,1,0,0,1.085h2.2A.539.539,0,0,0,103.466,141.778Zm0,2.519a.539.539,0,0,0-.543-.543h-2.2a.543.543,0,0,0,0,1.085h2.2A.539.539,0,0,0,103.466,144.3Zm0,2.519a.539.539,0,0,0-.543-.543h-2.2a.543.543,0,0,0,0,1.085h2.2A.539.539,0,0,0,103.466,146.816Zm0,2.519a.539.539,0,0,0-.543-.543h-2.2a.543.543,0,1,0,0,1.085h2.2A.539.539,0,0,0,103.466,149.335Zm0,2.519a.539.539,0,0,0-.543-.543h-2.2a.543.543,0,1,0,0,1.085h2.2A.539.539,0,0,0,103.466,151.854Zm8.231-17.61a.539.539,0,0,0-.543-.543h-5.774a.543.543,0,1,0,0,1.085h5.774A.539.539,0,0,0,111.7,134.245Zm0,2.519a.539.539,0,0,0-.543-.543h-5.774a.543.543,0,1,0,0,1.085h5.774A.539.539,0,0,0,111.7,136.764Zm0,2.519a.539.539,0,0,0-.543-.543h-5.774a.543.543,0,1,0,0,1.085h5.774A.539.539,0,0,0,111.7,139.283Zm0,2.519a.539.539,0,0,0-.543-.543h-5.774a.543.543,0,1,0,0,1.085h5.774A.539.539,0,0,0,111.7,141.8Zm0,2.519a.539.539,0,0,0-.543-.543h-5.774a.543.543,0,1,0,0,1.085h5.774A.539.539,0,0,0,111.7,144.321Zm6.914,2.519a.539.539,0,0,0-.543-.543h-5.774a.543.543,0,1,0,0,1.085h5.774A.539.539,0,0,0,118.611,146.84Zm0,2.519a.539.539,0,0,0-.543-.543h-5.774a.543.543,0,1,0,0,1.085h5.774A.539.539,0,0,0,118.611,149.359Zm0,2.519a.539.539,0,0,0-.543-.543h-5.774a.543.543,0,1,0,0,1.085h5.774A.539.539,0,0,0,118.611,151.878Zm-4.371-17.61a.628.628,0,1,0-.628.628A.625.625,0,0,0,114.24,134.268Zm1.883,0a.628.628,0,1,0-.628.628A.625.625,0,0,0,116.123,134.268Zm1.883,0a.628.628,0,1,0-.628.628A.625.625,0,0,0,118.007,134.268Zm1.883,0a.628.628,0,1,0-.628.628A.625.625,0,0,0,119.89,134.268Zm1.883,0a.628.628,0,1,0-.628.628A.625.625,0,0,0,121.774,134.268Zm1.883,0a.628.628,0,1,0-.628.628A.625.625,0,0,0,123.657,134.268Zm-9.433,5.03a.628.628,0,1,0-.628.628A.625.625,0,0,0,114.224,139.3Zm1.883,0a.628.628,0,1,0-.628.628A.625.625,0,0,0,116.108,139.3Zm1.883,0a.628.628,0,1,0-.628.628A.625.625,0,0,0,117.991,139.3Zm1.883,0a.628.628,0,1,0-.628.628A.625.625,0,0,0,119.875,139.3Zm1.883,0a.628.628,0,1,0-.628.628A.625.625,0,0,0,121.758,139.3Zm1.883,0a.628.628,0,1,0-.628.628A.625.625,0,0,0,123.642,139.3Zm-2.984,7.232a.628.628,0,1,0-.628.628A.625.625,0,0,0,120.658,146.53Zm1.883,0a.628.628,0,1,0-.628.628A.625.625,0,0,0,122.541,146.53Zm1.883,0a.628.628,0,1,0-.628.628A.625.625,0,0,0,124.424,146.53Zm1.883,0a.628.628,0,1,0-.628.628A.625.625,0,0,0,126.308,146.53Zm1.883,0a.628.628,0,1,0-.628.628A.625.625,0,0,0,128.191,146.53Zm1.883,0a.628.628,0,1,0-.628.628A.625.625,0,0,0,130.075,146.53Zm-9.433,5.185a.628.628,0,1,0-.628.628A.625.625,0,0,0,120.642,151.715Zm1.883,0a.628.628,0,1,0-.628.628A.625.625,0,0,0,122.525,151.715Zm1.883,0a.628.628,0,1,0-.628.628A.625.625,0,0,0,124.409,151.715Zm1.883,0a.628.628,0,1,0-.628.628A.625.625,0,0,0,126.292,151.715Zm1.883,0a.628.628,0,1,0-.628.628A.625.625,0,0,0,128.176,151.715Zm1.883,0a.628.628,0,1,0-.628.628A.625.625,0,0,0,130.059,151.715Z" transform="translate(-100.18 -92.894)" fill="#727997"/>
        <path id="Trazado_830618" data-name="Trazado 830618" d="M146.524,82.2h-2.2a.543.543,0,1,1,0-1.085h2.2a.543.543,0,0,1,0,1.085Zm.543,1.969a.539.539,0,0,0-.543-.543h-2.2a.543.543,0,1,0,0,1.085h2.2A.539.539,0,0,0,147.066,84.17Zm0,2.519a.539.539,0,0,0-.543-.543h-2.2a.543.543,0,0,0,0,1.085h2.2A.539.539,0,0,0,147.066,86.689Zm0,2.519a.539.539,0,0,0-.543-.543h-2.2a.543.543,0,1,0,0,1.085h2.2A.539.539,0,0,0,147.066,89.208Zm0,2.519a.539.539,0,0,0-.543-.543h-2.2a.543.543,0,1,0,0,1.085h2.2A.539.539,0,0,0,147.066,91.727Zm0,2.519a.539.539,0,0,0-.543-.543h-2.2a.543.543,0,1,0,0,1.085h2.2A.539.539,0,0,0,147.066,94.246Zm0,2.519a.539.539,0,0,0-.543-.543h-2.2a.543.543,0,1,0,0,1.085h2.2A.539.539,0,0,0,147.066,96.765Zm0,2.519a.539.539,0,0,0-.543-.543h-2.2a.543.543,0,1,0,0,1.085h2.2A.539.539,0,0,0,147.066,99.284Zm8.231-17.61a.539.539,0,0,0-.543-.543h-5.774a.543.543,0,0,0,0,1.085h5.774A.539.539,0,0,0,155.3,81.675Zm0,2.519a.539.539,0,0,0-.543-.543h-5.774a.543.543,0,0,0,0,1.085h5.774A.539.539,0,0,0,155.3,84.194Zm0,2.519a.539.539,0,0,0-.543-.543h-5.774a.543.543,0,0,0,0,1.085h5.774A.539.539,0,0,0,155.3,86.713Zm0,2.519a.539.539,0,0,0-.543-.543h-5.774a.543.543,0,0,0,0,1.085h5.774A.539.539,0,0,0,155.3,89.232Zm0,2.519a.539.539,0,0,0-.543-.543h-5.774a.543.543,0,0,0,0,1.085h5.774A.539.539,0,0,0,155.3,91.751Zm6.914,2.519a.539.539,0,0,0-.543-.543h-5.774a.543.543,0,1,0,0,1.085h5.774A.539.539,0,0,0,162.211,94.27Zm0,2.519a.539.539,0,0,0-.543-.543h-5.774a.543.543,0,1,0,0,1.085h5.774A.539.539,0,0,0,162.211,96.789Zm0,2.519a.539.539,0,0,0-.543-.543h-5.774a.543.543,0,1,0,0,1.085h5.774A.539.539,0,0,0,162.211,99.308ZM157.84,81.7a.628.628,0,1,0-.628.628A.625.625,0,0,0,157.84,81.7Zm1.883,0a.628.628,0,1,0-.628.628A.625.625,0,0,0,159.723,81.7Zm1.883,0a.628.628,0,1,0-.628.628A.625.625,0,0,0,161.607,81.7Zm1.883,0a.628.628,0,1,0-.628.628A.625.625,0,0,0,163.49,81.7Zm1.883,0a.628.628,0,1,0-.628.628A.625.625,0,0,0,165.374,81.7Zm1.883,0a.628.628,0,1,0-.628.628A.625.625,0,0,0,167.257,81.7Zm-9.433,5.03a.628.628,0,1,0-.628.628A.625.625,0,0,0,157.824,86.728Zm1.883,0a.628.628,0,1,0-.628.628A.625.625,0,0,0,159.708,86.728Zm1.883,0a.628.628,0,1,0-.628.628A.625.625,0,0,0,161.591,86.728Zm1.883,0a.628.628,0,1,0-.628.628A.625.625,0,0,0,163.475,86.728Zm1.883,0a.628.628,0,1,0-.628.628A.625.625,0,0,0,165.358,86.728Zm1.883,0a.628.628,0,1,0-.628.628A.625.625,0,0,0,167.242,86.728Zm-2.984,7.231a.628.628,0,1,0-.628.628A.625.625,0,0,0,164.258,93.96Zm1.883,0a.628.628,0,1,0-.628.628A.625.625,0,0,0,166.141,93.96Zm1.883,0a.628.628,0,1,0-.628.628A.625.625,0,0,0,168.024,93.96Zm1.883,0a.628.628,0,1,0-.628.628A.625.625,0,0,0,169.908,93.96Zm1.883,0a.628.628,0,1,0-.628.628A.625.625,0,0,0,171.791,93.96Zm1.883,0a.628.628,0,1,0-.628.628A.625.625,0,0,0,173.675,93.96Zm-9.433,5.185a.628.628,0,1,0-.628.628A.625.625,0,0,0,164.242,99.145Zm1.883,0a.628.628,0,1,0-.628.628A.625.625,0,0,0,166.125,99.145Zm1.883,0a.628.628,0,1,0-.628.628A.625.625,0,0,0,168.009,99.145Zm1.883,0a.628.628,0,1,0-.628.628A.625.625,0,0,0,169.892,99.145Zm1.883,0a.628.628,0,1,0-.628.628A.625.625,0,0,0,171.776,99.145Zm1.883,0a.628.628,0,1,0-.628.628A.625.625,0,0,0,173.659,99.145Z" transform="translate(-109.987 -81.07)" fill="#6e40fc"/>
        <path id="Trazado_830619" data-name="Trazado 830619" d="M146.524,108.8h-2.2a.543.543,0,1,1,0-1.085h2.2a.543.543,0,0,1,0,1.085Zm.543,1.969a.539.539,0,0,0-.543-.543h-2.2a.543.543,0,1,0,0,1.085h2.2A.539.539,0,0,0,147.066,110.77Zm0,2.519a.539.539,0,0,0-.543-.543h-2.2a.543.543,0,1,0,0,1.085h2.2A.539.539,0,0,0,147.066,113.289Zm0,2.519a.539.539,0,0,0-.543-.543h-2.2a.543.543,0,0,0,0,1.085h2.2A.539.539,0,0,0,147.066,115.808Zm0,2.519a.539.539,0,0,0-.543-.543h-2.2a.543.543,0,1,0,0,1.085h2.2A.539.539,0,0,0,147.066,118.327Zm0,2.519a.539.539,0,0,0-.543-.543h-2.2a.543.543,0,1,0,0,1.085h2.2A.539.539,0,0,0,147.066,120.846Zm0,2.519a.539.539,0,0,0-.543-.543h-2.2a.543.543,0,1,0,0,1.085h2.2A.539.539,0,0,0,147.066,123.365Zm0,2.519a.539.539,0,0,0-.543-.543h-2.2a.543.543,0,1,0,0,1.085h2.2A.539.539,0,0,0,147.066,125.884Zm8.231-17.61a.539.539,0,0,0-.543-.543h-5.774a.543.543,0,0,0,0,1.085h5.774A.539.539,0,0,0,155.3,108.275Zm0,2.519a.539.539,0,0,0-.543-.543h-5.774a.543.543,0,0,0,0,1.085h5.774A.539.539,0,0,0,155.3,110.794Zm0,2.519a.539.539,0,0,0-.543-.543h-5.774a.543.543,0,0,0,0,1.085h5.774A.539.539,0,0,0,155.3,113.313Zm0,2.519a.539.539,0,0,0-.543-.543h-5.774a.543.543,0,0,0,0,1.085h5.774A.539.539,0,0,0,155.3,115.832Zm0,2.519a.539.539,0,0,0-.543-.543h-5.774a.543.543,0,0,0,0,1.085h5.774A.539.539,0,0,0,155.3,118.351Zm6.914,2.519a.539.539,0,0,0-.543-.543h-5.774a.543.543,0,1,0,0,1.085h5.774A.539.539,0,0,0,162.211,120.87Zm0,2.519a.539.539,0,0,0-.543-.543h-5.774a.543.543,0,1,0,0,1.085h5.774A.539.539,0,0,0,162.211,123.389Zm0,2.519a.539.539,0,0,0-.543-.543h-5.774a.543.543,0,1,0,0,1.085h5.774A.539.539,0,0,0,162.211,125.908ZM157.84,108.3a.628.628,0,1,0-.628.628A.625.625,0,0,0,157.84,108.3Zm1.883,0a.628.628,0,1,0-.628.628A.625.625,0,0,0,159.723,108.3Zm1.883,0a.628.628,0,1,0-.628.628A.625.625,0,0,0,161.607,108.3Zm1.883,0a.628.628,0,1,0-.628.628A.625.625,0,0,0,163.49,108.3Zm1.883,0a.628.628,0,1,0-.628.628A.625.625,0,0,0,165.374,108.3Zm1.883,0a.628.628,0,1,0-.628.628A.625.625,0,0,0,167.257,108.3Zm-9.433,5.03a.628.628,0,1,0-.628.628A.625.625,0,0,0,157.824,113.328Zm1.883,0a.628.628,0,1,0-.628.628A.625.625,0,0,0,159.708,113.328Zm1.883,0a.628.628,0,1,0-.628.628A.625.625,0,0,0,161.591,113.328Zm1.883,0a.628.628,0,1,0-.628.628A.625.625,0,0,0,163.475,113.328Zm1.883,0a.628.628,0,1,0-.628.628A.625.625,0,0,0,165.358,113.328Zm1.883,0a.628.628,0,1,0-.628.628A.625.625,0,0,0,167.242,113.328Zm-2.984,7.231a.628.628,0,1,0-.628.628A.625.625,0,0,0,164.258,120.56Zm1.883,0a.628.628,0,1,0-.628.628A.625.625,0,0,0,166.141,120.56Zm1.883,0a.628.628,0,1,0-.628.628A.625.625,0,0,0,168.024,120.56Zm1.883,0a.628.628,0,1,0-.628.628A.625.625,0,0,0,169.908,120.56Zm1.883,0a.628.628,0,1,0-.628.628A.625.625,0,0,0,171.791,120.56Zm1.883,0a.628.628,0,1,0-.628.628A.625.625,0,0,0,173.675,120.56Zm-9.433,5.185a.628.628,0,1,0-.628.628A.625.625,0,0,0,164.242,125.745Zm1.883,0a.628.628,0,1,0-.628.628A.625.625,0,0,0,166.125,125.745Zm1.883,0a.628.628,0,1,0-.628.628A.625.625,0,0,0,168.009,125.745Zm1.883,0a.628.628,0,1,0-.628.628A.625.625,0,0,0,169.892,125.745Zm1.883,0a.628.628,0,1,0-.628.628A.625.625,0,0,0,171.776,125.745Zm1.883,0a.628.628,0,1,0-.628.628A.625.625,0,0,0,173.659,125.745Z" transform="translate(-109.987 -87.053)" fill="#6e40fc"/>
      </g>
      <g id="Grupo_1084995" data-name="Grupo 1084995" transform="translate(4.139 2.395)">
        <path id="Trazado_830620" data-name="Trazado 830620" d="M102.2,71.8a1.046,1.046,0,1,1-1.046-1.046A1.047,1.047,0,0,1,102.2,71.8Z" transform="translate(-100.11 -70.75)" fill="#263238"/>
        <path id="Trazado_830621" data-name="Trazado 830621" d="M108.263,71.8a1.046,1.046,0,1,1-1.046-1.046A1.047,1.047,0,0,1,108.263,71.8Z" transform="translate(-101.473 -70.75)" fill="#263238"/>
        <path id="Trazado_830622" data-name="Trazado 830622" d="M114.333,71.8a1.046,1.046,0,1,1-1.046-1.046A1.047,1.047,0,0,1,114.333,71.8Z" transform="translate(-102.838 -70.75)" fill="#263238"/>
      </g>
    </g>
    <g id="Grupo_1085029" data-name="Grupo 1085029" transform="translate(1058.665 545.125)">
      <g transform="matrix(1, 0, 0, 1, -85.7, -21.28)" filter="url(#Trazado_830747)">
        <path id="Trazado_830747-2" data-name="Trazado 830747" d="M0,0H108.588V62.634H0Z" transform="translate(85.7 21.28)" fill="#fff"/>
      </g>
      <g id="Grupo_1084997" data-name="Grupo 1084997" transform="translate(38.931 31.317)">
        <path id="Trazado_830623" data-name="Trazado 830623" d="M248.972,159.1l-1.139-.078a7.018,7.018,0,0,0-.108-1.147l1.1-.295a.327.327,0,0,0,.233-.4l-.139-.512a.327.327,0,0,0-.4-.233l-1.1.295a7.113,7.113,0,0,0-.481-1.046l.946-.636a.324.324,0,0,0,.085-.45l-.294-.442a.324.324,0,0,0-.45-.085l-.946.636a6.737,6.737,0,0,0-.791-.837l.69-.915a.33.33,0,0,0-.062-.457l-.426-.318a.331.331,0,0,0-.457.062l-.69.915a7.128,7.128,0,0,0-1.023-.535l.349-1.085a.327.327,0,0,0-.209-.411l-.5-.163a.327.327,0,0,0-.411.209l-.349,1.085a7.3,7.3,0,0,0-1.015-.163v-1.139a.327.327,0,0,0-.326-.326h-.535a.327.327,0,0,0-.326.326V152.1a6.987,6.987,0,0,0-1.139.186l-.372-1.077a.32.32,0,0,0-.411-.2l-.5.171a.32.32,0,0,0-.2.411l.372,1.077a7.126,7.126,0,0,0-1.015.55l-.705-.9a.33.33,0,0,0-.457-.054l-.419.326a.33.33,0,0,0-.054.457l.705.9a6.749,6.749,0,0,0-.775.853l-.961-.62a.326.326,0,0,0-.45.093l-.287.45a.326.326,0,0,0,.093.45l.953.62a7.1,7.1,0,0,0-.457,1.054L233,156.569a.326.326,0,0,0-.4.24l-.132.519a.326.326,0,0,0,.24.4l1.108.279a6.738,6.738,0,0,0-.093,1.124v.023l-1.139.1a.322.322,0,0,0-.294.349l.046.527a.322.322,0,0,0,.349.295l1.139-.1a6.734,6.734,0,0,0,.287,1.116l-1.039.465a.318.318,0,0,0-.163.426l.217.488a.318.318,0,0,0,.426.163l1.039-.465a7.365,7.365,0,0,0,.636.961l-.837.775a.321.321,0,0,0-.015.457l.364.388a.321.321,0,0,0,.457.015l.837-.775a7.3,7.3,0,0,0,.915.7l-.535,1.008a.33.33,0,0,0,.132.442l.473.248a.33.33,0,0,0,.442-.132l.535-1.008a7.229,7.229,0,0,0,1.093.364l-.178,1.124a.324.324,0,0,0,.271.372l.527.085a.324.324,0,0,0,.372-.271l.178-1.132q.256.023.512.023a5.722,5.722,0,0,0,.636-.031l.2,1.124a.326.326,0,0,0,.38.264l.527-.093a.326.326,0,0,0,.263-.38l-.2-1.124a7.519,7.519,0,0,0,1.085-.388l.55,1a.321.321,0,0,0,.442.124l.465-.256a.321.321,0,0,0,.124-.442l-.55-1a7.325,7.325,0,0,0,.9-.721l.845.767a.328.328,0,0,0,.457-.023l.357-.4a.328.328,0,0,0-.023-.457l-.845-.76a6.632,6.632,0,0,0,.62-.969l1.046.442a.321.321,0,0,0,.426-.17l.209-.488a.321.321,0,0,0-.171-.426l-1.046-.442a7.666,7.666,0,0,0,.271-1.124l1.139.077a.328.328,0,0,0,.349-.3l.039-.527a.328.328,0,0,0-.3-.349Zm-8.185,3.976a3.953,3.953,0,1,1,3.953-3.953A3.95,3.95,0,0,1,240.787,163.08Z" transform="translate(-232.298 -150.64)" fill="#263238"/>
        <path id="Trazado_830624" data-name="Trazado 830624" d="M247.173,159.986a5.526,5.526,0,1,1-5.526-5.526A5.524,5.524,0,0,1,247.173,159.986Z" transform="translate(-233.158 -151.499)" fill="none" stroke="#fff" stroke-miterlimit="10" stroke-width="0.97"/>
      </g>
      <g id="Grupo_1084998" data-name="Grupo 1084998" transform="translate(54.898 39.974)">
        <path id="Trazado_830625" data-name="Trazado 830625" d="M263.828,167.36l-.744-.054a4.846,4.846,0,0,0-.07-.752l.721-.194a.21.21,0,0,0,.147-.264l-.093-.333a.21.21,0,0,0-.264-.147l-.721.194a4.62,4.62,0,0,0-.318-.69l.62-.419a.205.205,0,0,0,.054-.295l-.194-.287a.205.205,0,0,0-.295-.054l-.62.419a4.96,4.96,0,0,0-.519-.55l.45-.6a.21.21,0,0,0-.039-.295l-.279-.209a.21.21,0,0,0-.295.039l-.45.6a4.938,4.938,0,0,0-.667-.349l.233-.713a.215.215,0,0,0-.14-.271l-.333-.108a.215.215,0,0,0-.271.139l-.232.713a4.78,4.78,0,0,0-.667-.109v-.752a.208.208,0,0,0-.209-.209h-.349a.208.208,0,0,0-.209.209v.752a4.657,4.657,0,0,0-.744.124l-.24-.705a.217.217,0,0,0-.271-.132l-.333.116a.217.217,0,0,0-.132.271l.24.705a4.269,4.269,0,0,0-.667.364l-.457-.589a.219.219,0,0,0-.3-.039l-.271.217a.219.219,0,0,0-.039.3l.457.589a4.37,4.37,0,0,0-.512.558l-.628-.411a.212.212,0,0,0-.295.062l-.186.295a.212.212,0,0,0,.062.295l.628.4a5.023,5.023,0,0,0-.3.69l-.729-.178a.2.2,0,0,0-.256.155l-.085.341a.2.2,0,0,0,.155.256l.729.178a4.644,4.644,0,0,0-.062.736v.015l-.744.062a.216.216,0,0,0-.194.233l.031.349a.216.216,0,0,0,.233.194l.744-.062a5.568,5.568,0,0,0,.186.729l-.682.3a.21.21,0,0,0-.109.279l.14.318a.21.21,0,0,0,.279.109l.682-.3a4.426,4.426,0,0,0,.419.628l-.55.512a.211.211,0,0,0-.008.3l.24.256a.211.211,0,0,0,.3.008l.55-.512a4.2,4.2,0,0,0,.6.457l-.349.659a.215.215,0,0,0,.085.287l.31.163a.215.215,0,0,0,.287-.085l.349-.659a4.823,4.823,0,0,0,.713.24l-.116.736a.211.211,0,0,0,.178.24l.341.054a.211.211,0,0,0,.24-.178l.116-.736c.109.008.225.016.341.016a2.529,2.529,0,0,0,.419-.023l.132.736a.212.212,0,0,0,.248.171l.341-.062a.212.212,0,0,0,.171-.248l-.132-.736a3.914,3.914,0,0,0,.713-.256l.364.651a.215.215,0,0,0,.287.085l.3-.171a.215.215,0,0,0,.085-.287l-.364-.651a4.918,4.918,0,0,0,.589-.473l.558.5a.218.218,0,0,0,.3-.016l.233-.256a.218.218,0,0,0-.016-.3l-.558-.5a4.186,4.186,0,0,0,.4-.636l.69.295a.208.208,0,0,0,.279-.116l.14-.318a.208.208,0,0,0-.116-.279l-.69-.295a4.632,4.632,0,0,0,.178-.736l.744.054a.21.21,0,0,0,.225-.2l.023-.349a.21.21,0,0,0-.2-.225Zm-5.364,2.6a2.589,2.589,0,1,1,2.589-2.589A2.588,2.588,0,0,1,258.465,169.964Z" transform="translate(-252.899 -161.81)" fill="#263238"/>
        <path id="Trazado_830626" data-name="Trazado 830626" d="M262.649,167.93a3.62,3.62,0,1,1-3.62-3.62A3.619,3.619,0,0,1,262.649,167.93Z" transform="translate(-253.464 -162.372)" fill="none" stroke="#fff" stroke-miterlimit="10" stroke-width="0.97"/>
      </g>
      <g id="Grupo_1085001" data-name="Grupo 1085001">
        <rect id="Rectángulo_383663" data-name="Rectángulo 383663" width="108.588" height="4.542" fill="#e0e0e0"/>
      </g>
      <path id="Trazado_830642" data-name="Trazado 830642" d="M284.187,181.97H194.325a1.158,1.158,0,0,1-1.155-1.155h0a1.158,1.158,0,0,1,1.155-1.155h89.863a1.158,1.158,0,0,1,1.155,1.155h0A1.158,1.158,0,0,1,284.187,181.97Z" transform="translate(-184.567 -125.851)" fill="#fff" stroke="#8d8e8f" stroke-miterlimit="10" stroke-width="0.97"/>
      <path id="Trazado_830643" data-name="Trazado 830643" d="M257.595,179.65h-63.27a1.155,1.155,0,0,0,0,2.31h63.27v-2.31Z" transform="translate(-184.567 -125.848)" fill="#ccbcfe" stroke="#8d8e8f" stroke-miterlimit="10" stroke-width="0.97"/>
    </g>
    <g id="Grupo_1085025" data-name="Grupo 1085025" transform="translate(1283 536.121)">
      <g transform="matrix(1, 0, 0, 1, -310.03, -12.28)" filter="url(#Rectángulo_383629)">
        <rect id="Rectángulo_383629-2" data-name="Rectángulo 383629" width="84.251" height="35.607" transform="translate(310.03 14.29)" fill="#fff"/>
      </g>
      <g id="Grupo_1084978" data-name="Grupo 1084978" transform="translate(0 0)">
        <rect id="Rectángulo_383630" data-name="Rectángulo 383630" width="84.251" height="6.015" fill="#e0e0e0"/>
        <g id="Grupo_1084977" data-name="Grupo 1084977" transform="translate(1.814 2.116)">
          <path id="Trazado_830589" data-name="Trazado 830589" d="M98.986,180.268a.938.938,0,1,1-.938-.938A.936.936,0,0,1,98.986,180.268Z" transform="translate(-97.11 -179.33)" fill="#c5cddc"/>
          <circle id="Elipse_9695" data-name="Elipse 9695" cx="0.938" cy="0.938" r="0.938" transform="translate(4.224 0)" fill="#c5cddc"/>
          <circle id="Elipse_9696" data-name="Elipse 9696" cx="0.938" cy="0.938" r="0.938" transform="translate(8.456 0)" fill="#c5cddc"/>
        </g>
      </g>
      <g id="Grupo_1084979" data-name="Grupo 1084979" transform="translate(4.519 10.44)">
        <rect id="Rectángulo_383631" data-name="Rectángulo 383631" width="18.052" height="7.526" transform="translate(5.519)" fill="#6e40fc"/>
        <rect id="Rectángulo_383632" data-name="Rectángulo 383632" width="29.089" height="15.044" transform="translate(0 5.263)" fill="#6e40fc"/>
        <rect id="Rectángulo_383633" data-name="Rectángulo 383633" width="18.052" height="5.015" transform="translate(5.511 5.263)" fill="#6e40fc"/>
        <rect id="Rectángulo_383634" data-name="Rectángulo 383634" width="18.052" height="7.526" transform="translate(5.511 12.789)" fill="#6e40fc"/>
        <rect id="Rectángulo_383635" data-name="Rectángulo 383635" width="18.052" height="7.526" transform="translate(5.511 17.052)" fill="#6e40fc"/>
      </g>
      <rect id="Rectángulo_383636" data-name="Rectángulo 383636" width="18.555" height="6.518" transform="translate(39.118 22.725)" fill="#ccc"/>
      <rect id="Rectángulo_383637" data-name="Rectángulo 383637" width="18.555" height="6.518" transform="translate(60.689 22.725)" fill="#1e5af9"/>
      <g id="Grupo_1084980" data-name="Grupo 1084980" transform="translate(39.01 12.758)">
        <path id="Trazado_830590" data-name="Trazado 830590" d="M146.193,193.06c.814,0,1.132.512,1.132,1.279v.574c0,.837-.388,1.248-1.217,1.248h-.659v2.17H145.1V193.06Zm-.093,2.79c.612,0,.876-.271.876-.915v-.62c0-.574-.194-.938-.783-.938h-.744v2.473h.659Z" transform="translate(-145.1 -193.06)" fill="#263238"/>
        <path id="Trazado_830591" data-name="Trazado 830591" d="M149.741,193.06c.806,0,1.132.442,1.132,1.194v.457a1.155,1.155,0,0,0,0,2.17v.822a1.176,1.176,0,0,0,.132.636h-.364a1.21,1.21,0,0,1-.116-.636v-.829c0-.7-.388-.9-.984-.9h-.55v2.356h-.349V193.06h1.1Zm-.194,2.6c.62,0,.977-.171.977-.884v-.5c0-.566-.217-.907-.791-.907h-.744v2.279h.558Z" transform="translate(-145.896 -193.06)" fill="#263238"/>
        <path id="Trazado_830592" data-name="Trazado 830592" d="M152.739,193.06v5.271h-.349V193.06Z" transform="translate(-146.74 -193.06)" fill="#263238"/>
        <path id="Trazado_830593" data-name="Trazado 830593" d="M153.938,198.331h-.318V193.06h.45l1.581,4.449V193.06h.318v5.271h-.388l-1.651-4.7v4.7Z" transform="translate(-147.016 -193.06)" fill="#263238"/>
        <path id="Trazado_830594" data-name="Trazado 830594" d="M158.26,198.331v-4.953h-1.07v-.318h2.5v.318h-1.077v4.953Z" transform="translate(-147.819 -193.06)" fill="#263238"/>
        <path id="Trazado_830595" data-name="Trazado 830595" d="M162.743,195.5v.318H161.3v2.2h1.736v.318H160.96V193.07h2.077v.318H161.3v2.124h1.442Z" transform="translate(-148.667 -193.062)" fill="#263238"/>
        <path id="Trazado_830596" data-name="Trazado 830596" d="M165.471,193.06c.806,0,1.132.442,1.132,1.194v.457a1.155,1.155,0,0,0,0,2.17v.822a1.177,1.177,0,0,0,.132.636h-.364a1.209,1.209,0,0,1-.116-.636v-.829c0-.7-.388-.9-.984-.9h-.55v2.356h-.349V193.06h1.1Zm-.194,2.6c.62,0,.977-.171.977-.884v-.5c0-.566-.217-.907-.791-.907h-.744v2.279h.558Z" transform="translate(-149.434 -193.06)" fill="#263238"/>
      </g>
    </g>
    <g id="Grupo_1085031" data-name="Grupo 1085031" transform="translate(1321.999 571.811)">
      <g id="Grupo_1071712" data-name="Grupo 1071712" transform="translate(0 0)">
        <path id="Trazado_818401" data-name="Trazado 818401" d="M38.675,18A18,18,0,1,1,20.389.211,18.064,18.064,0,0,1,38.675,18m-26.6.429A8.606,8.606,0,1,0,20.54,9.646a8.634,8.634,0,0,0-8.466,8.783" transform="translate(-1.526 -0.209)" fill="#f5f5f5"/>
        <path id="Trazado_818402" data-name="Trazado 818402" d="M58.01,18A18.064,18.064,0,0,1,40.3,36.369l-.151-9.435a8.646,8.646,0,0,0-.276-17.289L39.725.21A18.058,18.058,0,0,1,58.01,18" transform="translate(-20.862 -0.208)" fill="#2b5cf9"/>
        <path id="Trazado_818405" data-name="Trazado 818405" d="M21.324,56.327A20.565,20.565,0,0,1,.267,35.841l10.987-.177c.089,5.577,4.333,9.087,9.883,9Z" transform="translate(-0.267 -18.714)" fill="#949af8"/>
      </g>
    </g>
    <g id="Grupo_1085027" data-name="Grupo 1085027" transform="translate(1211.469 554.928)">
      <g transform="matrix(1, 0, 0, 1, -238.5, -31.09)" filter="url(#Trazado_830749)">
        <path id="Trazado_830749-2" data-name="Trazado 830749" d="M0,0H107.062V51.636H0Z" transform="translate(238.5 32.46)" fill="#e0e0e0"/>
      </g>
      <rect id="Rectángulo_383650" data-name="Rectángulo 383650" width="107.062" height="46.877" transform="translate(0 1.372)" fill="#fff"/>
      <g id="Grupo_1084992" data-name="Grupo 1084992">
        <rect id="Rectángulo_383651" data-name="Rectángulo 383651" width="107.062" height="17.323" fill="#e0e0e0"/>
        <g id="Grupo_1084991" data-name="Grupo 1084991" transform="translate(3.31 2.248)">
          <path id="Trazado_830609" data-name="Trazado 830609" d="M272.072,180.851a1.031,1.031,0,1,1-1.031-1.031A1.035,1.035,0,0,1,272.072,180.851Z" transform="translate(-270.01 -179.82)" fill="#e0e0e0"/>
          <path id="Trazado_830610" data-name="Trazado 830610" d="M278.052,180.851a1.031,1.031,0,1,1-1.031-1.031A1.03,1.03,0,0,1,278.052,180.851Z" transform="translate(-271.355 -179.82)" fill="#e0e0e0"/>
          <path id="Trazado_830611" data-name="Trazado 830611" d="M284.032,180.851A1.031,1.031,0,1,1,283,179.82,1.035,1.035,0,0,1,284.032,180.851Z" transform="translate(-272.7 -179.82)" fill="#e0e0e0"/>
        </g>
      </g>
      <path id="Trazado_830612" data-name="Trazado 830612" d="M365.9,184.02h22.888a2.772,2.772,0,0,1,2.775,2.775v.411a2.772,2.772,0,0,1-2.775,2.775H365.9a2.772,2.772,0,0,1-2.775-2.775v-.411A2.772,2.772,0,0,1,365.9,184.02Z" transform="translate(-287.645 -178.517)" fill="#fff" stroke="#969696" stroke-miterlimit="10" stroke-width="0.97"/>
      <rect id="Rectángulo_383652" data-name="Rectángulo 383652" width="6.425" height="4.588" transform="translate(2.55 5.96)" fill="#b0abab" stroke="#e3dede" stroke-miterlimit="10" stroke-width="0.97"/>
      <rect id="Rectángulo_383653" data-name="Rectángulo 383653" width="6.425" height="4.588" transform="translate(9.433 5.96)" fill="#b0abab" stroke="#e3dede" stroke-miterlimit="10" stroke-width="0.97"/>
      <rect id="Rectángulo_383654" data-name="Rectángulo 383654" width="12.06" height="4.588" transform="translate(17.005 5.96)" fill="#b0abab" stroke="#e3dede" stroke-miterlimit="10" stroke-width="0.97"/>
      <path id="Trazado_830613" data-name="Trazado 830613" d="M299.541,232.113h-9.3l1.9-2.79V226.78h5.5v2.635Z" transform="translate(-271.251 -188.135)" fill="#969696"/>
      <rect id="Rectángulo_383655" data-name="Rectángulo 383655" width="26.996" height="21.687" transform="translate(10.138 18.935)" fill="#ccc"/>
      <rect id="Rectángulo_383656" data-name="Rectángulo 383656" width="26.996" height="17.827" transform="translate(10.138 18.935)" fill="#e3dede"/>
      <path id="Trazado_830750" data-name="Trazado 830750" d="M0,0H23.779V13.975H0Z" transform="translate(11.75 20.857)" fill="#1e5af9"/>
      <rect id="Rectángulo_383658" data-name="Rectángulo 383658" width="52.295" height="2.062" rx="1.031" transform="translate(47.567 26.957)" fill="#969696"/>
      <path id="Trazado_830614" data-name="Trazado 830614" d="M384.993,212.242a2.752,2.752,0,1,0-2.752,2.752A2.752,2.752,0,0,0,384.993,212.242Z" transform="translate(-291.325 -184.246)" fill="#ccc"/>
    </g>
    <g id="Grupo_1085032" data-name="Grupo 1085032" transform="translate(1063 554.877)">
      <g id="Grupo_1085032-2" data-name="Grupo 1085032" transform="translate(0 0)" clip-path="url(#clip-path-2)">
        <path id="Trazado_830751" data-name="Trazado 830751" d="M16.087,8.044A8.043,8.043,0,1,1,8.043,0a8.044,8.044,0,0,1,8.044,8.044" transform="translate(0 0)" fill="#fdbf2d"/>
        <path id="Trazado_830752" data-name="Trazado 830752" d="M32.549,16.214a67.452,67.452,0,0,1-.2-7.286,67.449,67.449,0,0,1,.2-7.287,67.578,67.578,0,0,1,.2,7.287,67.581,67.581,0,0,1-.2,7.286" transform="translate(-7.888 -0.4)" fill="#263238"/>
        <path id="Trazado_830753" data-name="Trazado 830753" d="M54.333,5.2l.273-.575a2.657,2.657,0,0,0,1.7.6c.892,0,1.276-.346,1.276-.8,0-1.261-3.126-.465-3.126-2.382,0-.8.619-1.475,1.976-1.475a3.037,3.037,0,0,1,1.659.457l-.243.591a2.658,2.658,0,0,0-1.416-.42c-.877,0-1.253.368-1.253.818,0,1.261,3.126.472,3.126,2.367,0,.789-.634,1.467-2,1.467A3.064,3.064,0,0,1,54.333,5.2" transform="translate(-13.247 -0.139)" fill="#263238"/>
        <path id="Trazado_830754" data-name="Trazado 830754" d="M64.278,4.481h-3.17a1.323,1.323,0,0,0,1.416,1.143,1.455,1.455,0,0,0,1.127-.472l.392.457A2.131,2.131,0,0,1,60.4,4.245a1.914,1.914,0,0,1,1.962-1.99,1.884,1.884,0,0,1,1.932,2.012c0,.059-.008.147-.015.214m-3.17-.509h2.508a1.262,1.262,0,0,0-2.508,0" transform="translate(-14.725 -0.55)" fill="#263238"/>
        <path id="Trazado_830755" data-name="Trazado 830755" d="M68.951,2.255v.686a1.22,1.22,0,0,0-.163-.008,1.166,1.166,0,0,0-1.231,1.32V6.2H66.85V2.292h.678v.656a1.493,1.493,0,0,1,1.423-.693" transform="translate(-16.298 -0.55)" fill="#263238"/>
        <path id="Trazado_830756" data-name="Trazado 830756" d="M74.231,2.3,72.521,6.211H71.8L70.088,2.3h.737l1.343,3.133L73.539,2.3Z" transform="translate(-17.088 -0.562)" fill="#263238"/>
        <path id="Trazado_830757" data-name="Trazado 830757" d="M79.7,4.481h-3.17a1.323,1.323,0,0,0,1.416,1.143,1.455,1.455,0,0,0,1.128-.472l.392.457a2.13,2.13,0,0,1-3.643-1.364,1.913,1.913,0,0,1,1.961-1.99,1.884,1.884,0,0,1,1.932,2.012c0,.059-.008.147-.015.214m-3.17-.509h2.507a1.261,1.261,0,0,0-2.507,0" transform="translate(-18.486 -0.55)" fill="#263238"/>
        <path id="Trazado_830758" data-name="Trazado 830758" d="M84.372,2.255v.686a1.22,1.22,0,0,0-.163-.008,1.166,1.166,0,0,0-1.231,1.32V6.2h-.707V2.292h.678v.656a1.493,1.493,0,0,1,1.423-.693" transform="translate(-20.058 -0.55)" fill="#263238"/>
        <path id="Trazado_830759" data-name="Trazado 830759" d="M92.023,5.147v.641H88.313v-.5l2.1-2.027c.546-.531.649-.855.649-1.18,0-.531-.377-.855-1.1-.855a1.621,1.621,0,0,0-1.32.56l-.5-.435A2.377,2.377,0,0,1,90.031.568c1.077,0,1.77.553,1.77,1.438a2.091,2.091,0,0,1-.848,1.622L89.375,5.147Z" transform="translate(-21.49 -0.139)" fill="#263238"/>
        <path id="Trazado_830760" data-name="Trazado 830760" d="M110.447,19.184s-.01-.124-.015-.351c0-.244-.011-.575-.018-1-.011-.889-.026-2.167-.045-3.809l.078.078c-9.552.07-31.6.119-57.272.119h0c-.044.043.372-.372.2-.2v1.318q0,.658,0,1.307v2.535l-.2-.2,40.611.083,12.183.058,3.311.027.866.014a2.792,2.792,0,0,1,.3.014,1.985,1.985,0,0,1-.277.014l-.841.014-3.266.027L93.925,19.3l-40.754.084h-.2v-.2c0-.822,0-1.67,0-2.535V14.023l.2-.2h0c25.668,0,47.721.048,57.272.119h.079l0,.078c-.019,1.662-.034,2.955-.044,3.854-.008.418-.014.744-.019.983a2.445,2.445,0,0,1-.015.324" transform="translate(-12.905 -3.37)" fill="#263238"/>
        <g id="Grupo_1085034" data-name="Grupo 1085034" transform="translate(3 4.123)">
          <g id="Grupo_1085034-2" data-name="Grupo 1085034" clip-path="url(#clip-path-3)">
            <path id="Trazado_830761" data-name="Trazado 830761" d="M10.347.032c.3.311-1.779,2.8-4.642,5.568-.587.566-1.161,1.1-1.7,1.579l-.56.5-.475-.51C1.028,5.086-.212,3.44.03,3.2s1.893.99,3.987,2.926L2.982,6.115c.5-.517,1.051-1.073,1.638-1.639C7.483,1.712,10.048-.278,10.347.032" fill="#fff"/>
          </g>
        </g>
      </g>
    </g>
  </g>
</svg>
