<svg xmlns="http://www.w3.org/2000/svg" xmlns:xlink="http://www.w3.org/1999/xlink" width="402" height="473" viewBox="0 0 402 473">
  <defs>
    <clipPath id="clip-path">
      <rect id="Rectángulo_383807" data-name="Rectángulo 383807" width="402" height="473" transform="translate(178 1581)" fill="#01c3fd" opacity="0.35"/>
    </clipPath>
    <clipPath id="clip-path-2">
      <rect id="Rectángulo_380958" data-name="Rectángulo 380958" width="400" height="473" transform="translate(180.471 8048)" fill="#fff" stroke="#707070" stroke-width="1" opacity="0.46"/>
    </clipPath>
    <clipPath id="clip-path-3">
      <rect id="Rectángulo_380886" data-name="Rectángulo 380886" width="26.878" height="58.832" fill="none"/>
    </clipPath>
    <clipPath id="clip-path-5">
      <rect id="Rectángulo_380877" data-name="Rectángulo 380877" width="4.112" height="15.031" transform="translate(7.808 8.787)" fill="none"/>
    </clipPath>
    <clipPath id="clip-path-6">
      <rect id="Rectángulo_380878" data-name="Rectángulo 380878" width="10.084" height="9.69" transform="translate(1.836 0.389)" fill="none"/>
    </clipPath>
    <clipPath id="clip-path-7">
      <rect id="Rectángulo_380879" data-name="Rectángulo 380879" width="11.642" height="10.747" transform="translate(0.278 22.978)" fill="none"/>
    </clipPath>
    <clipPath id="clip-path-8">
      <rect id="Rectángulo_380934" data-name="Rectángulo 380934" width="19.211" height="9.515" transform="translate(26.477 197.786)" fill="#6e40fc"/>
    </clipPath>
    <clipPath id="clip-path-9">
      <rect id="Rectángulo_380945" data-name="Rectángulo 380945" width="378.13" height="268.771" fill="none"/>
    </clipPath>
    <clipPath id="clip-path-11">
      <rect id="Rectángulo_380935" data-name="Rectángulo 380935" width="78.148" height="78.148" transform="translate(2.166 90.764)" fill="#ccbcfe"/>
    </clipPath>
    <clipPath id="clip-path-12">
      <rect id="Rectángulo_380936" data-name="Rectángulo 380936" width="67.496" height="67.496" transform="translate(243.093)" fill="#ccbcfe"/>
    </clipPath>
    <clipPath id="clip-path-13">
      <rect id="Rectángulo_380937" data-name="Rectángulo 380937" width="23.986" height="23.986" transform="translate(111.138 182.99)" fill="none"/>
    </clipPath>
    <clipPath id="clip-path-14">
      <rect id="Rectángulo_380938" data-name="Rectángulo 380938" width="14.968" height="14.967" transform="translate(207.824 142.325)" fill="#ccbcfe"/>
    </clipPath>
    <clipPath id="clip-path-15">
      <rect id="Rectángulo_380939" data-name="Rectángulo 380939" width="30.998" height="30.998" transform="translate(290.491 179.739)" fill="#ccbcfe"/>
    </clipPath>
    <clipPath id="clip-path-17">
      <rect id="Rectángulo_380940" data-name="Rectángulo 380940" width="44.424" height="44.425" transform="translate(333.706 50.89)" fill="#ccbcfe"/>
    </clipPath>
    <clipPath id="clip-path-18">
      <rect id="Rectángulo_380941" data-name="Rectángulo 380941" width="48.408" height="48.408" transform="translate(0 220.363)" fill="#ccbcfe"/>
    </clipPath>
    <clipPath id="clip-path-19">
      <rect id="Rectángulo_380942" data-name="Rectángulo 380942" width="20.977" height="20.977" transform="translate(267.411 214.094)" fill="none"/>
    </clipPath>
    <clipPath id="clip-path-20">
      <rect id="Rectángulo_380943" data-name="Rectángulo 380943" width="44.136" height="44.136" transform="translate(190.7 216.168)" fill="#ccbcfe"/>
    </clipPath>
    <clipPath id="clip-path-21">
      <rect id="Rectángulo_380873" data-name="Rectángulo 380873" width="310.715" height="539.037" fill="none"/>
    </clipPath>
    <clipPath id="clip-path-23">
      <rect id="Rectángulo_380845" data-name="Rectángulo 380845" width="71.334" height="134.64" fill="none"/>
    </clipPath>
    <clipPath id="clip-path-24">
      <rect id="Rectángulo_380846" data-name="Rectángulo 380846" width="109.287" height="208.767" fill="none"/>
    </clipPath>
    <clipPath id="clip-path-25">
      <rect id="Rectángulo_380852" data-name="Rectángulo 380852" width="51.22" height="97.853" fill="none"/>
    </clipPath>
    <clipPath id="clip-path-26">
      <rect id="Rectángulo_380850" data-name="Rectángulo 380850" width="125.928" height="237.505" fill="none"/>
    </clipPath>
    <clipPath id="clip-path-27">
      <rect id="Rectángulo_380847" data-name="Rectángulo 380847" width="144.454" height="278.028" fill="none"/>
    </clipPath>
    <clipPath id="clip-path-28">
      <rect id="Rectángulo_380851" data-name="Rectángulo 380851" width="89.648" height="171.558" fill="none"/>
    </clipPath>
    <clipPath id="clip-path-29">
      <rect id="Rectángulo_380928" data-name="Rectángulo 380928" width="151" height="311" transform="translate(398.471 8293)" fill="#fff" stroke="#707070" stroke-width="1" opacity="0.53"/>
    </clipPath>
    <clipPath id="clip-path-30">
      <rect id="Rectángulo_380927" data-name="Rectángulo 380927" width="121.403" height="299.037" fill="none"/>
    </clipPath>
  </defs>
  <g id="Enmascarar_grupo_1075518" data-name="Enmascarar grupo 1075518" transform="translate(-178 -1581)" clip-path="url(#clip-path)">
    <path id="Trazado_828337" data-name="Trazado 828337" d="M0,0H404.333V181H0Z" transform="translate(178 1872.183)" fill="#e9eeef"/>
    <g id="Grupo_1084475" data-name="Grupo 1084475" transform="translate(183.213 1661.547)">
      <g id="Grupo_1084455" data-name="Grupo 1084455" transform="translate(-2.279 -14)" opacity="0.84">
        <path id="Trazado_828063" data-name="Trazado 828063" d="M42.452,55.032v4.341H27.97V59.8H67.123v14.19H27.97v.438H42.452v14.19H27.97v.426H67.123v14.19H27.97v.426H42.452v14.19H27.97v.426H67.123v14.19H27.97v.438H42.452v14.19H27.97v.438H67.123v14.19H27.97v.438H42.452v14.19H27.97v.426H67.123v14.19H27.97v.438H42.452v14.19H27.97v.426H67.123V220.2H27.97v.426H42.452v14.19H27.97v.438H67.123v14.19H27.97v.438H42.452v14.19H27.97v.438H67.123V278.7H27.97v.438H42.452v14.19H27.97v.426H67.123v14.19H27.97v.438H42.452v14.19H27.97v.438H67.123V337.2H27.97v.438H42.452v14.19H27.97v.426H67.123v14.19H27.97v.426H42.452v14.19H27.97v.438H67.123v14.19H27.97v.438H42.452v14.19H27.97v.426H67.123v14.19H27.97v.438H42.452v14.19H27.97V440H67.123v14.19H27.97v.426H42.452V468.8H27.97v.426H67.123v5.046h.426v-5.046h48.917v5.046h.426v-5.046h48.917v5.046h.426v-5.046H209.1c.389-.146.778-.28,1.167-.426H190.917v-14.19h43.7c.17-.146.34-.292.511-.426h-19.54V440h32.964c.109-.146.207-.292.316-.438h-8.609v-14.19H257.4c.073-.146.134-.292.207-.438H215.588v-14.19h47.19c.036-.146.085-.292.122-.426H240.259v-14.19h25.072c0-.146.024-.292.036-.438h-.438V381.5h.377l-.036-.438H240.259V366.87h22.47a4.354,4.354,0,0,0-.122-.426H215.576v-14.19h41.731c-.073-.146-.134-.292-.207-.426H240.247v-14.19h8.159l-.328-.438h-32.49v-14.19H234.4c-.17-.146-.353-.292-.535-.438H190.917v-14.19h17.655l-1.24-.438H166.246v-7.283a4.532,4.532,0,0,1-.426-.195v7.466H116.9v-14.19h38.764c-.158-.146-.3-.28-.45-.426H141.587v-14.19h4.584l-.146-.438H116.915V264.5h27.407c0-.146.024-.292.036-.438h-2.772v-14.19h7.2c.085-.146.158-.292.243-.438H116.915v-14.19H163.96l.875-.438H141.6v-14.19h48.9v10.214l.438-.073V220.618h19.808c.146-.146.292-.292.438-.426H166.258V206h48.917v9.46l.438-.62V206h4.45c.049-.146.1-.292.146-.426H190.941v-14.19h31.1c0-.146-.012-.292-.024-.438h-6.408v-14.19h2.408a4.747,4.747,0,0,0-.231-.426H190.941v-14.19h13.776l-.693-.438H166.27v-6.4c-.146-.061-.292-.109-.426-.17v6.566H116.927v-14.19h41.135l-.182-.438H141.6v-14.19H159.74c.109-.146.219-.292.34-.438H116.927v-14.19h48.917v9.873c.146-.061.292-.122.426-.17v-9.7H191.1c.024-.146.036-.292.049-.426h-.207v-3.113a9.051,9.051,0,0,0-.438-1.41v4.523H141.6V106.867h-.426v10.968h-48.9v-14.19h14.226c-.182-.146-.365-.28-.547-.426H67.6V89.03h32.721c.012-.146.036-.292.061-.426h-8.11V74.414h47.081c.316-.134.608-.28.912-.438H116.952V59.786h27.115c-.1-.146-.182-.292-.28-.426h-2.164V57.1c-.146-.109-.28-.207-.426-.316v2.578h-48.9V55.02h-.438v4.341H42.938V55.02H42.5ZM199.38,118.285c-.024-.146-.036-.292-.049-.426h20.087a2.4,2.4,0,0,1-.049.426h-3.782V124.9c-.146.109-.292.219-.438.316v-6.931H199.368ZM42.889,454.538H91.806v14.19H42.889v-14.19Zm49.342,0h48.9v14.19h-48.9v-14.19Zm49.342,0h48.9v14.19h-48.9v-14.19ZM67.561,439.923h48.917v14.19H67.561v-14.19Zm49.342,0H165.82v14.19H116.9v-14.19Zm49.342,0h48.917v14.19H166.246v-14.19ZM42.889,425.307H91.806V439.5H42.889v-14.19Zm49.342,0h48.9V439.5h-48.9v-14.19Zm49.342,0h48.9V439.5h-48.9v-14.19Zm49.342,0h48.917V439.5H190.917v-14.19ZM67.561,410.692h48.917v14.19H67.561v-14.19Zm49.342,0H165.82v14.19H116.9v-14.19Zm49.342,0h48.917v14.19H166.246v-14.19ZM42.89,396.077H91.806v14.19H42.89v-14.19Zm49.342,0h48.9v14.19h-48.9v-14.19Zm49.342,0h48.9v14.19h-48.9v-14.19Zm49.342,0h48.917v14.19H190.917v-14.19ZM67.561,381.461h48.917v14.19H67.561v-14.19Zm49.342,0H165.82v14.19H116.9v-14.19Zm49.342,0h48.917v14.19H166.246v-14.19Zm49.342,0h48.9v14.19H215.576v-14.19h0ZM42.89,366.833H91.806v14.19H42.89v-14.19Zm49.342,0h48.9v14.19h-48.9v-14.19Zm49.342,0h48.9v14.19h-48.9v-14.19Zm49.342,0h48.917v14.19H190.917v-14.19ZM67.561,352.218h48.917v14.19H67.561v-14.19Zm49.343,0H165.82v14.19H116.9v-14.19Zm49.342,0h48.917v14.19H166.246v-14.19ZM42.89,337.6H91.806v14.19H42.89V337.6Zm49.342,0h48.9v14.19h-48.9V337.6Zm49.342,0h48.9v14.19h-48.9V337.6Zm49.342,0h48.917v14.19H190.917V337.6ZM67.561,322.987h48.917v14.19H67.561v-14.19Zm49.342,0H165.82v14.19H116.9v-14.19Zm49.342,0h48.917v14.19H166.246v-14.19ZM42.89,308.371H91.806v14.19H42.89v-14.19Zm49.342,0h48.9v14.19h-48.9v-14.19Zm49.342,0h48.9v14.19h-48.9v-14.19ZM67.561,293.744h48.917v14.19H67.561v-14.19ZM42.89,279.128H91.806v14.19H42.89v-14.19Zm49.342,0h48.9v14.19h-48.9v-14.19ZM67.561,264.513h48.917V278.7H67.561v-14.19ZM42.89,249.9H91.806v14.19H42.89V249.9Zm49.342,0h48.9v14.19h-48.9V249.9ZM67.561,235.282h48.917v14.19H67.561v-14.19ZM42.89,220.666H91.806v14.19H42.89v-14.19Zm49.342,0h48.9v14.19h-48.9v-14.19ZM67.561,206.051h48.917v14.19H67.561v-14.19Zm49.342,0H165.82v14.19H116.9v-14.19ZM42.89,191.435H91.807v14.19H42.89v-14.19Zm49.342,0h48.9v14.19h-48.9v-14.19Zm49.342,0h48.9v14.19h-48.9v-14.19ZM67.561,176.82h48.917v14.19H67.561V176.82Zm49.342,0H165.82v14.19H116.9V176.82Zm49.342,0h48.917v14.19H166.246V176.82ZM42.89,162.2H91.807v14.19H42.89V162.2Zm49.342,0h48.9v14.19h-48.9V162.2Zm49.342,0h48.9v14.19h-48.9V162.2ZM67.561,147.589h48.917v14.19H67.561v-14.19ZM42.89,132.973H91.807v14.19H42.89v-14.19Zm49.342,0h48.9v14.19h-48.9v-14.19ZM67.561,118.358h48.917v14.19H67.561v-14.19ZM42.89,103.742H91.807v14.19H42.89v-14.19Zm0-29.243H91.807v14.19H42.89V74.5ZM67.561,59.884h48.917v14.19H67.561Z" transform="translate(-27.97 -55.02)" fill="#a3cbde" fill-rule="evenodd"/>
      </g>
      <g id="Grupo_1084465" data-name="Grupo 1084465" transform="translate(179 77.601)">
        <path id="Trazado_828086" data-name="Trazado 828086" d="M168.22,210.871a1.16,1.16,0,1,1,1.16-1.16A1.162,1.162,0,0,1,168.22,210.871Z" transform="translate(20.04 -89.368)" fill="#fff" fill-rule="evenodd"/>
        <path id="Trazado_828087" data-name="Trazado 828087" d="M320.67,187.811a1.16,1.16,0,1,1,1.16-1.16A1.162,1.162,0,0,1,320.67,187.811Z" transform="translate(-286.132 -97.611)" fill="#fff" fill-rule="evenodd"/>
        <path id="Trazado_828088" data-name="Trazado 828088" d="M241.56,124.361a1.16,1.16,0,1,1,1.16-1.16A1.162,1.162,0,0,1,241.56,124.361Z" transform="translate(-113.354 -109.288)" fill="#fff" fill-rule="evenodd"/>
        <path id="Trazado_828089" data-name="Trazado 828089" d="M160.49,253.3a1.16,1.16,0,1,1,1.16-1.16A1.162,1.162,0,0,1,160.49,253.3Z" transform="translate(63.705 -85.56)" fill="#fff" fill-rule="evenodd"/>
        <path id="Trazado_828090" data-name="Trazado 828090" d="M304.22,259.091a1.16,1.16,0,1,1,1.16-1.16A1.162,1.162,0,0,1,304.22,259.091Z" transform="translate(-250.205 -84.494)" fill="#fff" fill-rule="evenodd"/>
        <path id="Trazado_828091" data-name="Trazado 828091" d="M322.24,151.781a1.16,1.16,0,1,1,1.16-1.16A1.162,1.162,0,0,1,322.24,151.781Z" transform="translate(-289.561 -104.242)" fill="#fff" fill-rule="evenodd"/>
        <path id="Trazado_828092" data-name="Trazado 828092" d="M146.78,133.421a1.16,1.16,0,1,1,1.16-1.16A1.162,1.162,0,0,1,146.78,133.421Z" transform="translate(93.648 -107.621)" fill="#fff" fill-rule="evenodd"/>
        <path id="Trazado_828093" data-name="Trazado 828093" d="M347.906,148.291a2.546,2.546,0,1,1,2.546-2.546A2.549,2.549,0,0,1,347.906,148.291Z" transform="translate(-345.36 -105.394)" fill="#fff" fill-rule="evenodd"/>
        <path id="Trazado_828094" data-name="Trazado 828094" d="M299.546,173.161a2.546,2.546,0,1,1,2.546-2.546A2.549,2.549,0,0,1,299.546,173.161Z" transform="translate(-239.74 -100.817)" fill="#fff" fill-rule="evenodd"/>
        <path id="Trazado_828095" data-name="Trazado 828095" d="M208.286,116.373a2.552,2.552,0,1,1,2.546-2.546A2.549,2.549,0,0,1,208.286,116.373Z" transform="translate(-40.426 -111.27)" fill="#fff" fill-rule="evenodd"/>
        <path id="Trazado_828096" data-name="Trazado 828096" d="M170.946,158.091a2.546,2.546,0,1,1,2.546-2.546A2.549,2.549,0,0,1,170.946,158.091Z" transform="translate(25.125 -105.462)" fill="#fff" fill-rule="evenodd"/>
        <path id="Trazado_828097" data-name="Trazado 828097" d="M191.056,262.273a2.552,2.552,0,1,1,2.546-2.558A2.552,2.552,0,0,1,191.056,262.273Z" transform="translate(-2.795 -84.42)" fill="#fff" fill-rule="evenodd"/>
        <path id="Trazado_828098" data-name="Trazado 828098" d="M304.448,261.873a2.552,2.552,0,1,1,2.546-2.546A2.56,2.56,0,0,1,304.448,261.873Z" transform="translate(-250.432 -84.494)" fill="#fff" fill-rule="evenodd"/>
      </g>
      <g id="Grupo_1084538" data-name="Grupo 1084538" transform="translate(143 289.602)">
        <path id="Trazado_828086-2" data-name="Trazado 828086" d="M168.22,210.871a1.16,1.16,0,1,1,1.16-1.16A1.162,1.162,0,0,1,168.22,210.871Z" transform="translate(20.04 -89.368)" fill="#fff" fill-rule="evenodd"/>
        <path id="Trazado_828087-2" data-name="Trazado 828087" d="M320.67,187.811a1.16,1.16,0,1,1,1.16-1.16A1.162,1.162,0,0,1,320.67,187.811Z" transform="translate(-286.132 -97.611)" fill="#fff" fill-rule="evenodd"/>
        <path id="Trazado_828290" data-name="Trazado 828290" d="M320.67,187.811a1.16,1.16,0,1,1,1.16-1.16A1.162,1.162,0,0,1,320.67,187.811Z" transform="translate(-106.132 -98.772)" fill="#fff" fill-rule="evenodd"/>
        <path id="Trazado_828088-2" data-name="Trazado 828088" d="M241.56,124.361a1.16,1.16,0,1,1,1.16-1.16A1.162,1.162,0,0,1,241.56,124.361Z" transform="translate(-113.354 -109.288)" fill="#fff" fill-rule="evenodd"/>
        <path id="Trazado_828089-2" data-name="Trazado 828089" d="M160.49,253.3a1.16,1.16,0,1,1,1.16-1.16A1.162,1.162,0,0,1,160.49,253.3Z" transform="translate(63.705 -85.56)" fill="#fff" fill-rule="evenodd"/>
        <path id="Trazado_828090-2" data-name="Trazado 828090" d="M304.22,259.091a1.16,1.16,0,1,1,1.16-1.16A1.162,1.162,0,0,1,304.22,259.091Z" transform="translate(-250.205 -84.494)" fill="#fff" fill-rule="evenodd"/>
        <path id="Trazado_828091-2" data-name="Trazado 828091" d="M322.24,151.781a1.16,1.16,0,1,1,1.16-1.16A1.162,1.162,0,0,1,322.24,151.781Z" transform="translate(-289.561 -104.242)" fill="#fff" fill-rule="evenodd"/>
        <path id="Trazado_828092-2" data-name="Trazado 828092" d="M146.78,133.421a1.16,1.16,0,1,1,1.16-1.16A1.162,1.162,0,0,1,146.78,133.421Z" transform="translate(93.648 -107.621)" fill="#fff" fill-rule="evenodd"/>
        <path id="Trazado_828093-2" data-name="Trazado 828093" d="M347.906,148.291a2.546,2.546,0,1,1,2.546-2.546A2.549,2.549,0,0,1,347.906,148.291Z" transform="translate(-345.36 -105.394)" fill="#fff" fill-rule="evenodd"/>
        <path id="Trazado_828094-2" data-name="Trazado 828094" d="M299.546,173.161a2.546,2.546,0,1,1,2.546-2.546A2.549,2.549,0,0,1,299.546,173.161Z" transform="translate(-239.74 -100.817)" fill="#fff" fill-rule="evenodd"/>
        <path id="Trazado_828095-2" data-name="Trazado 828095" d="M208.286,116.373a2.552,2.552,0,1,1,2.546-2.546A2.549,2.549,0,0,1,208.286,116.373Z" transform="translate(-40.426 -111.27)" fill="#fff" fill-rule="evenodd"/>
        <path id="Trazado_828292" data-name="Trazado 828292" d="M208.286,116.373a2.552,2.552,0,1,1,2.546-2.546A2.549,2.549,0,0,1,208.286,116.373Z" transform="translate(18.483 -376.27)" fill="#727997" fill-rule="evenodd" opacity="0.44"/>
        <path id="Trazado_828296" data-name="Trazado 828296" d="M207.254,114.306a1.518,1.518,0,1,1,1.514-1.514A1.516,1.516,0,0,1,207.254,114.306Z" transform="translate(-1.486 -368.788)" fill="#727997" fill-rule="evenodd" opacity="0.44"/>
        <path id="Trazado_828295" data-name="Trazado 828295" d="M208.287,116.376a2.553,2.553,0,1,1,2.547-2.547A2.551,2.551,0,0,1,208.287,116.376Z" transform="translate(26.482 -307.72)" fill="#727997" fill-rule="evenodd" opacity="0.44"/>
        <path id="Trazado_828293" data-name="Trazado 828293" d="M208.286,116.373a2.552,2.552,0,1,1,2.546-2.546A2.549,2.549,0,0,1,208.286,116.373Z" transform="translate(-86.517 -367.27)" fill="#727997" fill-rule="evenodd" opacity="0.44"/>
        <path id="Trazado_828294" data-name="Trazado 828294" d="M207.574,114.947a1.839,1.839,0,1,1,1.834-1.834A1.837,1.837,0,0,1,207.574,114.947Z" transform="translate(-48.806 -395.557)" fill="#727997" fill-rule="evenodd" opacity="0.44"/>
        <path id="Trazado_828297" data-name="Trazado 828297" d="M207.574,114.947a1.839,1.839,0,1,1,1.834-1.834A1.837,1.837,0,0,1,207.574,114.947Z" transform="translate(-204.806 -384.167)" fill="#727997" fill-rule="evenodd" opacity="0.44"/>
        <path id="Trazado_828298" data-name="Trazado 828298" d="M207.574,114.947a1.839,1.839,0,1,1,1.834-1.834A1.837,1.837,0,0,1,207.574,114.947Z" transform="translate(-142.806 -379.167)" fill="#727997" fill-rule="evenodd" opacity="0.44"/>
        <path id="Trazado_828289" data-name="Trazado 828289" d="M208.286,116.373a2.552,2.552,0,1,1,2.546-2.546A2.549,2.549,0,0,1,208.286,116.373Z" transform="translate(-40.426 -28.494)" fill="#fff" fill-rule="evenodd"/>
        <path id="Trazado_828291" data-name="Trazado 828291" d="M208.286,116.373a2.552,2.552,0,1,1,2.546-2.546A2.549,2.549,0,0,1,208.286,116.373Z" transform="translate(12.574 -79.494)" fill="#fff" fill-rule="evenodd"/>
        <path id="Trazado_828096-2" data-name="Trazado 828096" d="M170.946,158.091a2.546,2.546,0,1,1,2.546-2.546A2.549,2.549,0,0,1,170.946,158.091Z" transform="translate(25.125 -105.462)" fill="#fff" fill-rule="evenodd"/>
        <path id="Trazado_828097-2" data-name="Trazado 828097" d="M191.056,262.273a2.552,2.552,0,1,1,2.546-2.558A2.552,2.552,0,0,1,191.056,262.273Z" transform="translate(-2.795 -84.42)" fill="#fff" fill-rule="evenodd"/>
        <path id="Trazado_828098-2" data-name="Trazado 828098" d="M304.448,261.873a2.552,2.552,0,1,1,2.546-2.546A2.56,2.56,0,0,1,304.448,261.873Z" transform="translate(-250.432 -84.494)" fill="#fff" fill-rule="evenodd"/>
      </g>
    </g>
    <g id="Enmascarar_grupo_1075516" data-name="Enmascarar grupo 1075516" transform="translate(-2.471 -6467)" clip-path="url(#clip-path-2)">
      <g id="Grupo_1079364" data-name="Grupo 1079364" transform="translate(184.471 8047.754)">
        <rect id="Rectángulo_376271" data-name="Rectángulo 376271" width="210" height="470.893" rx="6" transform="translate(157.289 2)" fill="#e9e2ff" opacity="0.74"/>
        <g id="Grupo_1072676" data-name="Grupo 1072676" transform="translate(28.896 27.352)">
          <g id="Grupo_1072643" data-name="Grupo 1072643" transform="translate(196.905 108.273)">
            <path id="Trazado_821477" data-name="Trazado 821477" d="M375.69,210.51l6.23,6.23-6.23,6.237" transform="translate(-375.69 -210.51)" fill="none" stroke="#3a3e44" stroke-linecap="round" stroke-linejoin="round" stroke-width="1"/>
            <path id="Trazado_821478" data-name="Trazado 821478" d="M388.11,210.51l6.23,6.23-6.23,6.237" transform="translate(-380.238 -210.51)" fill="none" stroke="#3a3e44" stroke-linecap="round" stroke-linejoin="round" stroke-width="1"/>
            <path id="Trazado_821479" data-name="Trazado 821479" d="M400.53,210.51l6.23,6.23-6.23,6.237" transform="translate(-384.786 -210.51)" fill="none" stroke="#3a3e44" stroke-linecap="round" stroke-linejoin="round" stroke-width="1"/>
          </g>
          <g id="Grupo_1072644" data-name="Grupo 1072644" transform="translate(325.784 55.882)">
            <path id="Trazado_821480" data-name="Trazado 821480" d="M538.01,91.56l6.23,6.237-6.23,6.23" transform="translate(-538.01 -91.56)" fill="none" stroke="#3a3e44" stroke-linecap="round" stroke-linejoin="round" stroke-width="1"/>
            <path id="Trazado_821481" data-name="Trazado 821481" d="M550.43,91.56l6.23,6.237-6.23,6.23" transform="translate(-542.558 -91.56)" fill="none" stroke="#3a3e44" stroke-linecap="round" stroke-linejoin="round" stroke-width="1"/>
            <path id="Trazado_821482" data-name="Trazado 821482" d="M562.85,91.56l6.23,6.237-6.23,6.23" transform="translate(-547.106 -91.56)" fill="none" stroke="#3a3e44" stroke-linecap="round" stroke-linejoin="round" stroke-width="1"/>
          </g>
          <g id="Grupo_1072645" data-name="Grupo 1072645" transform="translate(0 147.044)">
            <path id="Trazado_821483" data-name="Trazado 821483" d="M65.02,39.75l6.237,6.237-6.237,6.23" transform="translate(-65.02 -39.75)" fill="none" stroke="#3a3e44" stroke-linecap="round" stroke-linejoin="round" stroke-width="1"/>
            <path id="Trazado_821484" data-name="Trazado 821484" d="M77.44,39.75l6.237,6.237-6.237,6.23" transform="translate(-69.568 -39.75)" fill="none" stroke="#3a3e44" stroke-linecap="round" stroke-linejoin="round" stroke-width="1"/>
            <path id="Trazado_821485" data-name="Trazado 821485" d="M89.86,39.75,96.1,45.987l-6.237,6.23" transform="translate(-74.116 -39.75)" fill="none" stroke="#3a3e44" stroke-linecap="round" stroke-linejoin="round" stroke-width="1"/>
          </g>
          <g id="Grupo_1072649" data-name="Grupo 1072649" transform="translate(326.087 169.717)">
            <g id="Grupo_1072646" data-name="Grupo 1072646" transform="translate(0 0)">
              <path id="Trazado_821486" data-name="Trazado 821486" d="M590.968,263.481a1.784,1.784,0,1,1-1.787-1.781A1.789,1.789,0,0,1,590.968,263.481Z" transform="translate(-587.4 -261.7)" fill="#12263f"/>
              <path id="Trazado_821487" data-name="Trazado 821487" d="M606.678,263.481a1.784,1.784,0,1,1-1.787-1.781A1.789,1.789,0,0,1,606.678,263.481Z" transform="translate(-593.153 -261.7)" fill="#12263f"/>
              <path id="Trazado_821488" data-name="Trazado 821488" d="M622.378,263.481a1.784,1.784,0,1,1-1.787-1.781A1.789,1.789,0,0,1,622.378,263.481Z" transform="translate(-598.902 -261.7)" fill="#12263f"/>
            </g>
            <g id="Grupo_1072647" data-name="Grupo 1072647" transform="translate(0 8.835)">
              <path id="Trazado_821489" data-name="Trazado 821489" d="M590.968,277.427a1.784,1.784,0,1,1-1.787-1.787A1.784,1.784,0,0,1,590.968,277.427Z" transform="translate(-587.4 -275.64)" fill="#12263f"/>
              <path id="Trazado_821490" data-name="Trazado 821490" d="M606.678,277.427a1.784,1.784,0,1,1-1.787-1.787A1.784,1.784,0,0,1,606.678,277.427Z" transform="translate(-593.153 -275.64)" fill="#12263f"/>
              <path id="Trazado_821491" data-name="Trazado 821491" d="M622.378,277.427a1.784,1.784,0,1,1-1.787-1.787A1.784,1.784,0,0,1,622.378,277.427Z" transform="translate(-598.902 -275.64)" fill="#12263f"/>
            </g>
            <g id="Grupo_1072648" data-name="Grupo 1072648" transform="translate(0 17.67)">
              <path id="Trazado_821492" data-name="Trazado 821492" d="M590.968,291.367a1.784,1.784,0,1,1-1.787-1.787A1.784,1.784,0,0,1,590.968,291.367Z" transform="translate(-587.4 -289.58)" fill="#12263f"/>
              <path id="Trazado_821493" data-name="Trazado 821493" d="M606.678,291.367a1.784,1.784,0,1,1-1.787-1.787A1.784,1.784,0,0,1,606.678,291.367Z" transform="translate(-593.153 -289.58)" fill="#12263f"/>
              <path id="Trazado_821494" data-name="Trazado 821494" d="M622.378,291.367a1.784,1.784,0,1,1-1.787-1.787A1.784,1.784,0,0,1,622.378,291.367Z" transform="translate(-598.902 -289.58)" fill="#12263f"/>
            </g>
          </g>
          <g id="Grupo_1072653" data-name="Grupo 1072653" transform="translate(0 170.774)">
            <g id="Grupo_1072650" data-name="Grupo 1072650" transform="translate(0)">
              <path id="Trazado_821495" data-name="Trazado 821495" d="M28.811,85.261a2.581,2.581,0,1,1-2.581-2.571A2.583,2.583,0,0,1,28.811,85.261Z" transform="translate(-23.65 -82.69)" fill="#3a3e44"/>
              <path id="Trazado_821496" data-name="Trazado 821496" d="M44.522,85.261a2.576,2.576,0,1,1-2.581-2.571A2.583,2.583,0,0,1,44.522,85.261Z" transform="translate(-24.984 -82.69)" fill="#3a3e44"/>
              <path id="Trazado_821497" data-name="Trazado 821497" d="M60.232,85.261a2.576,2.576,0,1,1-2.581-2.571A2.583,2.583,0,0,1,60.232,85.261Z" transform="translate(-26.318 -82.69)" fill="#3a3e44"/>
            </g>
            <g id="Grupo_1072651" data-name="Grupo 1072651" transform="translate(0 12.766)">
              <path id="Trazado_821498" data-name="Trazado 821498" d="M28.811,99.211a2.581,2.581,0,1,1-2.581-2.571A2.583,2.583,0,0,1,28.811,99.211Z" transform="translate(-23.65 -96.64)" fill="#3a3e44"/>
              <path id="Trazado_821499" data-name="Trazado 821499" d="M44.522,99.211a2.576,2.576,0,1,1-2.581-2.571A2.583,2.583,0,0,1,44.522,99.211Z" transform="translate(-24.984 -96.64)" fill="#3a3e44"/>
              <path id="Trazado_821500" data-name="Trazado 821500" d="M60.232,99.211a2.576,2.576,0,1,1-2.581-2.571A2.583,2.583,0,0,1,60.232,99.211Z" transform="translate(-26.318 -96.64)" fill="#3a3e44"/>
            </g>
            <g id="Grupo_1072652" data-name="Grupo 1072652" transform="translate(0 25.522)">
              <path id="Trazado_821501" data-name="Trazado 821501" d="M28.811,113.161a2.581,2.581,0,1,1-2.581-2.581A2.583,2.583,0,0,1,28.811,113.161Z" transform="translate(-23.65 -110.58)" fill="#3a3e44"/>
              <path id="Trazado_821502" data-name="Trazado 821502" d="M44.522,113.161a2.576,2.576,0,1,1-2.581-2.581A2.583,2.583,0,0,1,44.522,113.161Z" transform="translate(-24.984 -110.58)" fill="#3a3e44"/>
              <path id="Trazado_821503" data-name="Trazado 821503" d="M60.232,113.161a2.576,2.576,0,1,1-2.581-2.581A2.583,2.583,0,0,1,60.232,113.161Z" transform="translate(-26.318 -110.58)" fill="#3a3e44"/>
            </g>
          </g>
        </g>
      </g>
      <g id="Grupo_1079534" data-name="Grupo 1079534" transform="translate(536.186 8288.256)">
        <g id="Grupo_1079533" data-name="Grupo 1079533" clip-path="url(#clip-path-3)">
          <g id="Grupo_1079532" data-name="Grupo 1079532">
            <g id="Grupo_1079531" data-name="Grupo 1079531" clip-path="url(#clip-path-3)">
              <path id="Trazado_827129" data-name="Trazado 827129" d="M24.809.662H2.071c.2,1.72,1.642,9,11.368,9.072,9.745-.068,11.17-7.353,11.37-9.072" fill="#01c3fd"/>
              <path id="Trazado_827130" data-name="Trazado 827130" d="M18.572,23.412V9.525a14.786,14.786,0,0,1-5,.867V10.4c-.046,0-.089,0-.134,0s-.089,0-.135,0v-.008a14.78,14.78,0,0,1-5-.867V23.412a16.952,16.952,0,0,1,4.984-.76v-.008c.051,0,.1,0,.149,0s.1,0,.15,0v.008a16.956,16.956,0,0,1,4.983.76" fill="#01c3fd"/>
              <path id="Trazado_827131" data-name="Trazado 827131" d="M18.584,24.173h-.012v0a16.429,16.429,0,0,0-5.133-.785,16.469,16.469,0,0,0-5.134.783v.006H8.286a11.054,11.054,0,0,0-7.5,9.3h25.3a11.082,11.082,0,0,0-7.5-9.3" fill="#01c3fd"/>
              <g id="Grupo_1079524" data-name="Grupo 1079524" opacity="0.4">
                <g id="Grupo_1079523" data-name="Grupo 1079523">
                  <g id="Grupo_1079522" data-name="Grupo 1079522" clip-path="url(#clip-path-5)">
                    <path id="Trazado_827132" data-name="Trazado 827132" d="M11.92,22.978l-3.988.84L7.808,8.787l4.112,1.291Z" fill="#fff"/>
                  </g>
                </g>
              </g>
              <g id="Grupo_1079527" data-name="Grupo 1079527" opacity="0.4">
                <g id="Grupo_1079526" data-name="Grupo 1079526">
                  <g id="Grupo_1079525" data-name="Grupo 1079525" clip-path="url(#clip-path-6)">
                    <path id="Trazado_827133" data-name="Trazado 827133" d="M8.14.662s-.7,6.126,3.78,9.416C7.843,9.241,5,7.98,3.411,5.385a10.47,10.47,0,0,1-1.575-5Z" fill="#fff"/>
                  </g>
                </g>
              </g>
              <g id="Grupo_1079530" data-name="Grupo 1079530" opacity="0.4">
                <g id="Grupo_1079529" data-name="Grupo 1079529">
                  <g id="Grupo_1079528" data-name="Grupo 1079528" clip-path="url(#clip-path-7)">
                    <path id="Trazado_827134" data-name="Trazado 827134" d="M8.306,33.477s-1.029-6.422,3.614-10.5a12.922,12.922,0,0,0-9.024,4.5C.811,29.69.278,33.725.278,33.725Z" fill="#fff"/>
                  </g>
                </g>
              </g>
              <path id="Trazado_827135" data-name="Trazado 827135" d="M10.712,33.7l2.252,21.75,3.063-21.729-.462-.021Z" fill="#727997"/>
              <path id="Trazado_827136" data-name="Trazado 827136" d="M19.309,23.675V9.221A11.014,11.014,0,0,0,25.5.347L25.518,0H1.36l.017.347A11.016,11.016,0,0,0,7.569,9.221V23.675C.492,26.417.024,33.736.02,33.827L0,34.214H10.486l2.392,24.618,3.464-24.618H26.878l-.019-.387c0-.091-.473-7.41-7.55-10.152M2.07.662H24.809c-.2,1.719-1.626,9-11.37,9.072C3.712,9.666,2.274,2.382,2.07.662M13.44,22.647c-.051,0-.1,0-.15,0v.008a16.989,16.989,0,0,0-4.984.761V9.525a14.781,14.781,0,0,0,5,.867V10.4c.046,0,.088,0,.134,0s.088,0,.134,0v-.007a14.781,14.781,0,0,0,5-.867V23.412a16.943,16.943,0,0,0-4.983-.761v-.008c-.051,0-.1,0-.149,0M13.012,52.59,11.226,34.214H15.6ZM10.689,33.477H.79a11.05,11.05,0,0,1,7.5-9.3h.019v-.006a16.462,16.462,0,0,1,5.133-.783,16.424,16.424,0,0,1,5.133.785v0h.012a11.081,11.081,0,0,1,7.5,9.3Z" fill="#242c33"/>
              <rect id="Rectángulo_380880" data-name="Rectángulo 380880" width="0.727" height="5.945" transform="translate(17.169 11.093)" fill="#242c33"/>
              <rect id="Rectángulo_380881" data-name="Rectángulo 380881" width="0.727" height="1.667" transform="translate(17.169 18.119)" fill="#242c33"/>
              <rect id="Rectángulo_380882" data-name="Rectángulo 380882" width="7.34" height="0.727" transform="translate(6.1 31.865)" fill="#242c33"/>
              <rect id="Rectángulo_380883" data-name="Rectángulo 380883" width="1.935" height="0.727" transform="translate(15.597 31.865)" fill="#242c33"/>
              <rect id="Rectángulo_380884" data-name="Rectángulo 380884" width="1.934" height="0.727" transform="translate(18.573 31.865)" fill="#242c33"/>
            </g>
          </g>
        </g>
      </g>
      <g id="Grupo_1079594" data-name="Grupo 1079594" transform="translate(183.471 8115.754)">
        <g id="Grupo_1079609" data-name="Grupo 1079609" clip-path="url(#clip-path-8)">
          <path id="Trazado_827222" data-name="Trazado 827222" d="M44.773,207.3l-7.891-3.865V201.56l7.754-3.774.915,2.127-4.437,1.99c-.458.229-.984.434-1.4.594.412.16.961.39,1.418.6l4.552,2.082Z" fill="#6e40fc"/>
          <path id="Trazado_827223" data-name="Trazado 827223" d="M34.368,207.3l-7.891-3.865V201.56l7.754-3.774.915,2.127-4.437,1.99c-.458.229-.984.434-1.4.594.412.16.961.39,1.418.6l4.552,2.082Z" fill="#6e40fc"/>
        </g>
      </g>
      <g id="Grupo_1079640" data-name="Grupo 1079640" transform="translate(194.341 8283.588)" opacity="0.65">
        <g id="Grupo_1079639" data-name="Grupo 1079639" clip-path="url(#clip-path-9)">
          <g id="Grupo_1079638" data-name="Grupo 1079638">
            <g id="Grupo_1079637" data-name="Grupo 1079637" clip-path="url(#clip-path-9)">
              <g id="Grupo_1079612" data-name="Grupo 1079612">
                <g id="Grupo_1079611" data-name="Grupo 1079611">
                  <g id="Grupo_1079610" data-name="Grupo 1079610" clip-path="url(#clip-path-11)">
                    <path id="Trazado_827224" data-name="Trazado 827224" d="M80.314,129.838A39.074,39.074,0,1,1,41.24,90.764a39.074,39.074,0,0,1,39.074,39.074" fill="#ccbcfe"/>
                  </g>
                </g>
              </g>
              <g id="Grupo_1079615" data-name="Grupo 1079615" transform="translate(5.499)" opacity="0.5">
                <g id="Grupo_1079614" data-name="Grupo 1079614">
                  <g id="Grupo_1079613" data-name="Grupo 1079613" clip-path="url(#clip-path-12)">
                    <path id="Trazado_827225" data-name="Trazado 827225" d="M310.589,33.748A33.748,33.748,0,1,1,276.84,0a33.749,33.749,0,0,1,33.749,33.748" fill="#ccbcfe"/>
                  </g>
                </g>
              </g>
              <g id="Grupo_1079618" data-name="Grupo 1079618" opacity="0.5">
                <g id="Grupo_1079617" data-name="Grupo 1079617">
                  <g id="Grupo_1079616" data-name="Grupo 1079616" clip-path="url(#clip-path-13)">
                    <path id="Trazado_827226" data-name="Trazado 827226" d="M135.124,194.983a11.993,11.993,0,1,1-11.993-11.992,11.993,11.993,0,0,1,11.993,11.992" fill="#e5e589"/>
                  </g>
                </g>
              </g>
              <g id="Grupo_1079621" data-name="Grupo 1079621">
                <g id="Grupo_1079620" data-name="Grupo 1079620">
                  <g id="Grupo_1079619" data-name="Grupo 1079619" clip-path="url(#clip-path-14)">
                    <path id="Trazado_827227" data-name="Trazado 827227" d="M222.792,149.808a7.484,7.484,0,1,1-7.484-7.484,7.484,7.484,0,0,1,7.484,7.484" fill="#ccbcfe"/>
                  </g>
                </g>
              </g>
              <g id="Grupo_1079624" data-name="Grupo 1079624" transform="translate(20.098 -12.247)">
                <g id="Grupo_1079623" data-name="Grupo 1079623">
                  <g id="Grupo_1079622" data-name="Grupo 1079622" clip-path="url(#clip-path-15)">
                    <path id="Trazado_827228" data-name="Trazado 827228" d="M321.489,195.237a15.5,15.5,0,1,1-15.5-15.5,15.5,15.5,0,0,1,15.5,15.5" fill="#ccbcfe"/>
                  </g>
                </g>
              </g>
              <g id="Grupo_1079643" data-name="Grupo 1079643" transform="translate(43.215 -393.446)">
                <g id="Grupo_1079623-2" data-name="Grupo 1079623">
                  <g id="Grupo_1079622-2" data-name="Grupo 1079622" clip-path="url(#clip-path-15)">
                    <path id="Trazado_827228-2" data-name="Trazado 827228" d="M321.489,195.237a15.5,15.5,0,1,1-15.5-15.5,15.5,15.5,0,0,1,15.5,15.5" fill="#ccbcfe"/>
                  </g>
                </g>
              </g>
              <g id="Grupo_1079627" data-name="Grupo 1079627" transform="translate(0 56.735)">
                <g id="Grupo_1079626" data-name="Grupo 1079626">
                  <g id="Grupo_1079625" data-name="Grupo 1079625" clip-path="url(#clip-path-17)">
                    <path id="Trazado_827229" data-name="Trazado 827229" d="M378.13,73.1a22.212,22.212,0,1,1-22.212-22.211A22.212,22.212,0,0,1,378.13,73.1" fill="#ccbcfe"/>
                  </g>
                </g>
              </g>
              <g id="Grupo_1079630" data-name="Grupo 1079630">
                <g id="Grupo_1079629" data-name="Grupo 1079629">
                  <g id="Grupo_1079628" data-name="Grupo 1079628" clip-path="url(#clip-path-18)">
                    <path id="Trazado_827230" data-name="Trazado 827230" d="M48.408,244.567a24.2,24.2,0,1,1-24.2-24.2,24.2,24.2,0,0,1,24.2,24.2" fill="#ccbcfe"/>
                  </g>
                </g>
              </g>
              <g id="Grupo_1079633" data-name="Grupo 1079633" transform="translate(51.199 62)" opacity="0.5">
                <g id="Grupo_1079632" data-name="Grupo 1079632">
                  <g id="Grupo_1079631" data-name="Grupo 1079631" clip-path="url(#clip-path-19)">
                    <path id="Trazado_827231" data-name="Trazado 827231" d="M288.388,224.583A10.488,10.488,0,1,1,277.9,214.1a10.488,10.488,0,0,1,10.488,10.488" fill="#e5e589"/>
                  </g>
                </g>
              </g>
              <g id="Grupo_1079636" data-name="Grupo 1079636">
                <g id="Grupo_1079635" data-name="Grupo 1079635">
                  <g id="Grupo_1079634" data-name="Grupo 1079634" clip-path="url(#clip-path-20)">
                    <path id="Trazado_827232" data-name="Trazado 827232" d="M234.836,238.236a22.068,22.068,0,1,1-22.068-22.068,22.068,22.068,0,0,1,22.068,22.068" fill="#ccbcfe"/>
                  </g>
                </g>
              </g>
            </g>
          </g>
        </g>
      </g>
      <g id="Gears" transform="matrix(0.809, 0.588, -0.588, 0.809, 503.019, 8008.609)">
        <g id="Grupo_1085240" data-name="Grupo 1085240" transform="translate(0)" opacity="0.62">
          <g id="Grupo_1085239" data-name="Grupo 1085239" transform="translate(0 47.455)">
            <g id="Grupo_1085237" data-name="Grupo 1085237" transform="translate(0 0)">
              <path id="Trazado_831376" data-name="Trazado 831376" d="M471.56,46.442a16.156,16.156,0,0,0,3.934,1.711l.811,3.9,6.583.115.946-3.865a16.075,16.075,0,0,0,3.992-1.572l3.329,2.182,4.737-4.573-2.063-3.4A16.117,16.117,0,0,0,495.539,37l3.893-.811.115-6.583-3.865-.946a16.078,16.078,0,0,0-1.572-3.992l2.182-3.328L491.72,16.6l-3.4,2.063a16.155,16.155,0,0,0-3.934-1.711l-.811-3.9-6.583-.115-.946,3.865a16.075,16.075,0,0,0-3.992,1.572l-3.329-2.182-4.737,4.573,2.063,3.4a16.155,16.155,0,0,0-1.711,3.934l-3.893.811L460.33,35.5l3.865.946a16.073,16.073,0,0,0,1.572,3.992l-2.182,3.328,4.573,4.737,3.4-2.063h0Zm3.509-8.77a7.062,7.062,0,1,1,9.985.176A7.058,7.058,0,0,1,475.069,37.672Z" transform="translate(-460.33 -12.94)" fill="#e8505b"/>
              <g id="Grupo_1085236" data-name="Grupo 1085236" opacity="0.8">
                <path id="Trazado_831377" data-name="Trazado 831377" d="M471.56,46.442a16.156,16.156,0,0,0,3.934,1.711l.811,3.9,6.583.115.946-3.865a16.075,16.075,0,0,0,3.992-1.572l3.329,2.182,4.737-4.573-2.063-3.4A16.117,16.117,0,0,0,495.539,37l3.893-.811.115-6.583-3.865-.946a16.078,16.078,0,0,0-1.572-3.992l2.182-3.328L491.72,16.6l-3.4,2.063a16.155,16.155,0,0,0-3.934-1.711l-.811-3.9-6.583-.115-.946,3.865a16.075,16.075,0,0,0-3.992,1.572l-3.329-2.182-4.737,4.573,2.063,3.4a16.155,16.155,0,0,0-1.711,3.934l-3.893.811L460.33,35.5l3.865.946a16.073,16.073,0,0,0,1.572,3.992l-2.182,3.328,4.573,4.737,3.4-2.063h0Zm3.509-8.77a7.062,7.062,0,1,1,9.985.176A7.058,7.058,0,0,1,475.069,37.672Z" transform="translate(-460.33 -12.94)" fill="#799dff"/>
              </g>
            </g>
            <g id="Grupo_1085238" data-name="Grupo 1085238" transform="translate(50.853 11.947)">
              <path id="Trazado_831378" data-name="Trazado 831378" d="M592.986,33.356a11.952,11.952,0,0,0,2.9,1.261l.6,2.866,4.843.086.7-2.845a11.863,11.863,0,0,0,2.94-1.155l2.448,1.6,3.484-3.365-1.519-2.5a11.782,11.782,0,0,0,1.257-2.9l2.866-.6.086-4.843-2.845-.7a11.861,11.861,0,0,0-1.155-2.94l1.6-2.448L607.823,11.4l-2.5,1.519a11.781,11.781,0,0,0-2.9-1.257l-.6-2.866-4.843-.086-.7,2.845a11.866,11.866,0,0,0-2.94,1.155l-2.448-1.6-3.484,3.365,1.519,2.5a11.954,11.954,0,0,0-1.261,2.9l-2.866.6-.086,4.843,2.845.7a11.863,11.863,0,0,0,1.155,2.94l-1.6,2.448,3.365,3.484,2.506-1.519h0Zm2.583-6.452a5.2,5.2,0,1,1,7.349.131A5.2,5.2,0,0,1,595.569,26.9Z" transform="translate(-584.646 -8.559)" fill="#fff"/>
              <path id="Trazado_831379" data-name="Trazado 831379" d="M608.975,39.618a3.831,3.831,0,0,0,.966.847,5.175,5.175,0,0,0,3.39.8,5.232,5.232,0,0,0,2.3-.819,5.3,5.3,0,0,0,1.863-2.1,5.337,5.337,0,0,0,.5-3.058,5.3,5.3,0,0,0-4.385-4.544,5.3,5.3,0,0,0-3.075.393,5.365,5.365,0,0,0-2.166,1.789,5.261,5.261,0,0,0-.9,2.276,5.163,5.163,0,0,0,.684,3.419,3.976,3.976,0,0,0,.815,1,12.322,12.322,0,0,1-.712-1.056,5.159,5.159,0,0,1-.573-3.329,5.034,5.034,0,0,1,.893-2.162,5.088,5.088,0,0,1,2.076-1.683,5.091,5.091,0,0,1,2.915-.356,5.03,5.03,0,0,1,4.147,4.295,4.817,4.817,0,0,1-.02,1.515,4.716,4.716,0,0,1-.438,1.384,5.119,5.119,0,0,1-1.752,2.014,5.064,5.064,0,0,1-2.194.815,5.164,5.164,0,0,1-3.3-.692c-.7-.426-1-.778-1.028-.749Z" transform="translate(-598.052 -21.276)" fill="#1e5af9"/>
              <path id="Trazado_831380" data-name="Trazado 831380" d="M592.879,33.3s-.053.025-.16.086l-.479.278-1.887,1.114.057.008c-.856-.9-1.982-2.08-3.345-3.5l.008.094c.487-.741,1.032-1.564,1.613-2.44l.029-.045-.025-.045a11.849,11.849,0,0,1-1.138-2.919l-.012-.057-.057-.016c-.884-.221-1.846-.459-2.841-.7l.082.106q.043-2.291.1-4.843l-.094.115c.888-.184,1.867-.385,2.87-.59l.074-.016.02-.074a12,12,0,0,1,1.249-2.866l.041-.066-.041-.066c-.471-.778-.987-1.634-1.515-2.506l-.021.164c1.1-1.056,2.28-2.194,3.488-3.361l-.172.016,2.448,1.609.074.045.074-.041a11.918,11.918,0,0,1,2.907-1.142l.086-.02.02-.086c.217-.893.459-1.863.7-2.845l-.143.111c1.535.029,3.177.057,4.843.086l-.143-.119c.188.9.393,1.883.6,2.866l.016.09.086.025a11.863,11.863,0,0,1,2.858,1.241h0l.078.049.078-.045q1.259-.762,2.5-1.519l-.184-.025q1.707,1.769,3.365,3.484l-.016-.184c-.54.823-1.073,1.642-1.6,2.448l-.049.074.045.078a11.637,11.637,0,0,1,1.142,2.9l.02.086.086.02c.962.233,1.908.467,2.845.7l-.106-.139c-.029,1.654-.053,3.271-.082,4.843l.11-.131-2.866.6-.078.016-.02.078a11.676,11.676,0,0,1-1.241,2.866l-.041.066.041.066c.52.856,1.028,1.687,1.523,2.5l.02-.151-3.48,3.374.143-.012c-.864-.561-1.67-1.089-2.452-1.6l-.053-.037-.057.033a11.9,11.9,0,0,1-2.911,1.155l-.057.016-.012.057c-.25,1.036-.475,1.965-.688,2.845l.086-.066c-1.875-.025-3.476-.045-4.843-.066l.065.053c-.246-1.142-.446-2.084-.614-2.862l-.008-.029-.029-.008a12.486,12.486,0,0,1-2.215-.852c-.225-.119-.4-.2-.52-.274a1.38,1.38,0,0,0-.172-.09s.057.041.16.111.278.172.512.295a11.553,11.553,0,0,0,2.211.9l-.033-.037c.16.782.348,1.724.577,2.87l.012.053h.053c1.367.033,2.968.066,4.843.106h.07l.016-.066c.217-.88.45-1.81.708-2.841l-.07.074a11.866,11.866,0,0,0,2.968-1.159h-.11c.778.508,1.584,1.04,2.444,1.609l.078.049.065-.066c1.105-1.06,2.264-2.178,3.492-3.357l.07-.07-.053-.086c-.491-.815-.995-1.646-1.515-2.506v.135a12.037,12.037,0,0,0,1.277-2.927l-.1.094c.938-.192,1.9-.393,2.87-.594l.106-.02v-.111q.049-2.364.09-4.843V20.8l-.106-.029-2.845-.7.107.106a12.061,12.061,0,0,0-1.167-2.976v.151c.524-.807,1.06-1.625,1.6-2.448l.065-.1-.082-.086-3.365-3.488-.082-.086-.1.061c-.827.5-1.662,1.007-2.5,1.519h.156a12.083,12.083,0,0,0-2.931-1.273l.107.115c-.2-.983-.409-1.961-.6-2.866l-.025-.115h-.119c-1.666-.029-3.312-.057-4.843-.086h-.115l-.029.111c-.242.983-.479,1.953-.7,2.845l.107-.106A12.162,12.162,0,0,0,593.2,12.52h.147c-.847-.549-1.687-1.1-2.448-1.6l-.094-.061-.078.078c-1.208,1.171-2.387,2.313-3.48,3.369l-.078.074.053.09c.528.872,1.048,1.724,1.523,2.5v-.131a12.113,12.113,0,0,0-1.269,2.931l.094-.086c-1,.209-1.977.418-2.866.6l-.09.02v.094c-.029,1.7-.053,3.32-.074,4.843v.086l.082.02,2.845.688-.07-.074a11.979,11.979,0,0,0,1.175,2.96v-.09L586.98,31.3l-.033.049.041.045,3.386,3.468.029.029.033-.02c.8-.5,1.417-.88,1.842-1.146.2-.127.356-.229.475-.3a1.435,1.435,0,0,0,.16-.111Z" transform="translate(-584.54 -8.5)" fill="#1e5af9"/>
            </g>
          </g>
        </g>
      </g>
      <g id="Grupo_1079494" data-name="Grupo 1079494" transform="translate(225.471 8075.939)">
        <g id="Grupo_1079514" data-name="Grupo 1079514" clip-path="url(#clip-path-21)">
          <rect id="Rectángulo_380839" data-name="Rectángulo 380839" width="95.189" height="51.642" transform="translate(6.931 367.552)" fill="#54667a"/>
          <rect id="Rectángulo_380840" data-name="Rectángulo 380840" width="2.604" height="51.64" transform="translate(5.627 367.555)" fill="#242c33"/>
          <rect id="Rectángulo_380841" data-name="Rectángulo 380841" width="2.604" height="51.64" transform="translate(100.819 367.555)" fill="#242c33"/>
          <path id="Trazado_827054" data-name="Trazado 827054" d="M11,125.65H1v39.274H104.67V125.65H11Z" transform="translate(1.604 201.524)" fill="#6e40fc"/>
          <g id="Grupo_1079513" data-name="Grupo 1079513">
            <g id="Grupo_1079512" data-name="Grupo 1079512" clip-path="url(#clip-path-21)">
              <path id="Trazado_827055" data-name="Trazado 827055" d="M56.587,123.4c3.682-15.3,6.494-37.162-4.8-53.009A63.974,63.974,0,0,0,36.823,56c-.1,5.161-.518,18.464-2.252,38.214-2.138,24.31-26.164,65.234-28.731,69.546v70.981H78.912l31.837-23.885c-2.786-2.812-54.335-86.747-54.163-87.463" transform="translate(9.367 89.824)" fill="#fff"/>
              <path id="Trazado_827056" data-name="Trazado 827056" d="M123.834,211.211c-.906-.458-.6-.5-1.3-1.213L88.279,235.362H15.209V164.381c2.565-4.312,26.593-45.237,28.728-69.546.214-2.416.4-4.7.573-6.924l9.475.648.143-.88c.1-.628,2.25-15.037-8.252-21.643.1-2.229.169-4.166.219-5.781A1.9,1.9,0,0,1,49.15,58.8a60.979,60.979,0,0,1,12,12.2c11.3,15.85,3.635,47.677-.047,62.972-.172.716-.325,1.357-.469,1.961a10.381,10.381,0,0,1,2.148.156c3.552-7.463,11.043-51.793.49-66.6a65.545,65.545,0,0,0-13.105-13,4.163,4.163,0,0,0-6.7,3.171c-.227,7.4-.776,19.664-2.117,34.939-2.156,24.539-28.288,68.3-28.554,68.744l-.185.31v71.7H0v44.482H108.878V235.362H92.7ZM52.3,86.486l-7.64-.521c.531-6.976.883-12.9,1.112-17.672,7.075,5.262,6.8,15.186,6.528,18.193M106.274,277.24H2.606V237.966H106.274Z" transform="translate(0 89.209)" fill="#242c33"/>
              <rect id="Rectángulo_380842" data-name="Rectángulo 380842" width="44.659" height="1.953" transform="translate(6.445 360.506)" fill="#242c33"/>
              <rect id="Rectángulo_380843" data-name="Rectángulo 380843" width="10.819" height="1.953" transform="translate(54.525 360.506)" fill="#242c33"/>
              <rect id="Rectángulo_380844" data-name="Rectángulo 380844" width="3.091" height="1.953" transform="translate(68.192 360.506)" fill="#242c33"/>
              <path id="Trazado_827057" data-name="Trazado 827057" d="M133.244,1,23.958,209.767v20.7L143.18,1Z" transform="translate(38.425 1.604)" fill="#54667a"/>
              <path id="Trazado_827058" data-name="Trazado 827058" d="M95.291,1,23.958,135.638v38.321L114.5,1Z" transform="translate(38.425 1.604)" fill="#54667a"/>
              <path id="Trazado_827059" data-name="Trazado 827059" d="M215.607,1H168.412L23.958,279.027v6.34A10.845,10.845,0,0,0,34.8,296.212H216.182a10.876,10.876,0,0,0,10.876-10.876V12.452A11.452,11.452,0,0,0,215.607,1" transform="translate(38.425 1.604)" fill="#54667a"/>
              <path id="Trazado_827060" data-name="Trazado 827060" d="M80.37,1H35.161a11.2,11.2,0,0,0-11.2,11.2V135.638L95.292,1Z" transform="translate(38.424 1.604)" fill="#54667a"/>
              <g id="Grupo_1079496" data-name="Grupo 1079496" transform="translate(62.382 2.604)" opacity="0.3">
                <g id="Grupo_1079495" data-name="Grupo 1079495">
                  <g id="Grupo_1079494-2" data-name="Grupo 1079494" clip-path="url(#clip-path-23)">
                    <path id="Trazado_827061" data-name="Trazado 827061" d="M80.37,1H35.161a11.2,11.2,0,0,0-11.2,11.2V135.638L95.292,1Z" transform="translate(-23.959 -1)" fill="#fff"/>
                  </g>
                </g>
              </g>
              <path id="Trazado_827062" data-name="Trazado 827062" d="M114.5,1,23.958,173.959v35.808L133.244,1Z" transform="translate(38.425 1.604)" fill="#54667a"/>
              <g id="Grupo_1079499" data-name="Grupo 1079499" transform="translate(62.382 2.604)" opacity="0.3">
                <g id="Grupo_1079498" data-name="Grupo 1079498">
                  <g id="Grupo_1079497" data-name="Grupo 1079497" clip-path="url(#clip-path-24)">
                    <path id="Trazado_827063" data-name="Trazado 827063" d="M114.5,1,23.958,173.959v35.808L133.244,1Z" transform="translate(-23.957 -0.999)" fill="#fff"/>
                  </g>
                </g>
              </g>
              <path id="Trazado_827064" data-name="Trazado 827064" d="M143.181,1,23.958,230.468v48.559L168.412,1Z" transform="translate(38.425 1.604)" fill="#54667a"/>
              <path id="Trazado_831311" data-name="Trazado 831311" d="M0,0H175.924V256.644H0Z" transform="translate(75.91 15.222)" fill="#01c3fd"/>
              <g id="Grupo_1079511" data-name="Grupo 1079511" transform="translate(75.912 15.032)" opacity="0.4">
                <g id="Grupo_1079510" data-name="Grupo 1079510">
                  <g id="Grupo_1079509" data-name="Grupo 1079509" clip-path="url(#clip-path-25)">
                    <path id="Trazado_827076" data-name="Trazado 827076" d="M80.374,5.773l-51.22,97.853V5.965Z" transform="translate(-29.154 -5.774)" fill="#fff"/>
                  </g>
                </g>
              </g>
              <path id="Trazado_827077" data-name="Trazado 827077" d="M93.464,112.347a4.221,4.221,0,0,0-4.216-4.216H59.924a4.216,4.216,0,0,0,0,8.431H89.248a4.221,4.221,0,0,0,4.216-4.216" transform="translate(89.348 173.426)" fill="#6e40fc"/>
              <path id="Trazado_827078" data-name="Trazado 827078" d="M231.266,282.685V17.735A17.755,17.755,0,0,0,213.532,0H40.693A17.755,17.755,0,0,0,22.958,17.735v264.95A17.755,17.755,0,0,0,40.693,300.42H213.532a17.755,17.755,0,0,0,17.735-17.735M40.693,297.816a15.149,15.149,0,0,1-15.131-15.131V17.735A15.149,15.149,0,0,1,40.693,2.6H213.532a15.149,15.149,0,0,1,15.131,15.131v264.95a15.149,15.149,0,0,1-15.131,15.131Z" transform="translate(36.821)" fill="#242c33"/>
              <path id="Trazado_827079" data-name="Trazado 827079" d="M28.791,264.433H206.72V5.391H28.791Zm175.325-2.6H31.395V7.995H204.116Z" transform="translate(46.177 8.646)" fill="#242c33"/>
              <path id="Trazado_827080" data-name="Trazado 827080" d="M97.672,113.951a6.828,6.828,0,0,0-6.82-6.819H61.527a6.82,6.82,0,0,0,0,13.639H90.852a6.828,6.828,0,0,0,6.82-6.82m-36.144,4.216a4.216,4.216,0,0,1,0-8.431H90.852a4.216,4.216,0,1,1,0,8.431Z" transform="translate(87.744 171.824)" fill="#242c33"/>
              <rect id="Rectángulo_380853" data-name="Rectángulo 380853" width="1.953" height="42.854" transform="translate(80.6 20.125)" fill="#242c33"/>
              <rect id="Rectángulo_380854" data-name="Rectángulo 380854" width="1.953" height="7.705" transform="translate(80.6 66.437)" fill="#242c33"/>
              <rect id="Rectángulo_380855" data-name="Rectángulo 380855" width="1.953" height="16.238" transform="translate(80.6 84.5)" fill="#242c33"/>
              <rect id="Rectángulo_380856" data-name="Rectángulo 380856" width="1.953" height="1.411" transform="translate(80.6 76.707)" fill="#242c33"/>
              <rect id="Rectángulo_380857" data-name="Rectángulo 380857" width="1.953" height="1.409" transform="translate(80.6 80.558)" fill="#242c33"/>
              <rect id="Rectángulo_380858" data-name="Rectángulo 380858" width="1.953" height="42.854" transform="translate(244.833 67.31)" fill="#242c33"/>
              <rect id="Rectángulo_380859" data-name="Rectángulo 380859" width="1.953" height="42.854" transform="translate(244.833 131.659)" fill="#242c33"/>
              <rect id="Rectángulo_380860" data-name="Rectángulo 380860" width="1.953" height="7.702" transform="translate(244.833 113.622)" fill="#242c33"/>
              <rect id="Rectángulo_380861" data-name="Rectángulo 380861" width="1.953" height="1.411" transform="translate(244.833 127.743)" fill="#242c33"/>
              <rect id="Rectángulo_380862" data-name="Rectángulo 380862" width="23.685" height="1.953" transform="translate(173.227 265.593)" fill="#242c33"/>
              <rect id="Rectángulo_380863" data-name="Rectángulo 380863" width="1.411" height="1.953" transform="translate(170.295 265.593)" fill="#242c33"/>
              <rect id="Rectángulo_380864" data-name="Rectángulo 380864" width="11.053" height="1.953" transform="translate(157.604 265.593)" fill="#242c33"/>
              <g id="Grupo_1085221" data-name="Grupo 1085221" transform="translate(7.384 108.323)">
                <rect id="Rectángulo_380865" data-name="Rectángulo 380865" width="23.685" height="1.953" transform="translate(193.732 19.148)" fill="#242c33"/>
                <rect id="Rectángulo_380866" data-name="Rectángulo 380866" width="11.053" height="1.953" transform="translate(179.044 19.148)" fill="#242c33"/>
                <rect id="Rectángulo_380867" data-name="Rectángulo 380867" width="11.053" height="1.953" transform="translate(165.561 19.148)" fill="#242c33"/>
              </g>
              <g id="Grupo_1085224" data-name="Grupo 1085224" transform="translate(7.384 131.985)">
                <rect id="Rectángulo_380865-2" data-name="Rectángulo 380865" width="23.685" height="1.953" transform="translate(193.732 19.148)" fill="#242c33"/>
                <rect id="Rectángulo_380866-2" data-name="Rectángulo 380866" width="11.053" height="1.953" transform="translate(179.044 19.148)" fill="#242c33"/>
                <rect id="Rectángulo_380867-2" data-name="Rectángulo 380867" width="11.053" height="1.953" transform="translate(165.561 19.148)" fill="#242c33"/>
              </g>
              <g id="Grupo_1085226" data-name="Grupo 1085226" transform="translate(7.384 157.985)">
                <rect id="Rectángulo_380865-3" data-name="Rectángulo 380865" width="23.685" height="1.953" transform="translate(193.732 19.148)" fill="#242c33"/>
                <rect id="Rectángulo_380866-3" data-name="Rectángulo 380866" width="11.053" height="1.953" transform="translate(179.044 19.148)" fill="#242c33"/>
                <rect id="Rectángulo_380867-3" data-name="Rectángulo 380867" width="11.053" height="1.953" transform="translate(165.561 19.148)" fill="#242c33"/>
              </g>
              <g id="Grupo_1085222" data-name="Grupo 1085222" transform="translate(-62.616 108.323)">
                <rect id="Rectángulo_380865-4" data-name="Rectángulo 380865" width="23.685" height="1.953" transform="translate(193.732 19.148)" fill="#242c33"/>
                <rect id="Rectángulo_380866-4" data-name="Rectángulo 380866" width="11.053" height="1.953" transform="translate(179.044 19.148)" fill="#242c33"/>
                <rect id="Rectángulo_380867-4" data-name="Rectángulo 380867" width="11.053" height="1.953" transform="translate(165.561 19.148)" fill="#242c33"/>
              </g>
              <g id="Grupo_1085223" data-name="Grupo 1085223" transform="translate(-62.616 131.985)">
                <rect id="Rectángulo_380865-5" data-name="Rectángulo 380865" width="23.685" height="1.953" transform="translate(193.732 19.148)" fill="#242c33"/>
                <rect id="Rectángulo_380866-5" data-name="Rectángulo 380866" width="11.053" height="1.953" transform="translate(179.044 19.148)" fill="#242c33"/>
                <rect id="Rectángulo_380867-5" data-name="Rectángulo 380867" width="11.053" height="1.953" transform="translate(165.561 19.148)" fill="#242c33"/>
              </g>
              <g id="Grupo_1085225" data-name="Grupo 1085225" transform="translate(-62.616 157.985)">
                <rect id="Rectángulo_380865-6" data-name="Rectángulo 380865" width="23.685" height="1.953" transform="translate(193.732 19.148)" fill="#242c33"/>
                <rect id="Rectángulo_380866-6" data-name="Rectángulo 380866" width="11.053" height="1.953" transform="translate(179.044 19.148)" fill="#242c33"/>
                <rect id="Rectángulo_380867-6" data-name="Rectángulo 380867" width="11.053" height="1.953" transform="translate(165.561 19.148)" fill="#242c33"/>
              </g>
              <rect id="Rectángulo_380868" data-name="Rectángulo 380868" width="1.953" height="1.409" transform="translate(244.833 124.144)" fill="#242c33"/>
              <path id="Trazado_827084" data-name="Trazado 827084" d="M52.462,76.875A15.483,15.483,0,1,0,67.944,92.358,15.5,15.5,0,0,0,52.462,76.875m0,28.361A12.879,12.879,0,1,1,65.34,92.358a12.894,12.894,0,0,1-12.879,12.879" transform="translate(59.309 123.296)" fill="#242c33"/>
              <g id="Wifi_Icon" data-name="Wifi Icon" transform="translate(278.816 56.532)">
                <g id="Grupo_1084888" data-name="Grupo 1084888" transform="translate(-163 -18)">
                  <path id="Trazado_829295" data-name="Trazado 829295" d="M261.266,62.3c-18.813.291-34.516,7.429-46.877,21.7a4.347,4.347,0,0,0,.4,6.274,4.286,4.286,0,0,0,6.117-.568,53.79,53.79,0,0,1,15.81-12.745,52.386,52.386,0,0,1,58.534,6.368,79.873,79.873,0,0,1,6.346,6.328,4.434,4.434,0,0,0,6.27.568,4.366,4.366,0,0,0,.3-6.274,61.1,61.1,0,0,0-39.112-21.279c-1.231-.17-2.47-.3-3.71-.358-1.356-.063-2.721-.013-4.081-.013Z" transform="translate(-213.242 -62.289)" fill="#12263f"/>
                  <path id="Trazado_829296" data-name="Trazado 829296" d="M276.338,101.294c-11.89.309-23.074,5.388-31.867,15.555a4.242,4.242,0,0,0,.394,6.247,4.3,4.3,0,0,0,6.18-.6,33.93,33.93,0,0,1,16.938-11.045c13.824-3.732,25.777-.327,35.783,9.9.371.38.716.788,1.07,1.186a4.346,4.346,0,1,0,6.565-5.692,43.651,43.651,0,0,0-14.016-10.991c-6.153-3.052-12.678-4.538-21.046-4.569Z" transform="translate(-229.866 -83.837)" fill="#12263f"/>
                  <path id="Trazado_829297" data-name="Trazado 829297" d="M273.587,152.778a4.343,4.343,0,0,0,2.779,4.068,4.291,4.291,0,0,0,4.846-1.217,18.423,18.423,0,0,1,6.641-4.936,17.546,17.546,0,0,1,20.326,4.851,4.206,4.206,0,0,0,4.645,1.387,4.338,4.338,0,0,0,2.014-6.972,26.12,26.12,0,0,0-40.2.076,12.127,12.127,0,0,0-1.28,2.64l.228.107Z" transform="translate(-246.686 -105.565)" fill="#12263f"/>
                  <path id="Trazado_829298" data-name="Trazado 829298" d="M309.82,197.283a8.726,8.726,0,1,0-8.7-8.691,8.683,8.683,0,0,0,8.7,8.691Z" transform="translate(-261.782 -127.229)" fill="#12263f"/>
                </g>
              </g>
              <g id="Grupo_1079505" data-name="Grupo 1079505" transform="translate(74.968 13.892)" opacity="0.4">
                <g id="Grupo_1079504" data-name="Grupo 1079504">
                  <g id="Grupo_1079503" data-name="Grupo 1079503" clip-path="url(#clip-path-26)">
                    <path id="Trazado_827074" data-name="Trazado 827074" d="M129.565,5.335,28.791,199.291l.945,43.547L154.718,5.481Z" transform="translate(-28.792 -5.334)" fill="#fff"/>
                  </g>
                </g>
              </g>
              <g id="Grupo_1079502" data-name="Grupo 1079502" transform="translate(62.382 2.604)" opacity="0.3">
                <g id="Grupo_1079501" data-name="Grupo 1079501">
                  <g id="Grupo_1079500" data-name="Grupo 1079500" clip-path="url(#clip-path-27)">
                    <path id="Trazado_827065" data-name="Trazado 827065" d="M143.181,1,23.958,230.468v48.559L168.412,1Z" transform="translate(-23.957 -0.999)" fill="#fff" opacity="0.34"/>
                  </g>
                </g>
              </g>
              <g id="Grupo_1079508" data-name="Grupo 1079508" transform="translate(75.912 15.032)" opacity="0.4">
                <g id="Grupo_1079507" data-name="Grupo 1079507">
                  <g id="Grupo_1079506" data-name="Grupo 1079506" clip-path="url(#clip-path-28)">
                    <path id="Trazado_827075" data-name="Trazado 827075" d="M118.8,6.424,29.154,177.33V140.952L99.924,5.773Z" transform="translate(-29.154 -5.774)" fill="#fff"/>
                  </g>
                </g>
              </g>
            </g>
          </g>
        </g>
      </g>
      <g id="Enmascarar_grupo_1075515" data-name="Enmascarar grupo 1075515" transform="translate(0 -82)" clip-path="url(#clip-path-29)">
        <g id="Grupo_1079593" data-name="Grupo 1079593" transform="matrix(1, -0.017, 0.017, 1, -143.916, 29.905)">
          <g id="Grupo_1079592" data-name="Grupo 1079592" transform="matrix(1, -0.017, 0.017, 1, 398.124, 8275.411)">
            <path id="Trazado_827208" data-name="Trazado 827208" d="M0,81.888,80.068,79.4l3.169-76.19L2.924,0Z" transform="translate(24.4 236.164)" fill="#54667a"/>
            <path id="Trazado_827209" data-name="Trazado 827209" d="M2.146,47.948,3.884.086,1.687,0,0,46.591Z" transform="translate(24.537 236.123)" fill="#242c33"/>
            <path id="Trazado_827210" data-name="Trazado 827210" d="M0,84.342,2.148,85.7,5.441.086,3.245,0Z" transform="translate(103.293 239.331)" fill="#242c33"/>
            <g id="Grupo_1079591" data-name="Grupo 1079591">
              <g id="Grupo_1079590" data-name="Grupo 1079590" clip-path="url(#clip-path-30)">
                <path id="Trazado_827211" data-name="Trazado 827211" d="M106.023,203.226l11.209-93.245a8.544,8.544,0,0,0-16.424-3.344c-.088.209-.185.646-.257.862a5.777,5.777,0,0,0-1.869-.062l.02-3.848A8.58,8.58,0,0,0,90.2,95a8.564,8.564,0,0,0-7.924,5.244,8.934,8.934,0,0,0-.339,1.088v.292l-.088-.007h0c-.662-.055-1.777-.09-1.777-.09l.024-5.277a8.569,8.569,0,0,0-8.5-8.586,8.842,8.842,0,0,0-8.181,5.149,4.754,4.754,0,0,0-.435,1.13L61.107,93.7l.015-3.047A8.521,8.521,0,0,0,44.1,90l-2.245-.09,1.194-79.873a10.038,10.038,0,0,0-20.076,0l-.325,70.326-.007,0-.075,13.315.04.026a.591.591,0,0,1-.042.07L22.384,124.4l-2.2-.013.156-27.147C20.12,97.583,5.943,119.49,0,134.256c3.665,14.973,29.57,66.393,29.818,66.837l-.912.51-.279.442,77.276,3.276,1.229-1.948Z" transform="translate(2.3 2.199)" fill="#fff"/>
                <path id="Trazado_827212" data-name="Trazado 827212" d="M32.118,203.292c-.251-.444-26.155-51.864-29.82-66.837,5.943-14.766,20.12-36.674,20.346-37.021l-.158,27.147,2.2.013.176-30.614c.015-.022.031-.048.044-.07l-.042-.026.075-13.315.007,0,.325-70.326a10.038,10.038,0,1,1,20.076-.007L44.149,92.108l2.245.09a8.525,8.525,0,0,1,17.026.653L63.4,95.9l1.871.248a4.951,4.951,0,0,1,.435-1.13,8.844,8.844,0,0,1,8.181-5.149,8.569,8.569,0,0,1,8.5,8.586l-.026,5.277s1.115.035,1.779.09h0l.088.007v-.292A8.231,8.231,0,0,1,92.5,97.2a8.581,8.581,0,0,1,8.5,8.586l-.022,3.848a5.789,5.789,0,0,1,1.871.062c.07-.215.169-.653.257-.862a8.546,8.546,0,0,1,16.422,3.344l-11.209,93.245,2.179.29,10.9-93.526a10.261,10.261,0,0,0-18.53-6.277V105.8a10.442,10.442,0,0,0-10.36-10.468A9.867,9.867,0,0,0,84.259,99.5l.007-1.031A10.446,10.446,0,0,0,73.9,88a9.86,9.86,0,0,0-8.632,4.633,10.363,10.363,0,0,0-18.8-5.89l1.069-74.506a12.236,12.236,0,0,0-24.471.007l-.321,69.783h-.007l-.077,13.306c-.794,1.244-1.638,2.553-2.542,3.949-5.89,9.1-13.959,21.575-19.995,36.685l-.13.319.079.336c3.39,14.72,28.286,64.308,30.036,67.591l.334.015Z" fill="#242c33"/>
                <path id="Trazado_827213" data-name="Trazado 827213" d="M9.586.292,1.145,0,0,33.142l87.482,3.03L88.63,3.03,73.906,2.52Z" transform="translate(23.831 203.43)" fill="#6e40fc"/>
                <path id="Trazado_827214" data-name="Trazado 827214" d="M0,35.341,1.222,0,90.9,3.1,89.681,38.443ZM3.342,2.273,2.271,33.217l85.288,2.955L88.63,5.226Z" transform="translate(22.694 202.294)" fill="#242c33"/>
                <path id="Trazado_827215" data-name="Trazado 827215" d="M.712,12.317l-.193-.646c-.064-.213-1.546-5.261.807-8.691A7.287,7.287,0,0,1,7.139.031a7.2,7.2,0,0,1,5.868,1.9c2.959,2.915,2.678,8.056,2.665,8.271l-.044.7ZM11.048,2.465a6.075,6.075,0,0,0-3.786-.792,5.728,5.728,0,0,0-4.575,2.24C1.211,6.062,1.653,9.2,1.939,10.545L14.03,9.4c-.035-1.383-.332-4.479-2.185-6.3a4.662,4.662,0,0,0-.8-.633" transform="translate(27.389 6.086)" fill="#242c33"/>
                <rect id="Rectángulo_380924" data-name="Rectángulo 380924" width="1.65" height="37.71" transform="translate(28.007 232.841) rotate(-88.055)" fill="#242c33"/>
                <rect id="Rectángulo_380925" data-name="Rectángulo 380925" width="1.65" height="9.135" transform="translate(68.582 234.219) rotate(-88.055)" fill="#242c33"/>
                <rect id="Rectángulo_380926" data-name="Rectángulo 380926" width="1.65" height="2.609" transform="matrix(0.034, -0.999, 0.999, 0.034, 80.118, 234.611)" fill="#242c33"/>
              </g>
            </g>
          </g>
        </g>
      </g>
    </g>
    <g id="Grupo_1085217" data-name="Grupo 1085217">
      <g id="Gears-2" data-name="Gears" transform="translate(180.934 1587.913)">
        <g id="Grupo_1085240-2" data-name="Grupo 1085240" transform="translate(0 0)">
          <g id="Grupo_1085235" data-name="Grupo 1085235" transform="translate(0 33.744)">
            <path id="Trazado_831374" data-name="Trazado 831374" d="M536.886,123.734l-5.4-1.322.16-9.191,5.437-1.13a22.493,22.493,0,0,1,2.387-5.494l-2.878-4.749,6.612-6.383,4.643,3.046a22.611,22.611,0,0,1,5.576-2.194l1.322-5.4,9.191.16,1.13,5.441a22.491,22.491,0,0,1,5.494,2.387l4.749-2.878,6.383,6.612-3.046,4.643a22.551,22.551,0,0,1,2.194,5.576l5.4,1.322-.16,9.191-5.437,1.13A22.5,22.5,0,0,1,578.257,130l2.878,4.749-6.612,6.383-4.643-3.046a22.549,22.549,0,0,1-5.576,2.194l-1.322,5.4-9.191-.16-1.134-5.437a22.494,22.494,0,0,1-5.494-2.387l-4.749,2.878-6.383-6.612,3.042-4.647a22.551,22.551,0,0,1-2.194-5.576Zm14.6,1.109a9.859,9.859,0,1,0,.246-13.94A9.857,9.857,0,0,0,551.485,124.844Z" transform="translate(-531.49 -90.92)" fill="#b0c5fd"/>
            <g id="Grupo_1085234" data-name="Grupo 1085234" opacity="0.4">
              <path id="Trazado_831375" data-name="Trazado 831375" d="M536.886,123.734l-5.4-1.322.16-9.191,5.437-1.13a22.493,22.493,0,0,1,2.387-5.494l-2.878-4.749,6.612-6.383,4.643,3.046a22.611,22.611,0,0,1,5.576-2.194l1.322-5.4,9.191.16,1.13,5.441a22.491,22.491,0,0,1,5.494,2.387l4.749-2.878,6.383,6.612-3.046,4.643a22.551,22.551,0,0,1,2.194,5.576l5.4,1.322-.16,9.191-5.437,1.13A22.5,22.5,0,0,1,578.257,130l2.878,4.749-6.612,6.383-4.643-3.046a22.549,22.549,0,0,1-5.576,2.194l-1.322,5.4-9.191-.16-1.134-5.437a22.494,22.494,0,0,1-5.494-2.387l-4.749,2.878-6.383-6.612,3.042-4.647a22.551,22.551,0,0,1-2.194-5.576Zm14.6,1.109a9.859,9.859,0,1,0,.246-13.94A9.857,9.857,0,0,0,551.485,124.844Z" transform="translate(-531.49 -90.92)" fill="#b0c5fd"/>
            </g>
          </g>
          <g id="Grupo_1085239-2" data-name="Grupo 1085239" transform="translate(3.935 0)">
            <g id="Grupo_1085237-2" data-name="Grupo 1085237" transform="translate(40.732 1.818)">
              <path id="Trazado_831376-2" data-name="Trazado 831376" d="M488.317,18.664a16.156,16.156,0,0,0-3.934-1.711l-.811-3.9-6.583-.115-.946,3.865a16.075,16.075,0,0,0-3.992,1.572l-3.329-2.182-4.737,4.573,2.063,3.4a16.117,16.117,0,0,0-1.711,3.939l-3.893.811L460.33,35.5l3.865.946a16.078,16.078,0,0,0,1.572,3.992l-2.182,3.328,4.573,4.737,3.4-2.063a16.155,16.155,0,0,0,3.934,1.711l.811,3.9,6.583.115.946-3.865a16.076,16.076,0,0,0,3.992-1.572l3.329,2.182,4.737-4.573-2.063-3.4A16.155,16.155,0,0,0,495.539,37l3.893-.811.115-6.583-3.865-.946a16.073,16.073,0,0,0-1.572-3.992l2.182-3.328L491.719,16.6l-3.4,2.063h0Zm-3.509,8.77a7.062,7.062,0,1,1-9.985-.176A7.058,7.058,0,0,1,484.809,27.433Z" transform="translate(-460.33 -12.94)" fill="#e8505b"/>
              <g id="Grupo_1085236-2" data-name="Grupo 1085236" opacity="0.8">
                <path id="Trazado_831377-2" data-name="Trazado 831377" d="M488.317,18.664a16.156,16.156,0,0,0-3.934-1.711l-.811-3.9-6.583-.115-.946,3.865a16.075,16.075,0,0,0-3.992,1.572l-3.329-2.182-4.737,4.573,2.063,3.4a16.117,16.117,0,0,0-1.711,3.939l-3.893.811L460.33,35.5l3.865.946a16.078,16.078,0,0,0,1.572,3.992l-2.182,3.328,4.573,4.737,3.4-2.063a16.155,16.155,0,0,0,3.934,1.711l.811,3.9,6.583.115.946-3.865a16.076,16.076,0,0,0,3.992-1.572l3.329,2.182,4.737-4.573-2.063-3.4A16.155,16.155,0,0,0,495.539,37l3.893-.811.115-6.583-3.865-.946a16.073,16.073,0,0,0-1.572-3.992l2.182-3.328L491.719,16.6l-3.4,2.063h0Zm-3.509,8.77a7.062,7.062,0,1,1-9.985-.176A7.058,7.058,0,0,1,484.809,27.433Z" transform="translate(-460.33 -12.94)" fill="#799dff"/>
              </g>
            </g>
            <g id="Grupo_1085238-2" data-name="Grupo 1085238">
              <path id="Trazado_831378-2" data-name="Trazado 831378" d="M605.318,12.923a11.952,11.952,0,0,0-2.9-1.261l-.6-2.866-4.843-.086-.7,2.845a11.863,11.863,0,0,0-2.94,1.155l-2.448-1.6L587.41,14.47l1.519,2.5a11.782,11.782,0,0,0-1.257,2.9l-2.866.6-.086,4.843,2.845.7a11.861,11.861,0,0,0,1.155,2.94l-1.6,2.448,3.365,3.484,2.5-1.519a11.781,11.781,0,0,0,2.9,1.257l.6,2.866,4.843.086.7-2.845a11.866,11.866,0,0,0,2.94-1.155l2.448,1.6,3.484-3.365-1.519-2.5a11.954,11.954,0,0,0,1.261-2.9l2.866-.6.086-4.843-2.845-.7a11.863,11.863,0,0,0-1.155-2.94l1.6-2.448L607.823,11.4l-2.506,1.519h0Zm-2.583,6.452a5.2,5.2,0,1,1-7.349-.131A5.2,5.2,0,0,1,602.734,19.375Z" transform="translate(-584.56 -8.624)" fill="#fff"/>
              <path id="Trazado_831379-2" data-name="Trazado 831379" d="M616.494,32.347a3.831,3.831,0,0,0-.966-.847,5.175,5.175,0,0,0-3.39-.8,5.232,5.232,0,0,0-2.3.819,5.3,5.3,0,0,0-1.863,2.1,5.337,5.337,0,0,0-.5,3.058,5.3,5.3,0,0,0,4.385,4.544,5.3,5.3,0,0,0,3.075-.393,5.365,5.365,0,0,0,2.166-1.789,5.262,5.262,0,0,0,.9-2.276,5.163,5.163,0,0,0-.684-3.419,3.976,3.976,0,0,0-.815-1,12.322,12.322,0,0,1,.712,1.056,5.158,5.158,0,0,1,.573,3.329,5.034,5.034,0,0,1-.893,2.162,5.088,5.088,0,0,1-2.076,1.683,5.091,5.091,0,0,1-2.915.356,5.03,5.03,0,0,1-4.147-4.295,4.817,4.817,0,0,1,.02-1.515,4.716,4.716,0,0,1,.438-1.384,5.119,5.119,0,0,1,1.752-2.014,5.064,5.064,0,0,1,2.194-.815,5.165,5.165,0,0,1,3.3.692c.7.426,1,.778,1.028.749Z" transform="translate(-598.32 -21.591)" fill="#1e5af9"/>
              <path id="Trazado_831380-2" data-name="Trazado 831380" d="M605.3,12.8s.053-.025.16-.086l.479-.278,1.887-1.114-.057-.008c.856.9,1.982,2.08,3.345,3.5l-.008-.094c-.487.741-1.032,1.564-1.613,2.44l-.029.045.025.045a11.849,11.849,0,0,1,1.138,2.919l.012.057.057.016c.884.221,1.846.459,2.841.7l-.082-.106q-.043,2.291-.1,4.843l.094-.115c-.888.184-1.867.385-2.87.59l-.074.016-.02.074a12,12,0,0,1-1.249,2.866l-.041.066.041.066c.471.778.987,1.634,1.515,2.506l.021-.164c-1.1,1.056-2.28,2.194-3.488,3.361l.172-.016-2.448-1.609-.074-.045-.074.041a11.918,11.918,0,0,1-2.907,1.142l-.086.02-.02.086c-.217.893-.459,1.863-.7,2.845l.143-.111c-1.535-.029-3.177-.057-4.843-.086l.143.119c-.188-.9-.393-1.883-.6-2.866l-.016-.09-.086-.025a11.863,11.863,0,0,1-2.858-1.241h0l-.078-.049-.078.045q-1.259.762-2.5,1.519l.184.025q-1.707-1.769-3.365-3.484l.016.184c.54-.823,1.073-1.642,1.6-2.448l.049-.074-.045-.078a11.637,11.637,0,0,1-1.142-2.9l-.02-.086-.086-.02c-.962-.233-1.908-.467-2.845-.7l.106.139c.029-1.654.053-3.271.082-4.843l-.11.131,2.866-.6.078-.016.02-.078a11.676,11.676,0,0,1,1.241-2.866l.041-.066-.041-.066c-.52-.856-1.028-1.687-1.523-2.5l-.02.151,3.48-3.374-.143.012c.864.561,1.67,1.089,2.452,1.6l.053.037.057-.033a11.9,11.9,0,0,1,2.911-1.155l.057-.016.012-.057c.25-1.036.475-1.965.688-2.845l-.086.066c1.875.025,3.476.045,4.843.066l-.065-.053c.246,1.142.446,2.084.614,2.862l.008.029.029.008a12.486,12.486,0,0,1,2.215.852c.225.119.4.2.52.274a1.381,1.381,0,0,0,.172.09s-.057-.041-.16-.111-.278-.172-.512-.295a11.553,11.553,0,0,0-2.211-.9l.033.037c-.16-.782-.348-1.724-.577-2.87l-.012-.053h-.053c-1.367-.033-2.968-.066-4.843-.106h-.07l-.016.066c-.217.88-.45,1.81-.708,2.841l.07-.074a11.866,11.866,0,0,0-2.968,1.159h.11c-.778-.508-1.584-1.04-2.444-1.609l-.078-.049-.065.066c-1.105,1.06-2.264,2.178-3.492,3.357l-.07.07.053.086c.491.815.995,1.646,1.515,2.506v-.135A12.037,12.037,0,0,0,587.5,19.71l.1-.094c-.938.192-1.9.393-2.87.594l-.106.02v.111q-.049,2.364-.09,4.843V25.3l.106.029,2.845.7-.107-.106a12.061,12.061,0,0,0,1.167,2.976v-.151c-.524.807-1.06,1.625-1.6,2.448l-.065.1.082.086,3.365,3.488.082.086.1-.061c.827-.5,1.662-1.007,2.5-1.519h-.156a12.083,12.083,0,0,0,2.931,1.273l-.107-.115c.2.983.409,1.961.6,2.866l.025.115h.119c1.666.029,3.312.057,4.843.086h.115l.029-.111c.242-.983.479-1.953.7-2.845l-.107.106a12.162,12.162,0,0,0,2.972-1.171h-.147c.847.549,1.687,1.1,2.448,1.6l.094.061.078-.078c1.208-1.171,2.387-2.313,3.48-3.369l.078-.074-.053-.09c-.528-.872-1.048-1.724-1.523-2.5v.131a12.113,12.113,0,0,0,1.269-2.931l-.094.086c1-.209,1.977-.418,2.866-.6l.09-.02v-.094c.029-1.7.053-3.32.074-4.843v-.086l-.082-.02-2.845-.688.07.074a11.979,11.979,0,0,0-1.175-2.96v.09L611.2,14.8l.033-.049-.041-.045L607.8,11.239l-.029-.029-.033.02c-.8.5-1.417.88-1.842,1.146-.2.127-.356.229-.475.3a1.436,1.436,0,0,0-.16.111Z" transform="translate(-584.54 -8.5)" fill="#1e5af9"/>
            </g>
          </g>
        </g>
      </g>
    </g>
    <g id="Grupo_1085219" data-name="Grupo 1085219" transform="translate(238.112 1565.588)" opacity="0.45">
      <g id="Grupo_1079611-2" data-name="Grupo 1079611">
        <g id="Grupo_1079610-2" data-name="Grupo 1079610" clip-path="url(#clip-path-11)">
          <path id="Trazado_827224-2" data-name="Trazado 827224" d="M80.314,129.838A39.074,39.074,0,1,1,41.24,90.764a39.074,39.074,0,0,1,39.074,39.074" fill="#ccbcfe"/>
        </g>
      </g>
    </g>
    <g id="Grupo_1085220" data-name="Grupo 1085220" transform="translate(95.634 1445.588)" opacity="0.45">
      <g id="Grupo_1079620-2" data-name="Grupo 1079620">
        <g id="Grupo_1079619-2" data-name="Grupo 1079619" clip-path="url(#clip-path-14)">
          <path id="Trazado_827227-2" data-name="Trazado 827227" d="M222.792,149.808a7.484,7.484,0,1,1-7.484-7.484,7.484,7.484,0,0,1,7.484,7.484" fill="#ccbcfe"/>
        </g>
      </g>
    </g>
    <g id="Grupo_1085306" data-name="Grupo 1085306" transform="translate(345.124 1948.564)">
      <rect id="Rectángulo_383586" data-name="Rectángulo 383586" width="65.752" height="38.429" fill="#fff" stroke="#263238" stroke-linecap="round" stroke-linejoin="round" stroke-width="1"/>
      <path id="Trazado_829305" data-name="Trazado 829305" d="M114.492,202.055,82.136,172.17l-33.4,29.885Z" transform="translate(-48.74 -163.626)" fill="#fff" stroke="#263238" stroke-linecap="round" stroke-linejoin="round" stroke-width="1"/>
      <path id="Trazado_829306" data-name="Trazado 829306" d="M114.492,165.6,81.616,184.821,48.74,165.6Z" transform="translate(-48.74 -165.6)" fill="#fff" stroke="#263238" stroke-linecap="round" stroke-linejoin="round" stroke-width="1"/>
    </g>
    <path id="Trazado_831583" data-name="Trazado 831583" d="M9.855,238.921a5.682,5.682,0,0,1,3.45,1.165l13.7-10.275a5.717,5.717,0,1,1,1.883,2.514L15.188,242.6a5.628,5.628,0,0,1,0,4.071l13.7,10.275a5.75,5.75,0,1,1-1.883,2.514l-13.7-10.275a5.713,5.713,0,1,1-3.45-10.264Z" transform="translate(517.067 1371.355)" fill="#263238"/>
    <g id="Grupo_1085307" data-name="Grupo 1085307" transform="translate(505.249 1699.293)">
      <path id="Trazado_829302" data-name="Trazado 829302" d="M86.951,248.2h28.126a8.3,8.3,0,0,1,8.3,8.3v12.81a8.3,8.3,0,0,1-8.3,8.3h0l-.275,12.86-8.832-12.86H86.951a8.3,8.3,0,0,1-8.3-8.3V256.5A8.3,8.3,0,0,1,86.951,248.2Z" transform="translate(-67.628 -248.2)" fill="#fff" stroke="#263238" stroke-linecap="round" stroke-linejoin="round" stroke-width="1"/>
      <g id="Grupo_1084893" data-name="Grupo 1084893" transform="translate(0 6.916)">
        <path id="Trazado_829303" data-name="Trazado 829303" d="M127.924,255.24H104.808a6.821,6.821,0,0,0-6.818,6.818v10.531a6.821,6.821,0,0,0,6.818,6.818h0l.226,10.571,7.26-10.571h15.63a6.821,6.821,0,0,0,6.818-6.818V262.058A6.821,6.821,0,0,0,127.924,255.24Z" transform="translate(-97.99 -255.24)" fill="#263238" stroke="#263238" stroke-linecap="round" stroke-linejoin="round" stroke-width="1"/>
        <g id="Grupo_1084892" data-name="Grupo 1084892" transform="translate(7.28 9.529)">
          <path id="Trazado_829304" data-name="Trazado 829304" d="M106.79,267.484a2.544,2.544,0,1,1,2.544,2.545A2.545,2.545,0,0,1,106.79,267.484Z" transform="translate(-91.052 -264.94)" fill="#01c3fd"/>
          <ellipse id="Elipse_9670" data-name="Elipse 9670" cx="2.544" cy="2.544" rx="2.544" ry="2.544" transform="translate(7.869)" fill="#01c3fd"/>
          <ellipse id="Elipse_9671" data-name="Elipse 9671" cx="2.544" cy="2.544" rx="2.544" ry="2.544" transform="translate(0)" fill="#01c3fd"/>
        </g>
      </g>
    </g>
    <g id="Grupo_1085308" data-name="Grupo 1085308" transform="translate(204.324 1670.184)">
      <circle id="Elipse_9668" data-name="Elipse 9668" cx="26.526" cy="26.526" r="26.526" transform="translate(37.514 75.028) rotate(-135)" fill="none" stroke="#4c5a67" stroke-linecap="round" stroke-linejoin="round" stroke-width="2"/>
      <ellipse id="Elipse_9669" data-name="Elipse 9669" cx="13.12" cy="26.526" rx="13.12" ry="26.526" transform="translate(24.399 10.981)" fill="none" stroke="#4c5a67" stroke-linecap="round" stroke-linejoin="round" stroke-width="2"/>
      <path id="Trazado_829299" data-name="Trazado 829299" d="M208.05,279.39a26.532,26.532,0,0,1-36.76-.24" transform="translate(-152.276 -260.65)" fill="none" stroke="#4c5a67" stroke-linecap="round" stroke-linejoin="round" stroke-width="2"/>
      <path id="Trazado_829300" data-name="Trazado 829300" d="M171,313.227a26.525,26.525,0,0,1,36.92.262" transform="translate(-151.815 -256.883)" fill="none" stroke="#4c5a67" stroke-linecap="round" stroke-linejoin="round" stroke-width="2"/>
      <line id="Línea_3860" data-name="Línea 3860" x1="53.052" transform="translate(10.993 37.508)" fill="none" stroke="#4c5a67" stroke-linecap="round" stroke-linejoin="round" stroke-width="2"/>
      <line id="Línea_3861" data-name="Línea 3861" y2="53.052" transform="translate(37.519 10.981)" fill="none" stroke="#4c5a67" stroke-linecap="round" stroke-linejoin="round" stroke-width="2"/>
    </g>
  </g>
</svg>
