<svg xmlns="http://www.w3.org/2000/svg" width="190" height="129" viewBox="0 0 190 129">
  <g id="Grupo_1092505" data-name="Grupo 1092505" transform="translate(-1230 -420)">
    <rect id="Rectángulo_377901" data-name="Rectángulo 377901" width="190" height="63" rx="7" transform="translate(1230 453)" fill="#b8cafc"/>
    <g id="clasificacion_2_" data-name="clasificacion (2)" transform="translate(1260 420)">
      <path id="Trazado_830451" data-name="Trazado 830451" d="M88.279,107.394H34.364A14.776,14.776,0,0,0,19.588,122.17v17.213H34.551v36.941H88.092V139.383h14.963V122.17A14.776,14.776,0,0,0,88.279,107.394Z" transform="translate(-13.179 -54.117)" fill="#cecece"/>
      <g id="Grupo_1084223" data-name="Grupo 1084223" transform="translate(6.409 53.277)">
        <path id="Trazado_830452" data-name="Trazado 830452" d="M42.352,107.394H34.364A14.776,14.776,0,0,0,19.588,122.17v17.213h7.988V122.17A14.776,14.776,0,0,1,42.352,107.394Z" transform="translate(-19.588 -107.394)" fill="#afafaf"/>
        <path id="Trazado_830453" data-name="Trazado 830453" d="M47.062,166.131H55.05v36.941H47.062Z" transform="translate(-32.099 -134.142)" fill="#afafaf"/>
      </g>
      <path id="Trazado_830454" data-name="Trazado 830454" d="M90.182,98.952a7.219,7.219,0,0,1-7.219-7.219V79.146a7.219,7.219,0,1,1,14.438,0V91.733A7.219,7.219,0,0,1,90.182,98.952Z" transform="translate(-42.039 -37.965)" fill="#f8af23"/>
      <path id="Trazado_830455" data-name="Trazado 830455" d="M82.963,79.409V92a7.22,7.22,0,0,0,5.111,6.9V72.5A7.221,7.221,0,0,0,82.963,79.409Z" transform="translate(-42.039 -38.228)" fill="#f87023"/>
      <ellipse id="Elipse_10720" data-name="Elipse 10720" cx="4.171" cy="4.171" rx="4.171" ry="4.171" transform="translate(25.512 23.518)" fill="#f87023"/>
      <ellipse id="Elipse_10721" data-name="Elipse 10721" cx="4.171" cy="4.171" rx="4.171" ry="4.171" transform="translate(62.432 23.518)" fill="#f8af23"/>
      <path id="Trazado_830456" data-name="Trazado 830456" d="M80.783,63.3a18.459,18.459,0,0,1-18.46-18.46V38.646a18.46,18.46,0,0,1,36.919,0v6.191A18.46,18.46,0,0,1,80.783,63.3Z" transform="translate(-32.64 -14.403)" fill="#f8af23"/>
      <g id="Grupo_1084224" data-name="Grupo 1084224" transform="translate(29.683 5.783)">
        <path id="Trazado_830457" data-name="Trazado 830457" d="M70.311,44.837V38.646A18.463,18.463,0,0,1,84.776,20.624,18.455,18.455,0,0,0,62.323,38.646v6.191A18.455,18.455,0,0,0,84.776,62.858,18.463,18.463,0,0,1,70.311,44.837Z" transform="translate(-62.323 -20.186)" fill="#f87023"/>
      </g>
      <g id="Grupo_1084225" data-name="Grupo 1084225" transform="translate(37.921 27.515)">
        <ellipse id="Elipse_10722" data-name="Elipse 10722" cx="2.001" cy="2.001" rx="2.001" ry="2.001" transform="translate(0 0)" fill="#3f3679"/>
        <ellipse id="Elipse_10723" data-name="Elipse 10723" cx="2.001" cy="2.001" rx="2.001" ry="2.001" transform="translate(16.44 0)" fill="#3f3679"/>
      </g>
      <path id="Trazado_830458" data-name="Trazado 830458" d="M122.257,38.771l1.832,8.485h2.446V33.383h-4.278Z" transform="translate(-59.933 -20.413)" fill="#707070"/>
      <path id="Trazado_830459" data-name="Trazado 830459" d="M59.476,37.093h1.055A2.563,2.563,0,0,0,62.756,35.8l2.922-5.1a4.168,4.168,0,0,1,3.617-2.1H92.117a5.5,5.5,0,0,0,5.5-5.5v-6.54a5.5,5.5,0,0,0-5.5-5.5H65.335a4.395,4.395,0,0,0-4.205,3.12,1.95,1.95,0,0,1-.777,1.051l-1.6,1.077a6.067,6.067,0,0,0-2.531,6.371Z" transform="translate(-29.793 -10.25)" fill="#707070"/>
      <g id="Grupo_1084226" data-name="Grupo 1084226" transform="translate(26.279 0.816)">
        <path id="Trazado_830460" data-name="Trazado 830460" d="M66.741,16.314l1.6-1.077a1.948,1.948,0,0,0,.777-1.051,4.395,4.395,0,0,1,4.205-3.12H65.335a4.395,4.395,0,0,0-4.205,3.12,1.95,1.95,0,0,1-.777,1.051l-1.6,1.077a6.067,6.067,0,0,0-2.531,6.371l3.255,14.407h1.055A2.563,2.563,0,0,0,62.757,35.8l2.922-5.1a4.192,4.192,0,0,1,.255-.384L64.21,22.685A6.066,6.066,0,0,1,66.741,16.314Z" transform="translate(-56.072 -11.066)" fill="#5b5b5b"/>
      </g>
      <path id="Trazado_830461" data-name="Trazado 830461" d="M80.438,103.92l7.233,9.6-7.233,4.071L77.45,105.812Z" transform="translate(-39.529 -52.535)" fill="#cecece"/>
      <path id="Trazado_830462" data-name="Trazado 830462" d="M103.451,103.92l-7.233,9.6,7.233,4.071,2.988-11.781Z" transform="translate(-48.075 -52.535)" fill="#cecece"/>
      <path id="Trazado_830463" data-name="Trazado 830463" d="M22.989,166.131V183.4a8.131,8.131,0,0,0,8.131,8.131H48.873a6.765,6.765,0,1,0,0-13.529H36.1V166.131Z" transform="translate(-14.728 -80.865)" fill="#f8af23"/>
      <g id="Grupo_1084227" data-name="Grupo 1084227" transform="translate(8.261 85.266)">
        <path id="Trazado_830464" data-name="Trazado 830464" d="M30.977,183.4V166.131H22.989V183.4a8.131,8.131,0,0,0,8.131,8.131h7.988A8.131,8.131,0,0,1,30.977,183.4Z" transform="translate(-22.989 -166.131)" fill="#f87023"/>
      </g>
      <path id="Trazado_830465" data-name="Trazado 830465" d="M134.71,93.19H190.1v76.665H134.71Z" transform="translate(-65.604 -47.648)" fill="#63bce7"/>
      <g id="Grupo_1084228" data-name="Grupo 1084228" transform="translate(116.506 45.542)">
        <path id="Trazado_830466" data-name="Trazado 830466" d="M221.745,93.19h7.988v76.665h-7.988Z" transform="translate(-221.745 -93.19)" fill="#63e2e7"/>
      </g>
      <path id="Trazado_830467" data-name="Trazado 830467" d="M182.037,93.979h-6.81a5.824,5.824,0,0,1-5.825-5.825V84.348h18.46v3.806A5.825,5.825,0,0,1,182.037,93.979Z" transform="translate(-81.402 -43.622)" fill="#f8af23"/>
      <path id="Trazado_830468" data-name="Trazado 830468" d="M152.9,89.163h7.888V84.348H152.9a2.408,2.408,0,0,0,0,4.815Z" transform="translate(-72.793 -43.622)" fill="#f8af23"/>
      <path id="Trazado_830469" data-name="Trazado 830469" d="M144.665,110.085h5.5v5.5h-5.5Z" transform="translate(-70.138 -55.342)" fill="#f8af23"/>
      <path id="Trazado_830470" data-name="Trazado 830470" d="M144.665,175.676h5.5v5.5h-5.5Z" transform="translate(-70.138 -85.211)" fill="#f8af23"/>
      <path id="Trazado_830471" data-name="Trazado 830471" d="M0,0H5.5V5.5H0Z" transform="translate(77.278 65.243) rotate(45)" fill="#f46275"/>
      <path id="Trazado_830472" data-name="Trazado 830472" d="M0,0H5.5V5.5H0Z" transform="translate(77.283 101.776) rotate(45)" fill="#f46275"/>
      <ellipse id="Elipse_10724" data-name="Elipse 10724" cx="2.883" cy="2.883" rx="2.883" ry="2.883" transform="translate(74.397 78.87)" fill="#cecece"/>
      <g id="Grupo_1084229" data-name="Grupo 1084229" transform="translate(90.637 55.603)">
        <path id="Trazado_830473" data-name="Trazado 830473" d="M174.244,111.664h28.778v3.783H174.244Z" transform="translate(-174.244 -111.664)" fill="#f8af23"/>
        <path id="Trazado_830474" data-name="Trazado 830474" d="M174.244,133.066h25.167v3.783H174.244Z" transform="translate(-174.244 -121.41)" fill="#f8af23"/>
        <path id="Trazado_830475" data-name="Trazado 830475" d="M174.244,156.206h21.727v3.783H174.244Z" transform="translate(-174.244 -131.948)" fill="#f8af23"/>
        <path id="Trazado_830476" data-name="Trazado 830476" d="M174.244,177.254H191.93v3.783H174.244Z" transform="translate(-174.244 -141.533)" fill="#f8af23"/>
        <path id="Trazado_830477" data-name="Trazado 830477" d="M174.244,200.155h14.934v3.783H174.244Z" transform="translate(-174.244 -151.962)" fill="#f8af23"/>
      </g>
      <g id="Grupo_1084230" data-name="Grupo 1084230" transform="translate(0 0)">
        <path id="Trazado_830478" data-name="Trazado 830478" d="M18.442,243.433h-9.8a.817.817,0,0,0,0,1.634h9.8a.817.817,0,0,0,0-1.634Z" transform="translate(-7.82 -116.067)" fill="#3f3679"/>
        <path id="Trazado_830479" data-name="Trazado 830479" d="M237.8,243.433h-9.8a.817.817,0,0,0,0,1.634h9.8a.817.817,0,0,0,0-1.634Z" transform="translate(-107.712 -116.067)" fill="#3f3679"/>
        <path id="Trazado_830480" data-name="Trazado 830480" d="M135.39,243.433H36.838a.817.817,0,0,0,0,1.634H135.39a.817.817,0,1,0,0-1.634Z" transform="translate(-20.662 -116.067)" fill="#3f3679"/>
        <path id="Trazado_830481" data-name="Trazado 830481" d="M8.637,132.591H137.906a.817.817,0,0,0,0-1.634H133.13V55.109a.817.817,0,0,0-.817-.817H115.086c0-.064.01-.127.01-.192V50.294a.817.817,0,0,0-.817-.817H87.931a3.22,3.22,0,0,0-2.8,4.815h-8.2a.817.817,0,0,0-.817.817v6.918H66.421L64,60.494V57.516A19.319,19.319,0,0,0,75.111,42.19a4.981,4.981,0,0,0,.128-9.849v-6.2a6.276,6.276,0,0,0,1.223-3.72v-6.54a6.325,6.325,0,0,0-6.318-6.318H43.362a5.18,5.18,0,0,0-4.987,3.7,1.139,1.139,0,0,1-.451.611l-1.6,1.077a6.839,6.839,0,0,0-2.871,7.229L35.8,32.569a4.984,4.984,0,0,0,1.016,9.622A19.319,19.319,0,0,0,47.927,57.516v2.978l-2.439,1.543a.788.788,0,0,0-.1-.01H29.006A15.611,15.611,0,0,0,13.413,77.621V94.834a.817.817,0,0,0,.817.817h1.035V112.1a8.958,8.958,0,0,0,8.948,8.948h4.163v9.911H8.637a.817.817,0,0,0,0,1.634Zm33.329-11.545a7.572,7.572,0,0,0,6.193-3.222v13.133H35.816v-9.911Zm3.14-57.385,2.833,11.165a.815.815,0,0,0,.22.375v33.9a7.572,7.572,0,0,0-6.193-3.222H35.816V63.662Zm10.857,7.83,6.171,3.474v55.992H49.792V74.965Zm10.857-7.83h9.289v67.3H63.768V75.2a.81.81,0,0,0,.22-.375ZM113.462,54.1a5.013,5.013,0,0,1-5.008,5.007h-6.81A5.013,5.013,0,0,1,96.636,54.1V51.111h16.826V54.1ZM86.341,52.7a1.593,1.593,0,0,1,1.591-1.591H95v3.182H87.931A1.593,1.593,0,0,1,86.341,52.7Zm-8.6,3.224H95.264a6.649,6.649,0,0,0,6.381,4.815h6.81a6.65,6.65,0,0,0,6.381-4.815H131.5v75.031H77.743V55.926ZM62.666,73.39l-5.49-3.09,6.218-8.254,1.851,1.172ZM73.6,33.809v1.784h-.969l-1.5-6.937A6.274,6.274,0,0,0,73.6,27.7Zm4.171,3.447a3.356,3.356,0,0,1-2.55,3.252c0-.169.013-.337.013-.507V34.007A3.358,3.358,0,0,1,77.776,37.256ZM37.236,16.309l1.6-1.077a2.768,2.768,0,0,0,1.1-1.492,3.556,3.556,0,0,1,3.423-2.54H70.144a4.69,4.69,0,0,1,4.684,4.684v6.54a4.69,4.69,0,0,1-4.684,4.684H47.322A5,5,0,0,0,43,29.616l-2.922,5.1a1.75,1.75,0,0,1-1.515.878h-.4L35.045,21.823A5.218,5.218,0,0,1,37.236,16.309ZM34.149,37.256a3.359,3.359,0,0,1,2.014-3.07l.53,2.345c0,.023-.007.045-.007.068V40c0,.17.009.338.013.507a3.355,3.355,0,0,1-2.55-3.251ZM38.32,40V37.227h.239a3.389,3.389,0,0,0,2.933-1.7l2.922-5.1a3.36,3.36,0,0,1,2.908-1.686H69.485l1.693,7.84a.817.817,0,0,0,.8.645H73.6V40A17.642,17.642,0,1,1,38.32,40ZM55.963,59.278a19.185,19.185,0,0,0,6.4-1.1V60.7l-6.4,8.5-6.4-8.5V58.181a19.2,19.2,0,0,0,6.4,1.1ZM48.53,62.046,54.748,70.3l-5.489,3.09-2.58-10.172ZM34.183,63.662v42.222H30.009V80.444a.817.817,0,0,0-1.634,0V94.017H21.84V65.646a13.87,13.87,0,0,1,7.165-1.985ZM15.046,77.621a13.936,13.936,0,0,1,5.161-10.827V94.016h-5.16v-16.4ZM16.9,112.1V95.65H28.375V106.7a.817.817,0,0,0,.817.817H41.965a5.948,5.948,0,1,1,0,11.9H24.212A7.323,7.323,0,0,1,16.9,112.1Zm13.111,8.948h4.173v9.911H30.009Z" transform="translate(-7.82 -9.567)" fill="#3f3679"/>
        <path id="Trazado_830482" data-name="Trazado 830482" d="M95.535,70.08a.817.817,0,0,0,.817-.817V65.912a.817.817,0,0,0-1.634,0v3.351A.817.817,0,0,0,95.535,70.08Z" transform="translate(-47.392 -34.854)" fill="#3f3679"/>
        <path id="Trazado_830483" data-name="Trazado 830483" d="M96.652,82.252a.817.817,0,1,0-1.229-1.077,3.25,3.25,0,0,1-4.9,0,.817.817,0,1,0-1.229,1.077,4.885,4.885,0,0,0,7.359,0Z" transform="translate(-44.829 -42.05)" fill="#3f3679"/>
        <path id="Trazado_830484" data-name="Trazado 830484" d="M80.907,54.92H75.234a.817.817,0,0,0,0,1.634h5.673a.817.817,0,1,0,0-1.634Z" transform="translate(-38.147 -30.22)" fill="#3f3679"/>
        <path id="Trazado_830485" data-name="Trazado 830485" d="M105.42,56.554h5.673a.817.817,0,0,0,0-1.634H105.42a.817.817,0,0,0,0,1.634Z" transform="translate(-51.894 -30.22)" fill="#3f3679"/>
        <path id="Trazado_830486" data-name="Trazado 830486" d="M143.982,115.722h5.5a.817.817,0,0,0,.817-.817v-5.5a.817.817,0,0,0-.817-.817h-5.5a.817.817,0,0,0-.817.817v5.5A.817.817,0,0,0,143.982,115.722Zm.817-5.5h3.869v3.869H144.8Z" transform="translate(-69.454 -54.659)" fill="#3f3679"/>
        <path id="Trazado_830487" data-name="Trazado 830487" d="M143.982,174.176a.817.817,0,0,0-.817.817v5.5a.817.817,0,0,0,.817.817h5.5a.817.817,0,0,0,.817-.817v-5.5a.817.817,0,0,0-.817-.817Zm4.687,5.5H144.8V175.81h3.869Z" transform="translate(-69.454 -84.528)" fill="#3f3679"/>
        <path id="Trazado_830488" data-name="Trazado 830488" d="M145.2,137.071a.818.818,0,0,0,1.156,0l3.892-3.892a.817.817,0,0,0,0-1.155l-3.892-3.892a.817.817,0,0,0-1.155,0l-3.892,3.892a.816.816,0,0,0,0,1.155Zm.578-7.205,2.736,2.736-2.736,2.736-2.736-2.736Z" transform="translate(-68.502 -63.451)" fill="#3f3679"/>
        <path id="Trazado_830489" data-name="Trazado 830489" d="M145.2,204.161a.818.818,0,0,0,1.156,0l3.892-3.892a.817.817,0,0,0,0-1.155l-3.892-3.892a.816.816,0,0,0-1.155,0l-3.892,3.892a.817.817,0,0,0,0,1.155Zm.578-7.206,2.736,2.736-2.736,2.736-2.736-2.736Z" transform="translate(-68.502 -94.003)" fill="#3f3679"/>
        <path id="Trazado_830490" data-name="Trazado 830490" d="M146.625,152.888a3.7,3.7,0,1,0,3.7,3.7,3.7,3.7,0,0,0-3.7-3.7Zm0,5.765a2.065,2.065,0,1,1,2.065-2.066A2.068,2.068,0,0,1,146.625,158.653Z" transform="translate(-69.345 -74.834)" fill="#3f3679"/>
        <path id="Trazado_830491" data-name="Trazado 830491" d="M173.561,115.581h28.778a.817.817,0,0,0,.817-.817v-3.783a.817.817,0,0,0-.817-.817H173.561a.817.817,0,0,0-.817.817v3.783A.817.817,0,0,0,173.561,115.581Zm.817-3.783h27.145v2.15H174.378Z" transform="translate(-82.924 -55.378)" fill="#3f3679"/>
        <path id="Trazado_830492" data-name="Trazado 830492" d="M173.561,136.983h25.167a.817.817,0,0,0,.817-.817v-3.783a.817.817,0,0,0-.817-.817H173.561a.817.817,0,0,0-.817.817v3.783A.817.817,0,0,0,173.561,136.983Zm.817-3.784h23.533v2.15H174.378Z" transform="translate(-82.924 -65.124)" fill="#3f3679"/>
        <path id="Trazado_830493" data-name="Trazado 830493" d="M173.561,160.124h21.727a.817.817,0,0,0,.817-.817v-3.784a.817.817,0,0,0-.817-.817H173.561a.817.817,0,0,0-.817.817v3.784A.817.817,0,0,0,173.561,160.124Zm.817-3.784h20.093v2.15H174.378Z" transform="translate(-82.924 -75.662)" fill="#3f3679"/>
        <path id="Trazado_830494" data-name="Trazado 830494" d="M173.561,181.172h17.686a.817.817,0,0,0,.817-.817v-3.783a.817.817,0,0,0-.817-.817H173.561a.817.817,0,0,0-.817.817v3.783A.817.817,0,0,0,173.561,181.172Zm.817-3.783H190.43v2.15H174.378Z" transform="translate(-82.924 -85.247)" fill="#3f3679"/>
        <path id="Trazado_830495" data-name="Trazado 830495" d="M173.561,204.073h14.934a.817.817,0,0,0,.817-.817v-3.783a.817.817,0,0,0-.817-.817H173.561a.817.817,0,0,0-.817.817v3.783A.817.817,0,0,0,173.561,204.073Zm.817-3.784h13.3v2.15h-13.3Z" transform="translate(-82.924 -95.676)" fill="#3f3679"/>
      </g>
    </g>
  </g>
</svg>
