<svg xmlns="http://www.w3.org/2000/svg" width="190" height="95.998" viewBox="0 0 190 95.998">
  <g id="Grupo_1092415" data-name="Grupo 1092415" transform="translate(-180 -493.136)">
    <rect id="Rectángulo_384024" data-name="Rectángulo 384024" width="190" height="63" rx="6" transform="translate(180 509.444)" fill="#b8cafc"/>
    <g id="Grupo_1092416" data-name="Grupo 1092416" transform="translate(-2)">
      <g id="Data_Frequency_Table" transform="translate(214 476.886)">
        <g id="Grupo_1092414" data-name="Grupo 1092414" transform="translate(3 16.25)">
          <g id="Grupo_1092399" data-name="Grupo 1092399" transform="translate(13.287 0.447)">
            <g id="Grupo_1092383" data-name="Grupo 1092383" transform="translate(0 22.113)">
              <g id="Grupo_1092359" data-name="Grupo 1092359" transform="translate(4.927 0.006)">
                <path id="Trazado_834101" data-name="Trazado 834101" d="M113.515,44.75v58.92H23.348V44.75a3.3,3.3,0,0,1,3.309-3.291h83.567a3.289,3.289,0,0,1,3.291,3.291Z" transform="translate(-23.348 -41.459)" fill="#bcdae6"/>
              </g>
              <g id="Grupo_1092360" data-name="Grupo 1092360" transform="translate(4.929 0.006)">
                <path id="Trazado_834102" data-name="Trazado 834102" d="M113.518,44.746v58.928H23.35V44.746a3.3,3.3,0,0,1,3.306-3.287h83.565a3.293,3.293,0,0,1,3.3,3.287Z" transform="translate(-23.35 -41.458)" fill="#bcdae6"/>
              </g>
              <g id="Grupo_1092361" data-name="Grupo 1092361" transform="translate(4.928 0.004)">
                <path id="Trazado_834103" data-name="Trazado 834103" d="M113.517,44.747v58.922H23.349V44.747a3.3,3.3,0,0,1,3.307-3.29h83.57a3.289,3.289,0,0,1,3.29,3.29Z" transform="translate(-23.349 -41.457)" fill="#bcdae6"/>
              </g>
              <g id="Grupo_1092362" data-name="Grupo 1092362" transform="translate(4.928 0.004)">
                <path id="Trazado_834104" data-name="Trazado 834104" d="M113.517,44.747v58.922H23.349V44.747a3.3,3.3,0,0,1,3.307-3.29h83.57a3.289,3.289,0,0,1,3.29,3.29Z" transform="translate(-23.349 -41.457)" fill="#bcdae6"/>
              </g>
              <g id="Grupo_1092363" data-name="Grupo 1092363" transform="translate(4.929 0.006)">
                <path id="Trazado_834105" data-name="Trazado 834105" d="M113.517,44.744v58.927H23.35V44.744a3.3,3.3,0,0,1,3.312-3.285h83.57a3.287,3.287,0,0,1,3.285,3.285Z" transform="translate(-23.35 -41.459)" fill="#bcdae6"/>
              </g>
              <g id="Grupo_1092364" data-name="Grupo 1092364" transform="translate(4.929 0.143)" opacity="0.05">
                <path id="Trazado_834106" data-name="Trazado 834106" d="M113.518,44.771V103.68H23.35v-2.228H59.165A51.931,51.931,0,0,0,87.3,93.215c.027-.018.046-.027.073-.046A54.46,54.46,0,0,0,93.427,88.6c.74-.657,1.479-1.333,2.2-2.036a36.518,36.518,0,0,0,5.406-6.94c5.251-8.5,8.757-20.09,9.862-30.372a61.831,61.831,0,0,0,.384-6.721,3.044,3.044,0,0,0-.137-.922,3.29,3.29,0,0,1,2.374,3.16Z" transform="translate(-23.35 -41.612)"/>
              </g>
              <g id="Grupo_1092365" data-name="Grupo 1092365" transform="translate(4.929 39.768)" opacity="0.05">
                <path id="Trazado_834107" data-name="Trazado 834107" d="M56.792,99.906a4.5,4.5,0,0,1-.376,1.8,4.5,4.5,0,0,1,.376,1.8v4.825H23.35V85.879H52.307a4.485,4.485,0,0,1,4.485,4.476Z" transform="translate(-23.35 -85.879)"/>
              </g>
              <g id="Grupo_1092366" data-name="Grupo 1092366" transform="translate(4.928)" opacity="0.4">
                <path id="Trazado_834108" data-name="Trazado 834108" d="M113.514,44.759V46.7a3.3,3.3,0,0,0-3.3-3.3H26.645a3.3,3.3,0,0,0-3.3,3.3V44.759a3.306,3.306,0,0,1,3.3-3.307h83.573a3.306,3.306,0,0,1,3.3,3.307Z" transform="translate(-23.349 -41.452)" fill="#fff"/>
              </g>
              <g id="Grupo_1092367" data-name="Grupo 1092367" transform="translate(15.515 0.006)" opacity="0.05">
                <path id="Trazado_834109" data-name="Trazado 834109" d="M104.177,41.459V97.21a4.538,4.538,0,0,1-.494,2.059H35.67a4.538,4.538,0,0,1-.494-2.059V41.459Z" transform="translate(-35.176 -41.459)"/>
              </g>
              <g id="Grupo_1092368" data-name="Grupo 1092368" transform="translate(9.33 4.408)">
                <path id="Trazado_834110" data-name="Trazado 834110" d="M28.267,46.377h81.371V99.791H28.267Z" transform="translate(-28.267 -46.377)" fill="#fff"/>
              </g>
              <g id="Grupo_1092369" data-name="Grupo 1092369" transform="translate(9.333 4.408)">
                <path id="Trazado_834111" data-name="Trazado 834111" d="M28.27,46.376h81.373V99.788H28.27Z" transform="translate(-28.27 -46.376)" fill="#fff"/>
              </g>
              <g id="Grupo_1092370" data-name="Grupo 1092370" transform="translate(9.336 4.411)">
                <path id="Trazado_834112" data-name="Trazado 834112" d="M28.273,46.38h81.37V99.787H28.273Z" transform="translate(-28.273 -46.38)" fill="#fff"/>
              </g>
              <g id="Grupo_1092371" data-name="Grupo 1092371" transform="translate(9.337 4.415)">
                <path id="Trazado_834113" data-name="Trazado 834113" d="M28.274,46.384h81.367v53.4H28.274Z" transform="translate(-28.274 -46.384)" fill="#fff"/>
              </g>
              <g id="Grupo_1092372" data-name="Grupo 1092372" transform="translate(15.515 4.414)" opacity="0.05">
                <path id="Trazado_834114" data-name="Trazado 834114" d="M104.177,46.384V97.726a4.538,4.538,0,0,1-.494,2.059H35.67a4.538,4.538,0,0,1-.494-2.059V46.384Z" transform="translate(-35.176 -46.384)"/>
              </g>
              <g id="Grupo_1092373" data-name="Grupo 1092373" transform="translate(9.323 39.768)" opacity="0.05">
                <path id="Trazado_834115" data-name="Trazado 834115" d="M28.259,103.925V85.879H52.822a4.485,4.485,0,0,1,4.485,4.476v9.551a4.5,4.5,0,0,1-.376,1.8,4.5,4.5,0,0,1,.376,1.8v.421Z" transform="translate(-28.259 -85.879)"/>
              </g>
              <g id="Grupo_1092374" data-name="Grupo 1092374" transform="translate(9.323 54.827)" opacity="0.03">
                <path id="Trazado_834116" data-name="Trazado 834116" d="M28.259,102.7h81.375v3H28.259Z" transform="translate(-28.259 -102.702)"/>
              </g>
              <g id="Grupo_1092375" data-name="Grupo 1092375" transform="translate(0.005 62.217)">
                <path id="Trazado_834117" data-name="Trazado 834117" d="M117.87,110.958v3.2a3.33,3.33,0,0,1-3.336,3.327H21.176a2.744,2.744,0,0,1-.392-.027,3.314,3.314,0,0,1-2.525-1.7.009.009,0,0,1-.009-.009,3.33,3.33,0,0,1-.4-1.586v-3.2H117.87Z" transform="translate(-17.849 -110.958)" fill="#bcdae6"/>
              </g>
              <g id="Grupo_1092376" data-name="Grupo 1092376" transform="translate(0.007 62.221)">
                <path id="Trazado_834118" data-name="Trazado 834118" d="M117.872,110.962v3.2a3.328,3.328,0,0,1-3.342,3.324H21.176a2.74,2.74,0,0,1-.393-.027,3.316,3.316,0,0,1-2.52-1.7.009.009,0,0,1-.009-.009,3.336,3.336,0,0,1-.4-1.589v-3.2h100.02Z" transform="translate(-17.852 -110.962)" fill="#bcdae6"/>
              </g>
              <g id="Grupo_1092377" data-name="Grupo 1092377" transform="translate(0.01 62.221)">
                <path id="Trazado_834119" data-name="Trazado 834119" d="M117.875,110.962v3.2a3.328,3.328,0,0,1-3.342,3.324H21.179a2.739,2.739,0,0,1-.393-.027,3.316,3.316,0,0,1-2.52-1.7.009.009,0,0,1-.009-.009,3.336,3.336,0,0,1-.4-1.589v-3.2h100.02Z" transform="translate(-17.855 -110.962)" fill="#bcdae6"/>
              </g>
              <g id="Grupo_1092378" data-name="Grupo 1092378" transform="translate(0.006 62.218)">
                <path id="Trazado_834120" data-name="Trazado 834120" d="M117.872,110.959v3.2a3.324,3.324,0,0,1-3.339,3.321H21.171c-.134,0-.26-.009-.385-.018a3.332,3.332,0,0,1-2.524-1.7.009.009,0,0,1-.009-.009,3.419,3.419,0,0,1-.4-1.593v-3.2H117.872Z" transform="translate(-17.85 -110.959)" fill="#bcdae6"/>
              </g>
              <g id="Grupo_1092379" data-name="Grupo 1092379" transform="translate(0 63.007)" opacity="0.1">
                <path id="Trazado_834121" data-name="Trazado 834121" d="M117.864,111.84v2.408a3.325,3.325,0,0,1-3.33,3.33H21.173a3.332,3.332,0,0,1-3.33-3.33V111.84a3.332,3.332,0,0,0,3.33,3.33h93.362A3.325,3.325,0,0,0,117.864,111.84Z" transform="translate(-17.844 -111.84)"/>
              </g>
              <g id="Grupo_1092380" data-name="Grupo 1092380" transform="translate(0.005 62.218)" opacity="0.05">
                <path id="Trazado_834122" data-name="Trazado 834122" d="M56.215,110.959v4.726a4.571,4.571,0,0,1-.367,1.79H21.171c-.134,0-.26-.009-.385-.018a3.332,3.332,0,0,1-2.524-1.7.009.009,0,0,1-.009-.009,3.419,3.419,0,0,1-.4-1.593v-3.2Z" transform="translate(-17.85 -110.959)"/>
              </g>
              <g id="Grupo_1092381" data-name="Grupo 1092381" transform="translate(39.17 62.218)">
                <path id="Trazado_834123" data-name="Trazado 834123" d="M83.289,110.959h0a3.651,3.651,0,0,1-3.651,3.651H65.254a3.651,3.651,0,0,1-3.651-3.651H83.289Z" transform="translate(-61.602 -110.959)" fill="#a3acbf"/>
              </g>
              <g id="Grupo_1092382" data-name="Grupo 1092382" transform="translate(39.167 62.218)" opacity="0.4">
                <path id="Trazado_834124" data-name="Trazado 834124" d="M83.286,110.959a3.686,3.686,0,0,1-.3,1.443H61.9a3.687,3.687,0,0,1-.3-1.443Z" transform="translate(-61.6 -110.959)" fill="#fff"/>
              </g>
            </g>
            <g id="Grupo_1092392" data-name="Grupo 1092392" transform="translate(18.067)">
              <g id="Grupo_1092391" data-name="Grupo 1092391">
                <g id="Grupo_1092384" data-name="Grupo 1092384" transform="translate(50.76 0.005)">
                  <path id="Trazado_834125" data-name="Trazado 834125" d="M107.871,29.892H96.8a2.067,2.067,0,0,1-2.067-2.067V16.755Z" transform="translate(-94.734 -16.755)" fill="#d4f4ff"/>
                </g>
                <g id="Grupo_1092385" data-name="Grupo 1092385" transform="translate(50.76 0.005)">
                  <path id="Trazado_834126" data-name="Trazado 834126" d="M107.871,29.892l-2.079-2.079h0a8.98,8.98,0,0,1-8.98-8.98h0l-2.079-2.079v11.07A2.067,2.067,0,0,0,96.8,29.892Z" transform="translate(-94.734 -16.755)" fill="#f3fcff"/>
                </g>
                <g id="Grupo_1092386" data-name="Grupo 1092386" transform="translate(0.001 0.003)">
                  <path id="Trazado_834127" data-name="Trazado 834127" d="M38.028,18.823V94.616a2.064,2.064,0,0,0,2.07,2.061H99.854a2.064,2.064,0,0,0,2.07-2.061V29.889H90.85a2.057,2.057,0,0,1-2.061-2.062V16.753H40.1a2.072,2.072,0,0,0-2.07,2.07Z" transform="translate(-38.028 -16.753)" fill="#fff"/>
                </g>
                <g id="Grupo_1092387" data-name="Grupo 1092387" transform="translate(0.003)">
                  <path id="Trazado_834128" data-name="Trazado 834128" d="M101.925,29.89V94.617a2.067,2.067,0,0,1-2.068,2.059H40.1a2.061,2.061,0,0,1-2.068-2.059V18.826A2.071,2.071,0,0,1,40.1,16.749H88.784V27.831a2.061,2.061,0,0,0,2.068,2.059Z" transform="translate(-38.03 -16.749)" fill="#fff"/>
                </g>
                <g id="Grupo_1092388" data-name="Grupo 1092388" transform="translate(0.003 0.006)">
                  <path id="Trazado_834129" data-name="Trazado 834129" d="M101.925,94.613H99.632C65.04,94.612,40.1,66.57,40.1,31.978V16.755h0a2.067,2.067,0,0,0-2.067,2.067V94.613A2.067,2.067,0,0,0,40.1,96.68h59.76a2.067,2.067,0,0,0,2.067-2.067Z" transform="translate(-38.03 -16.755)" fill="#f3fcff"/>
                </g>
                <g id="Grupo_1092389" data-name="Grupo 1092389" transform="translate(0 0.006)">
                  <path id="Trazado_834130" data-name="Trazado 834130" d="M38.027,18.827V94.61a2.072,2.072,0,0,0,2.07,2.07H99.853a2.072,2.072,0,0,0,2.07-2.07H99.63C65.04,94.61,40.1,66.571,40.1,31.981V16.756a2.072,2.072,0,0,0-2.07,2.07Z" transform="translate(-38.027 -16.756)" fill="#f3fcff"/>
                </g>
                <g id="Grupo_1092390" data-name="Grupo 1092390" transform="translate(0.003 61.881)" opacity="0.05">
                  <path id="Trazado_834131" data-name="Trazado 834131" d="M58.331,99.906a4.5,4.5,0,0,1-.376,1.8,4.5,4.5,0,0,1,.376,1.8v.421H40.1a2.061,2.061,0,0,1-2.068-2.059V85.879H53.847a4.485,4.485,0,0,1,4.485,4.476Z" transform="translate(-38.03 -85.879)"/>
                </g>
              </g>
            </g>
            <g id="Grupo_1092393" data-name="Grupo 1092393" transform="translate(23.421 23.442)">
              <path id="Trazado_834132" data-name="Trazado 834132" d="M44.008,42.937H56.277V51.66H44.008Z" transform="translate(-44.008 -42.937)" fill="#00c5ea"/>
            </g>
            <g id="Grupo_1092394" data-name="Grupo 1092394" transform="translate(23.421 23.446)">
              <path id="Trazado_834133" data-name="Trazado 834133" d="M56.28,42.942v1.847H45.855v6.868H44.008V42.942Z" transform="translate(-44.008 -42.942)" fill="#52eef8"/>
            </g>
            <g id="Grupo_1092395" data-name="Grupo 1092395" transform="translate(35.69 23.442)">
              <path id="Trazado_834134" data-name="Trazado 834134" d="M57.715,42.937H69.984V51.66H57.715Z" transform="translate(-57.715 -42.937)" fill="#ffe93e"/>
            </g>
            <g id="Grupo_1092396" data-name="Grupo 1092396" transform="translate(35.693 23.446)">
              <path id="Trazado_834135" data-name="Trazado 834135" d="M69.981,42.942v1.847H59.564v6.868H57.718V42.942Z" transform="translate(-57.718 -42.942)" fill="#ffff9a"/>
            </g>
            <g id="Grupo_1092397" data-name="Grupo 1092397" transform="translate(47.959 23.442)">
              <path id="Trazado_834136" data-name="Trazado 834136" d="M71.421,42.937H98.858V51.66H71.421Z" transform="translate(-71.421 -42.937)" fill="#ff4b3a"/>
            </g>
            <g id="Grupo_1092398" data-name="Grupo 1092398" transform="translate(47.956 23.446)">
              <path id="Trazado_834137" data-name="Trazado 834137" d="M98.855,42.942v1.847H73.273v6.868H71.418V42.942Z" transform="translate(-71.418 -42.942)" fill="#fc6868"/>
            </g>
          </g>
          <g id="Grupo_1092413" data-name="Grupo 1092413">
            <g id="Grupo_1092400" data-name="Grupo 1092400" transform="translate(2.154 65.011)">
              <path id="Trazado_834138" data-name="Trazado 834138" d="M52.225,90.672v9.548a1.8,1.8,0,0,1-1.8,1.8H7.209a1.8,1.8,0,0,1-1.8-1.8V90.672a1.8,1.8,0,0,1,1.8-1.8H50.423A1.8,1.8,0,0,1,52.225,90.672Z" transform="translate(-5.407 -88.877)" fill="#76819f"/>
            </g>
            <g id="Grupo_1092401" data-name="Grupo 1092401" transform="translate(2.155 65.011)">
              <path id="Trazado_834139" data-name="Trazado 834139" d="M52.229,90.67v1.643a1.8,1.8,0,0,0-1.809-1.8H7.208a1.8,1.8,0,0,0-1.8,1.8V90.67a1.793,1.793,0,0,1,1.8-1.793H50.42A1.8,1.8,0,0,1,52.229,90.67Z" transform="translate(-5.407 -88.877)" fill="#a3acbf"/>
            </g>
            <g id="Grupo_1092402" data-name="Grupo 1092402" transform="translate(2.155 65.014)" opacity="0.05">
              <path id="Trazado_834140" data-name="Trazado 834140" d="M52.229,90.673v9.546a1.8,1.8,0,0,1-1.8,1.8H7.208a1.8,1.8,0,0,1-1.8-1.8v-.571H39.081A10.772,10.772,0,0,0,49.849,88.88h.571a1.8,1.8,0,0,1,1.809,1.793Z" transform="translate(-5.407 -88.88)"/>
            </g>
            <g id="Grupo_1092403" data-name="Grupo 1092403" transform="translate(7.052 69.399)">
              <path id="Trazado_834141" data-name="Trazado 834141" d="M14.459,95.565a1.79,1.79,0,1,1-1.794-1.787A1.79,1.79,0,0,1,14.459,95.565Z" transform="translate(-10.878 -93.779)" fill="#ffe93e"/>
            </g>
            <g id="Grupo_1092404" data-name="Grupo 1092404" transform="translate(13.616 69.399)">
              <path id="Trazado_834142" data-name="Trazado 834142" d="M21.792,95.565A1.79,1.79,0,1,1,20,93.779a1.79,1.79,0,0,1,1.794,1.787Z" transform="translate(-18.212 -93.779)" fill="#00ffc1"/>
            </g>
            <g id="Grupo_1092405" data-name="Grupo 1092405" transform="translate(20.181 69.399)">
              <path id="Trazado_834143" data-name="Trazado 834143" d="M29.125,95.565a1.79,1.79,0,1,1-1.794-1.787,1.79,1.79,0,0,1,1.794,1.787Z" transform="translate(-25.545 -93.779)" fill="#ff4b3a"/>
            </g>
            <g id="Grupo_1092406" data-name="Grupo 1092406" transform="translate(2.154 78.159)">
              <path id="Trazado_834144" data-name="Trazado 834144" d="M52.225,105.361v9.548a1.8,1.8,0,0,1-1.8,1.8H7.209a1.8,1.8,0,0,1-1.8-1.8v-9.548a1.8,1.8,0,0,1,1.8-1.8H50.423A1.8,1.8,0,0,1,52.225,105.361Z" transform="translate(-5.407 -103.565)" fill="#76819f"/>
            </g>
            <g id="Grupo_1092407" data-name="Grupo 1092407" transform="translate(2.155 78.156)">
              <path id="Trazado_834145" data-name="Trazado 834145" d="M52.229,105.363V107A1.8,1.8,0,0,0,50.42,105.2H7.208A1.793,1.793,0,0,0,5.407,107v-1.635a1.8,1.8,0,0,1,1.8-1.8H50.42A1.807,1.807,0,0,1,52.229,105.363Z" transform="translate(-5.407 -103.562)" fill="#a3acbf"/>
            </g>
            <g id="Grupo_1092408" data-name="Grupo 1092408" transform="translate(2.155 78.161)" opacity="0.05">
              <path id="Trazado_834146" data-name="Trazado 834146" d="M52.229,105.361v9.546a1.8,1.8,0,0,1-1.8,1.8H7.208a1.8,1.8,0,0,1-1.8-1.8v-.571H39.081a10.772,10.772,0,0,0,10.768-10.768h.571a1.8,1.8,0,0,1,1.809,1.793Z" transform="translate(-5.407 -103.568)"/>
            </g>
            <g id="Grupo_1092409" data-name="Grupo 1092409" transform="translate(7.052 82.547)">
              <path id="Trazado_834147" data-name="Trazado 834147" d="M14.459,110.254a1.79,1.79,0,1,1-1.794-1.786A1.79,1.79,0,0,1,14.459,110.254Z" transform="translate(-10.878 -108.467)" fill="#ffe93e"/>
            </g>
            <g id="Grupo_1092410" data-name="Grupo 1092410" transform="translate(13.616 82.547)">
              <path id="Trazado_834148" data-name="Trazado 834148" d="M21.792,110.254A1.79,1.79,0,1,1,20,108.467a1.79,1.79,0,0,1,1.794,1.786Z" transform="translate(-18.212 -108.467)" fill="#00ffc1"/>
            </g>
            <g id="Grupo_1092411" data-name="Grupo 1092411" transform="translate(20.181 82.547)">
              <path id="Trazado_834149" data-name="Trazado 834149" d="M29.125,110.254a1.79,1.79,0,1,1-1.794-1.786,1.79,1.79,0,0,1,1.794,1.786Z" transform="translate(-25.545 -108.467)" fill="#ff4b3a"/>
            </g>
            <g id="Grupo_1092412" data-name="Grupo 1092412">
              <path id="Trazado_834150" data-name="Trazado 834150" d="M3.606,117.75H3.448a.448.448,0,1,0,0,.9h.158a.448.448,0,0,0,0-.9Z" transform="translate(-3 -26.894)" fill="#384b7d"/>
              <path id="Trazado_834151" data-name="Trazado 834151" d="M116.6,107.106h-1.02a3.73,3.73,0,0,0,1.352-2.882v-3.2a.455.455,0,0,0-.448-.448H112V42.11a3.751,3.751,0,0,0-3.742-3.742H98.87V29.838a.414.414,0,0,0-.134-.313L85.6,16.384a.61.61,0,0,0-.322-.134L36.6,16.259a2.516,2.516,0,0,0-2.515,2.506v19.6H24.69a3.753,3.753,0,0,0-3.751,3.742V80.816H7.127a2.241,2.241,0,0,0-2.247,2.238V92.6a2.225,2.225,0,0,0,.913,1.8,2.237,2.237,0,0,0-.913,1.8v9.551a2.216,2.216,0,0,0,.457,1.352h-.26a.448.448,0,1,0,0,.9H116.6a.448.448,0,1,0,0-.9ZM108.26,39.264a2.854,2.854,0,0,1,2.847,2.847v58.47H52.591V97.072h54.567a.449.449,0,0,0,.448-.448V43.211a.455.455,0,0,0-.448-.448H98.87v-3.5ZM76.832,101.476a3.2,3.2,0,0,1-3.169,2.757H59.278a3.2,3.2,0,0,1-3.169-2.757ZM98.87,94.556v-50.9h7.841V96.176H98.279a2.535,2.535,0,0,0,.591-1.62ZM97.339,29.391h-9.99a1.626,1.626,0,0,1-1.62-1.62v-9.99ZM34.975,18.765a1.618,1.618,0,0,1,1.62-1.611l48.239-.009V27.77a2.518,2.518,0,0,0,2.515,2.515H97.975V94.556a1.62,1.62,0,0,1-1.62,1.62H52.591a2.237,2.237,0,0,0-.913-1.772,2.238,2.238,0,0,0,.913-1.8v-1.28H91.852a.443.443,0,0,0,.448-.448V40.141a.443.443,0,0,0-.448-.448H39.88a.443.443,0,0,0-.448.448V80.816H34.975V18.765Zm5.353,21.823H51.7v7.823H40.328Zm12.263,0H63.968v7.823H52.591V40.589Zm12.272,0H91.4v7.823H64.864Zm0,44.569H91.4V90.43H64.864Zm0-24.168H91.4v5.147H64.864Zm-.9,5.147H52.591V60.99H63.968Zm.9-6.042V54.948H91.4v5.147Zm-.9,0H52.591V54.948H63.968Zm-12.272,0H40.328V54.948H51.7Zm0,.9v5.147H40.328V60.99Zm0,6.042v5.147H40.328V67.032Zm.9,0H63.968v5.147H52.591Zm12.272,0H91.4v5.147H64.864ZM91.4,54.052H64.864V49.307H91.4Zm-27.436,0H52.591V49.307H63.968Zm-12.272,0H40.328V49.307H51.7ZM40.328,73.074H51.7V78.22H40.328ZM52.591,78.22V73.074H63.968V78.22H52.591Zm12.272,0V73.074H91.4v5.147H64.864Zm26.541.9v5.146H64.864V79.116Zm-51.076,0H51.7v2.156a2.216,2.216,0,0,0-1.352-.457H40.328Zm12.263,3.938V79.116H63.968v5.146H52.591Zm11.377,2.1V90.43H52.591V85.157ZM34.08,80.816H26.23V43.659h7.85ZM21.834,42.11a2.856,2.856,0,0,1,2.855-2.847h9.39v3.5h-8.3a.455.455,0,0,0-.448.448v37.6h-3.5ZM5.776,92.6V83.054a1.349,1.349,0,0,1,1.352-1.343H50.344A1.349,1.349,0,0,1,51.7,83.054V92.6a1.356,1.356,0,0,1-1.352,1.352H7.127A1.356,1.356,0,0,1,5.776,92.6Zm11.592,14.5H7.127a1.356,1.356,0,0,1-1.352-1.352V96.2a1.349,1.349,0,0,1,1.352-1.343H50.344A1.349,1.349,0,0,1,51.7,96.177v9.578a1.356,1.356,0,0,1-1.352,1.352Zm34.758,0a2.169,2.169,0,0,0,.465-1.352v-4.279h2.6a4.124,4.124,0,0,0,4.082,3.652H73.663a4.117,4.117,0,0,0,4.082-3.652h38.294v2.748a2.886,2.886,0,0,1-2.882,2.882H52.126Z" transform="translate(-3.171 -16.25)" fill="#3f3679"/>
              <path id="Trazado_834152" data-name="Trazado 834152" d="M131.418,117.75h-.252a.448.448,0,0,0,0,.9h.252a.448.448,0,1,0,0-.9Z" transform="translate(-16.393 -26.894)" fill="#384b7d"/>
              <path id="Trazado_834153" data-name="Trazado 834153" d="M19.948,107.97A2.237,2.237,0,0,0,17.71,110.2v.018a2.239,2.239,0,0,0,2.238,2.22C23.018,112.437,22.814,107.97,19.948,107.97Zm0,3.572A1.338,1.338,0,1,1,21.29,110.2,1.349,1.349,0,0,1,19.948,111.542Z" transform="translate(-4.543 -25.868)" fill="#384b7d"/>
              <path id="Trazado_834154" data-name="Trazado 834154" d="M43.957,28.985H82.036a.449.449,0,0,0,.448-.448.443.443,0,0,0-.448-.448H43.957a.443.443,0,0,0-.448.448A.449.449,0,0,0,43.957,28.985Z" transform="translate(-7.248 -17.492)" fill="#384b7d"/>
              <path id="Trazado_834155" data-name="Trazado 834155" d="M95.457,36.145h6.024a.449.449,0,0,0,.448-.448.443.443,0,0,0-.448-.448H95.457a.443.443,0,0,0-.448.448A.449.449,0,0,0,95.457,36.145Z" transform="translate(-12.649 -18.242)" fill="#384b7d"/>
              <path id="Trazado_834156" data-name="Trazado 834156" d="M43.957,36.145H86.226a.455.455,0,0,0,.448-.448.449.449,0,0,0-.448-.448H43.957a.443.443,0,0,0-.448.448.449.449,0,0,0,.448.448Z" transform="translate(-7.248 -18.242)" fill="#384b7d"/>
              <path id="Trazado_834157" data-name="Trazado 834157" d="M75.887,48.205H95.92a.448.448,0,0,0,0-.9H75.887a.448.448,0,1,0,0,.9Z" transform="translate(-10.596 -19.507)" fill="#384b7d"/>
              <path id="Trazado_834158" data-name="Trazado 834158" d="M60.237,48.205H67.9a.448.448,0,1,0,0-.9H60.237a.448.448,0,1,0,0,.9Z" transform="translate(-8.955 -19.507)" fill="#384b7d"/>
              <path id="Trazado_834159" data-name="Trazado 834159" d="M46.527,48.205H54.19a.448.448,0,1,0,0-.9H46.527a.448.448,0,1,0,0,.9Z" transform="translate(-7.518 -19.507)" fill="#384b7d"/>
              <path id="Trazado_834160" data-name="Trazado 834160" d="M48.106,62.7h4.84a.448.448,0,1,0,0-.9h-4.84a.448.448,0,1,0,0,.9Z" transform="translate(-7.683 -21.028)" fill="#384b7d"/>
              <path id="Trazado_834161" data-name="Trazado 834161" d="M66.652,75.707h-4.84a.448.448,0,0,0,0,.9h4.84a.448.448,0,0,0,0-.9Z" transform="translate(-9.12 -22.485)" fill="#384b7d"/>
              <path id="Trazado_834162" data-name="Trazado 834162" d="M75.219,89.828h18.9a.448.448,0,0,0,0-.9h-18.9a.448.448,0,0,0,0,.9Z" transform="translate(-10.526 -23.872)" fill="#384b7d"/>
              <path id="Trazado_834163" data-name="Trazado 834163" d="M12.609,97.747a2.233,2.233,0,1,0-2.229-2.229A2.239,2.239,0,0,0,12.609,97.747Zm0-3.572a1.338,1.338,0,1,1-1.334,1.343A1.349,1.349,0,0,1,12.609,94.175Z" transform="translate(-3.774 -24.328)" fill="#384b7d"/>
              <path id="Trazado_834164" data-name="Trazado 834164" d="M19.948,97.747a2.233,2.233,0,1,0-2.238-2.229A2.237,2.237,0,0,0,19.948,97.747Zm0-3.572A1.338,1.338,0,1,1,18.6,95.518,1.341,1.341,0,0,1,19.948,94.175Z" transform="translate(-4.543 -24.328)" fill="#384b7d"/>
              <path id="Trazado_834165" data-name="Trazado 834165" d="M27.279,97.747a2.233,2.233,0,1,0-2.229-2.229A2.25,2.25,0,0,0,27.279,97.747Zm0-3.572a1.338,1.338,0,1,1,0,2.676,1.338,1.338,0,0,1,0-2.676Z" transform="translate(-5.312 -24.328)" fill="#384b7d"/>
              <path id="Trazado_834166" data-name="Trazado 834166" d="M12.609,107.97a2.233,2.233,0,1,0,2.247,2.229A2.235,2.235,0,0,0,12.609,107.97Zm0,3.572A1.338,1.338,0,1,1,13.96,110.2,1.339,1.339,0,0,1,12.609,111.542Z" transform="translate(-3.774 -25.868)" fill="#384b7d"/>
              <path id="Trazado_834167" data-name="Trazado 834167" d="M27.279,107.97A2.235,2.235,0,0,0,25.05,110.2a2.17,2.17,0,0,0,.188.9,2.236,2.236,0,1,0,2.041-3.124Zm0,3.572A1.338,1.338,0,1,1,28.63,110.2,1.349,1.349,0,0,1,27.279,111.542Z" transform="translate(-5.312 -25.868)" fill="#384b7d"/>
              <path id="Trazado_834168" data-name="Trazado 834168" d="M36.187,98.187a.449.449,0,0,0,.448-.448V94.168a.455.455,0,0,0-.448-.448.449.449,0,0,0-.448.448v3.572A.443.443,0,0,0,36.187,98.187Z" transform="translate(-6.433 -24.374)" fill="#384b7d"/>
              <path id="Trazado_834169" data-name="Trazado 834169" d="M39.537,98.187a.443.443,0,0,0,.448-.448V94.168a.448.448,0,1,0-.9,0v3.572A.443.443,0,0,0,39.537,98.187Z" transform="translate(-6.785 -24.374)" fill="#384b7d"/>
              <path id="Trazado_834170" data-name="Trazado 834170" d="M42.887,98.187a.443.443,0,0,0,.448-.448V94.168a.449.449,0,0,0-.448-.448.455.455,0,0,0-.448.448v3.572A.449.449,0,0,0,42.887,98.187Z" transform="translate(-7.136 -24.374)" fill="#384b7d"/>
              <path id="Trazado_834171" data-name="Trazado 834171" d="M46.247,98.187a.449.449,0,0,0,.448-.448V94.168a.455.455,0,0,0-.448-.448.449.449,0,0,0-.448.448v3.572A.443.443,0,0,0,46.247,98.187Z" transform="translate(-7.488 -24.374)" fill="#384b7d"/>
              <path id="Trazado_834172" data-name="Trazado 834172" d="M49.6,98.187a.443.443,0,0,0,.448-.448V94.168a.449.449,0,0,0-.448-.448.455.455,0,0,0-.448.448v3.572A.449.449,0,0,0,49.6,98.187Z" transform="translate(-7.84 -24.374)" fill="#384b7d"/>
              <path id="Trazado_834173" data-name="Trazado 834173" d="M36.187,107.97a.443.443,0,0,0-.448.448v3.572a.449.449,0,0,0,.448.448.455.455,0,0,0,.448-.448v-3.572A.449.449,0,0,0,36.187,107.97Z" transform="translate(-6.433 -25.868)" fill="#384b7d"/>
              <path id="Trazado_834174" data-name="Trazado 834174" d="M39.537,107.97a.443.443,0,0,0-.448.448v3.572a.448.448,0,1,0,.9,0v-3.572A.443.443,0,0,0,39.537,107.97Z" transform="translate(-6.785 -25.868)" fill="#384b7d"/>
              <path id="Trazado_834175" data-name="Trazado 834175" d="M42.887,107.97a.449.449,0,0,0-.448.448v3.572a.455.455,0,0,0,.448.448.449.449,0,0,0,.448-.448v-3.572A.443.443,0,0,0,42.887,107.97Z" transform="translate(-7.136 -25.868)" fill="#384b7d"/>
              <path id="Trazado_834176" data-name="Trazado 834176" d="M46.247,107.97a.443.443,0,0,0-.448.448v3.572a.449.449,0,0,0,.448.448.455.455,0,0,0,.448-.448v-3.572A.449.449,0,0,0,46.247,107.97Z" transform="translate(-7.488 -25.868)" fill="#384b7d"/>
              <path id="Trazado_834177" data-name="Trazado 834177" d="M49.6,107.97a.449.449,0,0,0-.448.448v3.572a.455.455,0,0,0,.448.448.449.449,0,0,0,.448-.448v-3.572A.443.443,0,0,0,49.6,107.97Z" transform="translate(-7.84 -25.868)" fill="#384b7d"/>
            </g>
          </g>
        </g>
      </g>
      <path id="Trazado_834178" data-name="Trazado 834178" d="M15.786,243.433H8.433a.613.613,0,0,0,0,1.225h7.354a.613.613,0,0,0,0-1.225Z" transform="translate(209.13 344.476)" fill="#3f3679"/>
      <path id="Trazado_834179" data-name="Trazado 834179" d="M235.143,243.433H227.79a.613.613,0,1,0,0,1.225h7.354a.613.613,0,1,0,0-1.225Z" transform="translate(96.546 344.476)" fill="#3f3679"/>
      <path id="Trazado_834180" data-name="Trazado 834180" d="M127.273,243.433h-90.5a.625.625,0,1,0,0,1.225h90.5a.625.625,0,1,0,0-1.225Z" transform="translate(192.887 344.476)" fill="#3f3679"/>
    </g>
  </g>
</svg>
