<svg xmlns="http://www.w3.org/2000/svg" xmlns:xlink="http://www.w3.org/1999/xlink" width="400" height="350" viewBox="0 0 400 350">
  <defs>
    <clipPath id="clip-path">
      <rect id="Rectángulo_384023" data-name="Rectángulo 384023" width="400" height="350" rx="14" transform="translate(1021 544)" fill="#f3f9ff"/>
    </clipPath>
    <clipPath id="clip-path-2">
      <rect id="Rectángulo_384022" data-name="Rectángulo 384022" width="356" height="350" transform="translate(-0.298 -0.265)" fill="#f3f9ff"/>
    </clipPath>
    <clipPath id="clip-path-3">
      <rect id="Rectángulo_384000" data-name="Rectángulo 384000" width="384.903" height="371.497" fill="none"/>
    </clipPath>
  </defs>
  <g id="Enmascarar_grupo_1075536" data-name="Enmascarar grupo 1075536" transform="translate(-1021 -544)" clip-path="url(#clip-path)">
    <path id="Trazado_831884" data-name="Trazado 831884" d="M14,0H386c7.732,0,14,5.456,14,12.186V337.722c0,6.73-6.268,12.186-14,12.186H14c-7.732,0-14-5.456-14-12.186V12.186C0,5.456,6.268,0,14,0Z" transform="translate(1021 544.092)" fill="#f3f9ff"/>
    <g id="Enmascarar_grupo_1075535" data-name="Enmascarar grupo 1075535" transform="translate(1043.298 544.265)" clip-path="url(#clip-path-2)">
      <rect id="Rectángulo_383990" data-name="Rectángulo 383990" width="225.449" height="331.056" transform="translate(98.831 25.573)" fill="#3a3e44"/>
      <rect id="Rectángulo_383991" data-name="Rectángulo 383991" width="139.714" height="47.352" transform="translate(8.979 154.717)" fill="#262626"/>
      <g id="Grupo_1087240" data-name="Grupo 1087240" transform="translate(-20.23 12.219)">
        <g id="Grupo_1087239" data-name="Grupo 1087239" clip-path="url(#clip-path-3)">
          <path id="Trazado_831885" data-name="Trazado 831885" d="M169.525,154.015v19.18a27.924,27.924,0,0,0,3.835,14.455c3.465,5.745,10.023,11.907,22.395,13.579H56.041c-12.373-1.672-18.93-7.834-22.395-13.579a27.924,27.924,0,0,1-3.835-14.455v-19.18Z" transform="translate(-0.602 -6.227)" fill="#73716e"/>
          <path id="Trazado_831886" data-name="Trazado 831886" d="M201.51,201.687H56.03c-13.043-1.757-19.6-8.482-22.816-13.814a28.408,28.408,0,0,1-3.9-14.7V153.515H170v19.659a27.467,27.467,0,0,0,3.767,14.21c3.1,5.146,9.439,11.637,22.006,13.343h5.734ZM30.29,154.475v18.7a27.474,27.474,0,0,0,3.767,14.21c3.106,5.15,9.45,11.648,22.039,13.347l134.71,0c-9.8-2.572-15.093-8.235-17.879-12.854a28.42,28.42,0,0,1-3.9-14.7v-18.7Z" transform="translate(-0.592 -6.207)" fill="#262626"/>
          <path id="Trazado_831887" data-name="Trazado 831887" d="M29.81,46.675V150.694a19.017,19.017,0,0,0,19.215,18.818h120.5V46.675Z" transform="translate(-0.602 -1.887)" fill="#f2eadf"/>
          <path id="Trazado_831888" data-name="Trazado 831888" d="M170,169.972H49.016a19.527,19.527,0,0,1-19.705-19.3V105.178h.98v45.495a18.556,18.556,0,0,0,18.725,18.339H169.025V47.134H54.761v-.96H170Z" transform="translate(-0.592 -1.866)" fill="#262626"/>
          <path id="Trazado_831889" data-name="Trazado 831889" d="M68.71,158.781a19.084,19.084,0,0,1-17.484,15.2l-.078.069H192.139c13.654-1.045,17.706-15.273,17.706-15.273Z" transform="translate(-1.032 -6.42)" fill="#f2eadf"/>
          <path id="Trazado_831890" data-name="Trazado 831890" d="M209.051,161.66a21.271,21.271,0,0,0,1.14-2.879H69.054a18.807,18.807,0,0,1-.82,2.879Z" transform="translate(-1.377 -6.42)" fill="#fff"/>
          <path id="Trazado_831891" data-name="Trazado 831891" d="M192.132,174.514H49.834L51,173.5l.167-.012A18.6,18.6,0,0,0,68.2,158.671l.076-.39H210.464l-.173.608c-.041.146-4.3,14.564-18.139,15.624ZM55.9,173.554h136.2c11.543-.9,16.089-11.622,17.05-14.314H69.083A19.461,19.461,0,0,1,55.9,173.554" transform="translate(-1.006 -6.4)" fill="#262626"/>
          <rect id="Rectángulo_383992" data-name="Rectángulo 383992" width="138.896" height="152.389" transform="translate(194.914 0.481)" fill="#f2eadf"/>
          <path id="Trazado_831892" data-name="Trazado 831892" d="M338.306,152.868h-.98V.959H199.41V152.868h-.98V0H338.306Z" transform="translate(-4.005 0.001)" fill="#262626"/>
          <rect id="Rectángulo_383993" data-name="Rectángulo 383993" width="110.461" height="0.96" transform="translate(223.35 128.305)" fill="#262626"/>
          <path id="Trazado_831893" data-name="Trazado 831893" d="M256.986,118.554,248,123.637l0-93.025,8.99-5.082Z" transform="translate(-5.006 -1.032)" fill="#fff"/>
          <path id="Trazado_831894" data-name="Trazado 831894" d="M256.986,121.075,248,126.158V92.952l8.99-5.082Z" transform="translate(-5.006 -3.553)" fill="#73716e"/>
          <path id="Trazado_831895" data-name="Trazado 831895" d="M247.5,124.433V30.3l9.969-5.636V118.8Zm.979-93.578V122.77l8.009-4.527V26.327Z" transform="translate(-4.996 -0.997)" fill="#262626"/>
          <path id="Trazado_831896" data-name="Trazado 831896" d="M277.467,124.473l-8.989,5.083,0-105.382,8.99-5.083Z" transform="translate(-5.419 -0.771)" fill="#fff"/>
          <path id="Trazado_831897" data-name="Trazado 831897" d="M277.467,125.83l-8.989,5.083V57.723l8.989-5.082Z" transform="translate(-5.419 -2.128)" fill="#01c3fd"/>
          <path id="Trazado_831898" data-name="Trazado 831898" d="M267.978,130.351V23.862l9.969-5.637v106.49Zm.979-105.935V128.689l8.009-4.528V19.888Z" transform="translate(-5.409 -0.736)" fill="#262626"/>
          <path id="Trazado_831899" data-name="Trazado 831899" d="M297.948,118.554l-8.989,5.083,0-93.025,8.99-5.082Z" transform="translate(-5.833 -1.032)" fill="#fff"/>
          <path id="Trazado_831900" data-name="Trazado 831900" d="M297.948,120.154l-8.989,5.083V70.176l8.989-5.083Z" transform="translate(-5.833 -2.631)" fill="#73716e"/>
          <path id="Trazado_831901" data-name="Trazado 831901" d="M288.459,124.433V30.3l9.969-5.636V118.8Zm.979-93.578V122.77l8.009-4.527V26.327Z" transform="translate(-5.823 -0.997)" fill="#262626"/>
          <rect id="Rectángulo_383994" data-name="Rectángulo 383994" width="0.98" height="110.465" transform="translate(222.658 18.32)" fill="#262626"/>
          <rect id="Rectángulo_383995" data-name="Rectángulo 383995" width="37.264" height="24.146" transform="translate(124.881 54.575)" fill="#fff"/>
          <rect id="Rectángulo_383996" data-name="Rectángulo 383996" width="46.865" height="8.553" transform="translate(115.064 109.486)" fill="#fff"/>
          <path id="Trazado_831902" data-name="Trazado 831902" d="M162.78,121.111H114.935V111.6H162.78Zm-46.866-.96H161.8v-7.593H115.915Z" transform="translate(-2.32 -4.512)" fill="#262626"/>
          <rect id="Rectángulo_383997" data-name="Rectángulo 383997" width="72.421" height="0.96" transform="translate(100.535 61.257)" fill="#262626"/>
          <rect id="Rectángulo_383998" data-name="Rectángulo 383998" width="72.421" height="0.96" transform="translate(100.535 70.808)" fill="#262626"/>
          <rect id="Rectángulo_383999" data-name="Rectángulo 383999" width="67.188" height="5.625" transform="translate(261.461 135.21)" fill="#01c3fd"/>
          <path id="Trazado_831903" data-name="Trazado 831903" d="M331.515,143.991H263.348v-6.584h68.167Zm-67.187-.96h66.207v-4.665H264.328Z" transform="translate(-5.316 -5.556)" fill="#262626"/>
        </g>
      </g>
      <rect id="Rectángulo_384001" data-name="Rectángulo 384001" width="195.257" height="0.96" transform="translate(151.613 348.669)" fill="#262626"/>
      <g id="Grupo_1087242" data-name="Grupo 1087242" transform="translate(-22.901 -22.348)">
        <g id="Grupo_1087241" data-name="Grupo 1087241" clip-path="url(#clip-path-3)">
          <path id="Trazado_831904" data-name="Trazado 831904" d="M244.651,103.736c0,1.368-2.569,2.473-2.83,3.766-.269,1.333,1.668,3.313,1.148,4.54-.529,1.247-3.333,1.3-4.092,2.413s.251,3.676-.716,4.623-3.58-.046-4.721.7-1.19,3.489-2.464,4.006c-1.252.509-3.274-1.389-4.634-1.125-1.321.256-2.449,2.771-3.846,2.771s-2.525-2.515-3.846-2.771c-1.362-.264-3.383,1.633-4.636,1.125-1.275-.517-1.332-3.264-2.464-4.006s-3.754.246-4.721-.7.047-3.505-.717-4.623-3.562-1.165-4.091-2.412c-.518-1.226,1.418-3.207,1.148-4.54-.261-1.293-2.83-2.4-2.83-3.766s2.569-2.473,2.83-3.766c.269-1.333-1.667-3.313-1.147-4.54.528-1.247,3.332-1.3,4.091-2.413s-.251-3.676.716-4.623,3.58.046,4.722-.7,1.189-3.489,2.463-4.006c1.252-.509,3.275,1.388,4.636,1.125,1.321-.256,2.448-2.771,3.846-2.771s2.524,2.515,3.846,2.771c1.361.264,3.382-1.633,4.635-1.125,1.274.517,1.331,3.263,2.463,4.006s3.754-.246,4.722.7-.048,3.506.716,4.623,3.563,1.165,4.091,2.413c.519,1.225-1.418,3.206-1.148,4.539.261,1.293,2.83,2.4,2.83,3.766" transform="translate(-4.044 -3.317)" fill="#262626"/>
          <path id="Trazado_831905" data-name="Trazado 831905" d="M225.279,141.806c-1.307-11.847-1.309-11.868-2.495-22.6a8.3,8.3,0,0,0-16.527.82c0,.1.012.2.016.3.395,10.844.395,10.844.84,22.772a9.119,9.119,0,0,0,18.222-.326,8.879,8.879,0,0,0-.055-.96" transform="translate(-4.164 -4.525)" fill="#802f1d"/>
          <path id="Trazado_831906" data-name="Trazado 831906" d="M248.457,194.57q-1.758-19.091-3.785-40.983a7.438,7.438,0,0,0-.443-1.9,7.523,7.523,0,0,0-9.62-4.295,7.3,7.3,0,0,0-4.786,7.847c0,.046.009.09.015.135q3.023,21.692,5.662,40.637a6.474,6.474,0,0,0,8.749,5.122,6.38,6.38,0,0,0,4.208-6.561" transform="translate(-4.638 -5.941)" fill="#73716e"/>
          <path id="Trazado_831907" data-name="Trazado 831907" d="M198.84,152.6a7.382,7.382,0,0,0-7.071-7.7,7.462,7.462,0,0,0-7.586,5.326,1.225,1.225,0,0,0-.042.129q-6.069,21.073-11.368,39.475a6.544,6.544,0,0,0-.235,1.4,6.44,6.44,0,0,0,6.171,6.718,6.517,6.517,0,0,0,6.531-4.371q6.168-18.193,13.229-39.058a7.5,7.5,0,0,0,.37-1.917" transform="translate(-3.483 -5.858)" fill="#615f5d"/>
          <path id="Trazado_831908" data-name="Trazado 831908" d="M189.741,144.965l-4.685,20a23.4,23.4,0,0,0-.616,5.333v.052a23.374,23.374,0,0,0,.486,4.742l6.581,31.775,33.37.267,14.238-59.915-15.285-5-16.419-1.382Z" transform="translate(-3.723 -5.695)" fill="#73716e"/>
          <path id="Trazado_831909" data-name="Trazado 831909" d="M183.792,187.844c-1.891-1.726-7.495-7.4-7.495-7.4l-9.185,10.131s7.04,7.789,8.174,8.45a7.234,7.234,0,0,0,3.279.977,7.1,7.1,0,0,0,7.527-6.63,6.924,6.924,0,0,0-2.3-5.529" transform="translate(-3.373 -7.296)" fill="#73716e"/>
          <path id="Trazado_831910" data-name="Trazado 831910" d="M232.738,145.032l-8.606-2.812-16.42-1.382-8.354,1.951c-.006.089-.028.178-.028.268,0,4.485,7.607,8.12,16.991,8.12,7.837,0,14.453-2.7,16.417-6.144" transform="translate(-4.024 -5.695)" fill="#802f1d"/>
          <path id="Trazado_831911" data-name="Trazado 831911" d="M226.7,326.838a7.919,7.919,0,0,0-3.462-7.466,8.263,8.263,0,0,0-11.347,2.021,7.823,7.823,0,0,0-1.444,4.629c.163,15.973.294,28.38.412,39.562a5.581,5.581,0,0,0,2.459,4.539,5.786,5.786,0,0,0,7.943-1.414,5.465,5.465,0,0,0,.954-2.567c1.286-11.108,2.684-23.435,4.484-39.3" transform="translate(-4.248 -12.857)" fill="#262626"/>
          <path id="Trazado_831912" data-name="Trazado 831912" d="M226.2,204.884H190.576l-6.164,13.045L183.053,244.2l54.7-6.393Z" transform="translate(-3.695 -8.285)" fill="#9697f8"/>
          <path id="Trazado_831913" data-name="Trazado 831913" d="M231.778,302.992a11.964,11.964,0,0,0-23.9-1.032c-.009.184,0,.365,0,.546.045,23.429.085,39.036.131,57.14l18.448.8c1.673-18.03,3.115-33.573,5.28-56.906,0-.182.029-.36.037-.544" transform="translate(-4.196 -11.758)" fill="#9697f8"/>
          <path id="Trazado_831914" data-name="Trazado 831914" d="M214.446,250.127a16.2,16.2,0,0,0,1.969-7.743,16.9,16.9,0,0,0-32.89-5.075c-.012.027-.021.053-.03.082-.015.047-.031.093-.046.14-9.922,30.064-9.942,30.125-17.018,51.57a11.542,11.542,0,0,0-.58,3.6,11.84,11.84,0,0,0,11.962,11.714,11.99,11.99,0,0,0,10.562-6.221c10.8-19.913,10.826-19.957,25.984-47.906l.052-.1.036-.067" transform="translate(-3.348 -9.134)" fill="#9697f8"/>
          <path id="Trazado_831915" data-name="Trazado 831915" d="M239.127,244.893a16.858,16.858,0,0,0-33.677-1.454c-.022.478-.011.949.009,1.418,1.381,32.5,1.381,32.5,2.368,55.559a11.981,11.981,0,0,0,23.8,1.028c3.063-22.887,3.063-22.887,7.369-55.137.051-.466.1-.936.126-1.413" transform="translate(-4.147 -9.206)" fill="#9697f8"/>
          <path id="Trazado_831916" data-name="Trazado 831916" d="M218.721,351.994c-5.161-9.972-10.911-21.022-18.314-35.247a8.168,8.168,0,0,0-7.083-4.374,8.081,8.081,0,0,0-8.345,7.8,7.826,7.826,0,0,0,1.392,4.644c9.1,13.255,16.175,23.55,22.548,32.827a5.762,5.762,0,0,0,4.6,2.468,5.656,5.656,0,0,0,5.842-5.457,5.43,5.43,0,0,0-.643-2.658" transform="translate(-3.734 -12.632)" fill="#802f1d"/>
          <path id="Trazado_831917" data-name="Trazado 831917" d="M237.051,235.2h-2.276a8.607,8.607,0,0,1-7.064-3.649l-9.7-13.881.809-.541,9.7,13.881a7.619,7.619,0,0,0,6.255,3.231h2.276Z" transform="translate(-4.401 -8.78)" fill="#262626"/>
          <path id="Trazado_831918" data-name="Trazado 831918" d="M205.388,253.765l-4.106-5.185V203.839h.98v44.413l3.9,4.925Z" transform="translate(-4.063 -8.242)" fill="#262626"/>
          <path id="Trazado_831919" data-name="Trazado 831919" d="M0,0,.962.006l.119,18.016-.962-.006Z" transform="translate(180.551 234.634) rotate(-70.2)" fill="#262626"/>
          <rect id="Rectángulo_384002" data-name="Rectángulo 384002" width="0.98" height="7.276" transform="translate(210.608 196.599)" fill="#262626"/>
          <rect id="Rectángulo_384003" data-name="Rectángulo 384003" width="0.98" height="6.833" transform="translate(188.723 196.599)" fill="#262626"/>
          <path id="Trazado_831920" data-name="Trazado 831920" d="M210.434,333.629s-21.294-42.447-21.606-43.169a11.968,11.968,0,0,0-11.016-7.15,11.84,11.84,0,0,0-11.963,11.714,11.5,11.5,0,0,0,.581,3.6A11.64,11.64,0,0,0,168.2,302c.364.48,24.47,38.376,24.47,38.376Z" transform="translate(-3.348 -11.456)" fill="#9697f8"/>
          <path id="Trazado_831921" data-name="Trazado 831921" d="M176.844,181.832c.009,1.473-1.006,3.657-2.764,5.681a11.726,11.726,0,0,1-4.487,3.356,4.378,4.378,0,0,1-.6.168,2,2,0,0,1-1.7-.266c-.625-.533-.689-1.58-.29-2.867.072-.23.164-.479.264-.727a13.417,13.417,0,0,1,2.238-3.489c2.13-2.441,4.668-3.87,6.145-3.55a1.413,1.413,0,0,1,.625.275,1.373,1.373,0,0,1,.39.533,1.964,1.964,0,0,1,.181.888" transform="translate(-3.366 -7.282)" fill="#262626"/>
          <path id="Trazado_831922" data-name="Trazado 831922" d="M223.127,366.9l.734,15.741H190.736v-4.075s17.949-2.956,21.213-11.665Z" transform="translate(-3.85 -14.837)" fill="#262626"/>
          <rect id="Rectángulo_384004" data-name="Rectángulo 384004" width="33.125" height="2.677" transform="translate(186.886 367.806)" fill="#73716e"/>
          <path id="Trazado_831923" data-name="Trazado 831923" d="M0,0,.978.006l.034,5.632L.034,5.632Z" transform="matrix(0.954, -0.301, 0.301, 0.954, 189.688, 363.177)" fill="#73716e"/>
          <rect id="Rectángulo_384005" data-name="Rectángulo 384005" width="23.905" height="0.96" transform="translate(196.106 368.665)" fill="#262626"/>
          <rect id="Rectángulo_384006" data-name="Rectángulo 384006" width="0.98" height="2.876" transform="translate(195.616 367.606)" fill="#262626"/>
          <path id="Trazado_831924" data-name="Trazado 831924" d="M217.042,349.14l9.621,7.893-19.541,26.194-3.36-2.4s5.462-9.9,2.538-26.033Z" transform="translate(-4.113 -14.118)" fill="#73716e"/>
          <path id="Trazado_831925" data-name="Trazado 831925" d="M210.045,381.164l-5.165-1.693.31-.911,5.165,1.693Z" transform="translate(-4.136 -15.308)" fill="#f2eadf"/>
          <path id="Trazado_831926" data-name="Trazado 831926" d="M0,0,32.678.326,32.7,3.039.027,2.713Z" transform="matrix(0.59, -0.807, 0.807, 0.59, 203.01, 369.109)" fill="#f2eadf"/>
          <path id="Trazado_831927" data-name="Trazado 831927" d="M0,0,23.583.235l.01.972L.01.972Z" transform="matrix(0.59, -0.807, 0.807, 0.59, 209.153, 362.323)" fill="#262626"/>
          <path id="Trazado_831928" data-name="Trazado 831928" d="M0,0,.966.01.993,2.723l-.966-.01Z" transform="translate(208.159 362.207) rotate(-53.853)" fill="#262626"/>
          <path id="Trazado_831929" data-name="Trazado 831929" d="M217.007,363.359a4.153,4.153,0,0,1-4.191-4.1h.98a3.212,3.212,0,1,0,3.211-3.146,3.229,3.229,0,0,0-2.805,1.613l-.855-.468a4.213,4.213,0,0,1,3.661-2.1,4.105,4.105,0,1,1,0,8.209" transform="translate(-4.296 -14.362)" fill="#f2eadf"/>
          <path id="Trazado_831930" data-name="Trazado 831930" d="M229.871,208.579H197.242a1.206,1.206,0,0,1-1.155-1.775l16.585-44.789a2.859,2.859,0,0,1,2.47-1.775h32.629a1.205,1.205,0,0,1,1.155,1.775L232.341,206.8a2.858,2.858,0,0,1-2.47,1.775" transform="translate(-3.956 -6.479)" fill="#f2eadf"/>
          <path id="Trazado_831931" data-name="Trazado 831931" d="M230.8,209.5H198.168a1.206,1.206,0,0,1-1.156-1.775L213.6,162.939a2.857,2.857,0,0,1,2.47-1.775H248.7a1.205,1.205,0,0,1,1.155,1.775l-16.585,44.789a2.858,2.858,0,0,1-2.47,1.775" transform="translate(-3.975 -6.517)" fill="#262626"/>
          <path id="Trazado_831932" data-name="Trazado 831932" d="M210.605,182.612c-3.659-.31-5.086-.428-7.529-.629-.035,0-.069,0-.1,0a1.21,1.21,0,0,0-1.226,1.194,1.2,1.2,0,0,0,.928,1.153c2.377.585,3.766.924,7.329,1.8a2.215,2.215,0,0,0,.448.054,1.783,1.783,0,0,0,.153-3.563" transform="translate(-4.072 -7.358)" fill="#802f1d"/>
          <path id="Trazado_831933" data-name="Trazado 831933" d="M211.6,177.111a1.875,1.875,0,0,0-.256.025c-2.912.391-2.912.391-4.855.657-.047.012-.092.02-.137.032-2.009.5-2.009.5-3.2.8a.727.727,0,0,0-.543.684.711.711,0,0,0,.691.7c1.22.061,1.233.061,3.263.154l4.837.511c.066,0,.13.011.2.011a1.789,1.789,0,1,0,0-3.577" transform="translate(-4.09 -7.161)" fill="#802f1d"/>
          <path id="Trazado_831934" data-name="Trazado 831934" d="M209.749,186.367c-3.5-1.08-3.59-1.108-5.928-1.824a1.5,1.5,0,0,0-.367-.055,1.21,1.21,0,0,0-1.226,1.194,1.183,1.183,0,0,0,.64,1.042c2.148,1.151,2.229,1.194,5.452,2.911a1.972,1.972,0,0,0,.882.22,1.814,1.814,0,0,0,1.837-1.79,1.79,1.79,0,0,0-1.289-1.7" transform="translate(-4.082 -7.46)" fill="#802f1d"/>
          <path id="Trazado_831935" data-name="Trazado 831935" d="M209.23,189.548c-3.065-1.474-3.065-1.474-5.112-2.454a1.308,1.308,0,0,0-.541-.123,1.211,1.211,0,0,0-1.226,1.194,1.176,1.176,0,0,0,.467.931c1.784,1.385,1.784,1.385,4.463,3.453a1.911,1.911,0,0,0,1.142.388,1.814,1.814,0,0,0,1.837-1.79,1.78,1.78,0,0,0-1.031-1.6" transform="translate(-4.085 -7.56)" fill="#802f1d"/>
          <path id="Trazado_831936" data-name="Trazado 831936" d="M208.4,191.64c-2.514-.866-2.514-.866-4.089-1.4a1.348,1.348,0,0,0-.323-.054.963.963,0,0,0-.976.95.928.928,0,0,0,.429.766c1.364.94,1.364.94,3.558,2.419a1.6,1.6,0,0,0,.887.27,1.54,1.54,0,0,0,1.56-1.519,1.517,1.517,0,0,0-1.045-1.427" transform="translate(-4.098 -7.69)" fill="#802f1d"/>
          <path id="Trazado_831937" data-name="Trazado 831937" d="M243.966,191.318l-21.543-8.065-6.541-5.431-3.925-.692-2.641,2.548,1.263,2.718-2.59,11.662h2.03l8.962-1.893,19.159,9.541a6.18,6.18,0,0,0,1.4.695l.044.022a6.4,6.4,0,0,0,2.027.336,6.032,6.032,0,0,0,6.11-5.951,5.952,5.952,0,0,0-3.752-5.49" transform="translate(-4.198 -7.162)" fill="#802f1d"/>
          <path id="Trazado_831938" data-name="Trazado 831938" d="M0,0,.961.006.986,4.248.025,4.242Z" transform="matrix(0.298, -0.954, 0.954, 0.298, 201.199, 178.033)" fill="#262626"/>
          <path id="Trazado_831939" data-name="Trazado 831939" d="M176.38,180.355c.009,1.473-1.006,3.657-2.764,5.681a11.726,11.726,0,0,1-4.487,3.356,4.369,4.369,0,0,1-.6.168c-.616-.959-1.287-2.014-1.994-3.133-5.8-9.187-14.011-22.812-14.011-22.812l-.517-2.431-8.256-10.456,4.568-7.145,12.135,2.361.481,13.11,14.873,19.882.39.533a1.964,1.964,0,0,1,.181.888" transform="translate(-2.902 -5.806)" fill="#802f1d"/>
          <path id="Trazado_831940" data-name="Trazado 831940" d="M156.461,143.664l-.836,7.874-2.868,1.373-6.648-3.826,6.964-6.513Z" transform="translate(-2.949 -5.765)" fill="#262626"/>
          <path id="Trazado_831941" data-name="Trazado 831941" d="M148.517,146.627a1.439,1.439,0,0,0,.206-.816,1.49,1.49,0,0,0-2.716-.732c-1.2,1.755-1.2,1.755-2.505,3.66a1.576,1.576,0,0,0-.269.957,1.617,1.617,0,0,0,2.992.723c1.19-1.967,1.193-1.972,2.286-3.781l.007-.011" transform="translate(-2.891 -5.84)" fill="#802f1d"/>
          <path id="Trazado_831942" data-name="Trazado 831942" d="M156.182,145.611c-.526-1.033-.53-1.039-1.263-2.474a1.1,1.1,0,0,0-1.031-.6,1.07,1.07,0,0,0-1.029,1.113,1.045,1.045,0,0,0,.244.613c1.041,1.262,1.041,1.262,1.786,2.162a.816.816,0,0,0,.64.279.751.751,0,0,0,.653-1.095" transform="translate(-3.086 -5.763)" fill="#73716e"/>
          <path id="Trazado_831943" data-name="Trazado 831943" d="M155.475,148.968c-.834-1.278-1.025-1.567-2.206-3.347a1.1,1.1,0,0,0-.963-.482,1.071,1.071,0,0,0-1.028,1.114,1.048,1.048,0,0,0,.277.65c1.438,1.587,1.673,1.843,2.7,2.975a.822.822,0,0,0,.617.253.765.765,0,0,0,.734-.8.729.729,0,0,0-.134-.367" transform="translate(-3.054 -5.868)" fill="#73716e"/>
          <path id="Trazado_831944" data-name="Trazado 831944" d="M153.5,150.54c-.739-1.266-.739-1.266-1.824-3.1a1.1,1.1,0,0,0-.994-.528,1.07,1.07,0,0,0-1.027,1.114,1.04,1.04,0,0,0,.265.635c1.408,1.611,1.408,1.611,2.378,2.716a.793.793,0,0,0,.6.253.735.735,0,0,0,.705-.766.693.693,0,0,0-.106-.323" transform="translate(-3.021 -5.94)" fill="#73716e"/>
          <path id="Trazado_831945" data-name="Trazado 831945" d="M156.311,138.622a1.634,1.634,0,0,0-.562.133,5.064,5.064,0,0,1-3.315.61c-.043,0-.085,0-.129,0a1.073,1.073,0,1,0,.111,2.143,1.138,1.138,0,0,0,.129-.019s3.361.288,3.361.288a1.826,1.826,0,0,0,.573.071,1.615,1.615,0,1,0-.168-3.225" transform="translate(-3.053 -5.605)" fill="#802f1d"/>
          <path id="Trazado_831946" data-name="Trazado 831946" d="M160.472,144.856c-1.415-2.991-1.42-3-2.509-5.3a1.657,1.657,0,0,0-1.579-.933,1.628,1.628,0,0,0-1.563,1.695,1.526,1.526,0,0,0,.061.349c.692,2.444.695,2.456,1.587,5.6a2.146,2.146,0,0,0,2.177,1.564,2.108,2.108,0,0,0,2.024-2.2,2.031,2.031,0,0,0-.2-.773" transform="translate(-3.125 -5.605)" fill="#802f1d"/>
          <path id="Trazado_831947" data-name="Trazado 831947" d="M152.169,141.32c-1.538-3.576-5.392-12.5-6.02-13.948a.839.839,0,0,0-.567-.462.8.8,0,0,0-.959.6.751.751,0,0,0,.013.362c.388,1.531,2.82,10.92,3.795,14.681a1.977,1.977,0,0,0,2.021,1.46,1.956,1.956,0,0,0,1.878-2.036,1.9,1.9,0,0,0-.161-.655" transform="translate(-2.919 -5.131)" fill="#802f1d"/>
          <path id="Trazado_831948" data-name="Trazado 831948" d="M154.56,142.662c-1.535-1.3-1.535-1.3-3.644-3.074a1.513,1.513,0,0,0-1.045-.35,1.466,1.466,0,0,0-1.408,1.528,1.448,1.448,0,0,0,.715,1.171l4.116,2.437a1.1,1.1,0,0,0,.615.152,1.07,1.07,0,0,0,1.027-1.114,1.048,1.048,0,0,0-.376-.748" transform="translate(-2.997 -5.63)" fill="#802f1d"/>
          <path id="Trazado_831949" data-name="Trazado 831949" d="M152.977,145.264c-1.535-1.3-1.535-1.3-3.644-3.074a1.512,1.512,0,0,0-1.044-.35,1.467,1.467,0,0,0-1.409,1.528,1.448,1.448,0,0,0,.715,1.171l4.116,2.437a1.1,1.1,0,0,0,.615.152,1.07,1.07,0,0,0,1.027-1.114,1.048,1.048,0,0,0-.376-.748" transform="translate(-2.965 -5.735)" fill="#802f1d"/>
          <path id="Trazado_831950" data-name="Trazado 831950" d="M151.307,147.027c-1.316-.974-1.316-.974-3.124-2.3a1.537,1.537,0,0,0-.968-.29,1.467,1.467,0,0,0-1.409,1.528,1.449,1.449,0,0,0,.856,1.237c2.043.947,2.043.947,3.535,1.634a1.164,1.164,0,0,0,.516.1,1.069,1.069,0,0,0,1.027-1.113,1.046,1.046,0,0,0-.434-.791" transform="translate(-2.943 -5.84)" fill="#802f1d"/>
          <path id="Trazado_831951" data-name="Trazado 831951" d="M0,0,.97.01l.1,9.619L.1,9.619Z" transform="matrix(0.727, -0.687, 0.687, 0.727, 172.878, 173.479)" fill="#262626"/>
          <rect id="Rectángulo_384007" data-name="Rectángulo 384007" width="9.365" height="0.96" transform="translate(225.116 233.703)" fill="#262626"/>
          <rect id="Rectángulo_384008" data-name="Rectángulo 384008" width="14.589" height="0.96" transform="translate(180.716 165.085)" fill="#262626"/>
          <rect id="Rectángulo_384009" data-name="Rectángulo 384009" width="7.016" height="0.96" transform="translate(223.654 156.314)" fill="#f2eadf"/>
          <path id="Trazado_831952" data-name="Trazado 831952" d="M162.387,159.911a1.845,1.845,0,0,0-.706-.133,2.284,2.284,0,0,0-.417.044l.644.87a.383.383,0,0,1,.145.035,1.633,1.633,0,0,1,.834,1.27,5.214,5.214,0,0,1,.118.985,11.787,11.787,0,0,1-.988,4.641c-1.2,2.9-2.964,4.713-4.179,5.006a1.125,1.125,0,0,1-.689-.017c-.57-.231-.924-1.048-.951-2.255a3.185,3.185,0,0,1,.009-.408q-.42-.679-.788-1.305a9.061,9.061,0,0,0-.127,1.74c.045,1.6.58,2.681,1.514,3.053a2.128,2.128,0,0,0,.706.133,2.417,2.417,0,0,0,.807-.151c1.6-.542,3.372-2.637,4.54-5.459a13.127,13.127,0,0,0,1.043-4.607,2.922,2.922,0,0,0,.009-.391c-.045-1.606-.589-2.69-1.523-3.053" transform="translate(-3.135 -6.461)" fill="#f2eadf"/>
          <path id="Trazado_831953" data-name="Trazado 831953" d="M197,130.252a2.53,2.53,0,0,1-.622-2.344l.328-1.311-.878-1.176,1.029-2.255-1.246-2.306.849-1.5-1.148-.749a1.443,1.443,0,0,1-.251-2.217l3.607-3.715a2.28,2.28,0,0,0,.462-2.485l-.108-.251a5.766,5.766,0,0,1-.217-3.974l.925-3.021a5.863,5.863,0,0,1,1.46-2.425l6.193-6.2h19l7.775,13.244L231.2,119.519l-31.364,11.41a2.643,2.643,0,0,1-2.837-.677" transform="translate(-3.929 -3.813)" fill="#802f1d"/>
          <path id="Trazado_831954" data-name="Trazado 831954" d="M204.857,110.684l-1.823-1.157-3.717-.026.008-.96,4,.028,2.063,1.31Z" transform="translate(-4.023 -4.389)" fill="#262626"/>
          <path id="Trazado_831955" data-name="Trazado 831955" d="M0,0,1.73,0l0,.979L0,.979Z" transform="translate(196.344 107.549) rotate(-82.875)" fill="#262626"/>
          <path id="Trazado_831956" data-name="Trazado 831956" d="M0,0,.962.006.989,4.2.027,4.2Z" transform="translate(195.9 107.82) rotate(-70.62)" fill="#262626"/>
          <path id="Trazado_831957" data-name="Trazado 831957" d="M200.608,114.721V112.3h.98v1.032l1.822-.676.347.9Z" transform="translate(-4.049 -4.54)" fill="#262626"/>
          <path id="Trazado_831958" data-name="Trazado 831958" d="M218.689,114.331l-3.244,3a3.531,3.531,0,0,1-1.866-3.582l.269-1.994a3.547,3.547,0,0,0-1.449-3.347l-2.176-1.578a2.343,2.343,0,0,1-.5-3.314l2.378-3.128-3.593-1.461a3.75,3.75,0,0,1-1.744-5.578c.026-.038,20.778-.038,20.778-.038l8.048,14.048-3.449,13.513-8.366,6.609L222.2,114.438Z" transform="translate(-4.161 -3.773)" fill="#262626"/>
          <path id="Trazado_831959" data-name="Trazado 831959" d="M216.185,122.057l1.314.389,4.965-1.79a2.9,2.9,0,0,0,1.934-2.717V116.21a2.925,2.925,0,0,0-2.955-2.894,3.012,3.012,0,0,0-2.237.955l-3.568,3.872Z" transform="translate(-4.353 -4.582)" fill="#802f1d"/>
          <path id="Trazado_831960" data-name="Trazado 831960" d="M199.513,124.27h-2.982l-.545-.524a2.149,2.149,0,0,1-.662-1.548v-.556Z" transform="translate(-3.943 -4.918)" fill="#262626"/>
          <path id="Trazado_831961" data-name="Trazado 831961" d="M196.531,124.381l-.886.97a1.227,1.227,0,0,0-.321.825v.778l4.189-2.574Z" transform="translate(-3.943 -5.029)" fill="#262626"/>
          <path id="Trazado_831962" data-name="Trazado 831962" d="M0,0,13.635.092l.007.962L.007.962Z" transform="translate(206.786 122.647) rotate(-20.376)" fill="#262626"/>
          <path id="Trazado_831963" data-name="Trazado 831963" d="M200.533,124.822H197.2v-.96h2.357v-.438h.98Z" transform="translate(-3.981 -4.99)" fill="#262626"/>
          <path id="Trazado_831964" data-name="Trazado 831964" d="M0,0,5.014.052l.01.97L.01.97Z" transform="matrix(0.677, -0.736, 0.736, 0.677, 213.386, 113.81)" fill="#201600"/>
          <path id="Trazado_831965" data-name="Trazado 831965" d="M0,0,19,.133,19,1.094.007.962Z" transform="translate(189.148 328.468) rotate(-21.174)" fill="#262626"/>
        </g>
      </g>
      <g id="Grupo_1087248" data-name="Grupo 1087248" transform="translate(-20.23 -21.868)">
        <rect id="Rectángulo_384011" data-name="Rectángulo 384011" width="250.267" height="4.352" transform="translate(99.738 252.819)" fill="#73716e"/>
        <g id="Grupo_1087247" data-name="Grupo 1087247">
          <g id="Grupo_1087244" data-name="Grupo 1087244">
            <g id="Grupo_1087243" data-name="Grupo 1087243" clip-path="url(#clip-path-3)">
              <path id="Trazado_831966" data-name="Trazado 831966" d="M260.363,343.026,289.662,297a1.629,1.629,0,0,1,2.216-.5l17.887,10.922a1.576,1.576,0,0,1,.708.949l2.1,8.084a1.574,1.574,0,0,0,.708.949L342.91,335.5a1.559,1.559,0,0,1,.514,2.171l-25.707,40.377a1.628,1.628,0,0,1-2.216.5L260.877,345.2a1.557,1.557,0,0,1-.514-2.172" transform="translate(-5.251 -11.98)"/>
              <path id="Trazado_831967" data-name="Trazado 831967" d="M0,0,17.94.169l.6,64.8L.6,64.8Z" transform="matrix(0.529, -0.849, 0.849, 0.529, 271.06, 305.996)" fill="#f2eadf"/>
              <path id="Trazado_831968" data-name="Trazado 831968" d="M315.5,378.985l-54.624-33.353a1.556,1.556,0,0,1-.514-2.171l22.66-35.592a1.846,1.846,0,0,1,2.513-.571l54.258,33.13a1.765,1.765,0,0,1,.583,2.461l-22.659,35.592a1.629,1.629,0,0,1-2.217.5" transform="translate(-5.251 -12.415)" fill="#01c3fd"/>
              <rect id="Rectángulo_384012" data-name="Rectángulo 384012" width="44.663" height="43.924" transform="translate(251.98 327.573)" fill="#f2eadf"/>
              <rect id="Rectángulo_384013" data-name="Rectángulo 384013" width="49.705" height="43.924" transform="translate(296.643 327.573)" fill="#73716e"/>
              <path id="Trazado_831969" data-name="Trazado 831969" d="M290.879,355.5H268.433a3.607,3.607,0,1,1,0-7.213h22.447a3.607,3.607,0,1,1,0,7.213m-22.447-6.253a2.647,2.647,0,1,0,0,5.294h22.447a2.647,2.647,0,1,0,0-5.294Z" transform="translate(-5.345 -14.084)" fill="#262626"/>
              <path id="Trazado_831970" data-name="Trazado 831970" d="M324.341,361.284h49.7l-21.587-19.906h-49.7Z" transform="translate(-6.111 -13.805)" fill="#262626"/>
            </g>
          </g>
          <path id="Trazado_831971" data-name="Trazado 831971" d="M349.54,267.284H98.294v-5.312H349.54Zm-250.266-.96H348.56v-3.393H99.274Z" transform="translate(-1.984 -10.593)" fill="#262626"/>
          <g id="Grupo_1087246" data-name="Grupo 1087246">
            <g id="Grupo_1087245" data-name="Grupo 1087245" clip-path="url(#clip-path-3)">
              <path id="Trazado_831972" data-name="Trazado 831972" d="M333.23,242.113H239.438a1.984,1.984,0,0,1-1.607-.725,2.012,2.012,0,0,1-.308-1.788l14.394-53.079a3.2,3.2,0,0,1,2.952-2.267h93.794a1.985,1.985,0,0,1,1.606.726,2.012,2.012,0,0,1,.309,1.788l-14.4,53.078a3.19,3.19,0,0,1-2.951,2.267m-78.361-56.9a2.238,2.238,0,0,0-2,1.555l-14.394,53.077a1.063,1.063,0,0,0,.137.956,1.02,1.02,0,0,0,.83.352H333.23a2.234,2.234,0,0,0,2-1.554l14.4-53.079a1.064,1.064,0,0,0-.138-.956,1.017,1.017,0,0,0-.829-.352Z" transform="translate(-4.793 -7.45)" fill="#262626"/>
              <path id="Trazado_831973" data-name="Trazado 831973" d="M335.241,241.653H241.448a1.429,1.429,0,0,1-1.441-1.911l14.4-53.078a2.717,2.717,0,0,1,2.478-1.91h93.793a1.429,1.429,0,0,1,1.441,1.91l-14.4,53.078a2.718,2.718,0,0,1-2.478,1.911" transform="translate(-4.843 -7.471)" fill="#fff"/>
              <rect id="Rectángulo_384015" data-name="Rectángulo 384015" width="15.847" height="24.42" transform="translate(284.42 209.763)" fill="#73716e"/>
              <path id="Trazado_831974" data-name="Trazado 831974" d="M335.23,242.113H241.438a1.984,1.984,0,0,1-1.607-.725,2.009,2.009,0,0,1-.308-1.788l14.394-53.079a3.2,3.2,0,0,1,2.952-2.267h93.793a1.985,1.985,0,0,1,1.607.726,2.012,2.012,0,0,1,.309,1.788l-14.4,53.078a3.19,3.19,0,0,1-2.951,2.267m-78.361-56.9a2.237,2.237,0,0,0-2,1.555l-14.394,53.077a1.063,1.063,0,0,0,.137.956,1.02,1.02,0,0,0,.83.352H335.23a2.235,2.235,0,0,0,2-1.554l14.4-53.079a1.064,1.064,0,0,0-.138-.956,1.017,1.017,0,0,0-.83-.352Z" transform="translate(-4.833 -7.45)" fill="#262626"/>
              <path id="Trazado_831975" data-name="Trazado 831975" d="M316.981,260.927H301.005L290.053,218.6h15.976Z" transform="translate(-5.855 -8.839)" fill="#fff"/>
              <path id="Trazado_831976" data-name="Trazado 831976" d="M317.6,261.386H300.612L289.41,218.1H306.4Zm-16.225-.96h14.965l-10.7-41.364H290.669Z" transform="translate(-5.842 -8.819)" fill="#262626"/>
              <path id="Trazado_831977" data-name="Trazado 831977" d="M290.053,218.6h0Z" transform="translate(-5.855 -8.839)" fill="#fff"/>
              <rect id="Rectángulo_384016" data-name="Rectángulo 384016" width="21.131" height="0.96" transform="translate(284.198 209.284)" fill="#262626"/>
              <rect id="Rectángulo_384017" data-name="Rectángulo 384017" width="6.593" height="0.96" transform="translate(254.868 179.806)" fill="#262626"/>
              <rect id="Rectángulo_384018" data-name="Rectángulo 384018" width="1.121" height="0.96" transform="translate(264.363 179.806)" fill="#262626"/>
              <path id="Trazado_831978" data-name="Trazado 831978" d="M0,0,.979,0l.46,117.148-.979,0Z" transform="translate(289.756 256.302) rotate(-10.942)" fill="#262626"/>
            </g>
          </g>
        </g>
        <rect id="Rectángulo_384020" data-name="Rectángulo 384020" width="119.401" height="0.96" transform="translate(40.95 370.209)" fill="#262626"/>
      </g>
      <rect id="Rectángulo_384021" data-name="Rectángulo 384021" width="3.25" height="0.96" transform="translate(142.829 348.189)" fill="#262626"/>
    </g>
  </g>
</svg>
